<svg width="256" height="204" viewBox="0 0 256 204" fill="none" xmlns="http://www.w3.org/2000/svg">
<path d="M17.6524 93.912C17.6524 94.616 18.1964 95.16 18.8684 95.16C19.5724 95.16 20.1164 94.616 20.1164 93.912V77.208L27.2524 87.704C27.5404 88.12 27.8924 88.344 28.3404 88.344C28.7884 88.344 29.1084 88.12 29.3964 87.704L36.5644 77.176V93.88C36.5644 94.552 37.1404 95.16 37.8444 95.16C38.5164 95.16 39.0924 94.584 39.0924 93.88V73.752C39.0924 73.08 38.5164 72.504 37.8444 72.504H37.5564C37.0444 72.504 36.6284 72.76 36.3724 73.176L28.3724 85.208L20.3724 73.176C20.1164 72.792 19.7324 72.504 19.1884 72.504H18.9004C18.2284 72.504 17.6524 73.08 17.6524 73.752V93.912ZM52.5696 95.384C57.5616 95.384 61.2416 91.416 61.2416 86.744V86.68C61.2416 82.008 57.5936 78.104 52.6336 78.104C47.6416 78.104 43.9936 82.072 43.9936 86.744V86.808C43.9936 91.48 47.6096 95.384 52.5696 95.384ZM52.6336 93.176C49.1456 93.176 46.5216 90.296 46.5216 86.744V86.68C46.5216 83.192 48.9856 80.28 52.5696 80.28C56.0576 80.28 58.7136 83.192 58.7136 86.744V86.808C58.7136 90.296 56.2176 93.176 52.6336 93.176ZM71.2411 95.288C72.2011 95.288 72.9691 95.128 73.6731 94.84C74.0891 94.68 74.3771 94.328 74.3771 93.88C74.3771 93.304 73.8971 92.824 73.3211 92.824C73.1291 92.824 72.6811 93.048 71.8171 93.048C70.1531 93.048 69.0331 92.312 69.0331 90.296V80.632H73.3211C73.9291 80.632 74.4411 80.152 74.4411 79.544C74.4411 78.968 73.9291 78.456 73.3211 78.456H69.0331V74.552C69.0331 73.88 68.4571 73.304 67.7851 73.304C67.0811 73.304 66.5691 73.88 66.5691 74.552V78.456H65.2251C64.6491 78.456 64.1371 78.936 64.1371 79.544C64.1371 80.12 64.6491 80.632 65.2251 80.632H66.5691V90.616C66.5691 93.976 68.5851 95.288 71.2411 95.288ZM85.7259 95.384C90.7179 95.384 94.3979 91.416 94.3979 86.744V86.68C94.3979 82.008 90.7499 78.104 85.7899 78.104C80.7979 78.104 77.1499 82.072 77.1499 86.744V86.808C77.1499 91.48 80.7659 95.384 85.7259 95.384ZM85.7899 93.176C82.3019 93.176 79.6779 90.296 79.6779 86.744V86.68C79.6779 83.192 82.1419 80.28 85.7259 80.28C89.2139 80.28 91.8699 83.192 91.8699 86.744V86.808C91.8699 90.296 89.3739 93.176 85.7899 93.176ZM98.8614 93.912C98.8614 94.616 99.4054 95.16 100.109 95.16C100.813 95.16 101.325 94.584 101.325 93.912V88.28C101.325 83.512 103.949 81.112 107.149 80.728C107.789 80.632 108.237 80.152 108.237 79.48C108.237 78.776 107.757 78.232 107.021 78.232C104.941 78.232 102.541 79.896 101.325 82.648V79.544C101.325 78.84 100.781 78.296 100.077 78.296C99.4054 78.296 98.8614 78.872 98.8614 79.544V93.912ZM119.862 94.2L126.102 80.12C126.166 79.96 126.23 79.736 126.23 79.512C126.23 78.84 125.686 78.296 125.014 78.296C124.374 78.296 124.022 78.712 123.862 79.192L118.422 92.184L113.078 79.256C112.886 78.712 112.534 78.296 111.83 78.296C111.126 78.296 110.582 78.872 110.582 79.512C110.582 79.736 110.678 79.96 110.742 80.184L116.95 94.2C117.238 94.84 117.686 95.256 118.358 95.256H118.486C119.158 95.256 119.574 94.84 119.862 94.2ZM134.758 95.352C137.67 95.352 139.59 94.008 140.742 92.504V94.008C140.742 94.648 141.222 95.16 141.926 95.16C142.598 95.16 143.11 94.648 143.11 93.944V84.888C143.11 82.776 142.534 81.176 141.414 80.056C140.198 78.84 138.406 78.232 136.07 78.232C133.958 78.232 132.294 78.648 130.662 79.352C130.342 79.48 129.99 79.864 129.99 80.376C129.99 80.952 130.502 81.432 131.078 81.432C131.206 81.432 131.366 81.4 131.526 81.336C132.742 80.792 134.15 80.408 135.814 80.408C138.918 80.408 140.742 81.944 140.742 84.92V85.496C139.27 85.08 137.766 84.792 135.654 84.792C131.462 84.792 128.582 86.648 128.582 90.136V90.2C128.582 93.592 131.686 95.352 134.758 95.352ZM135.238 93.4C132.998 93.4 131.078 92.184 131.078 90.104V90.04C131.078 87.96 132.806 86.616 135.91 86.616C137.926 86.616 139.558 86.968 140.774 87.32V88.92C140.774 91.544 138.278 93.4 135.238 93.4ZM139.174 72.76C138.342 72.76 137.67 73.368 137.67 74.2V74.68C137.67 75.512 138.342 76.12 139.174 76.12C140.006 76.12 140.678 75.512 140.678 74.68V74.2C140.678 73.368 140.006 72.76 139.174 72.76ZM133.478 72.76C132.646 72.76 131.974 73.368 131.974 74.2V74.68C131.974 75.512 132.646 76.12 133.478 76.12C134.31 76.12 134.982 75.512 134.982 74.68V74.2C134.982 73.368 134.31 72.76 133.478 72.76ZM155.689 100.184C158.313 100.184 160.521 99.448 161.993 97.976C163.337 96.632 164.105 94.68 164.105 92.12V79.544C164.105 78.872 163.561 78.296 162.857 78.296C162.153 78.296 161.641 78.872 161.641 79.544V81.432C160.297 79.64 158.281 78.104 155.177 78.104C151.241 78.104 147.401 81.08 147.401 85.912V85.976C147.401 90.744 151.209 93.72 155.177 93.72C158.217 93.72 160.233 92.152 161.673 90.232V92.184C161.673 96.056 159.305 98.072 155.657 98.072C153.513 98.072 151.529 97.432 149.801 96.28C149.641 96.184 149.481 96.12 149.257 96.12C148.681 96.12 148.137 96.664 148.137 97.208C148.137 97.656 148.393 98.04 148.777 98.232C150.857 99.512 153.161 100.184 155.689 100.184ZM155.657 91.544C152.585 91.544 149.929 89.24 149.929 85.912V85.848C149.929 82.456 152.521 80.28 155.657 80.28C158.793 80.28 161.737 82.488 161.737 85.88V85.944C161.737 89.272 158.793 91.544 155.657 91.544ZM171.083 85.816C171.403 82.584 173.579 80.184 176.459 80.184C179.755 80.184 181.483 82.808 181.739 85.816H171.083ZM183.083 92.888C183.339 92.664 183.467 92.376 183.467 92.088C183.467 91.512 182.987 91.032 182.379 91.032C182.091 91.032 181.867 91.16 181.675 91.32C180.459 92.44 178.955 93.24 176.907 93.24C173.963 93.24 171.435 91.224 171.083 87.64H183.051C183.659 87.64 184.203 87.16 184.203 86.488C184.203 82.104 181.419 78.104 176.523 78.104C171.947 78.104 168.587 81.944 168.587 86.712V86.776C168.587 91.896 172.299 95.384 176.843 95.384C179.659 95.384 181.515 94.392 183.083 92.888ZM188.549 93.912C188.549 94.616 189.093 95.16 189.797 95.16C190.501 95.16 191.013 94.616 191.013 93.912V85.528C191.013 82.424 193.125 80.344 195.973 80.344C198.885 80.344 200.549 82.264 200.549 85.336V93.912C200.549 94.616 201.093 95.16 201.797 95.16C202.469 95.16 203.013 94.616 203.013 93.912V84.728C203.013 80.792 200.677 78.104 196.677 78.104C193.829 78.104 192.101 79.544 191.013 81.336V79.544C191.013 78.84 190.469 78.296 189.765 78.296C189.093 78.296 188.549 78.872 188.549 79.544V93.912Z" fill="#EA9C00"/>
<path d="M90.7959 43.72C90.7959 43.896 90.9399 44.04 91.1079 44.04C91.2839 44.04 91.4279 43.896 91.4279 43.72V42.504L92.6359 41.296L94.7239 43.896C94.7799 43.976 94.8599 44.04 94.9799 44.04C95.1559 44.04 95.2999 43.888 95.2999 43.72C95.2999 43.624 95.2679 43.56 95.2119 43.488L93.0839 40.864L95.0679 38.896C95.1319 38.832 95.1719 38.76 95.1719 38.672C95.1719 38.512 95.0359 38.36 94.8679 38.36C94.7639 38.36 94.6919 38.408 94.6199 38.472L91.4279 41.744V38.68C91.4279 38.504 91.2839 38.36 91.1079 38.36C90.9399 38.36 90.7959 38.504 90.7959 38.68V43.72ZM97.5567 44.088C98.2847 44.088 98.7647 43.752 99.0527 43.376V43.752C99.0527 43.912 99.1727 44.04 99.3487 44.04C99.5167 44.04 99.6447 43.912 99.6447 43.736V41.472C99.6447 40.944 99.5007 40.544 99.2207 40.264C98.9167 39.96 98.4687 39.808 97.8847 39.808C97.3567 39.808 96.9407 39.912 96.5327 40.088C96.4527 40.12 96.3647 40.216 96.3647 40.344C96.3647 40.488 96.4927 40.608 96.6367 40.608C96.6687 40.608 96.7087 40.6 96.7487 40.584C97.0527 40.448 97.4047 40.352 97.8207 40.352C98.5967 40.352 99.0527 40.736 99.0527 41.48V41.624C98.6847 41.52 98.3087 41.448 97.7807 41.448C96.7327 41.448 96.0127 41.912 96.0127 42.784V42.8C96.0127 43.648 96.7887 44.088 97.5567 44.088ZM97.6767 43.6C97.1167 43.6 96.6367 43.296 96.6367 42.776V42.76C96.6367 42.24 97.0687 41.904 97.8447 41.904C98.3487 41.904 98.7567 41.992 99.0607 42.08V42.48C99.0607 43.136 98.4367 43.6 97.6767 43.6ZM100.958 43.728C100.958 43.904 101.094 44.04 101.27 44.04C101.446 44.04 101.574 43.896 101.574 43.728V42.32C101.574 41.128 102.23 40.528 103.03 40.432C103.19 40.408 103.302 40.288 103.302 40.12C103.302 39.944 103.182 39.808 102.998 39.808C102.478 39.808 101.878 40.224 101.574 40.912V40.136C101.574 39.96 101.438 39.824 101.262 39.824C101.094 39.824 100.958 39.968 100.958 40.136V43.728ZM104.256 43.728C104.256 43.904 104.392 44.04 104.568 44.04C104.744 44.04 104.872 43.904 104.872 43.728V38.432C104.872 38.264 104.736 38.12 104.56 38.12C104.392 38.12 104.256 38.264 104.256 38.432V43.728ZM107.533 44.088C108.261 44.088 108.741 43.752 109.029 43.376V43.752C109.029 43.912 109.149 44.04 109.325 44.04C109.493 44.04 109.621 43.912 109.621 43.736V41.472C109.621 40.944 109.477 40.544 109.197 40.264C108.893 39.96 108.445 39.808 107.861 39.808C107.333 39.808 106.917 39.912 106.509 40.088C106.429 40.12 106.341 40.216 106.341 40.344C106.341 40.488 106.469 40.608 106.613 40.608C106.645 40.608 106.685 40.6 106.725 40.584C107.029 40.448 107.381 40.352 107.797 40.352C108.573 40.352 109.029 40.736 109.029 41.48V41.624C108.661 41.52 108.285 41.448 107.757 41.448C106.709 41.448 105.989 41.912 105.989 42.784V42.8C105.989 43.648 106.765 44.088 107.533 44.088ZM107.653 43.6C107.093 43.6 106.613 43.296 106.613 42.776V42.76C106.613 42.24 107.045 41.904 107.821 41.904C108.325 41.904 108.733 41.992 109.037 42.08V42.48C109.037 43.136 108.413 43.6 107.653 43.6ZM112.302 44.08C113.126 44.08 113.774 43.624 113.774 42.84V42.824C113.774 42.08 113.086 41.832 112.446 41.64C111.894 41.472 111.382 41.32 111.382 40.928V40.912C111.382 40.568 111.694 40.312 112.182 40.312C112.534 40.312 112.91 40.432 113.262 40.632C113.294 40.648 113.342 40.664 113.398 40.664C113.55 40.664 113.67 40.544 113.67 40.4C113.67 40.28 113.598 40.192 113.518 40.144C113.118 39.928 112.638 39.792 112.198 39.792C111.382 39.792 110.79 40.264 110.79 40.976V40.992C110.79 41.752 111.51 41.976 112.158 42.16C112.702 42.312 113.19 42.472 113.19 42.888V42.904C113.19 43.304 112.83 43.56 112.334 43.56C111.886 43.56 111.446 43.408 111.022 43.12C110.982 43.088 110.926 43.072 110.87 43.072C110.718 43.072 110.598 43.192 110.598 43.336C110.598 43.44 110.654 43.52 110.71 43.56C111.158 43.88 111.758 44.08 112.302 44.08ZM116.224 44.072C116.464 44.072 116.656 44.032 116.832 43.96C116.936 43.92 117.008 43.832 117.008 43.72C117.008 43.576 116.888 43.456 116.744 43.456C116.696 43.456 116.584 43.512 116.368 43.512C115.952 43.512 115.672 43.328 115.672 42.824V40.408H116.744C116.896 40.408 117.024 40.288 117.024 40.136C117.024 39.992 116.896 39.864 116.744 39.864H115.672V38.888C115.672 38.72 115.528 38.576 115.36 38.576C115.184 38.576 115.056 38.72 115.056 38.888V39.864H114.72C114.576 39.864 114.448 39.984 114.448 40.136C114.448 40.28 114.576 40.408 114.72 40.408H115.056V42.904C115.056 43.744 115.56 44.072 116.224 44.072ZM119.307 44.088C120.035 44.088 120.515 43.752 120.803 43.376V43.752C120.803 43.912 120.923 44.04 121.099 44.04C121.267 44.04 121.395 43.912 121.395 43.736V41.472C121.395 40.944 121.251 40.544 120.971 40.264C120.667 39.96 120.219 39.808 119.635 39.808C119.107 39.808 118.691 39.912 118.283 40.088C118.203 40.12 118.115 40.216 118.115 40.344C118.115 40.488 118.243 40.608 118.387 40.608C118.419 40.608 118.459 40.6 118.499 40.584C118.803 40.448 119.155 40.352 119.571 40.352C120.347 40.352 120.803 40.736 120.803 41.48V41.624C120.435 41.52 120.059 41.448 119.531 41.448C118.483 41.448 117.763 41.912 117.763 42.784V42.8C117.763 43.648 118.539 44.088 119.307 44.088ZM119.427 43.6C118.867 43.6 118.387 43.296 118.387 42.776V42.76C118.387 42.24 118.819 41.904 119.595 41.904C120.099 41.904 120.507 41.992 120.811 42.08V42.48C120.811 43.136 120.187 43.6 119.427 43.6ZM126.644 38.432C126.644 38.256 126.508 38.12 126.332 38.12C126.156 38.12 126.028 38.256 126.028 38.432V40.656C125.708 40.192 125.212 39.776 124.444 39.776C123.452 39.776 122.468 40.576 122.468 41.928V41.944C122.468 43.304 123.452 44.088 124.444 44.088C125.204 44.088 125.692 43.664 126.028 43.168V43.728C126.028 43.904 126.164 44.04 126.34 44.04C126.508 44.04 126.644 43.904 126.644 43.728V38.432ZM124.556 40.328C125.324 40.328 126.052 40.968 126.052 41.92V41.936C126.052 42.888 125.324 43.536 124.556 43.536C123.78 43.536 123.1 42.912 123.1 41.936V41.92C123.1 40.92 123.756 40.328 124.556 40.328ZM128.388 41.704C128.468 40.896 129.012 40.296 129.732 40.296C130.556 40.296 130.988 40.952 131.052 41.704H128.388ZM131.388 43.472C131.452 43.416 131.484 43.344 131.484 43.272C131.484 43.128 131.364 43.008 131.212 43.008C131.14 43.008 131.084 43.04 131.036 43.08C130.732 43.36 130.356 43.56 129.844 43.56C129.108 43.56 128.476 43.056 128.388 42.16H131.38C131.532 42.16 131.668 42.04 131.668 41.872C131.668 40.776 130.972 39.776 129.748 39.776C128.604 39.776 127.764 40.736 127.764 41.928V41.944C127.764 43.224 128.692 44.096 129.828 44.096C130.532 44.096 130.996 43.848 131.388 43.472ZM132.754 43.728C132.754 43.904 132.89 44.04 133.066 44.04C133.242 44.04 133.37 43.904 133.37 43.728V41.632C133.37 40.856 133.898 40.336 134.61 40.336C135.338 40.336 135.754 40.816 135.754 41.584V43.728C135.754 43.904 135.89 44.04 136.066 44.04C136.234 44.04 136.37 43.904 136.37 43.728V41.432C136.37 40.448 135.786 39.776 134.786 39.776C134.074 39.776 133.642 40.136 133.37 40.584V40.136C133.37 39.96 133.234 39.824 133.058 39.824C132.89 39.824 132.754 39.968 132.754 40.136V43.728Z" fill="#FFCE6C"/>
<path d="M217.192 197.132C217.192 195.292 216.552 194.076 215.544 192.972C215.448 192.86 215.288 192.764 215.096 192.764C214.776 192.764 214.488 193.052 214.488 193.372C214.488 193.532 214.568 193.676 214.664 193.772C215.544 194.732 216.024 195.708 216.024 197.1C216.024 199.564 213.992 201.436 211.4 201.436L211.368 201.436C208.792 201.436 206.776 199.58 206.776 197.1C206.776 195.724 207.288 194.748 208.056 193.884C208.12 193.788 208.2 193.644 208.2 193.468C208.2 193.132 207.912 192.828 207.576 192.828C207.352 192.828 207.176 192.956 207.064 193.084C206.2 194.124 205.608 195.276 205.608 197.084C205.608 200.38 208.232 202.748 211.4 202.748L211.432 202.748C214.648 202.748 217.192 200.364 217.192 197.132ZM212.408 190.068C210.792 189.908 209.592 188.82 209.592 187.38C209.592 185.732 210.904 184.868 212.408 184.74L212.408 190.068ZM215.944 184.068C215.832 183.94 215.688 183.876 215.544 183.876C215.256 183.876 215.016 184.116 215.016 184.42C215.016 184.564 215.08 184.676 215.16 184.772C215.72 185.38 216.12 186.132 216.12 187.156C216.12 188.628 215.112 189.892 213.32 190.068L213.32 184.084C213.32 183.78 213.08 183.508 212.744 183.508C210.552 183.508 208.552 184.9 208.552 187.348C208.552 189.636 210.472 191.316 212.856 191.316L212.888 191.316C215.448 191.316 217.192 189.46 217.192 187.188C217.192 185.78 216.696 184.852 215.944 184.068ZM216.456 181.335C216.808 181.335 217.08 181.063 217.08 180.711C217.08 180.359 216.808 180.103 216.456 180.103L212.264 180.103C210.712 180.103 209.672 179.047 209.672 177.623C209.672 176.167 210.632 175.335 212.168 175.335L216.456 175.335C216.808 175.335 217.08 175.063 217.08 174.711C217.08 174.375 216.808 174.103 216.456 174.103L211.864 174.103C209.896 174.103 208.552 175.271 208.552 177.271C208.552 178.695 209.272 179.559 210.168 180.103L209.272 180.103C208.92 180.103 208.648 180.375 208.648 180.727C208.648 181.063 208.936 181.335 209.272 181.335L216.456 181.335ZM217.144 168.708C217.144 168.228 217.064 167.844 216.92 167.492C216.84 167.284 216.664 167.14 216.44 167.14C216.152 167.14 215.912 167.38 215.912 167.668C215.912 167.764 216.024 167.988 216.024 168.42C216.024 169.252 215.656 169.812 214.648 169.812L209.816 169.812L209.816 167.668C209.816 167.364 209.576 167.108 209.272 167.108C208.984 167.108 208.728 167.364 208.728 167.668L208.728 169.812L206.776 169.812C206.44 169.812 206.152 170.1 206.152 170.436C206.152 170.788 206.44 171.044 206.776 171.044L208.728 171.044L208.728 171.716C208.728 172.004 208.968 172.26 209.272 172.26C209.56 172.26 209.816 172.004 209.816 171.716L209.816 171.044L214.808 171.044C216.488 171.044 217.144 170.036 217.144 168.708ZM216.456 165.007C216.808 165.007 217.08 164.735 217.08 164.383C217.08 164.031 216.792 163.775 216.456 163.775L213.64 163.775C211.256 163.775 210.056 162.463 209.864 160.863C209.816 160.543 209.576 160.319 209.24 160.319C208.888 160.319 208.616 160.559 208.616 160.927C208.616 161.967 209.448 163.167 210.824 163.775L209.272 163.775C208.92 163.775 208.648 164.047 208.648 164.399C208.648 164.735 208.936 165.007 209.272 165.007L216.456 165.007ZM217.176 156.465C217.176 155.009 216.504 154.049 215.752 153.473L216.504 153.473C216.824 153.473 217.08 153.233 217.08 152.881C217.08 152.545 216.824 152.289 216.472 152.289L211.944 152.289C210.888 152.289 210.088 152.577 209.528 153.137C208.92 153.745 208.616 154.641 208.616 155.809C208.616 156.865 208.824 157.697 209.176 158.513C209.24 158.673 209.432 158.849 209.688 158.849C209.976 158.849 210.216 158.593 210.216 158.305C210.216 158.241 210.2 158.161 210.168 158.081C209.896 157.473 209.704 156.769 209.704 155.937C209.704 154.385 210.472 153.473 211.96 153.473L212.248 153.473C212.04 154.209 211.896 154.961 211.896 156.017C211.896 158.113 212.824 159.553 214.568 159.553L214.6 159.553C216.296 159.553 217.176 158.001 217.176 156.465ZM216.2 156.225C216.2 157.345 215.592 158.305 214.552 158.305L214.52 158.305C213.48 158.305 212.808 157.441 212.808 155.889C212.808 154.881 212.984 154.065 213.16 153.457L213.96 153.457C215.272 153.457 216.2 154.705 216.2 156.225ZM216.456 149.551C216.808 149.551 217.08 149.279 217.08 148.927C217.08 148.575 216.808 148.319 216.456 148.319L205.864 148.319C205.528 148.319 205.24 148.591 205.24 148.943C205.24 149.279 205.528 149.551 205.864 149.551L216.456 149.551ZM217.16 142.724C217.16 141.076 216.248 139.78 214.68 139.78L214.648 139.78C213.16 139.78 212.664 141.156 212.28 142.436C211.944 143.54 211.64 144.564 210.856 144.564L210.824 144.564C210.136 144.564 209.624 143.94 209.624 142.964C209.624 142.26 209.864 141.508 210.264 140.804C210.296 140.74 210.328 140.644 210.328 140.532C210.328 140.228 210.088 139.988 209.8 139.988C209.56 139.988 209.384 140.132 209.288 140.292C208.856 141.092 208.584 142.052 208.584 142.932C208.584 144.564 209.528 145.748 210.952 145.748L210.984 145.748C212.504 145.748 212.952 144.308 213.32 143.012C213.624 141.924 213.944 140.948 214.776 140.948L214.808 140.948C215.608 140.948 216.12 141.668 216.12 142.66C216.12 143.556 215.816 144.436 215.24 145.284C215.176 145.364 215.144 145.476 215.144 145.588C215.144 145.892 215.384 146.132 215.672 146.132C215.88 146.132 216.04 146.02 216.12 145.908C216.76 145.012 217.16 143.812 217.16 142.724ZM217.144 134.879C217.144 134.399 217.064 134.015 216.92 133.663C216.84 133.455 216.664 133.311 216.44 133.311C216.152 133.311 215.912 133.551 215.912 133.839C215.912 133.935 216.024 134.159 216.024 134.591C216.024 135.423 215.656 135.983 214.648 135.983L209.816 135.983L209.816 133.839C209.816 133.535 209.576 133.279 209.272 133.279C208.984 133.279 208.728 133.535 208.728 133.839L208.728 135.983L206.776 135.983C206.44 135.983 206.152 136.271 206.152 136.607C206.152 136.959 206.44 137.215 206.776 137.215L208.728 137.215L208.728 137.887C208.728 138.175 208.968 138.431 209.272 138.431C209.56 138.431 209.816 138.175 209.816 137.887L209.816 137.215L214.808 137.215C216.488 137.215 217.144 136.207 217.144 134.879ZM217.176 128.715C217.176 127.259 216.504 126.299 215.752 125.723L216.504 125.723C216.824 125.723 217.08 125.483 217.08 125.131C217.08 124.795 216.824 124.539 216.472 124.539L211.944 124.539C210.888 124.539 210.088 124.827 209.528 125.387C208.92 125.995 208.616 126.891 208.616 128.059C208.616 129.115 208.824 129.947 209.176 130.763C209.24 130.923 209.432 131.099 209.688 131.099C209.976 131.099 210.216 130.843 210.216 130.555C210.216 130.491 210.2 130.411 210.168 130.331C209.896 129.723 209.704 129.019 209.704 128.187C209.704 126.635 210.472 125.723 211.96 125.723L212.248 125.723C212.04 126.459 211.896 127.211 211.896 128.267C211.896 130.363 212.824 131.803 214.568 131.803L214.6 131.803C216.296 131.803 217.176 130.251 217.176 128.715ZM216.2 128.475C216.2 129.595 215.592 130.555 214.552 130.555L214.52 130.555C213.48 130.555 212.808 129.691 212.808 128.139C212.808 127.131 212.984 126.315 213.16 125.707L213.96 125.707C215.272 125.707 216.2 126.955 216.2 128.475ZM217.144 119.223C217.144 118.743 217.064 118.359 216.92 118.007C216.84 117.799 216.664 117.655 216.44 117.655C216.152 117.655 215.912 117.895 215.912 118.183C215.912 118.279 216.024 118.503 216.024 118.935C216.024 119.767 215.656 120.327 214.648 120.327L209.816 120.327L209.816 118.183C209.816 117.879 209.576 117.623 209.272 117.623C208.984 117.623 208.728 117.879 208.728 118.183L208.728 120.327L206.776 120.327C206.44 120.327 206.152 120.615 206.152 120.951C206.152 121.303 206.44 121.559 206.776 121.559L208.728 121.559L208.728 122.231C208.728 122.519 208.968 122.775 209.272 122.775C209.56 122.775 209.816 122.519 209.816 122.231L209.816 121.559L214.808 121.559C216.488 121.559 217.144 120.551 217.144 119.223ZM206.344 115.522C206.728 115.522 207 115.202 207 114.802C207 114.386 206.728 114.066 206.344 114.066L206.136 114.066C205.736 114.066 205.48 114.386 205.48 114.802C205.48 115.202 205.736 115.522 206.136 115.522L206.344 115.522ZM216.456 115.41C216.808 115.41 217.08 115.138 217.08 114.786C217.08 114.434 216.808 114.178 216.456 114.178L209.272 114.178C208.92 114.178 208.648 114.45 208.648 114.802C208.648 115.138 208.936 115.41 209.272 115.41L216.456 115.41ZM217.192 107.543C217.192 105.047 215.208 103.207 212.872 103.207L212.84 103.207C210.504 103.207 208.552 105.031 208.552 107.511C208.552 110.007 210.536 111.831 212.872 111.831L212.904 111.831C215.24 111.831 217.192 110.023 217.192 107.543ZM216.088 107.511C216.088 109.255 214.648 110.567 212.872 110.567L212.84 110.567C211.096 110.567 209.64 109.335 209.64 107.543C209.64 105.799 211.096 104.471 212.872 104.471L212.904 104.471C214.648 104.471 216.088 105.719 216.088 107.511ZM216.456 100.976C216.808 100.976 217.08 100.704 217.08 100.352C217.08 99.9996 216.808 99.7436 216.456 99.7436L212.264 99.7436C210.712 99.7436 209.672 98.6876 209.672 97.2636C209.672 95.8076 210.632 94.9756 212.168 94.9756L216.456 94.9756C216.808 94.9756 217.08 94.7036 217.08 94.3516C217.08 94.0156 216.808 93.7436 216.456 93.7436L211.864 93.7436C209.896 93.7436 208.552 94.9116 208.552 96.9116C208.552 98.3356 209.272 99.1996 210.168 99.7436L209.272 99.7436C208.92 99.7436 208.648 100.016 208.648 100.368C208.648 100.704 208.936 100.976 209.272 100.976L216.456 100.976ZM212.408 90.3802C210.792 90.2202 209.592 89.1322 209.592 87.6922C209.592 86.0442 210.904 85.1802 212.408 85.0522L212.408 90.3802ZM215.944 84.3802C215.832 84.2522 215.688 84.1882 215.544 84.1882C215.256 84.1882 215.016 84.4282 215.016 84.7322C215.016 84.8762 215.08 84.9882 215.16 85.0842C215.72 85.6922 216.12 86.4442 216.12 87.4682C216.12 88.9402 215.112 90.2042 213.32 90.3802L213.32 84.3962C213.32 84.0922 213.08 83.8202 212.744 83.8202C210.552 83.8202 208.552 85.2122 208.552 87.6602C208.552 89.9482 210.472 91.6282 212.856 91.6282L212.888 91.6282C215.448 91.6282 217.192 89.7722 217.192 87.5002C217.192 86.0922 216.696 85.1642 215.944 84.3802ZM216.456 81.6474C216.808 81.6474 217.08 81.3754 217.08 81.0234C217.08 80.6714 216.808 80.4154 216.456 80.4154L212.264 80.4154C210.712 80.4154 209.672 79.3594 209.672 77.9354C209.672 76.4794 210.632 75.6474 212.168 75.6474L216.456 75.6474C216.808 75.6474 217.08 75.3754 217.08 75.0234C217.08 74.6874 216.808 74.4154 216.456 74.4154L211.864 74.4154C209.896 74.4154 208.552 75.5834 208.552 77.5834C208.552 79.0074 209.272 79.8714 210.168 80.4154L209.272 80.4154C208.92 80.4154 208.648 80.6874 208.648 81.0394C208.648 81.3754 208.936 81.6474 209.272 81.6474L216.456 81.6474Z" fill="#FFBB33"/>
<path d="M15.3377 65.65C15.3377 65.87 15.5177 66.05 15.7277 66.05C15.9477 66.05 16.1277 65.87 16.1277 65.65V64.13L17.6377 62.62L20.2477 65.87C20.3177 65.97 20.4177 66.05 20.5677 66.05C20.7877 66.05 20.9677 65.86 20.9677 65.65C20.9677 65.53 20.9277 65.45 20.8577 65.36L18.1977 62.08L20.6777 59.62C20.7577 59.54 20.8077 59.45 20.8077 59.34C20.8077 59.14 20.6377 58.95 20.4277 58.95C20.2977 58.95 20.2077 59.01 20.1177 59.09L16.1277 63.18V59.35C16.1277 59.13 15.9477 58.95 15.7277 58.95C15.5177 58.95 15.3377 59.13 15.3377 59.35V65.65ZM24.4036 66.12C25.9636 66.12 27.1136 64.88 27.1136 63.42V63.4C27.1136 61.94 25.9736 60.72 24.4236 60.72C22.8636 60.72 21.7236 61.96 21.7236 63.42V63.44C21.7236 64.9 22.8536 66.12 24.4036 66.12ZM24.4236 65.43C23.3336 65.43 22.5136 64.53 22.5136 63.42V63.4C22.5136 62.31 23.2836 61.4 24.4036 61.4C25.4936 61.4 26.3236 62.31 26.3236 63.42V63.44C26.3236 64.53 25.5436 65.43 24.4236 65.43ZM28.5084 65.66C28.5084 65.88 28.6784 66.05 28.8984 66.05C29.1184 66.05 29.2784 65.87 29.2784 65.66V63.9C29.2784 62.41 30.0984 61.66 31.0984 61.54C31.2984 61.51 31.4384 61.36 31.4384 61.15C31.4384 60.93 31.2884 60.76 31.0584 60.76C30.4084 60.76 29.6584 61.28 29.2784 62.14V61.17C29.2784 60.95 29.1084 60.78 28.8884 60.78C28.6784 60.78 28.5084 60.96 28.5084 61.17V65.66ZM34.2712 66.1C35.3012 66.1 36.1112 65.53 36.1112 64.55V64.53C36.1112 63.6 35.2512 63.29 34.4512 63.05C33.7612 62.84 33.1212 62.65 33.1212 62.16V62.14C33.1212 61.71 33.5112 61.39 34.1212 61.39C34.5612 61.39 35.0312 61.54 35.4712 61.79C35.5112 61.81 35.5712 61.83 35.6412 61.83C35.8312 61.83 35.9812 61.68 35.9812 61.5C35.9812 61.35 35.8912 61.24 35.7912 61.18C35.2912 60.91 34.6912 60.74 34.1412 60.74C33.1212 60.74 32.3812 61.33 32.3812 62.22V62.24C32.3812 63.19 33.2812 63.47 34.0912 63.7C34.7712 63.89 35.3812 64.09 35.3812 64.61V64.63C35.3812 65.13 34.9312 65.45 34.3112 65.45C33.7512 65.45 33.2012 65.26 32.6712 64.9C32.6212 64.86 32.5512 64.84 32.4812 64.84C32.2912 64.84 32.1412 64.99 32.1412 65.17C32.1412 65.3 32.2112 65.4 32.2812 65.45C32.8412 65.85 33.5912 66.1 34.2712 66.1ZM39.8856 65.75L41.8356 61.35C41.8556 61.3 41.8756 61.23 41.8756 61.16C41.8756 60.95 41.7056 60.78 41.4956 60.78C41.2956 60.78 41.1856 60.91 41.1356 61.06L39.4356 65.12L37.7656 61.08C37.7056 60.91 37.5956 60.78 37.3756 60.78C37.1556 60.78 36.9856 60.96 36.9856 61.16C36.9856 61.23 37.0156 61.3 37.0356 61.37L38.9756 65.75C39.0656 65.95 39.2056 66.08 39.4156 66.08H39.4556C39.6656 66.08 39.7956 65.95 39.8856 65.75ZM44.5406 66.11C45.4506 66.11 46.0506 65.69 46.4106 65.22V65.69C46.4106 65.89 46.5606 66.05 46.7806 66.05C46.9906 66.05 47.1506 65.89 47.1506 65.67V62.84C47.1506 62.18 46.9706 61.68 46.6206 61.33C46.2406 60.95 45.6806 60.76 44.9506 60.76C44.2906 60.76 43.7706 60.89 43.2606 61.11C43.1606 61.15 43.0506 61.27 43.0506 61.43C43.0506 61.61 43.2106 61.76 43.3906 61.76C43.4306 61.76 43.4806 61.75 43.5306 61.73C43.9106 61.56 44.3506 61.44 44.8706 61.44C45.8406 61.44 46.4106 61.92 46.4106 62.85V63.03C45.9506 62.9 45.4806 62.81 44.8206 62.81C43.5106 62.81 42.6106 63.39 42.6106 64.48V64.5C42.6106 65.56 43.5806 66.11 44.5406 66.11ZM44.6906 65.5C43.9906 65.5 43.3906 65.12 43.3906 64.47V64.45C43.3906 63.8 43.9306 63.38 44.9006 63.38C45.5306 63.38 46.0406 63.49 46.4206 63.6V64.1C46.4206 64.92 45.6406 65.5 44.6906 65.5ZM45.9206 59.05C45.6606 59.05 45.4506 59.24 45.4506 59.5V59.65C45.4506 59.91 45.6606 60.1 45.9206 60.1C46.1806 60.1 46.3906 59.91 46.3906 59.65V59.5C46.3906 59.24 46.1806 59.05 45.9206 59.05ZM44.1406 59.05C43.8806 59.05 43.6706 59.24 43.6706 59.5V59.65C43.6706 59.91 43.8806 60.1 44.1406 60.1C44.4006 60.1 44.6106 59.91 44.6106 59.65V59.5C44.6106 59.24 44.4006 59.05 44.1406 59.05ZM51.0816 67.62C51.9016 67.62 52.5916 67.39 53.0516 66.93C53.4716 66.51 53.7116 65.9 53.7116 65.1V61.17C53.7116 60.96 53.5416 60.78 53.3216 60.78C53.1016 60.78 52.9416 60.96 52.9416 61.17V61.76C52.5216 61.2 51.8916 60.72 50.9216 60.72C49.6916 60.72 48.4916 61.65 48.4916 63.16V63.18C48.4916 64.67 49.6816 65.6 50.9216 65.6C51.8716 65.6 52.5016 65.11 52.9516 64.51V65.12C52.9516 66.33 52.2116 66.96 51.0716 66.96C50.4016 66.96 49.7816 66.76 49.2416 66.4C49.1916 66.37 49.1416 66.35 49.0716 66.35C48.8916 66.35 48.7216 66.52 48.7216 66.69C48.7216 66.83 48.8016 66.95 48.9216 67.01C49.5716 67.41 50.2916 67.62 51.0816 67.62ZM51.0716 64.92C50.1116 64.92 49.2816 64.2 49.2816 63.16V63.14C49.2816 62.08 50.0916 61.4 51.0716 61.4C52.0516 61.4 52.9716 62.09 52.9716 63.15V63.17C52.9716 64.21 52.0516 64.92 51.0716 64.92ZM55.8923 63.13C55.9923 62.12 56.6723 61.37 57.5723 61.37C58.6023 61.37 59.1423 62.19 59.2223 63.13H55.8923ZM59.6423 65.34C59.7223 65.27 59.7623 65.18 59.7623 65.09C59.7623 64.91 59.6123 64.76 59.4223 64.76C59.3323 64.76 59.2623 64.8 59.2023 64.85C58.8223 65.2 58.3523 65.45 57.7123 65.45C56.7923 65.45 56.0023 64.82 55.8923 63.7H59.6323C59.8223 63.7 59.9923 63.55 59.9923 63.34C59.9923 61.97 59.1223 60.72 57.5923 60.72C56.1623 60.72 55.1123 61.92 55.1123 63.41V63.43C55.1123 65.03 56.2723 66.12 57.6923 66.12C58.5723 66.12 59.1523 65.81 59.6423 65.34ZM61.3502 65.66C61.3502 65.88 61.5202 66.05 61.7402 66.05C61.9602 66.05 62.1202 65.88 62.1202 65.66V63.04C62.1202 62.07 62.7802 61.42 63.6702 61.42C64.5802 61.42 65.1002 62.02 65.1002 62.98V65.66C65.1002 65.88 65.2702 66.05 65.4902 66.05C65.7002 66.05 65.8702 65.88 65.8702 65.66V62.79C65.8702 61.56 65.1402 60.72 63.8902 60.72C63.0002 60.72 62.4602 61.17 62.1202 61.73V61.17C62.1202 60.95 61.9502 60.78 61.7302 60.78C61.5202 60.78 61.3502 60.96 61.3502 61.17V65.66Z" fill="#FFC95C"/>
<path d="M83.79 68.0564C83.922 68.0564 84.03 67.9484 84.03 67.8224C84.03 67.6904 83.922 67.5824 83.79 67.5824L82.518 67.5824L82.518 66.5624C82.518 65.6684 82.05 64.9124 81.144 64.9124L81.132 64.9124C80.304 64.9124 79.8 65.5364 79.8 66.4844L79.8 67.8224C79.8 67.9484 79.908 68.0564 80.04 68.0564L83.79 68.0564ZM82.086 67.5824L80.238 67.5824L80.238 66.5204C80.238 65.8424 80.55 65.3924 81.15 65.3924L81.162 65.3924C81.714 65.3924 82.086 65.8484 82.086 66.5444L82.086 67.5824ZM84.066 63.2612C84.066 62.7152 83.814 62.3552 83.532 62.1392L83.814 62.1392C83.934 62.1392 84.03 62.0492 84.03 61.9172C84.03 61.7912 83.934 61.6952 83.802 61.6952L82.104 61.6952C81.708 61.6952 81.408 61.8032 81.198 62.0132C80.97 62.2412 80.856 62.5772 80.856 63.0152C80.856 63.4112 80.934 63.7232 81.066 64.0292C81.09 64.0892 81.162 64.1552 81.258 64.1552C81.366 64.1552 81.456 64.0592 81.456 63.9512C81.456 63.9272 81.45 63.8972 81.438 63.8672C81.336 63.6392 81.264 63.3752 81.264 63.0632C81.264 62.4812 81.552 62.1392 82.11 62.1392L82.218 62.1392C82.14 62.4152 82.086 62.6972 82.086 63.0932C82.086 63.8792 82.434 64.4192 83.088 64.4192L83.1 64.4192C83.736 64.4192 84.066 63.8372 84.066 63.2612ZM83.7 63.1712C83.7 63.5912 83.472 63.9512 83.082 63.9512L83.07 63.9512C82.68 63.9512 82.428 63.6272 82.428 63.0452C82.428 62.6672 82.494 62.3612 82.56 62.1332L82.86 62.1332C83.352 62.1332 83.7 62.6012 83.7 63.1712ZM80.442 62.9672C80.442 62.6372 80.172 62.3432 79.848 62.3432L79.836 62.3432C79.512 62.3432 79.242 62.6372 79.242 62.9672C79.242 63.2972 79.512 63.5912 79.836 63.5912L79.848 63.5912C80.172 63.5912 80.442 63.2972 80.442 62.9672ZM80.214 62.9672C80.214 63.1652 80.046 63.3392 79.848 63.3392L79.836 63.3392C79.638 63.3392 79.47 63.1712 79.47 62.9672C79.47 62.7632 79.638 62.5952 79.836 62.5952L79.848 62.5952C80.046 62.5952 80.214 62.7692 80.214 62.9672ZM83.796 60.5366C83.922 60.5366 84.03 60.4346 84.03 60.3026C84.03 60.1706 83.922 60.0746 83.796 60.0746L81.306 60.0746L81.306 59.2766C81.306 59.1626 81.216 59.0726 81.108 59.0726C80.994 59.0726 80.91 59.1626 80.91 59.2766L80.91 60.0806L80.658 60.0806C80.214 60.0806 79.998 59.9006 79.998 59.5406C79.998 59.4506 80.016 59.3666 80.028 59.2886C80.04 59.1686 79.95 59.0666 79.83 59.0666C79.728 59.0666 79.65 59.1446 79.632 59.2346C79.608 59.3366 79.596 59.4506 79.596 59.6006C79.596 59.8826 79.68 60.1106 79.836 60.2666C80.01 60.4406 80.28 60.5366 80.634 60.5366L80.904 60.5366L80.904 60.7886C80.904 60.8966 80.994 60.9866 81.102 60.9866C81.216 60.9866 81.306 60.9026 81.306 60.7886L81.306 60.5366L83.796 60.5366ZM84.066 57.6713C84.066 57.1253 83.814 56.7653 83.532 56.5493L83.814 56.5493C83.934 56.5493 84.03 56.4593 84.03 56.3273C84.03 56.2013 83.934 56.1053 83.802 56.1053L82.104 56.1053C81.708 56.1053 81.408 56.2133 81.198 56.4233C80.97 56.6513 80.856 56.9873 80.856 57.4253C80.856 57.8213 80.934 58.1333 81.066 58.4393C81.09 58.4993 81.162 58.5653 81.258 58.5653C81.366 58.5653 81.456 58.4693 81.456 58.3613C81.456 58.3373 81.45 58.3073 81.438 58.2773C81.336 58.0493 81.264 57.7853 81.264 57.4733C81.264 56.8913 81.552 56.5493 82.11 56.5493L82.218 56.5493C82.14 56.8253 82.086 57.1073 82.086 57.5033C82.086 58.2893 82.434 58.8293 83.088 58.8293L83.1 58.8293C83.736 58.8293 84.066 58.2473 84.066 57.6713ZM83.7 57.5813C83.7 58.0013 83.472 58.3613 83.082 58.3613L83.07 58.3613C82.68 58.3613 82.428 58.0373 82.428 57.4553C82.428 57.0773 82.494 56.7713 82.56 56.5433L82.86 56.5433C83.352 56.5433 83.7 57.0113 83.7 57.5813ZM80.442 57.3773C80.442 57.0473 80.172 56.7533 79.848 56.7533L79.836 56.7533C79.512 56.7533 79.242 57.0473 79.242 57.3773C79.242 57.7073 79.512 58.0013 79.836 58.0013L79.848 58.0013C80.172 58.0013 80.442 57.7073 80.442 57.3773ZM80.214 57.3773C80.214 57.5753 80.046 57.7493 79.848 57.7493L79.836 57.7493C79.638 57.7493 79.47 57.5813 79.47 57.3773C79.47 57.1733 79.638 57.0053 79.836 57.0053L79.848 57.0053C80.046 57.0053 80.214 57.1793 80.214 57.3773ZM84.972 53.7467C84.972 53.2547 84.834 52.8407 84.558 52.5647C84.306 52.3127 83.94 52.1687 83.46 52.1687L81.102 52.1687C80.976 52.1687 80.868 52.2707 80.868 52.4027C80.868 52.5347 80.976 52.6307 81.102 52.6307L81.456 52.6307C81.12 52.8827 80.832 53.2607 80.832 53.8427C80.832 54.5807 81.39 55.3007 82.296 55.3007L82.308 55.3007C83.202 55.3007 83.76 54.5867 83.76 53.8427C83.76 53.2727 83.466 52.8947 83.106 52.6247L83.472 52.6247C84.198 52.6247 84.576 53.0687 84.576 53.7527C84.576 54.1547 84.456 54.5267 84.24 54.8507C84.222 54.8807 84.21 54.9107 84.21 54.9527C84.21 55.0607 84.312 55.1627 84.414 55.1627C84.498 55.1627 84.57 55.1147 84.606 55.0427C84.846 54.6527 84.972 54.2207 84.972 53.7467ZM83.352 53.7527C83.352 54.3287 82.92 54.8267 82.296 54.8267L82.284 54.8267C81.648 54.8267 81.24 54.3407 81.24 53.7527C81.24 53.1647 81.654 52.6127 82.29 52.6127L82.302 52.6127C82.926 52.6127 83.352 53.1647 83.352 53.7527ZM82.278 50.8603C81.672 50.8003 81.222 50.3923 81.222 49.8523C81.222 49.2343 81.714 48.9103 82.278 48.8623L82.278 50.8603ZM83.604 48.6103C83.562 48.5623 83.508 48.5383 83.454 48.5383C83.346 48.5383 83.256 48.6283 83.256 48.7423C83.256 48.7963 83.28 48.8383 83.31 48.8743C83.52 49.1023 83.67 49.3843 83.67 49.7683C83.67 50.3203 83.292 50.7943 82.62 50.8603L82.62 48.6163C82.62 48.5023 82.53 48.4003 82.404 48.4003C81.582 48.4003 80.832 48.9223 80.832 49.8403C80.832 50.6983 81.552 51.3283 82.446 51.3283L82.458 51.3283C83.418 51.3283 84.072 50.6323 84.072 49.7803C84.072 49.2523 83.886 48.9043 83.604 48.6103ZM83.796 47.5436C83.928 47.5436 84.03 47.4416 84.03 47.3096C84.03 47.1776 83.928 47.0816 83.796 47.0816L79.824 47.0816C79.698 47.0816 79.59 47.1836 79.59 47.3156C79.59 47.4416 79.698 47.5436 79.824 47.5436L83.796 47.5436ZM83.796 46.0094C83.928 46.0094 84.03 45.9074 84.03 45.7754C84.03 45.6434 83.922 45.5474 83.796 45.5474L82.74 45.5474C81.846 45.5474 81.396 45.0554 81.324 44.4554C81.306 44.3354 81.216 44.2514 81.09 44.2514C80.958 44.2514 80.856 44.3414 80.856 44.4794C80.856 44.8694 81.168 45.3194 81.684 45.5474L81.102 45.5474C80.97 45.5474 80.868 45.6494 80.868 45.7814C80.868 45.9074 80.976 46.0094 81.102 46.0094L83.796 46.0094ZM79.83 41.7565C79.83 41.9125 79.944 42.0385 80.1 42.0385L80.19 42.0385C80.346 42.0385 80.46 41.9125 80.46 41.7565C80.46 41.6005 80.346 41.4745 80.19 41.4745L80.1 41.4745C79.944 41.4745 79.83 41.6005 79.83 41.7565ZM79.83 42.8245C79.83 42.9805 79.944 43.1065 80.1 43.1065L80.19 43.1065C80.346 43.1065 80.46 42.9805 80.46 42.8245C80.46 42.6685 80.346 42.5425 80.19 42.5425L80.1 42.5425C79.944 42.5425 79.83 42.6685 79.83 42.8245ZM84.072 42.2965C84.072 41.3605 83.328 40.6705 82.452 40.6705L82.44 40.6705C81.564 40.6705 80.832 41.3545 80.832 42.2845C80.832 43.2205 81.576 43.9045 82.452 43.9045L82.464 43.9045C83.34 43.9045 84.072 43.2265 84.072 42.2965ZM83.658 42.2845C83.658 42.9385 83.118 43.4305 82.452 43.4305L82.44 43.4305C81.786 43.4305 81.24 42.9685 81.24 42.2965C81.24 41.6425 81.786 41.1445 82.452 41.1445L82.464 41.1445C83.118 41.1445 83.658 41.6125 83.658 42.2845ZM83.796 39.8336C83.928 39.8336 84.03 39.7316 84.03 39.5996C84.03 39.4676 83.922 39.3716 83.796 39.3716L82.74 39.3716C81.846 39.3716 81.396 38.8796 81.324 38.2796C81.306 38.1596 81.216 38.0756 81.09 38.0756C80.958 38.0756 80.856 38.1656 80.856 38.3036C80.856 38.6936 81.168 39.1436 81.684 39.3716L81.102 39.3716C80.97 39.3716 80.868 39.4736 80.868 39.6056C80.868 39.7316 80.976 39.8336 81.102 39.8336L83.796 39.8336ZM84.06 36.376C84.06 35.758 83.718 35.272 83.13 35.272L83.118 35.272C82.56 35.272 82.374 35.788 82.23 36.268C82.104 36.682 81.99 37.066 81.696 37.066L81.684 37.066C81.426 37.066 81.234 36.832 81.234 36.466C81.234 36.202 81.324 35.92 81.474 35.656C81.486 35.632 81.498 35.596 81.498 35.554C81.498 35.44 81.408 35.35 81.3 35.35C81.21 35.35 81.144 35.404 81.108 35.464C80.946 35.764 80.844 36.124 80.844 36.454C80.844 37.066 81.198 37.51 81.732 37.51L81.744 37.51C82.314 37.51 82.482 36.97 82.62 36.484C82.734 36.076 82.854 35.71 83.166 35.71L83.178 35.71C83.478 35.71 83.67 35.98 83.67 36.352C83.67 36.688 83.556 37.018 83.34 37.336C83.316 37.366 83.304 37.408 83.304 37.45C83.304 37.564 83.394 37.654 83.502 37.654C83.58 37.654 83.64 37.612 83.67 37.57C83.91 37.234 84.06 36.784 84.06 36.376ZM83.796 34.4137C83.928 34.4137 84.03 34.3117 84.03 34.1797C84.03 34.0477 83.928 33.9517 83.796 33.9517L82.23 33.9517C81.66 33.9517 81.252 33.5797 81.252 33.0877C81.252 32.5957 81.594 32.2897 82.176 32.2897L83.796 32.2897C83.928 32.2897 84.03 32.1877 84.03 32.0617C84.03 31.9297 83.928 31.8277 83.796 31.8277L82.212 31.8277C81.6 31.8277 81.252 31.4437 81.252 30.9757C81.252 30.4717 81.588 30.1717 82.188 30.1717L83.796 30.1717C83.928 30.1717 84.03 30.0697 84.03 29.9377C84.03 29.8117 83.928 29.7097 83.796 29.7097L82.08 29.7097C81.312 29.7097 80.832 30.1477 80.832 30.8617C80.832 31.4017 81.108 31.7317 81.45 31.9537C81.102 32.1217 80.832 32.4457 80.832 32.9497C80.832 33.4717 81.114 33.7477 81.42 33.9517L81.102 33.9517C80.97 33.9517 80.868 34.0537 80.868 34.1857C80.868 34.3117 80.976 34.4137 81.102 34.4137L83.796 34.4137ZM84.066 27.7827C84.066 27.2367 83.814 26.8767 83.532 26.6607L83.814 26.6607C83.934 26.6607 84.03 26.5707 84.03 26.4387C84.03 26.3127 83.934 26.2167 83.802 26.2167L82.104 26.2167C81.708 26.2167 81.408 26.3247 81.198 26.5347C80.97 26.7627 80.856 27.0987 80.856 27.5367C80.856 27.9327 80.934 28.2447 81.066 28.5507C81.09 28.6107 81.162 28.6767 81.258 28.6767C81.366 28.6767 81.456 28.5807 81.456 28.4727C81.456 28.4487 81.45 28.4187 81.438 28.3887C81.336 28.1607 81.264 27.8967 81.264 27.5847C81.264 27.0027 81.552 26.6607 82.11 26.6607L82.218 26.6607C82.14 26.9367 82.086 27.2187 82.086 27.6147C82.086 28.4007 82.434 28.9407 83.088 28.9407L83.1 28.9407C83.736 28.9407 84.066 28.3587 84.066 27.7827ZM83.7 27.6927C83.7 28.1127 83.472 28.4727 83.082 28.4727L83.07 28.4727C82.68 28.4727 82.428 28.1487 82.428 27.5667C82.428 27.1887 82.494 26.8827 82.56 26.6547L82.86 26.6547C83.352 26.6547 83.7 27.1227 83.7 27.6927ZM84.06 24.206C84.06 23.588 83.718 23.102 83.13 23.102L83.118 23.102C82.56 23.102 82.374 23.618 82.23 24.098C82.104 24.512 81.99 24.896 81.696 24.896L81.684 24.896C81.426 24.896 81.234 24.662 81.234 24.296C81.234 24.032 81.324 23.75 81.474 23.486C81.486 23.462 81.498 23.426 81.498 23.384C81.498 23.27 81.408 23.18 81.3 23.18C81.21 23.18 81.144 23.234 81.108 23.294C80.946 23.594 80.844 23.954 80.844 24.284C80.844 24.896 81.198 25.34 81.732 25.34L81.744 25.34C82.314 25.34 82.482 24.8 82.62 24.314C82.734 23.906 82.854 23.54 83.166 23.54L83.178 23.54C83.478 23.54 83.67 23.81 83.67 24.182C83.67 24.518 83.556 24.848 83.34 25.166C83.316 25.196 83.304 25.238 83.304 25.28C83.304 25.394 83.394 25.484 83.502 25.484C83.58 25.484 83.64 25.442 83.67 25.4C83.91 25.064 84.06 24.614 84.06 24.206ZM83.796 22.2438C83.928 22.2438 84.03 22.1418 84.03 22.0098C84.03 21.8778 83.928 21.7818 83.796 21.7818L83.202 21.7818L82.566 21.1398L83.922 20.0658C84 20.0058 84.03 19.9518 84.03 19.8678C84.03 19.7418 83.94 19.6458 83.814 19.6458C83.754 19.6458 83.712 19.6638 83.658 19.7058L82.26 20.8158L81.264 19.8018C81.204 19.7418 81.156 19.7118 81.084 19.7118C80.97 19.7118 80.868 19.7958 80.868 19.9218C80.868 19.9938 80.898 20.0478 80.958 20.1018L82.668 21.7818L79.824 21.7818C79.698 21.7818 79.59 21.8838 79.59 22.0158C79.59 22.1418 79.698 22.2438 79.824 22.2438L83.796 22.2438Z" fill="#FFDC96"/>
<path d="M147.27 108.6C147.27 108.82 147.45 109 147.66 109H151.69C151.89 109 152.05 108.84 152.05 108.64C152.05 108.44 151.89 108.27 151.69 108.27H148.06V102.35C148.06 102.13 147.88 101.95 147.66 101.95C147.45 101.95 147.27 102.13 147.27 102.35V108.6ZM153.332 102.34C153.332 102.58 153.532 102.75 153.782 102.75C154.042 102.75 154.242 102.58 154.242 102.34V102.21C154.242 101.96 154.042 101.8 153.782 101.8C153.532 101.8 153.332 101.96 153.332 102.21V102.34ZM153.402 108.66C153.402 108.88 153.572 109.05 153.792 109.05C154.012 109.05 154.172 108.88 154.172 108.66V104.17C154.172 103.95 154.002 103.78 153.782 103.78C153.572 103.78 153.402 103.96 153.402 104.17V108.66ZM155.959 108.66C155.959 108.88 156.129 109.05 156.349 109.05C156.569 109.05 156.729 108.88 156.729 108.66V106.04C156.729 105.07 157.389 104.42 158.279 104.42C159.189 104.42 159.709 105.02 159.709 105.98V108.66C159.709 108.88 159.879 109.05 160.099 109.05C160.309 109.05 160.479 108.88 160.479 108.66V105.79C160.479 104.56 159.749 103.72 158.499 103.72C157.609 103.72 157.069 104.17 156.729 104.73V104.17C156.729 103.95 156.559 103.78 156.339 103.78C156.129 103.78 155.959 103.96 155.959 104.17V108.66ZM162.121 108.66C162.121 108.88 162.291 109.05 162.511 109.05C162.731 109.05 162.891 108.88 162.891 108.66V106.04C162.891 105.07 163.551 104.42 164.441 104.42C165.351 104.42 165.871 105.02 165.871 105.98V108.66C165.871 108.88 166.041 109.05 166.261 109.05C166.471 109.05 166.641 108.88 166.641 108.66V105.79C166.641 104.56 165.911 103.72 164.661 103.72C163.771 103.72 163.231 104.17 162.891 104.73V104.17C162.891 103.95 162.721 103.78 162.501 103.78C162.291 103.78 162.121 103.96 162.121 104.17V108.66ZM170.413 103.09C170.603 103.09 170.723 103.06 170.883 102.9L171.633 102.19C171.713 102.11 171.773 102.04 171.773 101.96C171.773 101.82 171.473 101.66 171.233 101.66C171.083 101.66 170.973 101.74 170.873 101.89L170.273 102.8C170.243 102.84 170.223 102.9 170.223 102.95C170.223 103.03 170.303 103.09 170.413 103.09ZM168.743 106.13C168.843 105.12 169.523 104.37 170.423 104.37C171.453 104.37 171.993 105.19 172.073 106.13H168.743ZM172.493 108.34C172.573 108.27 172.613 108.18 172.613 108.09C172.613 107.91 172.463 107.76 172.273 107.76C172.183 107.76 172.113 107.8 172.053 107.85C171.673 108.2 171.203 108.45 170.563 108.45C169.643 108.45 168.853 107.82 168.743 106.7H172.483C172.673 106.7 172.843 106.55 172.843 106.34C172.843 104.97 171.973 103.72 170.443 103.72C169.013 103.72 167.963 104.92 167.963 106.41V106.43C167.963 108.03 169.123 109.12 170.543 109.12C171.423 109.12 172.003 108.81 172.493 108.34ZM176.491 110.62C177.311 110.62 178.001 110.39 178.461 109.93C178.881 109.51 179.121 108.9 179.121 108.1V104.17C179.121 103.96 178.951 103.78 178.731 103.78C178.511 103.78 178.351 103.96 178.351 104.17V104.76C177.931 104.2 177.301 103.72 176.331 103.72C175.101 103.72 173.901 104.65 173.901 106.16V106.18C173.901 107.67 175.091 108.6 176.331 108.6C177.281 108.6 177.911 108.11 178.361 107.51V108.12C178.361 109.33 177.621 109.96 176.481 109.96C175.811 109.96 175.191 109.76 174.651 109.4C174.601 109.37 174.551 109.35 174.481 109.35C174.301 109.35 174.131 109.52 174.131 109.69C174.131 109.83 174.211 109.95 174.331 110.01C174.981 110.41 175.701 110.62 176.491 110.62ZM176.481 107.92C175.521 107.92 174.691 107.2 174.691 106.16V106.14C174.691 105.08 175.501 104.4 176.481 104.4C177.461 104.4 178.381 105.09 178.381 106.15V106.17C178.381 107.21 177.461 107.92 176.481 107.92ZM182.381 109.11C183.291 109.11 183.891 108.69 184.251 108.22V108.69C184.251 108.89 184.401 109.05 184.621 109.05C184.831 109.05 184.991 108.89 184.991 108.67V105.84C184.991 105.18 184.811 104.68 184.461 104.33C184.081 103.95 183.521 103.76 182.791 103.76C182.131 103.76 181.611 103.89 181.101 104.11C181.001 104.15 180.891 104.27 180.891 104.43C180.891 104.61 181.051 104.76 181.231 104.76C181.271 104.76 181.321 104.75 181.371 104.73C181.751 104.56 182.191 104.44 182.711 104.44C183.681 104.44 184.251 104.92 184.251 105.85V106.03C183.791 105.9 183.321 105.81 182.661 105.81C181.351 105.81 180.451 106.39 180.451 107.48V107.5C180.451 108.56 181.421 109.11 182.381 109.11ZM182.531 108.5C181.831 108.5 181.231 108.12 181.231 107.47V107.45C181.231 106.8 181.771 106.38 182.741 106.38C183.371 106.38 183.881 106.49 184.261 106.6V107.1C184.261 107.92 183.481 108.5 182.531 108.5ZM188.314 109.09C188.614 109.09 188.854 109.04 189.074 108.95C189.204 108.9 189.294 108.79 189.294 108.65C189.294 108.47 189.144 108.32 188.964 108.32C188.904 108.32 188.764 108.39 188.494 108.39C187.974 108.39 187.624 108.16 187.624 107.53V104.51H188.964C189.154 104.51 189.314 104.36 189.314 104.17C189.314 103.99 189.154 103.83 188.964 103.83H187.624V102.61C187.624 102.4 187.444 102.22 187.234 102.22C187.014 102.22 186.854 102.4 186.854 102.61V103.83H186.434C186.254 103.83 186.094 103.98 186.094 104.17C186.094 104.35 186.254 104.51 186.434 104.51H186.854V107.63C186.854 108.68 187.484 109.09 188.314 109.09ZM192.167 109.11C193.077 109.11 193.677 108.69 194.037 108.22V108.69C194.037 108.89 194.187 109.05 194.407 109.05C194.617 109.05 194.777 108.89 194.777 108.67V105.84C194.777 105.18 194.597 104.68 194.247 104.33C193.867 103.95 193.307 103.76 192.577 103.76C191.917 103.76 191.397 103.89 190.887 104.11C190.787 104.15 190.677 104.27 190.677 104.43C190.677 104.61 190.837 104.76 191.017 104.76C191.057 104.76 191.107 104.75 191.157 104.73C191.537 104.56 191.977 104.44 192.497 104.44C193.467 104.44 194.037 104.92 194.037 105.85V106.03C193.577 105.9 193.107 105.81 192.447 105.81C191.137 105.81 190.237 106.39 190.237 107.48V107.5C190.237 108.56 191.207 109.11 192.167 109.11ZM192.317 108.5C191.617 108.5 191.017 108.12 191.017 107.47V107.45C191.017 106.8 191.557 106.38 192.527 106.38C193.157 106.38 193.667 106.49 194.047 106.6V107.1C194.047 107.92 193.267 108.5 192.317 108.5ZM196.418 108.66C196.418 108.88 196.588 109.05 196.808 109.05C197.028 109.05 197.188 108.88 197.188 108.66V106.04C197.188 105.07 197.848 104.42 198.738 104.42C199.648 104.42 200.168 105.02 200.168 105.98V108.66C200.168 108.88 200.338 109.05 200.558 109.05C200.768 109.05 200.938 108.88 200.938 108.66V105.79C200.938 104.56 200.208 103.72 198.958 103.72C198.068 103.72 197.528 104.17 197.188 104.73V104.17C197.188 103.95 197.018 103.78 196.798 103.78C196.588 103.78 196.418 103.96 196.418 104.17V108.66Z" fill="#FFC95C"/>
<path d="M131.76 156.049C131.892 156.049 132 155.941 132 155.815L132 154.183C132 153.265 131.574 152.659 130.854 152.659L130.842 152.659C130.266 152.659 129.978 153.061 129.828 153.559C129.684 153.229 129.402 152.893 128.856 152.893L128.844 152.893C128.574 152.893 128.352 152.989 128.172 153.163C127.938 153.403 127.8 153.781 127.8 154.261L127.8 155.815C127.8 155.941 127.908 156.049 128.04 156.049L131.76 156.049ZM129.672 155.581L128.226 155.581L128.226 154.303C128.226 153.703 128.496 153.373 128.91 153.373L128.922 153.373C129.414 153.373 129.672 153.769 129.672 154.339L129.672 155.581ZM131.574 155.581L130.092 155.581L130.092 154.255C130.092 153.523 130.356 153.139 130.812 153.139L130.824 153.139C131.292 153.139 131.574 153.535 131.574 154.171L131.574 155.581ZM131.796 151.796C131.928 151.796 132.03 151.694 132.03 151.562C132.03 151.43 131.922 151.334 131.796 151.334L130.74 151.334C129.846 151.334 129.396 150.842 129.324 150.242C129.306 150.122 129.216 150.038 129.09 150.038C128.958 150.038 128.856 150.128 128.856 150.266C128.856 150.656 129.168 151.106 129.684 151.334L129.102 151.334C128.97 151.334 128.868 151.436 128.868 151.568C128.868 151.694 128.976 151.796 129.102 151.796L131.796 151.796ZM130.278 149.224C129.672 149.164 129.222 148.756 129.222 148.216C129.222 147.598 129.714 147.274 130.278 147.226L130.278 149.224ZM131.604 146.974C131.562 146.926 131.508 146.902 131.454 146.902C131.346 146.902 131.256 146.992 131.256 147.106C131.256 147.16 131.28 147.202 131.31 147.238C131.52 147.466 131.67 147.748 131.67 148.132C131.67 148.684 131.292 149.158 130.62 149.224L130.62 146.98C130.62 146.866 130.53 146.764 130.404 146.764C129.582 146.764 128.832 147.286 128.832 148.204C128.832 149.062 129.552 149.692 130.446 149.692L130.458 149.692C131.418 149.692 132.072 148.996 132.072 148.144C132.072 147.616 131.886 147.268 131.604 146.974ZM127.824 142.997C127.692 142.997 127.59 143.099 127.59 143.231C127.59 143.363 127.692 143.459 127.824 143.459L129.492 143.459C129.144 143.699 128.832 144.071 128.832 144.647C128.832 145.391 129.432 146.129 130.446 146.129L130.458 146.129C131.478 146.129 132.066 145.391 132.066 144.647C132.066 144.077 131.748 143.711 131.376 143.459L131.796 143.459C131.928 143.459 132.03 143.357 132.03 143.225C132.03 143.099 131.928 142.997 131.796 142.997L127.824 142.997ZM129.246 144.563C129.246 143.987 129.726 143.441 130.44 143.441L130.452 143.441C131.166 143.441 131.652 143.987 131.652 144.563C131.652 145.145 131.184 145.655 130.452 145.655L130.44 145.655C129.69 145.655 129.246 145.163 129.246 144.563ZM131.85 140.458L129.21 139.288C129.18 139.276 129.138 139.264 129.096 139.264C128.97 139.264 128.868 139.366 128.868 139.492C128.868 139.612 128.946 139.678 129.036 139.708L131.472 140.728L129.048 141.73C128.946 141.766 128.868 141.832 128.868 141.964C128.868 142.096 128.976 142.198 129.096 142.198C129.138 142.198 129.18 142.18 129.222 142.168L131.85 141.004C131.97 140.95 132.048 140.866 132.048 140.74L132.048 140.716C132.048 140.59 131.97 140.512 131.85 140.458ZM128.004 138.461C128.148 138.461 128.25 138.341 128.25 138.191C128.25 138.035 128.148 137.915 128.004 137.915L127.926 137.915C127.776 137.915 127.68 138.035 127.68 138.191C127.68 138.341 127.776 138.461 127.926 138.461L128.004 138.461ZM131.796 138.419C131.928 138.419 132.03 138.317 132.03 138.185C132.03 138.053 131.928 137.957 131.796 137.957L129.102 137.957C128.97 137.957 128.868 138.059 128.868 138.191C128.868 138.317 128.976 138.419 129.102 138.419L131.796 138.419ZM127.824 133.932C127.692 133.932 127.59 134.034 127.59 134.166C127.59 134.298 127.692 134.394 127.824 134.394L129.492 134.394C129.144 134.634 128.832 135.006 128.832 135.582C128.832 136.326 129.432 137.064 130.446 137.064L130.458 137.064C131.478 137.064 132.066 136.326 132.066 135.582C132.066 135.012 131.748 134.646 131.376 134.394L131.796 134.394C131.928 134.394 132.03 134.292 132.03 134.16C132.03 134.034 131.928 133.932 131.796 133.932L127.824 133.932ZM129.246 135.498C129.246 134.922 129.726 134.376 130.44 134.376L130.452 134.376C131.166 134.376 131.652 134.922 131.652 135.498C131.652 136.08 131.184 136.59 130.452 136.59L130.44 136.59C129.69 136.59 129.246 136.098 129.246 135.498ZM131.796 131.101C131.928 131.101 132.03 130.999 132.03 130.867C132.03 130.735 131.922 130.639 131.796 130.639L130.74 130.639C129.846 130.639 129.396 130.147 129.324 129.547C129.306 129.427 129.216 129.343 129.09 129.343C128.958 129.343 128.856 129.433 128.856 129.571C128.856 129.961 129.168 130.411 129.684 130.639L129.102 130.639C128.97 130.639 128.868 130.741 128.868 130.873C128.868 130.999 128.976 131.101 129.102 131.101L131.796 131.101ZM132.066 127.898C132.066 127.352 131.814 126.992 131.532 126.776L131.814 126.776C131.934 126.776 132.03 126.686 132.03 126.554C132.03 126.428 131.934 126.332 131.802 126.332L130.104 126.332C129.708 126.332 129.408 126.44 129.198 126.65C128.97 126.878 128.856 127.214 128.856 127.652C128.856 128.048 128.934 128.36 129.066 128.666C129.09 128.726 129.162 128.792 129.258 128.792C129.366 128.792 129.456 128.696 129.456 128.588C129.456 128.564 129.45 128.534 129.438 128.504C129.336 128.276 129.264 128.012 129.264 127.7C129.264 127.118 129.552 126.776 130.11 126.776L130.218 126.776C130.14 127.052 130.086 127.334 130.086 127.73C130.086 128.516 130.434 129.056 131.088 129.056L131.1 129.056C131.736 129.056 132.066 128.474 132.066 127.898ZM131.7 127.808C131.7 128.228 131.472 128.588 131.082 128.588L131.07 128.588C130.68 128.588 130.428 128.264 130.428 127.682C130.428 127.304 130.494 126.998 130.56 126.77L130.86 126.77C131.352 126.77 131.7 127.238 131.7 127.808ZM131.796 125.347C131.928 125.347 132.03 125.245 132.03 125.113C132.03 124.981 131.928 124.885 131.796 124.885L130.23 124.885C129.66 124.885 129.252 124.513 129.252 124.021C129.252 123.529 129.594 123.223 130.176 123.223L131.796 123.223C131.928 123.223 132.03 123.121 132.03 122.995C132.03 122.863 131.928 122.761 131.796 122.761L130.212 122.761C129.6 122.761 129.252 122.377 129.252 121.909C129.252 121.405 129.588 121.105 130.188 121.105L131.796 121.105C131.928 121.105 132.03 121.003 132.03 120.871C132.03 120.745 131.928 120.643 131.796 120.643L130.08 120.643C129.312 120.643 128.832 121.081 128.832 121.795C128.832 122.335 129.108 122.665 129.45 122.887C129.102 123.055 128.832 123.379 128.832 123.883C128.832 124.405 129.114 124.681 129.42 124.885L129.102 124.885C128.97 124.885 128.868 124.987 128.868 125.119C128.868 125.245 128.976 125.347 129.102 125.347L131.796 125.347ZM131.796 119.64C131.922 119.64 132.03 119.538 132.03 119.406C132.03 119.274 131.922 119.178 131.796 119.178L131.406 119.178C131.754 118.938 132.066 118.566 132.066 117.99C132.066 117.24 131.466 116.508 130.452 116.508L130.44 116.508C129.42 116.508 128.832 117.246 128.832 117.99C128.832 118.56 129.15 118.926 129.522 119.178L127.824 119.178C127.692 119.178 127.59 119.28 127.59 119.412C127.59 119.538 127.692 119.64 127.824 119.64L131.796 119.64ZM131.652 118.074C131.652 118.65 131.172 119.196 130.452 119.196L130.44 119.196C129.732 119.196 129.246 118.65 129.246 118.074C129.246 117.486 129.714 116.982 130.446 116.982L130.458 116.982C131.208 116.982 131.652 117.474 131.652 118.074ZM130.278 115.38C129.672 115.32 129.222 114.912 129.222 114.372C129.222 113.754 129.714 113.43 130.278 113.382L130.278 115.38ZM131.604 113.13C131.562 113.082 131.508 113.058 131.454 113.058C131.346 113.058 131.256 113.148 131.256 113.262C131.256 113.316 131.28 113.358 131.31 113.394C131.52 113.622 131.67 113.904 131.67 114.288C131.67 114.84 131.292 115.314 130.62 115.38L130.62 113.136C130.62 113.022 130.53 112.92 130.404 112.92C129.582 112.92 128.832 113.442 128.832 114.36C128.832 115.218 129.552 115.848 130.446 115.848L130.458 115.848C131.418 115.848 132.072 115.152 132.072 114.3C132.072 113.772 131.886 113.424 131.604 113.13ZM131.796 112.105C131.928 112.105 132.03 112.003 132.03 111.871C132.03 111.739 131.922 111.643 131.796 111.643L130.74 111.643C129.846 111.643 129.396 111.151 129.324 110.551C129.306 110.431 129.216 110.347 129.09 110.347C128.958 110.347 128.856 110.437 128.856 110.575C128.856 110.965 129.168 111.415 129.684 111.643L129.102 111.643C128.97 111.643 128.868 111.745 128.868 111.877C128.868 112.003 128.976 112.105 129.102 112.105L131.796 112.105ZM132.972 108.428C132.972 107.936 132.834 107.522 132.558 107.246C132.306 106.994 131.94 106.85 131.46 106.85L129.102 106.85C128.976 106.85 128.868 106.952 128.868 107.084C128.868 107.216 128.976 107.312 129.102 107.312L129.456 107.312C129.12 107.564 128.832 107.942 128.832 108.524C128.832 109.262 129.39 109.982 130.296 109.982L130.308 109.982C131.202 109.982 131.76 109.268 131.76 108.524C131.76 107.954 131.466 107.576 131.106 107.306L131.472 107.306C132.198 107.306 132.576 107.75 132.576 108.434C132.576 108.836 132.456 109.208 132.24 109.532C132.222 109.562 132.21 109.592 132.21 109.634C132.21 109.742 132.312 109.844 132.414 109.844C132.498 109.844 132.57 109.796 132.606 109.724C132.846 109.334 132.972 108.902 132.972 108.428ZM131.352 108.434C131.352 109.01 130.92 109.508 130.296 109.508L130.284 109.508C129.648 109.508 129.24 109.022 129.24 108.434C129.24 107.846 129.654 107.294 130.29 107.294L130.302 107.294C130.926 107.294 131.352 107.846 131.352 108.434ZM130.278 105.542C129.672 105.482 129.222 105.074 129.222 104.534C129.222 103.916 129.714 103.592 130.278 103.544L130.278 105.542ZM131.604 103.292C131.562 103.244 131.508 103.22 131.454 103.22C131.346 103.22 131.256 103.31 131.256 103.424C131.256 103.478 131.28 103.52 131.31 103.556C131.52 103.784 131.67 104.066 131.67 104.45C131.67 105.002 131.292 105.476 130.62 105.542L130.62 103.298C130.62 103.184 130.53 103.082 130.404 103.082C129.582 103.082 128.832 103.604 128.832 104.522C128.832 105.38 129.552 106.01 130.446 106.01L130.458 106.01C131.418 106.01 132.072 105.314 132.072 104.462C132.072 103.934 131.886 103.586 131.604 103.292ZM132.054 101.229C132.054 101.049 132.024 100.905 131.97 100.773C131.94 100.695 131.874 100.641 131.79 100.641C131.682 100.641 131.592 100.731 131.592 100.839C131.592 100.875 131.634 100.959 131.634 101.121C131.634 101.433 131.496 101.643 131.118 101.643L129.306 101.643L129.306 100.839C129.306 100.725 129.216 100.629 129.102 100.629C128.994 100.629 128.898 100.725 128.898 100.839L128.898 101.643L128.166 101.643C128.04 101.643 127.932 101.751 127.932 101.877C127.932 102.009 128.04 102.105 128.166 102.105L128.898 102.105L128.898 102.357C128.898 102.465 128.988 102.561 129.102 102.561C129.21 102.561 129.306 102.465 129.306 102.357L129.306 102.105L131.178 102.105C131.808 102.105 132.054 101.727 132.054 101.229Z" fill="#FFDC96"/>
<path d="M75.6 67.8948C75.82 67.8948 76 67.7148 76 67.5048L76 64.7848C76 63.2548 75.29 62.2448 74.09 62.2448L74.07 62.2448C73.11 62.2448 72.63 62.9148 72.38 63.7448C72.14 63.1948 71.67 62.6348 70.76 62.6348L70.74 62.6348C70.29 62.6348 69.92 62.7948 69.62 63.0848C69.23 63.4848 69 64.1148 69 64.9148L69 67.5048C69 67.7148 69.18 67.8948 69.4 67.8948L75.6 67.8948ZM72.12 67.1148L69.71 67.1148L69.71 64.9848C69.71 63.9848 70.16 63.4348 70.85 63.4348L70.87 63.4348C71.69 63.4348 72.12 64.0948 72.12 65.0448L72.12 67.1148ZM75.29 67.1148L72.82 67.1148L72.82 64.9048C72.82 63.6848 73.26 63.0448 74.02 63.0448L74.04 63.0448C74.82 63.0448 75.29 63.7048 75.29 64.7648L75.29 67.1148ZM75.66 60.808C75.88 60.808 76.05 60.638 76.05 60.418C76.05 60.198 75.87 60.038 75.66 60.038L73.9 60.038C72.41 60.038 71.66 59.218 71.54 58.218C71.51 58.018 71.36 57.878 71.15 57.878C70.93 57.878 70.76 58.028 70.76 58.258C70.76 58.908 71.28 59.658 72.14 60.038L71.17 60.038C70.95 60.038 70.78 60.208 70.78 60.428C70.78 60.638 70.96 60.808 71.17 60.808L75.66 60.808ZM71.17 52.3252C70.95 52.3252 70.78 52.4952 70.78 52.7052C70.78 52.9252 70.95 53.0852 71.17 53.0852L73.79 53.0852C74.76 53.0852 75.41 53.7552 75.41 54.6352C75.41 55.5452 74.81 56.0652 73.85 56.0652L71.17 56.0652C70.95 56.0652 70.78 56.2452 70.78 56.4552C70.78 56.6752 70.95 56.8352 71.17 56.8352L74.04 56.8352C75.27 56.8352 76.11 56.1052 76.11 54.8552C76.11 53.9652 75.66 53.4352 75.1 53.0852L75.66 53.0852C75.88 53.0852 76.05 52.9152 76.05 52.7052C76.05 52.4852 75.87 52.3252 75.66 52.3252L71.17 52.3252ZM75.66 50.5931C75.88 50.5931 76.05 50.4231 76.05 50.2031C76.05 49.9831 75.88 49.8231 75.66 49.8231L73.04 49.8231C72.07 49.8231 71.42 49.1631 71.42 48.2731C71.42 47.3631 72.02 46.8431 72.98 46.8431L75.66 46.8431C75.88 46.8431 76.05 46.6731 76.05 46.4531C76.05 46.2431 75.88 46.0731 75.66 46.0731L72.79 46.0731C71.56 46.0731 70.72 46.8031 70.72 48.0531C70.72 48.9431 71.17 49.4831 71.73 49.8231L71.17 49.8231C70.95 49.8231 70.78 49.9931 70.78 50.2131C70.78 50.4231 70.96 50.5931 71.17 50.5931L75.66 50.5931ZM75.66 44.431C75.88 44.431 76.05 44.261 76.05 44.041C76.05 43.821 75.88 43.661 75.66 43.661L73.04 43.661C72.07 43.661 71.42 43.001 71.42 42.111C71.42 41.201 72.02 40.681 72.98 40.681L75.66 40.681C75.88 40.681 76.05 40.511 76.05 40.291C76.05 40.081 75.88 39.911 75.66 39.911L72.79 39.911C71.56 39.911 70.72 40.641 70.72 41.891C70.72 42.781 71.17 43.321 71.73 43.661L71.17 43.661C70.95 43.661 70.78 43.831 70.78 44.051C70.78 44.261 70.96 44.431 71.17 44.431L75.66 44.431ZM76.1 36.5589C76.1 35.5289 75.53 34.7189 74.55 34.7189L74.53 34.7189C73.6 34.7189 73.29 35.5789 73.05 36.3789C72.84 37.0689 72.65 37.7089 72.16 37.7089L72.14 37.7089C71.71 37.7089 71.39 37.3189 71.39 36.7089C71.39 36.2689 71.54 35.7989 71.79 35.3589C71.81 35.3189 71.83 35.2589 71.83 35.1889C71.83 34.9989 71.68 34.8489 71.5 34.8489C71.35 34.8489 71.24 34.9389 71.18 35.0389C70.91 35.5389 70.74 36.1389 70.74 36.6889C70.74 37.7089 71.33 38.4489 72.22 38.4489L72.24 38.4489C73.19 38.4489 73.47 37.5489 73.7 36.7389C73.89 36.0589 74.09 35.4489 74.61 35.4489L74.63 35.4489C75.13 35.4489 75.45 35.8989 75.45 36.5189C75.45 37.0789 75.26 37.6289 74.9 38.1589C74.86 38.2089 74.84 38.2789 74.84 38.3489C74.84 38.5389 74.99 38.6889 75.17 38.6889C75.3 38.6889 75.4 38.6189 75.45 38.5489C75.85 37.9889 76.1 37.2389 76.1 36.5589ZM77.26 33.2884C77.48 33.2884 77.65 33.1184 77.65 32.8984C77.65 32.6784 77.48 32.5184 77.26 32.5184L75.01 32.5184C75.59 32.1184 76.11 31.4984 76.11 30.5384C76.11 29.2884 75.11 28.0684 73.42 28.0684L73.4 28.0684C71.7 28.0684 70.72 29.2984 70.72 30.5384C70.72 31.4884 71.25 32.0984 71.87 32.5184L71.17 32.5184C70.95 32.5184 70.78 32.6884 70.78 32.9084C70.78 33.1184 70.95 33.2884 71.17 33.2884L77.26 33.2884ZM75.42 30.6784C75.42 31.6384 74.62 32.5484 73.42 32.5484L73.4 32.5484C72.22 32.5484 71.41 31.6384 71.41 30.6784C71.41 29.6984 72.19 28.8584 73.41 28.8584L73.43 28.8584C74.68 28.8584 75.42 29.6784 75.42 30.6784ZM76.11 25.1078C76.11 24.1978 75.69 23.5978 75.22 23.2378L75.69 23.2378C75.89 23.2378 76.05 23.0878 76.05 22.8678C76.05 22.6578 75.89 22.4978 75.67 22.4978L72.84 22.4978C72.18 22.4978 71.68 22.6778 71.33 23.0278C70.95 23.4078 70.76 23.9678 70.76 24.6978C70.76 25.3578 70.89 25.8778 71.11 26.3878C71.15 26.4878 71.27 26.5978 71.43 26.5978C71.61 26.5978 71.76 26.4378 71.76 26.2578C71.76 26.2178 71.75 26.1678 71.73 26.1178C71.56 25.7378 71.44 25.2978 71.44 24.7778C71.44 23.8078 71.92 23.2378 72.85 23.2378L73.03 23.2378C72.9 23.6978 72.81 24.1678 72.81 24.8278C72.81 26.1378 73.39 27.0378 74.48 27.0378L74.5 27.0378C75.56 27.0378 76.11 26.0678 76.11 25.1078ZM75.5 24.9578C75.5 25.6578 75.12 26.2578 74.47 26.2578L74.45 26.2578C73.8 26.2578 73.38 25.7178 73.38 24.7478C73.38 24.1178 73.49 23.6078 73.6 23.2278L74.1 23.2278C74.92 23.2278 75.5 24.0078 75.5 24.9578ZM75.66 20.8568C75.88 20.8568 76.05 20.6868 76.05 20.4668C76.05 20.2468 75.87 20.0868 75.66 20.0868L73.9 20.0868C72.41 20.0868 71.66 19.2668 71.54 18.2668C71.51 18.0668 71.36 17.9268 71.15 17.9268C70.93 17.9268 70.76 18.0768 70.76 18.3068C70.76 18.9568 71.28 19.7068 72.14 20.0868L71.17 20.0868C70.95 20.0868 70.78 20.2568 70.78 20.4768C70.78 20.6868 70.96 20.8568 71.17 20.8568L75.66 20.8568ZM75.66 16.8041C75.88 16.8041 76.05 16.6341 76.05 16.4141C76.05 16.1941 75.88 16.0341 75.66 16.0341L74.67 16.0341L73.61 14.9641L75.87 13.1741C76 13.0741 76.05 12.9841 76.05 12.8441C76.05 12.6341 75.9 12.4741 75.69 12.4741C75.59 12.4741 75.52 12.5041 75.43 12.5741L73.1 14.4241L71.44 12.7341C71.34 12.6341 71.26 12.5841 71.14 12.5841C70.95 12.5841 70.78 12.7241 70.78 12.9341C70.78 13.0541 70.83 13.1441 70.93 13.2341L73.78 16.0341L69.04 16.0341C68.83 16.0341 68.65 16.2041 68.65 16.4241C68.65 16.6341 68.83 16.8041 69.04 16.8041L75.66 16.8041ZM73.13 10.8753C72.12 10.7753 71.37 10.0953 71.37 9.19531C71.37 8.16531 72.19 7.62531 73.13 7.54531L73.13 10.8753ZM75.34 7.12531C75.27 7.04531 75.18 7.00531 75.09 7.00531C74.91 7.00531 74.76 7.15531 74.76 7.34531C74.76 7.43531 74.8 7.50531 74.85 7.56531C75.2 7.94531 75.45 8.41531 75.45 9.05531C75.45 9.97531 74.82 10.7653 73.7 10.8753L73.7 7.13531C73.7 6.94531 73.55 6.77531 73.34 6.77531C71.97 6.77531 70.72 7.64531 70.72 9.17531C70.72 10.6053 71.92 11.6553 73.41 11.6553L73.43 11.6553C75.03 11.6553 76.12 10.4953 76.12 9.07531C76.12 8.19531 75.81 7.61531 75.34 7.12531ZM75.66 5.41734C75.88 5.41734 76.05 5.24734 76.05 5.02734C76.05 4.80734 75.88 4.64734 75.66 4.64734L73.04 4.64734C72.07 4.64734 71.42 3.98734 71.42 3.09734C71.42 2.18734 72.02 1.66734 72.98 1.66734L75.66 1.66734C75.88 1.66734 76.05 1.49734 76.05 1.27734C76.05 1.06734 75.88 0.897343 75.66 0.897343L72.79 0.897343C71.56 0.897343 70.72 1.62734 70.72 2.87734C70.72 3.76734 71.17 4.30734 71.73 4.64734L71.17 4.64734C70.95 4.64734 70.78 4.81734 70.78 5.03734C70.78 5.24734 70.96 5.41734 71.17 5.41734L75.66 5.41734Z" fill="#FFC95C"/>
<path d="M141.548 122.096C142.38 122.096 143.068 121.792 143.58 121.416C143.724 121.32 143.796 121.184 143.796 121.032V119.328C143.796 119.152 143.652 119.008 143.484 119.008H141.684C141.532 119.008 141.404 119.136 141.404 119.296C141.404 119.448 141.532 119.576 141.684 119.576H143.188V120.968C142.804 121.28 142.212 121.528 141.572 121.528C140.212 121.528 139.356 120.536 139.356 119.2V119.184C139.356 117.936 140.244 116.888 141.484 116.888C142.188 116.888 142.636 117.096 143.036 117.4C143.1 117.448 143.164 117.48 143.236 117.48C143.404 117.48 143.548 117.336 143.548 117.16C143.548 117.048 143.492 116.96 143.42 116.904C142.908 116.528 142.356 116.304 141.508 116.304C139.828 116.304 138.7 117.664 138.7 119.2V119.216C138.7 120.816 139.788 122.096 141.548 122.096ZM148.662 118.136C148.662 117.96 148.526 117.824 148.358 117.824C148.182 117.824 148.054 117.96 148.054 118.136V120.232C148.054 121.008 147.518 121.528 146.814 121.528C146.086 121.528 145.67 121.048 145.67 120.28V118.136C145.67 117.96 145.526 117.824 145.358 117.824C145.182 117.824 145.054 117.96 145.054 118.136V120.432C145.054 121.416 145.638 122.088 146.638 122.088C147.35 122.088 147.774 121.728 148.054 121.28V121.728C148.054 121.904 148.19 122.04 148.358 122.04C148.534 122.04 148.662 121.896 148.662 121.728V118.136ZM150.103 121.728C150.103 121.904 150.239 122.04 150.415 122.04C150.591 122.04 150.719 121.904 150.719 121.728V116.432C150.719 116.264 150.583 116.12 150.407 116.12C150.239 116.12 150.103 116.264 150.103 116.432V121.728ZM152.205 121.728C152.205 121.904 152.341 122.04 152.517 122.04C152.693 122.04 152.821 121.904 152.821 121.728V116.432C152.821 116.264 152.685 116.12 152.509 116.12C152.341 116.12 152.205 116.264 152.205 116.432V121.728ZM154.251 121.728C154.251 121.896 154.387 122.04 154.562 122.04C154.738 122.04 154.867 121.896 154.867 121.728V121.208C155.187 121.672 155.683 122.088 156.451 122.088C157.451 122.088 158.427 121.288 158.427 119.936V119.92C158.427 118.56 157.443 117.776 156.451 117.776C155.691 117.776 155.203 118.2 154.867 118.696V116.432C154.867 116.256 154.731 116.12 154.555 116.12C154.387 116.12 154.251 116.256 154.251 116.432V121.728ZM156.339 121.536C155.571 121.536 154.843 120.896 154.843 119.936V119.92C154.843 118.976 155.571 118.328 156.339 118.328C157.123 118.328 157.795 118.952 157.795 119.928V119.944C157.795 120.944 157.139 121.536 156.339 121.536ZM159.931 119.704C160.011 118.896 160.555 118.296 161.275 118.296C162.099 118.296 162.531 118.952 162.595 119.704H159.931ZM162.931 121.472C162.995 121.416 163.027 121.344 163.027 121.272C163.027 121.128 162.907 121.008 162.755 121.008C162.683 121.008 162.627 121.04 162.579 121.08C162.275 121.36 161.899 121.56 161.387 121.56C160.651 121.56 160.019 121.056 159.931 120.16H162.923C163.075 120.16 163.211 120.04 163.211 119.872C163.211 118.776 162.515 117.776 161.291 117.776C160.147 117.776 159.307 118.736 159.307 119.928V119.944C159.307 121.224 160.235 122.096 161.371 122.096C162.075 122.096 162.539 121.848 162.931 121.472ZM164.297 121.728C164.297 121.904 164.433 122.04 164.609 122.04C164.785 122.04 164.913 121.896 164.913 121.728V120.32C164.913 119.128 165.569 118.528 166.369 118.432C166.529 118.408 166.641 118.288 166.641 118.12C166.641 117.944 166.521 117.808 166.337 117.808C165.817 117.808 165.217 118.224 164.913 118.912V118.136C164.913 117.96 164.777 117.824 164.601 117.824C164.433 117.824 164.297 117.968 164.297 118.136V121.728ZM169.2 123.296C169.856 123.296 170.408 123.112 170.776 122.744C171.112 122.408 171.304 121.92 171.304 121.28V118.136C171.304 117.968 171.168 117.824 170.992 117.824C170.816 117.824 170.688 117.968 170.688 118.136V118.608C170.352 118.16 169.848 117.776 169.072 117.776C168.088 117.776 167.128 118.52 167.128 119.728V119.744C167.128 120.936 168.08 121.68 169.072 121.68C169.832 121.68 170.336 121.288 170.696 120.808V121.296C170.696 122.264 170.104 122.768 169.192 122.768C168.656 122.768 168.16 122.608 167.728 122.32C167.688 122.296 167.648 122.28 167.592 122.28C167.448 122.28 167.312 122.416 167.312 122.552C167.312 122.664 167.376 122.76 167.472 122.808C167.992 123.128 168.568 123.296 169.2 123.296ZM169.192 121.136C168.424 121.136 167.76 120.56 167.76 119.728V119.712C167.76 118.864 168.408 118.32 169.192 118.32C169.976 118.32 170.712 118.872 170.712 119.72V119.736C170.712 120.568 169.976 121.136 169.192 121.136ZM174.048 122.08C174.872 122.08 175.52 121.624 175.52 120.84V120.824C175.52 120.08 174.832 119.832 174.192 119.64C173.64 119.472 173.128 119.32 173.128 118.928V118.912C173.128 118.568 173.44 118.312 173.928 118.312C174.28 118.312 174.656 118.432 175.008 118.632C175.04 118.648 175.088 118.664 175.144 118.664C175.296 118.664 175.416 118.544 175.416 118.4C175.416 118.28 175.344 118.192 175.264 118.144C174.864 117.928 174.384 117.792 173.944 117.792C173.128 117.792 172.536 118.264 172.536 118.976V118.992C172.536 119.752 173.256 119.976 173.904 120.16C174.448 120.312 174.936 120.472 174.936 120.888V120.904C174.936 121.304 174.576 121.56 174.08 121.56C173.632 121.56 173.192 121.408 172.768 121.12C172.728 121.088 172.672 121.072 172.616 121.072C172.464 121.072 172.344 121.192 172.344 121.336C172.344 121.44 172.4 121.52 172.456 121.56C172.904 121.88 173.504 122.08 174.048 122.08ZM176.665 121.728C176.665 121.904 176.801 122.04 176.977 122.04C177.153 122.04 177.281 121.904 177.281 121.728V119.64C177.281 118.88 177.777 118.336 178.433 118.336C179.089 118.336 179.497 118.792 179.497 119.568V121.728C179.497 121.904 179.633 122.04 179.801 122.04C179.977 122.04 180.113 121.904 180.113 121.728V119.616C180.113 118.8 180.625 118.336 181.249 118.336C181.921 118.336 182.321 118.784 182.321 119.584V121.728C182.321 121.904 182.457 122.04 182.633 122.04C182.801 122.04 182.937 121.904 182.937 121.728V119.44C182.937 118.416 182.353 117.776 181.401 117.776C180.681 117.776 180.241 118.144 179.945 118.6C179.721 118.136 179.289 117.776 178.617 117.776C177.921 117.776 177.553 118.152 177.281 118.56V118.136C177.281 117.96 177.145 117.824 176.969 117.824C176.801 117.824 176.665 117.968 176.665 118.136V121.728ZM186.162 122.096C187.41 122.096 188.33 121.104 188.33 119.936V119.92C188.33 118.752 187.418 117.776 186.178 117.776C184.93 117.776 184.018 118.768 184.018 119.936V119.952C184.018 121.12 184.922 122.096 186.162 122.096ZM186.178 121.544C185.306 121.544 184.65 120.824 184.65 119.936V119.92C184.65 119.048 185.266 118.32 186.162 118.32C187.034 118.32 187.698 119.048 187.698 119.936V119.952C187.698 120.824 187.074 121.544 186.178 121.544ZM190.83 122.072C191.07 122.072 191.262 122.032 191.438 121.96C191.542 121.92 191.614 121.832 191.614 121.72C191.614 121.576 191.494 121.456 191.35 121.456C191.302 121.456 191.19 121.512 190.974 121.512C190.558 121.512 190.278 121.328 190.278 120.824V118.408H191.35C191.502 118.408 191.63 118.288 191.63 118.136C191.63 117.992 191.502 117.864 191.35 117.864H190.278V116.888C190.278 116.72 190.134 116.576 189.966 116.576C189.79 116.576 189.662 116.72 189.662 116.888V117.864H189.326C189.182 117.864 189.054 117.984 189.054 118.136C189.054 118.28 189.182 118.408 189.326 118.408H189.662V120.904C189.662 121.744 190.166 122.072 190.83 122.072ZM192.931 119.704C193.011 118.896 193.555 118.296 194.275 118.296C195.099 118.296 195.531 118.952 195.595 119.704H192.931ZM195.931 121.472C195.995 121.416 196.027 121.344 196.027 121.272C196.027 121.128 195.907 121.008 195.755 121.008C195.683 121.008 195.627 121.04 195.579 121.08C195.275 121.36 194.899 121.56 194.387 121.56C193.651 121.56 193.019 121.056 192.931 120.16H195.923C196.075 120.16 196.211 120.04 196.211 119.872C196.211 118.776 195.515 117.776 194.291 117.776C193.147 117.776 192.307 118.736 192.307 119.928V119.944C192.307 121.224 193.235 122.096 194.371 122.096C195.075 122.096 195.539 121.848 195.931 121.472ZM198.681 122.072C198.921 122.072 199.113 122.032 199.289 121.96C199.393 121.92 199.465 121.832 199.465 121.72C199.465 121.576 199.345 121.456 199.201 121.456C199.153 121.456 199.041 121.512 198.825 121.512C198.409 121.512 198.129 121.328 198.129 120.824V118.408H199.201C199.353 118.408 199.481 118.288 199.481 118.136C199.481 117.992 199.353 117.864 199.201 117.864H198.129V116.888C198.129 116.72 197.985 116.576 197.817 116.576C197.641 116.576 197.513 116.72 197.513 116.888V117.864H197.177C197.033 117.864 196.905 117.984 196.905 118.136C196.905 118.28 197.033 118.408 197.177 118.408H197.513V120.904C197.513 121.744 198.017 122.072 198.681 122.072Z" fill="#FFCE6C"/>
<path d="M96.3205 66.288C98.8165 66.288 100.881 65.376 102.417 64.248C102.849 63.96 103.065 63.552 103.065 63.096V57.984C103.065 57.456 102.633 57.024 102.129 57.024H96.7285C96.2725 57.024 95.8885 57.408 95.8885 57.888C95.8885 58.344 96.2725 58.728 96.7285 58.728H101.241V62.904C100.089 63.84 98.3125 64.584 96.3925 64.584C92.3125 64.584 89.7445 61.608 89.7445 57.6V57.552C89.7445 53.808 92.4085 50.664 96.1285 50.664C98.2405 50.664 99.5845 51.288 100.785 52.2C100.977 52.344 101.169 52.44 101.385 52.44C101.889 52.44 102.321 52.008 102.321 51.48C102.321 51.144 102.153 50.88 101.937 50.712C100.401 49.584 98.7445 48.912 96.2005 48.912C91.1605 48.912 87.7765 52.992 87.7765 57.6V57.648C87.7765 62.448 91.0405 66.288 96.3205 66.288ZM112.693 66.288C116.437 66.288 119.197 63.312 119.197 59.808V59.76C119.197 56.256 116.461 53.328 112.741 53.328C108.997 53.328 106.261 56.304 106.261 59.808V59.856C106.261 63.36 108.973 66.288 112.693 66.288ZM112.741 64.632C110.125 64.632 108.157 62.472 108.157 59.808V59.76C108.157 57.144 110.005 54.96 112.693 54.96C115.309 54.96 117.301 57.144 117.301 59.808V59.856C117.301 62.472 115.429 64.632 112.741 64.632ZM126.696 66.216C127.416 66.216 127.992 66.096 128.52 65.88C128.832 65.76 129.048 65.496 129.048 65.16C129.048 64.728 128.688 64.368 128.256 64.368C128.112 64.368 127.776 64.536 127.128 64.536C125.88 64.536 125.04 63.984 125.04 62.472V55.224H128.256C128.712 55.224 129.096 54.864 129.096 54.408C129.096 53.976 128.712 53.592 128.256 53.592H125.04V50.664C125.04 50.16 124.608 49.728 124.104 49.728C123.576 49.728 123.192 50.16 123.192 50.664V53.592H122.184C121.752 53.592 121.368 53.952 121.368 54.408C121.368 54.84 121.752 55.224 122.184 55.224H123.192V62.712C123.192 65.232 124.704 66.216 126.696 66.216ZM132.248 65.184C132.248 65.712 132.656 66.12 133.184 66.12C133.712 66.12 134.096 65.712 134.096 65.184V58.896C134.096 56.568 135.68 55.008 137.816 55.008C140 55.008 141.248 56.448 141.248 58.752V65.184C141.248 65.712 141.656 66.12 142.184 66.12C142.688 66.12 143.096 65.712 143.096 65.184V58.296C143.096 55.344 141.344 53.328 138.344 53.328C136.208 53.328 134.912 54.408 134.096 55.752V49.296C134.096 48.792 133.688 48.36 133.16 48.36C132.656 48.36 132.248 48.792 132.248 49.296V65.184ZM147.037 50.016C147.037 50.592 147.517 51 148.117 51C148.741 51 149.221 50.592 149.221 50.016V49.704C149.221 49.104 148.741 48.72 148.117 48.72C147.517 48.72 147.037 49.104 147.037 49.704V50.016ZM147.205 65.184C147.205 65.712 147.613 66.12 148.141 66.12C148.669 66.12 149.053 65.712 149.053 65.184V54.408C149.053 53.88 148.645 53.472 148.117 53.472C147.613 53.472 147.205 53.904 147.205 54.408V65.184ZM157.037 66.264C159.221 66.264 160.661 65.256 161.525 64.128V65.256C161.525 65.736 161.885 66.12 162.413 66.12C162.917 66.12 163.301 65.736 163.301 65.208V58.416C163.301 56.832 162.869 55.632 162.029 54.792C161.117 53.88 159.773 53.424 158.021 53.424C156.437 53.424 155.189 53.736 153.965 54.264C153.725 54.36 153.461 54.648 153.461 55.032C153.461 55.464 153.845 55.824 154.277 55.824C154.373 55.824 154.493 55.8 154.613 55.752C155.525 55.344 156.581 55.056 157.829 55.056C160.157 55.056 161.525 56.208 161.525 58.44V58.872C160.421 58.56 159.293 58.344 157.709 58.344C154.565 58.344 152.405 59.736 152.405 62.352V62.4C152.405 64.944 154.733 66.264 157.037 66.264ZM157.397 64.8C155.717 64.8 154.277 63.888 154.277 62.328V62.28C154.277 60.72 155.573 59.712 157.901 59.712C159.413 59.712 160.637 59.976 161.549 60.24V61.44C161.549 63.408 159.677 64.8 157.397 64.8ZM179.187 65.16C179.187 65.688 179.619 66.12 180.147 66.12C180.675 66.12 181.107 65.688 181.107 65.16V50.952H185.979C186.459 50.952 186.867 50.568 186.867 50.088C186.867 49.608 186.459 49.2 185.979 49.2H174.315C173.835 49.2 173.427 49.608 173.427 50.088C173.427 50.568 173.835 50.952 174.315 50.952H179.187V65.16ZM192.615 66.288C196.359 66.288 199.119 63.312 199.119 59.808V59.76C199.119 56.256 196.383 53.328 192.663 53.328C188.919 53.328 186.183 56.304 186.183 59.808V59.856C186.183 63.36 188.895 66.288 192.615 66.288ZM192.663 64.632C190.047 64.632 188.079 62.472 188.079 59.808V59.76C188.079 57.144 189.927 54.96 192.615 54.96C195.231 54.96 197.223 57.144 197.223 59.808V59.856C197.223 62.472 195.351 64.632 192.663 64.632ZM206.007 66.192H206.055C206.535 66.192 206.895 65.904 207.063 65.352L210.183 56.304L213.279 65.352C213.447 65.904 213.807 66.192 214.287 66.192H214.359C214.791 66.192 215.175 65.904 215.367 65.352L219.159 54.84C219.207 54.696 219.279 54.504 219.279 54.336C219.279 53.88 218.895 53.472 218.367 53.472C217.863 53.472 217.599 53.808 217.479 54.192L214.311 63.552L211.191 54.216C211.047 53.784 210.735 53.472 210.231 53.472H210.135C209.655 53.472 209.367 53.784 209.223 54.216L206.079 63.552L202.959 54.24C202.815 53.784 202.503 53.472 202.023 53.472C201.471 53.472 201.087 53.904 201.087 54.36C201.087 54.528 201.159 54.72 201.207 54.864L204.975 65.352C205.167 65.904 205.551 66.192 206.007 66.192ZM223.141 59.112C223.381 56.688 225.013 54.888 227.173 54.888C229.645 54.888 230.941 56.856 231.133 59.112H223.141ZM232.141 64.416C232.333 64.248 232.429 64.032 232.429 63.816C232.429 63.384 232.069 63.024 231.613 63.024C231.397 63.024 231.229 63.12 231.085 63.24C230.173 64.08 229.045 64.68 227.509 64.68C225.301 64.68 223.405 63.168 223.141 60.48H232.117C232.573 60.48 232.981 60.12 232.981 59.616C232.981 56.328 230.893 53.328 227.221 53.328C223.789 53.328 221.269 56.208 221.269 59.784V59.832C221.269 63.672 224.053 66.288 227.461 66.288C229.573 66.288 230.965 65.544 232.141 64.416ZM236.24 65.184C236.24 65.712 236.648 66.12 237.176 66.12C237.704 66.12 238.088 65.688 238.088 65.184V60.96C238.088 57.384 240.056 55.584 242.456 55.296C242.936 55.224 243.272 54.864 243.272 54.36C243.272 53.832 242.912 53.424 242.36 53.424C240.8 53.424 239 54.672 238.088 56.736V54.408C238.088 53.88 237.68 53.472 237.152 53.472C236.648 53.472 236.24 53.904 236.24 54.408V65.184ZM250.07 66.24C252.542 66.24 254.486 64.872 254.486 62.52V62.472C254.486 60.24 252.422 59.496 250.502 58.92C248.846 58.416 247.31 57.96 247.31 56.784V56.736C247.31 55.704 248.246 54.936 249.71 54.936C250.766 54.936 251.894 55.296 252.95 55.896C253.046 55.944 253.19 55.992 253.358 55.992C253.814 55.992 254.174 55.632 254.174 55.2C254.174 54.84 253.958 54.576 253.718 54.432C252.518 53.784 251.078 53.376 249.758 53.376C247.31 53.376 245.534 54.792 245.534 56.928V56.976C245.534 59.256 247.694 59.928 249.638 60.48C251.27 60.936 252.734 61.416 252.734 62.664V62.712C252.734 63.912 251.654 64.68 250.166 64.68C248.822 64.68 247.502 64.224 246.23 63.36C246.11 63.264 245.942 63.216 245.774 63.216C245.318 63.216 244.958 63.576 244.958 64.008C244.958 64.32 245.126 64.56 245.294 64.68C246.638 65.64 248.438 66.24 250.07 66.24Z" fill="#FFAA00"/>
<path d="M2.50881 121.184C2.50881 121.688 2.91681 122.12 3.42081 122.12C3.94881 122.12 4.35681 121.688 4.35681 121.184V108.176L14.7728 121.496C15.0608 121.832 15.3488 122.072 15.7568 122.072H15.8528C16.3568 122.072 16.7168 121.688 16.7168 121.184V106.016C16.7168 105.512 16.3088 105.08 15.8048 105.08C15.2768 105.08 14.8688 105.512 14.8688 106.016V118.688L4.66881 105.68C4.40481 105.344 4.14081 105.128 3.70881 105.128H3.44481C2.94081 105.128 2.50881 105.56 2.50881 106.064V121.184ZM26.8218 122.288C30.5658 122.288 33.3258 119.312 33.3258 115.808V115.76C33.3258 112.256 30.5898 109.328 26.8698 109.328C23.1258 109.328 20.3898 112.304 20.3898 115.808V115.856C20.3898 119.36 23.1018 122.288 26.8218 122.288ZM26.8698 120.632C24.2538 120.632 22.2858 118.472 22.2858 115.808V115.76C22.2858 113.144 24.1338 110.96 26.8218 110.96C29.4378 110.96 31.4297 113.144 31.4297 115.808V115.856C31.4297 118.472 29.5578 120.632 26.8698 120.632ZM36.6734 121.184C36.6734 121.712 37.0814 122.12 37.6094 122.12C38.1374 122.12 38.5214 121.688 38.5214 121.184V116.96C38.5214 113.384 40.4894 111.584 42.8894 111.296C43.3694 111.224 43.7054 110.864 43.7054 110.36C43.7054 109.832 43.3454 109.424 42.7934 109.424C41.2334 109.424 39.4334 110.672 38.5214 112.736V110.408C38.5214 109.88 38.1134 109.472 37.5854 109.472C37.0814 109.472 36.6734 109.904 36.6734 110.408V121.184ZM57.6923 105.296C57.6923 104.768 57.2843 104.36 56.7563 104.36C56.2283 104.36 55.8443 104.768 55.8443 105.296V111.968C54.8843 110.576 53.3963 109.328 51.0923 109.328C48.1163 109.328 45.1643 111.728 45.1643 115.784V115.832C45.1643 119.912 48.1163 122.264 51.0923 122.264C53.3723 122.264 54.8363 120.992 55.8443 119.504V121.184C55.8443 121.712 56.2523 122.12 56.7803 122.12C57.2843 122.12 57.6923 121.712 57.6923 121.184V105.296ZM51.4283 110.984C53.7323 110.984 55.9163 112.904 55.9163 115.76V115.808C55.9163 118.664 53.7323 120.608 51.4283 120.608C49.1003 120.608 47.0603 118.736 47.0603 115.808V115.76C47.0603 112.76 49.0283 110.984 51.4283 110.984ZM65.9258 122.24C68.3978 122.24 70.3418 120.872 70.3418 118.52V118.472C70.3418 116.24 68.2778 115.496 66.3578 114.92C64.7018 114.416 63.1658 113.96 63.1658 112.784V112.736C63.1658 111.704 64.1018 110.936 65.5658 110.936C66.6218 110.936 67.7498 111.296 68.8058 111.896C68.9018 111.944 69.0458 111.992 69.2138 111.992C69.6698 111.992 70.0298 111.632 70.0298 111.2C70.0298 110.84 69.8138 110.576 69.5738 110.432C68.3738 109.784 66.9338 109.376 65.6138 109.376C63.1658 109.376 61.3898 110.792 61.3898 112.928V112.976C61.3898 115.256 63.5498 115.928 65.4938 116.48C67.1258 116.936 68.5898 117.416 68.5898 118.664V118.712C68.5898 119.912 67.5098 120.68 66.0218 120.68C64.6778 120.68 63.3578 120.224 62.0858 119.36C61.9658 119.264 61.7978 119.216 61.6298 119.216C61.1738 119.216 60.8138 119.576 60.8138 120.008C60.8138 120.32 60.9818 120.56 61.1498 120.68C62.4938 121.64 64.2938 122.24 65.9258 122.24ZM77.6926 122.216C78.4126 122.216 78.9886 122.096 79.5166 121.88C79.8286 121.76 80.0446 121.496 80.0446 121.16C80.0446 120.728 79.6846 120.368 79.2526 120.368C79.1086 120.368 78.7726 120.536 78.1246 120.536C76.8766 120.536 76.0366 119.984 76.0366 118.472V111.224H79.2526C79.7086 111.224 80.0926 110.864 80.0926 110.408C80.0926 109.976 79.7086 109.592 79.2526 109.592H76.0366V106.664C76.0366 106.16 75.6046 105.728 75.1006 105.728C74.5726 105.728 74.1886 106.16 74.1886 106.664V109.592H73.1806C72.7486 109.592 72.3646 109.952 72.3646 110.408C72.3646 110.84 72.7486 111.224 73.1806 111.224H74.1886V118.712C74.1886 121.232 75.7006 122.216 77.6926 122.216ZM86.9397 122.264C89.1237 122.264 90.5637 121.256 91.4277 120.128V121.256C91.4277 121.736 91.7877 122.12 92.3157 122.12C92.8197 122.12 93.2037 121.736 93.2037 121.208V114.416C93.2037 112.832 92.7717 111.632 91.9317 110.792C91.0197 109.88 89.6757 109.424 87.9237 109.424C86.3397 109.424 85.0917 109.736 83.8677 110.264C83.6277 110.36 83.3637 110.648 83.3637 111.032C83.3637 111.464 83.7477 111.824 84.1797 111.824C84.2757 111.824 84.3957 111.8 84.5157 111.752C85.4277 111.344 86.4837 111.056 87.7317 111.056C90.0597 111.056 91.4277 112.208 91.4277 114.44V114.872C90.3237 114.56 89.1957 114.344 87.6117 114.344C84.4677 114.344 82.3077 115.736 82.3077 118.352V118.4C82.3077 120.944 84.6357 122.264 86.9397 122.264ZM87.2997 120.8C85.6197 120.8 84.1797 119.888 84.1797 118.328V118.28C84.1797 116.72 85.4757 115.712 87.8037 115.712C89.3157 115.712 90.5397 115.976 91.4517 116.24V117.44C91.4517 119.408 89.5797 120.8 87.2997 120.8ZM97.1421 121.184C97.1421 121.712 97.5501 122.12 98.0781 122.12C98.6061 122.12 98.9901 121.712 98.9901 121.184V114.896C98.9901 112.568 100.574 111.008 102.71 111.008C104.894 111.008 106.142 112.448 106.142 114.752V121.184C106.142 121.712 106.55 122.12 107.078 122.12C107.582 122.12 107.99 121.712 107.99 121.184V114.296C107.99 111.344 106.238 109.328 103.238 109.328C101.102 109.328 99.8061 110.408 98.9901 111.752V110.408C98.9901 109.88 98.5821 109.472 98.0541 109.472C97.5501 109.472 97.1421 109.904 97.1421 110.408V121.184Z" fill="#FFAA00"/>
<path d="M120.66 156.992C120.88 156.992 121.05 156.822 121.05 156.612C121.05 156.392 120.88 156.222 120.66 156.222L115.44 156.222L118.72 153.992C118.85 153.902 118.92 153.792 118.92 153.652C118.92 153.512 118.85 153.412 118.72 153.322L115.43 151.082L120.65 151.082C120.86 151.082 121.05 150.902 121.05 150.682C121.05 150.472 120.87 150.292 120.65 150.292L114.36 150.292C114.15 150.292 113.97 150.472 113.97 150.682L113.97 150.772C113.97 150.932 114.05 151.062 114.18 151.142L117.94 153.642L114.18 156.142C114.06 156.222 113.97 156.342 113.97 156.512L113.97 156.602C113.97 156.812 114.15 156.992 114.36 156.992L120.66 156.992ZM121.11 146.901C121.11 145.991 120.69 145.391 120.22 145.031L120.69 145.031C120.89 145.031 121.05 144.881 121.05 144.661C121.05 144.451 120.89 144.291 120.67 144.291L117.84 144.291C117.18 144.291 116.68 144.471 116.33 144.821C115.95 145.201 115.76 145.761 115.76 146.491C115.76 147.151 115.89 147.671 116.11 148.181C116.15 148.281 116.27 148.391 116.43 148.391C116.61 148.391 116.76 148.231 116.76 148.051C116.76 148.011 116.75 147.961 116.73 147.911C116.56 147.531 116.44 147.091 116.44 146.571C116.44 145.601 116.92 145.031 117.85 145.031L118.03 145.031C117.9 145.491 117.81 145.961 117.81 146.621C117.81 147.931 118.39 148.831 119.48 148.831L119.5 148.831C120.56 148.831 121.11 147.861 121.11 146.901ZM120.5 146.751C120.5 147.451 120.12 148.051 119.47 148.051L119.45 148.051C118.8 148.051 118.38 147.511 118.38 146.541C118.38 145.911 118.49 145.401 118.6 145.021L119.1 145.021C119.92 145.021 120.5 145.801 120.5 146.751ZM121.1 140.94C121.1 139.91 120.53 139.1 119.55 139.1L119.53 139.1C118.6 139.1 118.29 139.96 118.05 140.76C117.84 141.45 117.65 142.09 117.16 142.09L117.14 142.09C116.71 142.09 116.39 141.7 116.39 141.09C116.39 140.65 116.54 140.18 116.79 139.74C116.81 139.7 116.83 139.64 116.83 139.57C116.83 139.38 116.68 139.23 116.5 139.23C116.35 139.23 116.24 139.32 116.18 139.42C115.91 139.92 115.74 140.52 115.74 141.07C115.74 142.09 116.33 142.83 117.22 142.83L117.24 142.83C118.19 142.83 118.47 141.93 118.7 141.12C118.89 140.44 119.09 139.83 119.61 139.83L119.63 139.83C120.13 139.83 120.45 140.28 120.45 140.9C120.45 141.46 120.26 142.01 119.9 142.54C119.86 142.59 119.84 142.66 119.84 142.73C119.84 142.92 119.99 143.07 120.17 143.07C120.3 143.07 120.4 143 120.45 142.93C120.85 142.37 121.1 141.62 121.1 140.94ZM121.09 136.037C121.09 135.737 121.04 135.497 120.95 135.277C120.9 135.147 120.79 135.057 120.65 135.057C120.47 135.057 120.32 135.207 120.32 135.387C120.32 135.447 120.39 135.587 120.39 135.857C120.39 136.377 120.16 136.727 119.53 136.727L116.51 136.727L116.51 135.387C116.51 135.197 116.36 135.037 116.17 135.037C115.99 135.037 115.83 135.197 115.83 135.387L115.83 136.727L114.61 136.727C114.4 136.727 114.22 136.907 114.22 137.117C114.22 137.337 114.4 137.497 114.61 137.497L115.83 137.497L115.83 137.917C115.83 138.097 115.98 138.257 116.17 138.257C116.35 138.257 116.51 138.097 116.51 137.917L116.51 137.497L119.63 137.497C120.68 137.497 121.09 136.867 121.09 136.037ZM120.66 133.724C120.88 133.724 121.05 133.554 121.05 133.334C121.05 133.114 120.88 132.954 120.66 132.954L118.04 132.954C117.07 132.954 116.42 132.294 116.42 131.404C116.42 130.494 117.02 129.974 117.98 129.974L120.66 129.974C120.88 129.974 121.05 129.804 121.05 129.584C121.05 129.374 120.88 129.204 120.66 129.204L117.79 129.204C116.56 129.204 115.72 129.934 115.72 131.184C115.72 132.074 116.17 132.614 116.73 132.954L114.04 132.954C113.83 132.954 113.65 133.124 113.65 133.344C113.65 133.554 113.83 133.724 114.04 133.724L120.66 133.724ZM116.17 123.132C115.95 123.132 115.78 123.302 115.78 123.512C115.78 123.732 115.95 123.892 116.17 123.892L118.79 123.892C119.76 123.892 120.41 124.562 120.41 125.442C120.41 126.352 119.81 126.872 118.85 126.872L116.17 126.872C115.95 126.872 115.78 127.052 115.78 127.262C115.78 127.482 115.95 127.642 116.17 127.642L119.04 127.642C120.27 127.642 121.11 126.912 121.11 125.662C121.11 124.772 120.66 124.242 120.1 123.892L120.66 123.892C120.88 123.892 121.05 123.722 121.05 123.512C121.05 123.292 120.87 123.132 120.66 123.132L116.17 123.132ZM122.62 119.11C122.62 118.29 122.39 117.6 121.93 117.14C121.51 116.72 120.9 116.48 120.1 116.48L116.17 116.48C115.96 116.48 115.78 116.65 115.78 116.87C115.78 117.09 115.96 117.25 116.17 117.25L116.76 117.25C116.2 117.67 115.72 118.3 115.72 119.27C115.72 120.5 116.65 121.7 118.16 121.7L118.18 121.7C119.67 121.7 120.6 120.51 120.6 119.27C120.6 118.32 120.11 117.69 119.51 117.24L120.12 117.24C121.33 117.24 121.96 117.98 121.96 119.12C121.96 119.79 121.76 120.41 121.4 120.95C121.37 121 121.35 121.05 121.35 121.12C121.35 121.3 121.52 121.47 121.69 121.47C121.83 121.47 121.95 121.39 122.01 121.27C122.41 120.62 122.62 119.9 122.62 119.11ZM119.92 119.12C119.92 120.08 119.2 120.91 118.16 120.91L118.14 120.91C117.08 120.91 116.4 120.1 116.4 119.12C116.4 118.14 117.09 117.22 118.15 117.22L118.17 117.22C119.21 117.22 119.92 118.14 119.92 119.12ZM122.62 112.469C122.62 111.649 122.39 110.959 121.93 110.499C121.51 110.079 120.9 109.839 120.1 109.839L116.17 109.839C115.96 109.839 115.78 110.009 115.78 110.229C115.78 110.449 115.96 110.609 116.17 110.609L116.76 110.609C116.2 111.029 115.72 111.659 115.72 112.629C115.72 113.859 116.65 115.059 118.16 115.059L118.18 115.059C119.67 115.059 120.6 113.869 120.6 112.629C120.6 111.679 120.11 111.049 119.51 110.599L120.12 110.599C121.33 110.599 121.96 111.339 121.96 112.479C121.96 113.149 121.76 113.769 121.4 114.309C121.37 114.359 121.35 114.409 121.35 114.479C121.35 114.659 121.52 114.829 121.69 114.829C121.83 114.829 121.95 114.749 122.01 114.629C122.41 113.979 122.62 113.259 122.62 112.469ZM119.92 112.479C119.92 113.439 119.2 114.269 118.16 114.269L118.14 114.269C117.08 114.269 116.4 113.459 116.4 112.479C116.4 111.499 117.09 110.579 118.15 110.579L118.17 110.579C119.21 110.579 119.92 111.499 119.92 112.479ZM118.13 107.659C117.12 107.559 116.37 106.879 116.37 105.979C116.37 104.949 117.19 104.409 118.13 104.329L118.13 107.659ZM120.34 103.909C120.27 103.829 120.18 103.789 120.09 103.789C119.91 103.789 119.76 103.939 119.76 104.129C119.76 104.219 119.8 104.289 119.85 104.349C120.2 104.729 120.45 105.199 120.45 105.839C120.45 106.759 119.82 107.549 118.7 107.659L118.7 103.919C118.7 103.729 118.55 103.559 118.34 103.559C116.97 103.559 115.72 104.429 115.72 105.959C115.72 107.389 116.92 108.439 118.41 108.439L118.43 108.439C120.03 108.439 121.12 107.279 121.12 105.859C121.12 104.979 120.81 104.399 120.34 103.909ZM121.09 100.471C121.09 100.171 121.04 99.9305 120.95 99.7105C120.9 99.5805 120.79 99.4905 120.65 99.4905C120.47 99.4905 120.32 99.6405 120.32 99.8205C120.32 99.8805 120.39 100.021 120.39 100.291C120.39 100.811 120.16 101.161 119.53 101.161L116.51 101.161L116.51 99.8205C116.51 99.6305 116.36 99.4705 116.17 99.4705C115.99 99.4705 115.83 99.6305 115.83 99.8205L115.83 101.161L114.61 101.161C114.4 101.161 114.22 101.341 114.22 101.551C114.22 101.771 114.4 101.931 114.61 101.931L115.83 101.931L115.83 102.351C115.83 102.531 115.98 102.691 116.17 102.691C116.35 102.691 116.51 102.531 116.51 102.351L116.51 101.931L119.63 101.931C120.68 101.931 121.09 101.301 121.09 100.471Z" fill="#FFC95C"/>
<path d="M91.3279 32.6C91.3279 32.82 91.5079 33 91.7179 33H94.4379C95.9679 33 96.9779 32.29 96.9779 31.09V31.07C96.9779 30.11 96.3079 29.63 95.4779 29.38C96.0279 29.14 96.5879 28.67 96.5879 27.76V27.74C96.5879 27.29 96.4279 26.92 96.1379 26.62C95.7379 26.23 95.1079 26 94.3079 26H91.7179C91.5079 26 91.3279 26.18 91.3279 26.4V32.6ZM92.1079 29.12V26.71H94.2379C95.2379 26.71 95.7879 27.16 95.7879 27.85V27.87C95.7879 28.69 95.1279 29.12 94.1779 29.12H92.1079ZM92.1079 32.29V29.82H94.3179C95.5379 29.82 96.1779 30.26 96.1779 31.02V31.04C96.1779 31.82 95.5179 32.29 94.4579 32.29H92.1079ZM98.4147 26.34C98.4147 26.58 98.6147 26.75 98.8647 26.75C99.1247 26.75 99.3247 26.58 99.3247 26.34V26.21C99.3247 25.96 99.1247 25.8 98.8647 25.8C98.6147 25.8 98.4147 25.96 98.4147 26.21V26.34ZM98.4847 32.66C98.4847 32.88 98.6547 33.05 98.8747 33.05C99.0947 33.05 99.2547 32.88 99.2547 32.66V28.17C99.2547 27.95 99.0847 27.78 98.8647 27.78C98.6547 27.78 98.4847 27.96 98.4847 28.17V32.66ZM101.112 32.66C101.112 32.88 101.282 33.05 101.502 33.05C101.722 33.05 101.882 32.88 101.882 32.66V26.04C101.882 25.83 101.712 25.65 101.492 25.65C101.282 25.65 101.112 25.83 101.112 26.04V32.66ZM106.179 32.75L108.129 28.35C108.149 28.3 108.169 28.23 108.169 28.16C108.169 27.95 107.999 27.78 107.789 27.78C107.589 27.78 107.479 27.91 107.429 28.06L105.729 32.12L104.059 28.08C103.999 27.91 103.889 27.78 103.669 27.78C103.449 27.78 103.279 27.96 103.279 28.16C103.279 28.23 103.309 28.3 103.329 28.37L105.269 32.75C105.359 32.95 105.499 33.08 105.709 33.08H105.749C105.959 33.08 106.089 32.95 106.179 32.75ZM110.834 33.11C111.744 33.11 112.344 32.69 112.704 32.22V32.69C112.704 32.89 112.854 33.05 113.074 33.05C113.284 33.05 113.444 32.89 113.444 32.67V29.84C113.444 29.18 113.264 28.68 112.914 28.33C112.534 27.95 111.974 27.76 111.244 27.76C110.584 27.76 110.064 27.89 109.554 28.11C109.454 28.15 109.344 28.27 109.344 28.43C109.344 28.61 109.504 28.76 109.684 28.76C109.724 28.76 109.774 28.75 109.824 28.73C110.204 28.56 110.644 28.44 111.164 28.44C112.134 28.44 112.704 28.92 112.704 29.85V30.03C112.244 29.9 111.774 29.81 111.114 29.81C109.804 29.81 108.904 30.39 108.904 31.48V31.5C108.904 32.56 109.874 33.11 110.834 33.11ZM110.984 32.5C110.284 32.5 109.684 32.12 109.684 31.47V31.45C109.684 30.8 110.224 30.38 111.194 30.38C111.824 30.38 112.334 30.49 112.714 30.6V31.1C112.714 31.92 111.934 32.5 110.984 32.5ZM112.214 26.05C111.954 26.05 111.744 26.24 111.744 26.5V26.65C111.744 26.91 111.954 27.1 112.214 27.1C112.474 27.1 112.684 26.91 112.684 26.65V26.5C112.684 26.24 112.474 26.05 112.214 26.05ZM110.434 26.05C110.174 26.05 109.964 26.24 109.964 26.5V26.65C109.964 26.91 110.174 27.1 110.434 27.1C110.694 27.1 110.904 26.91 110.904 26.65V26.5C110.904 26.24 110.694 26.05 110.434 26.05ZM117.375 34.62C118.195 34.62 118.885 34.39 119.345 33.93C119.765 33.51 120.005 32.9 120.005 32.1V28.17C120.005 27.96 119.835 27.78 119.615 27.78C119.395 27.78 119.235 27.96 119.235 28.17V28.76C118.815 28.2 118.185 27.72 117.215 27.72C115.985 27.72 114.785 28.65 114.785 30.16V30.18C114.785 31.67 115.975 32.6 117.215 32.6C118.165 32.6 118.795 32.11 119.245 31.51V32.12C119.245 33.33 118.505 33.96 117.365 33.96C116.695 33.96 116.075 33.76 115.535 33.4C115.485 33.37 115.435 33.35 115.365 33.35C115.185 33.35 115.015 33.52 115.015 33.69C115.015 33.83 115.095 33.95 115.215 34.01C115.865 34.41 116.585 34.62 117.375 34.62ZM117.365 31.92C116.405 31.92 115.575 31.2 115.575 30.16V30.14C115.575 29.08 116.385 28.4 117.365 28.4C118.345 28.4 119.265 29.09 119.265 30.15V30.17C119.265 31.21 118.345 31.92 117.365 31.92ZM123.265 33.11C124.175 33.11 124.775 32.69 125.135 32.22V32.69C125.135 32.89 125.285 33.05 125.505 33.05C125.715 33.05 125.875 32.89 125.875 32.67V29.84C125.875 29.18 125.695 28.68 125.345 28.33C124.965 27.95 124.405 27.76 123.675 27.76C123.015 27.76 122.495 27.89 121.985 28.11C121.885 28.15 121.775 28.27 121.775 28.43C121.775 28.61 121.935 28.76 122.115 28.76C122.155 28.76 122.205 28.75 122.255 28.73C122.635 28.56 123.075 28.44 123.595 28.44C124.565 28.44 125.135 28.92 125.135 29.85V30.03C124.675 29.9 124.205 29.81 123.545 29.81C122.235 29.81 121.335 30.39 121.335 31.48V31.5C121.335 32.56 122.305 33.11 123.265 33.11ZM123.415 32.5C122.715 32.5 122.115 32.12 122.115 31.47V31.45C122.115 30.8 122.655 30.38 123.625 30.38C124.255 30.38 124.765 30.49 125.145 30.6V31.1C125.145 31.92 124.365 32.5 123.415 32.5ZM127.516 32.66C127.516 32.88 127.686 33.05 127.906 33.05C128.126 33.05 128.286 32.87 128.286 32.66V30.9C128.286 29.41 129.106 28.66 130.106 28.54C130.306 28.51 130.446 28.36 130.446 28.15C130.446 27.93 130.296 27.76 130.066 27.76C129.416 27.76 128.666 28.28 128.286 29.14V28.17C128.286 27.95 128.116 27.78 127.896 27.78C127.686 27.78 127.516 27.96 127.516 28.17V32.66ZM131.569 32.66C131.569 32.88 131.739 33.05 131.959 33.05C132.179 33.05 132.339 32.88 132.339 32.66V30.04C132.339 29.07 132.999 28.42 133.889 28.42C134.799 28.42 135.319 29.02 135.319 29.98V32.66C135.319 32.88 135.489 33.05 135.709 33.05C135.919 33.05 136.089 32.88 136.089 32.66V29.79C136.089 28.56 135.359 27.72 134.109 27.72C133.219 27.72 132.679 28.17 132.339 28.73V28.17C132.339 27.95 132.169 27.78 131.949 27.78C131.739 27.78 131.569 27.96 131.569 28.17V32.66ZM139.271 33.11C140.181 33.11 140.781 32.69 141.141 32.22V32.69C141.141 32.89 141.291 33.05 141.511 33.05C141.721 33.05 141.881 32.89 141.881 32.67V29.84C141.881 29.18 141.701 28.68 141.351 28.33C140.971 27.95 140.411 27.76 139.681 27.76C139.021 27.76 138.501 27.89 137.991 28.11C137.891 28.15 137.781 28.27 137.781 28.43C137.781 28.61 137.941 28.76 138.121 28.76C138.161 28.76 138.211 28.75 138.261 28.73C138.641 28.56 139.081 28.44 139.601 28.44C140.571 28.44 141.141 28.92 141.141 29.85V30.03C140.681 29.9 140.211 29.81 139.551 29.81C138.241 29.81 137.341 30.39 137.341 31.48V31.5C137.341 32.56 138.311 33.11 139.271 33.11ZM139.421 32.5C138.721 32.5 138.121 32.12 138.121 31.47V31.45C138.121 30.8 138.661 30.38 139.631 30.38C140.261 30.38 140.771 30.49 141.151 30.6V31.1C141.151 31.92 140.371 32.5 139.421 32.5Z" fill="#FFC95C"/>
</svg>
