<svg width="251" height="195" viewBox="0 0 251 195" fill="none" xmlns="http://www.w3.org/2000/svg">
<path d="M61.0199 98.32C65.4679 98.32 68.6679 95.824 68.6679 91.984V91.92C68.6679 88.496 66.3639 86.672 61.3719 85.584C56.4439 84.528 55.2919 83.344 55.2919 81.232V81.168C55.2919 79.152 57.1479 77.552 60.0599 77.552C62.1399 77.552 63.9639 78.128 65.8519 79.504C66.0759 79.664 66.2999 79.728 66.5879 79.728C67.2599 79.728 67.8039 79.184 67.8039 78.512C67.8039 78.032 67.5159 77.68 67.2599 77.488C65.2119 76.016 63.0679 75.28 60.1239 75.28C55.8679 75.28 52.7639 77.872 52.7639 81.392V81.456C52.7639 85.136 55.1319 86.8 60.2839 87.92C64.9879 88.912 66.1079 90.096 66.1079 92.176V92.24C66.1079 94.448 64.1239 96.048 61.1159 96.048C58.2679 96.048 56.1559 95.184 54.0439 93.392C53.8839 93.232 53.5959 93.104 53.2759 93.104C52.6039 93.104 52.0599 93.648 52.0599 94.352C52.0599 94.768 52.2519 95.12 52.5399 95.312C55.0359 97.296 57.7559 98.32 61.0199 98.32ZM73.3926 76.688C73.3926 77.456 74.0326 78 74.8326 78C75.6646 78 76.3046 77.456 76.3046 76.688V76.272C76.3046 75.472 75.6646 74.96 74.8326 74.96C74.0326 74.96 73.3926 75.472 73.3926 76.272V76.688ZM72.1446 103.216C74.5446 103.216 76.0806 101.872 76.0806 98.96V82.544C76.0806 81.84 75.5366 81.296 74.8326 81.296C74.1606 81.296 73.6166 81.872 73.6166 82.544V99.024C73.6166 100.464 72.9126 101.136 71.8886 101.136C71.7286 101.136 71.5366 101.104 71.3446 101.104C70.8006 101.104 70.3206 101.552 70.3206 102.128C70.3206 102.8 70.8646 103.152 71.5686 103.184C71.7286 103.216 71.9206 103.216 72.1446 103.216ZM92.2309 75.76C91.3989 75.76 90.7269 76.368 90.7269 77.2V77.68C90.7269 78.512 91.3989 79.12 92.2309 79.12C93.0629 79.12 93.7349 78.512 93.7349 77.68V77.2C93.7349 76.368 93.0629 75.76 92.2309 75.76ZM86.5349 75.76C85.7029 75.76 85.0309 76.368 85.0309 77.2V77.68C85.0309 78.512 85.7029 79.12 86.5349 79.12C87.3669 79.12 88.0389 78.512 88.0389 77.68V77.2C88.0389 76.368 87.3669 75.76 86.5349 75.76ZM89.3509 98.384C94.3429 98.384 98.0229 94.416 98.0229 89.744V89.68C98.0229 85.008 94.3749 81.104 89.4149 81.104C84.4229 81.104 80.7749 85.072 80.7749 89.744V89.808C80.7749 94.48 84.3909 98.384 89.3509 98.384ZM89.4149 96.176C85.9269 96.176 83.3029 93.296 83.3029 89.744V89.68C83.3029 86.192 85.7669 83.28 89.3509 83.28C92.8389 83.28 95.4949 86.192 95.4949 89.744V89.808C95.4949 93.296 92.9989 96.176 89.4149 96.176ZM102.486 96.912C102.486 97.584 103.03 98.16 103.734 98.16C104.438 98.16 104.95 97.584 104.95 96.912V94.832C106.23 96.688 108.214 98.352 111.286 98.352C115.286 98.352 119.19 95.152 119.19 89.744V89.68C119.19 84.24 115.254 81.104 111.286 81.104C108.246 81.104 106.294 82.8 104.95 84.784V75.728C104.95 75.024 104.406 74.48 103.702 74.48C103.03 74.48 102.486 75.024 102.486 75.728V96.912ZM110.838 96.144C107.766 96.144 104.854 93.584 104.854 89.744V89.68C104.854 85.904 107.766 83.312 110.838 83.312C113.974 83.312 116.662 85.808 116.662 89.712V89.776C116.662 93.776 114.038 96.144 110.838 96.144ZM131.288 98.384C136.28 98.384 139.96 94.416 139.96 89.744V89.68C139.96 85.008 136.312 81.104 131.352 81.104C126.36 81.104 122.712 85.072 122.712 89.744V89.808C122.712 94.48 126.328 98.384 131.288 98.384ZM131.352 96.176C127.864 96.176 125.24 93.296 125.24 89.744V89.68C125.24 86.192 127.704 83.28 131.288 83.28C134.776 83.28 137.432 86.192 137.432 89.744V89.808C137.432 93.296 134.936 96.176 131.352 96.176ZM144.424 96.912C144.424 97.616 144.968 98.16 145.672 98.16C146.376 98.16 146.888 97.584 146.888 96.912V91.28C146.888 86.512 149.512 84.112 152.712 83.728C153.352 83.632 153.8 83.152 153.8 82.48C153.8 81.776 153.32 81.232 152.584 81.232C150.504 81.232 148.104 82.896 146.888 85.648V82.544C146.888 81.84 146.344 81.296 145.64 81.296C144.968 81.296 144.424 81.872 144.424 82.544V96.912ZM157.393 96.912C157.393 97.616 157.937 98.16 158.641 98.16C159.345 98.16 159.857 97.584 159.857 96.912V91.28C159.857 86.512 162.481 84.112 165.681 83.728C166.321 83.632 166.769 83.152 166.769 82.48C166.769 81.776 166.289 81.232 165.553 81.232C163.473 81.232 161.073 82.896 159.857 85.648V82.544C159.857 81.84 159.313 81.296 158.609 81.296C157.937 81.296 157.393 81.872 157.393 82.544V96.912ZM171.115 88.816C171.435 85.584 173.611 83.184 176.491 83.184C179.787 83.184 181.515 85.808 181.771 88.816H171.115ZM183.115 95.888C183.371 95.664 183.499 95.376 183.499 95.088C183.499 94.512 183.019 94.032 182.411 94.032C182.123 94.032 181.899 94.16 181.707 94.32C180.491 95.44 178.987 96.24 176.939 96.24C173.995 96.24 171.467 94.224 171.115 90.64H183.083C183.691 90.64 184.235 90.16 184.235 89.488C184.235 85.104 181.451 81.104 176.555 81.104C171.979 81.104 168.619 84.944 168.619 89.712V89.776C168.619 94.896 172.331 98.384 176.875 98.384C179.691 98.384 181.547 97.392 183.115 95.888Z" fill="#00BFFF"/>
<path d="M189.042 82.68C189.042 82.856 189.186 83 189.354 83H190.986C192.746 83 193.962 81.776 193.962 80.2V80.184C193.962 78.608 192.746 77.4 190.986 77.4H189.354C189.186 77.4 189.042 77.544 189.042 77.72V82.68ZM189.674 82.416V77.984H190.986C192.402 77.984 193.306 78.96 193.306 80.2V80.216C193.306 81.456 192.402 82.416 190.986 82.416H189.674ZM197.804 77.44C197.596 77.44 197.428 77.592 197.428 77.8V77.92C197.428 78.128 197.596 78.28 197.804 78.28C198.012 78.28 198.18 78.128 198.18 77.92V77.8C198.18 77.592 198.012 77.44 197.804 77.44ZM196.38 77.44C196.172 77.44 196.004 77.592 196.004 77.8V77.92C196.004 78.128 196.172 78.28 196.38 78.28C196.588 78.28 196.756 78.128 196.756 77.92V77.8C196.756 77.592 196.588 77.44 196.38 77.44ZM197.084 83.096C198.332 83.096 199.252 82.104 199.252 80.936V80.92C199.252 79.752 198.34 78.776 197.1 78.776C195.852 78.776 194.94 79.768 194.94 80.936V80.952C194.94 82.12 195.844 83.096 197.084 83.096ZM197.1 82.544C196.228 82.544 195.572 81.824 195.572 80.936V80.92C195.572 80.048 196.188 79.32 197.084 79.32C197.956 79.32 198.62 80.048 198.62 80.936V80.952C198.62 81.824 197.996 82.544 197.1 82.544ZM204.304 77.432C204.304 77.256 204.168 77.12 203.992 77.12C203.816 77.12 203.688 77.256 203.688 77.432V79.656C203.368 79.192 202.872 78.776 202.104 78.776C201.112 78.776 200.128 79.576 200.128 80.928V80.944C200.128 82.304 201.112 83.088 202.104 83.088C202.864 83.088 203.352 82.664 203.688 82.168V82.728C203.688 82.904 203.824 83.04 204 83.04C204.168 83.04 204.304 82.904 204.304 82.728V77.432ZM202.216 79.328C202.984 79.328 203.712 79.968 203.712 80.92V80.936C203.712 81.888 202.984 82.536 202.216 82.536C201.44 82.536 200.76 81.912 200.76 80.936V80.92C200.76 79.92 201.416 79.328 202.216 79.328ZM208.079 82.728C208.079 82.904 208.215 83.04 208.391 83.04C208.567 83.04 208.695 82.904 208.695 82.728V80.64C208.695 79.88 209.191 79.336 209.847 79.336C210.503 79.336 210.911 79.792 210.911 80.568V82.728C210.911 82.904 211.047 83.04 211.215 83.04C211.391 83.04 211.527 82.904 211.527 82.728V80.616C211.527 79.8 212.039 79.336 212.663 79.336C213.335 79.336 213.735 79.784 213.735 80.584V82.728C213.735 82.904 213.871 83.04 214.047 83.04C214.215 83.04 214.351 82.904 214.351 82.728V80.44C214.351 79.416 213.767 78.776 212.815 78.776C212.095 78.776 211.655 79.144 211.359 79.6C211.135 79.136 210.703 78.776 210.031 78.776C209.335 78.776 208.967 79.152 208.695 79.56V79.136C208.695 78.96 208.559 78.824 208.383 78.824C208.215 78.824 208.079 78.968 208.079 79.136V82.728ZM216.92 83.088C217.648 83.088 218.128 82.752 218.416 82.376V82.752C218.416 82.912 218.536 83.04 218.712 83.04C218.88 83.04 219.008 82.912 219.008 82.736V80.472C219.008 79.944 218.864 79.544 218.584 79.264C218.28 78.96 217.832 78.808 217.248 78.808C216.72 78.808 216.304 78.912 215.896 79.088C215.816 79.12 215.728 79.216 215.728 79.344C215.728 79.488 215.856 79.608 216 79.608C216.032 79.608 216.072 79.6 216.112 79.584C216.416 79.448 216.768 79.352 217.184 79.352C217.96 79.352 218.416 79.736 218.416 80.48V80.624C218.048 80.52 217.672 80.448 217.144 80.448C216.096 80.448 215.376 80.912 215.376 81.784V81.8C215.376 82.648 216.152 83.088 216.92 83.088ZM217.04 82.6C216.48 82.6 216 82.296 216 81.776V81.76C216 81.24 216.432 80.904 217.208 80.904C217.712 80.904 218.12 80.992 218.424 81.08V81.48C218.424 82.136 217.8 82.6 217.04 82.6ZM220.321 82.728C220.321 82.904 220.457 83.04 220.633 83.04C220.809 83.04 220.937 82.904 220.937 82.728V80.632C220.937 79.856 221.465 79.336 222.177 79.336C222.905 79.336 223.321 79.816 223.321 80.584V82.728C223.321 82.904 223.457 83.04 223.633 83.04C223.801 83.04 223.937 82.904 223.937 82.728V80.432C223.937 79.448 223.353 78.776 222.353 78.776C221.641 78.776 221.209 79.136 220.937 79.584V79.136C220.937 78.96 220.801 78.824 220.625 78.824C220.457 78.824 220.321 78.968 220.321 79.136V82.728ZM226.618 83.08C227.443 83.08 228.091 82.624 228.091 81.84V81.824C228.091 81.08 227.403 80.832 226.763 80.64C226.211 80.472 225.699 80.32 225.699 79.928V79.912C225.699 79.568 226.011 79.312 226.499 79.312C226.851 79.312 227.227 79.432 227.579 79.632C227.611 79.648 227.659 79.664 227.715 79.664C227.867 79.664 227.987 79.544 227.987 79.4C227.987 79.28 227.915 79.192 227.835 79.144C227.435 78.928 226.955 78.792 226.515 78.792C225.699 78.792 225.107 79.264 225.107 79.976V79.992C225.107 80.752 225.827 80.976 226.475 81.16C227.019 81.312 227.507 81.472 227.507 81.888V81.904C227.507 82.304 227.147 82.56 226.651 82.56C226.203 82.56 225.763 82.408 225.339 82.12C225.299 82.088 225.243 82.072 225.187 82.072C225.035 82.072 224.915 82.192 224.915 82.336C224.915 82.44 224.971 82.52 225.027 82.56C225.475 82.88 226.075 83.08 226.618 83.08ZM231.633 82.728C231.633 82.904 231.769 83.04 231.945 83.04C232.121 83.04 232.249 82.904 232.249 82.728V80.632C232.249 79.856 232.777 79.336 233.489 79.336C234.217 79.336 234.633 79.816 234.633 80.584V82.728C234.633 82.904 234.769 83.04 234.945 83.04C235.113 83.04 235.249 82.904 235.249 82.728V80.432C235.249 79.448 234.665 78.776 233.665 78.776C232.953 78.776 232.521 79.136 232.249 79.584V77.432C232.249 77.264 232.113 77.12 231.937 77.12C231.769 77.12 231.633 77.264 231.633 77.432V82.728ZM237.795 83.088C238.523 83.088 239.003 82.752 239.291 82.376V82.752C239.291 82.912 239.411 83.04 239.587 83.04C239.755 83.04 239.883 82.912 239.883 82.736V80.472C239.883 79.944 239.739 79.544 239.459 79.264C239.155 78.96 238.707 78.808 238.123 78.808C237.595 78.808 237.179 78.912 236.771 79.088C236.691 79.12 236.603 79.216 236.603 79.344C236.603 79.488 236.731 79.608 236.875 79.608C236.907 79.608 236.947 79.6 236.987 79.584C237.291 79.448 237.643 79.352 238.059 79.352C238.835 79.352 239.291 79.736 239.291 80.48V80.624C238.923 80.52 238.547 80.448 238.019 80.448C236.971 80.448 236.251 80.912 236.251 81.784V81.8C236.251 82.648 237.027 83.088 237.795 83.088ZM237.915 82.6C237.355 82.6 236.875 82.296 236.875 81.776V81.76C236.875 81.24 237.307 80.904 238.083 80.904C238.587 80.904 238.995 80.992 239.299 81.08V81.48C239.299 82.136 238.675 82.6 237.915 82.6ZM241.196 82.728C241.196 82.904 241.332 83.04 241.508 83.04C241.684 83.04 241.812 82.904 241.812 82.728V80.632C241.812 79.856 242.34 79.336 243.052 79.336C243.78 79.336 244.196 79.816 244.196 80.584V82.728C244.196 82.904 244.332 83.04 244.508 83.04C244.676 83.04 244.812 82.904 244.812 82.728V80.432C244.812 79.448 244.228 78.776 243.228 78.776C242.516 78.776 242.084 79.136 241.812 79.584V79.136C241.812 78.96 241.676 78.824 241.5 78.824C241.332 78.824 241.196 78.968 241.196 79.136V82.728ZM250.062 77.432C250.062 77.256 249.926 77.12 249.75 77.12C249.574 77.12 249.446 77.256 249.446 77.432V79.656C249.126 79.192 248.63 78.776 247.862 78.776C246.87 78.776 245.886 79.576 245.886 80.928V80.944C245.886 82.304 246.87 83.088 247.862 83.088C248.622 83.088 249.11 82.664 249.446 82.168V82.728C249.446 82.904 249.582 83.04 249.758 83.04C249.926 83.04 250.062 82.904 250.062 82.728V77.432ZM247.974 79.328C248.742 79.328 249.47 79.968 249.47 80.92V80.936C249.47 81.888 248.742 82.536 247.974 82.536C247.198 82.536 246.518 81.912 246.518 80.936V80.92C246.518 79.92 247.174 79.328 247.974 79.328Z" fill="#9FE7FF"/>
<path d="M151.36 192.932C151.712 192.932 152 192.644 152 192.308L152 187.956C152 185.508 150.864 183.892 148.944 183.892L148.912 183.892C147.376 183.892 146.608 184.964 146.208 186.292C145.824 185.412 145.072 184.516 143.616 184.516L143.584 184.516C142.864 184.516 142.272 184.772 141.792 185.236C141.168 185.876 140.8 186.884 140.8 188.164L140.8 192.308C140.8 192.644 141.088 192.932 141.44 192.932L151.36 192.932ZM145.792 191.684L141.936 191.684L141.936 188.276C141.936 186.676 142.656 185.796 143.76 185.796L143.792 185.796C145.104 185.796 145.792 186.852 145.792 188.372L145.792 191.684ZM150.864 191.684L146.912 191.684L146.912 188.148C146.912 186.196 147.616 185.172 148.832 185.172L148.864 185.172C150.112 185.172 150.864 186.228 150.864 187.924L150.864 191.684ZM152.176 179.129C152.176 177.673 151.504 176.713 150.752 176.137L151.504 176.137C151.824 176.137 152.08 175.897 152.08 175.545C152.08 175.209 151.824 174.953 151.472 174.953L146.944 174.953C145.888 174.953 145.088 175.241 144.528 175.801C143.92 176.409 143.616 177.305 143.616 178.473C143.616 179.529 143.824 180.361 144.176 181.177C144.24 181.337 144.432 181.513 144.688 181.513C144.976 181.513 145.216 181.257 145.216 180.969C145.216 180.905 145.2 180.825 145.168 180.745C144.896 180.137 144.704 179.433 144.704 178.601C144.704 177.049 145.472 176.137 146.96 176.137L147.248 176.137C147.04 176.873 146.896 177.625 146.896 178.681C146.896 180.777 147.824 182.217 149.568 182.217L149.6 182.217C151.296 182.217 152.176 180.665 152.176 179.129ZM151.2 178.889C151.2 180.009 150.592 180.969 149.552 180.969L149.52 180.969C148.48 180.969 147.808 180.105 147.808 178.553C147.808 177.545 147.984 176.729 148.16 176.121L148.96 176.121C150.272 176.121 151.2 177.369 151.2 178.889ZM140.88 176.921C140.88 177.337 141.184 177.673 141.6 177.673L141.84 177.673C142.256 177.673 142.56 177.337 142.56 176.921C142.56 176.505 142.256 176.169 141.84 176.169L141.6 176.169C141.184 176.169 140.88 176.505 140.88 176.921ZM140.88 179.769C140.88 180.185 141.184 180.521 141.6 180.521L141.84 180.521C142.256 180.521 142.56 180.185 142.56 179.769C142.56 179.353 142.256 179.017 141.84 179.017L141.6 179.017C141.184 179.017 140.88 179.353 140.88 179.769ZM154.592 168.663C154.592 167.351 154.224 166.247 153.488 165.511C152.816 164.839 151.84 164.455 150.56 164.455L144.272 164.455C143.936 164.455 143.648 164.727 143.648 165.079C143.648 165.431 143.936 165.687 144.272 165.687L145.216 165.687C144.32 166.359 143.552 167.367 143.552 168.919C143.552 170.887 145.04 172.807 147.456 172.807L147.488 172.807C149.872 172.807 151.36 170.903 151.36 168.919C151.36 167.399 150.576 166.391 149.616 165.671L150.592 165.671C152.528 165.671 153.536 166.855 153.536 168.679C153.536 169.751 153.216 170.743 152.64 171.607C152.592 171.687 152.56 171.767 152.56 171.879C152.56 172.167 152.832 172.439 153.104 172.439C153.328 172.439 153.52 172.311 153.616 172.119C154.256 171.079 154.592 169.927 154.592 168.663ZM150.272 168.679C150.272 170.215 149.12 171.543 147.456 171.543L147.424 171.543C145.728 171.543 144.64 170.247 144.64 168.679C144.64 167.111 145.744 165.639 147.44 165.639L147.472 165.639C149.136 165.639 150.272 167.111 150.272 168.679ZM152.176 159.238C152.176 157.782 151.504 156.822 150.752 156.246L151.504 156.246C151.824 156.246 152.08 156.006 152.08 155.654C152.08 155.318 151.824 155.062 151.472 155.062L146.944 155.062C145.888 155.062 145.088 155.35 144.528 155.91C143.92 156.518 143.616 157.414 143.616 158.582C143.616 159.638 143.824 160.47 144.176 161.286C144.24 161.446 144.432 161.622 144.688 161.622C144.976 161.622 145.216 161.366 145.216 161.078C145.216 161.014 145.2 160.934 145.168 160.854C144.896 160.246 144.704 159.542 144.704 158.71C144.704 157.158 145.472 156.246 146.96 156.246L147.248 156.246C147.04 156.982 146.896 157.734 146.896 158.79C146.896 160.886 147.824 162.326 149.568 162.326L149.6 162.326C151.296 162.326 152.176 160.774 152.176 159.238ZM151.2 158.998C151.2 160.118 150.592 161.078 149.552 161.078L149.52 161.078C148.48 161.078 147.808 160.214 147.808 158.662C147.808 157.654 147.984 156.838 148.16 156.23L148.96 156.23C150.272 156.23 151.2 157.478 151.2 158.998ZM151.456 152.436C151.808 152.436 152.08 152.164 152.08 151.812C152.08 151.46 151.792 151.204 151.456 151.204L148.64 151.204C146.256 151.204 145.056 149.892 144.864 148.292C144.816 147.972 144.576 147.748 144.24 147.748C143.888 147.748 143.616 147.988 143.616 148.356C143.616 149.396 144.448 150.596 145.824 151.204L144.272 151.204C143.92 151.204 143.648 151.476 143.648 151.828C143.648 152.164 143.936 152.436 144.272 152.436L151.456 152.436ZM151.456 145.952C151.808 145.952 152.08 145.68 152.08 145.328C152.08 144.976 151.808 144.72 151.456 144.72L149.872 144.72L148.176 143.008L151.792 140.144C152 139.984 152.08 139.84 152.08 139.616C152.08 139.28 151.84 139.024 151.504 139.024C151.344 139.024 151.232 139.072 151.088 139.184L147.36 142.144L144.704 139.44C144.544 139.28 144.416 139.2 144.224 139.2C143.92 139.2 143.648 139.424 143.648 139.76C143.648 139.952 143.728 140.096 143.888 140.24L148.448 144.72L140.864 144.72C140.528 144.72 140.24 144.992 140.24 145.344C140.24 145.68 140.528 145.952 140.864 145.952L151.456 145.952ZM152.192 133.426C152.192 130.93 150.208 129.09 147.872 129.09L147.84 129.09C145.504 129.09 143.552 130.914 143.552 133.394C143.552 135.89 145.536 137.714 147.872 137.714L147.904 137.714C150.24 137.714 152.192 135.906 152.192 133.426ZM151.088 133.394C151.088 135.138 149.648 136.45 147.872 136.45L147.84 136.45C146.096 136.45 144.64 135.218 144.64 133.426C144.64 131.682 146.096 130.354 147.872 130.354L147.904 130.354C149.648 130.354 151.088 131.602 151.088 133.394ZM151.456 126.858C151.808 126.858 152.08 126.586 152.08 126.234C152.08 125.882 151.792 125.626 151.456 125.626L148.64 125.626C146.256 125.626 145.056 124.314 144.864 122.714C144.816 122.394 144.576 122.17 144.24 122.17C143.888 122.17 143.616 122.41 143.616 122.778C143.616 123.818 144.448 125.018 145.824 125.626L144.272 125.626C143.92 125.626 143.648 125.898 143.648 126.25C143.648 126.586 143.936 126.858 144.272 126.858L151.456 126.858ZM152.176 118.316C152.176 116.86 151.504 115.9 150.752 115.324L151.504 115.324C151.824 115.324 152.08 115.084 152.08 114.732C152.08 114.396 151.824 114.14 151.472 114.14L146.944 114.14C145.888 114.14 145.088 114.428 144.528 114.988C143.92 115.596 143.616 116.492 143.616 117.66C143.616 118.716 143.824 119.548 144.176 120.364C144.24 120.524 144.432 120.7 144.688 120.7C144.976 120.7 145.216 120.444 145.216 120.156C145.216 120.092 145.2 120.012 145.168 119.932C144.896 119.324 144.704 118.62 144.704 117.788C144.704 116.236 145.472 115.324 146.96 115.324L147.248 115.324C147.04 116.06 146.896 116.812 146.896 117.868C146.896 119.964 147.824 121.404 149.568 121.404L149.6 121.404C151.296 121.404 152.176 119.852 152.176 118.316ZM151.2 118.076C151.2 119.196 150.592 120.156 149.552 120.156L149.52 120.156C148.48 120.156 147.808 119.292 147.808 117.74C147.808 116.732 147.984 115.916 148.16 115.308L148.96 115.308C150.272 115.308 151.2 116.556 151.2 118.076ZM151.456 111.403C151.808 111.403 152.08 111.131 152.08 110.779C152.08 110.427 151.808 110.171 151.456 110.171L140.864 110.171C140.528 110.171 140.24 110.443 140.24 110.795C140.24 111.131 140.528 111.403 140.864 111.403L151.456 111.403ZM151.456 107.199C151.808 107.199 152.08 106.927 152.08 106.575C152.08 106.223 151.808 105.967 151.456 105.967L140.864 105.967C140.528 105.967 140.24 106.239 140.24 106.591C140.24 106.927 140.528 107.199 140.864 107.199L151.456 107.199Z" fill="#5CD6FF"/>
<path d="M86.551 148.69C86.551 148.89 86.711 149.05 86.911 149.05C87.091 149.05 87.221 148.95 87.291 148.78L88.021 147.15H91.861L92.591 148.76C92.661 148.92 92.791 149.05 92.981 149.05C93.191 149.05 93.361 148.88 93.361 148.67C93.361 148.61 93.341 148.54 93.311 148.47L90.471 142.27C90.381 142.05 90.221 141.92 89.981 141.92H89.941C89.691 141.92 89.541 142.05 89.441 142.27L86.601 148.48C86.561 148.56 86.551 148.63 86.551 148.69ZM88.331 146.43L89.941 142.85L91.551 146.43H88.331ZM94.7428 148.66C94.7428 148.88 94.9128 149.05 95.1328 149.05C95.3528 149.05 95.5128 148.87 95.5128 148.66V146.9C95.5128 145.41 96.3328 144.66 97.3328 144.54C97.5328 144.51 97.6728 144.36 97.6728 144.15C97.6728 143.93 97.5228 143.76 97.2928 143.76C96.6428 143.76 95.8928 144.28 95.5128 145.14V144.17C95.5128 143.95 95.3428 143.78 95.1228 143.78C94.9128 143.78 94.7428 143.96 94.7428 144.17V148.66ZM98.7955 148.66C98.7955 148.88 98.9655 149.05 99.1855 149.05C99.4055 149.05 99.5655 148.88 99.5655 148.66V146.05C99.5655 145.1 100.186 144.42 101.006 144.42C101.826 144.42 102.336 144.99 102.336 145.96V148.66C102.336 148.88 102.506 149.05 102.716 149.05C102.936 149.05 103.106 148.88 103.106 148.66V146.02C103.106 145 103.746 144.42 104.526 144.42C105.366 144.42 105.866 144.98 105.866 145.98V148.66C105.866 148.88 106.036 149.05 106.256 149.05C106.466 149.05 106.636 148.88 106.636 148.66V145.8C106.636 144.52 105.906 143.72 104.716 143.72C103.816 143.72 103.266 144.18 102.896 144.75C102.616 144.17 102.076 143.72 101.236 143.72C100.366 143.72 99.9055 144.19 99.5655 144.7V144.17C99.5655 143.95 99.3955 143.78 99.1755 143.78C98.9655 143.78 98.7955 143.96 98.7955 144.17V148.66ZM108.597 148.66C108.597 148.87 108.767 149.05 108.987 149.05C109.207 149.05 109.367 148.87 109.367 148.66V144.51H110.697C110.887 144.51 111.037 144.36 111.037 144.18C111.037 143.99 110.887 143.85 110.697 143.85H109.357V143.43C109.357 142.69 109.657 142.33 110.257 142.33C110.407 142.33 110.547 142.36 110.677 142.38C110.877 142.4 111.047 142.25 111.047 142.05C111.047 141.88 110.917 141.75 110.767 141.72C110.597 141.68 110.407 141.66 110.157 141.66C109.687 141.66 109.307 141.8 109.047 142.06C108.757 142.35 108.597 142.8 108.597 143.39V143.84H108.177C107.997 143.84 107.847 143.99 107.847 144.17C107.847 144.36 107.987 144.51 108.177 144.51H108.597V148.66ZM114.241 149.12C115.801 149.12 116.951 147.88 116.951 146.42V146.4C116.951 144.94 115.811 143.72 114.261 143.72C112.701 143.72 111.561 144.96 111.561 146.42V146.44C111.561 147.9 112.691 149.12 114.241 149.12ZM114.261 148.43C113.171 148.43 112.351 147.53 112.351 146.42V146.4C112.351 145.31 113.121 144.4 114.241 144.4C115.331 144.4 116.161 145.31 116.161 146.42V146.44C116.161 147.53 115.381 148.43 114.261 148.43ZM120.076 149.09C120.376 149.09 120.616 149.04 120.836 148.95C120.966 148.9 121.056 148.79 121.056 148.65C121.056 148.47 120.906 148.32 120.726 148.32C120.666 148.32 120.526 148.39 120.256 148.39C119.736 148.39 119.386 148.16 119.386 147.53V144.51H120.726C120.916 144.51 121.076 144.36 121.076 144.17C121.076 143.99 120.916 143.83 120.726 143.83H119.386V142.61C119.386 142.4 119.206 142.22 118.996 142.22C118.776 142.22 118.616 142.4 118.616 142.61V143.83H118.196C118.016 143.83 117.856 143.98 117.856 144.17C117.856 144.35 118.016 144.51 118.196 144.51H118.616V147.63C118.616 148.68 119.246 149.09 120.076 149.09ZM122.389 142.34C122.389 142.58 122.589 142.75 122.839 142.75C123.099 142.75 123.299 142.58 123.299 142.34V142.21C123.299 141.96 123.099 141.8 122.839 141.8C122.589 141.8 122.389 141.96 122.389 142.21V142.34ZM122.459 148.66C122.459 148.88 122.629 149.05 122.849 149.05C123.069 149.05 123.229 148.88 123.229 148.66V144.17C123.229 143.95 123.059 143.78 122.839 143.78C122.629 143.78 122.459 143.96 122.459 144.17V148.66ZM125.016 148.66C125.016 148.88 125.186 149.05 125.406 149.05C125.626 149.05 125.786 148.88 125.786 148.66V146.04C125.786 145.07 126.446 144.42 127.336 144.42C128.246 144.42 128.766 145.02 128.766 145.98V148.66C128.766 148.88 128.936 149.05 129.156 149.05C129.366 149.05 129.536 148.88 129.536 148.66V145.79C129.536 144.56 128.806 143.72 127.556 143.72C126.666 143.72 126.126 144.17 125.786 144.73V144.17C125.786 143.95 125.616 143.78 125.396 143.78C125.186 143.78 125.016 143.96 125.016 144.17V148.66ZM133.468 150.62C134.288 150.62 134.978 150.39 135.438 149.93C135.858 149.51 136.098 148.9 136.098 148.1V144.17C136.098 143.96 135.928 143.78 135.708 143.78C135.488 143.78 135.328 143.96 135.328 144.17V144.76C134.908 144.2 134.278 143.72 133.308 143.72C132.078 143.72 130.878 144.65 130.878 146.16V146.18C130.878 147.67 132.068 148.6 133.308 148.6C134.258 148.6 134.888 148.11 135.338 147.51V148.12C135.338 149.33 134.598 149.96 133.458 149.96C132.788 149.96 132.168 149.76 131.628 149.4C131.578 149.37 131.528 149.35 131.458 149.35C131.278 149.35 131.108 149.52 131.108 149.69C131.108 149.83 131.188 149.95 131.308 150.01C131.958 150.41 132.678 150.62 133.468 150.62ZM133.458 147.92C132.498 147.92 131.668 147.2 131.668 146.16V146.14C131.668 145.08 132.478 144.4 133.458 144.4C134.438 144.4 135.358 145.09 135.358 146.15V146.17C135.358 147.21 134.438 147.92 133.458 147.92Z" fill="#87E1FF"/>
<path d="M94.79 66.0564C94.922 66.0564 95.03 65.9484 95.03 65.8224C95.03 65.6904 94.922 65.5824 94.79 65.5824L93.518 65.5824L93.518 64.5624C93.518 63.6684 93.05 62.9124 92.144 62.9124L92.132 62.9124C91.304 62.9124 90.8 63.5364 90.8 64.4844L90.8 65.8224C90.8 65.9484 90.908 66.0564 91.04 66.0564L94.79 66.0564ZM93.086 65.5824L91.238 65.5824L91.238 64.5204C91.238 63.8424 91.55 63.3924 92.15 63.3924L92.162 63.3924C92.714 63.3924 93.086 63.8484 93.086 64.5444L93.086 65.5824ZM95.066 61.2612C95.066 60.7152 94.814 60.3552 94.532 60.1392L94.814 60.1392C94.934 60.1392 95.03 60.0492 95.03 59.9172C95.03 59.7912 94.934 59.6952 94.802 59.6952L93.104 59.6952C92.708 59.6952 92.408 59.8032 92.198 60.0132C91.97 60.2412 91.856 60.5772 91.856 61.0152C91.856 61.4112 91.934 61.7232 92.066 62.0292C92.09 62.0892 92.162 62.1552 92.258 62.1552C92.366 62.1552 92.456 62.0592 92.456 61.9512C92.456 61.9272 92.45 61.8972 92.438 61.8672C92.336 61.6392 92.264 61.3752 92.264 61.0632C92.264 60.4812 92.552 60.1392 93.11 60.1392L93.218 60.1392C93.14 60.4152 93.086 60.6972 93.086 61.0932C93.086 61.8792 93.434 62.4192 94.088 62.4192L94.1 62.4192C94.736 62.4192 95.066 61.8372 95.066 61.2612ZM94.7 61.1712C94.7 61.5912 94.472 61.9512 94.082 61.9512L94.07 61.9512C93.68 61.9512 93.428 61.6272 93.428 61.0452C93.428 60.6672 93.494 60.3612 93.56 60.1332L93.86 60.1332C94.352 60.1332 94.7 60.6012 94.7 61.1712ZM91.442 60.9672C91.442 60.6372 91.172 60.3432 90.848 60.3432L90.836 60.3432C90.512 60.3432 90.242 60.6372 90.242 60.9672C90.242 61.2972 90.512 61.5912 90.836 61.5912L90.848 61.5912C91.172 61.5912 91.442 61.2972 91.442 60.9672ZM91.214 60.9672C91.214 61.1652 91.046 61.3392 90.848 61.3392L90.836 61.3392C90.638 61.3392 90.47 61.1712 90.47 60.9672C90.47 60.7632 90.638 60.5952 90.836 60.5952L90.848 60.5952C91.046 60.5952 91.214 60.7692 91.214 60.9672ZM94.796 58.5366C94.922 58.5366 95.03 58.4346 95.03 58.3026C95.03 58.1706 94.922 58.0746 94.796 58.0746L92.306 58.0746L92.306 57.2766C92.306 57.1626 92.216 57.0726 92.108 57.0726C91.994 57.0726 91.91 57.1626 91.91 57.2766L91.91 58.0806L91.658 58.0806C91.214 58.0806 90.998 57.9006 90.998 57.5406C90.998 57.4506 91.016 57.3666 91.028 57.2886C91.04 57.1686 90.95 57.0666 90.83 57.0666C90.728 57.0666 90.65 57.1446 90.632 57.2346C90.608 57.3366 90.596 57.4506 90.596 57.6006C90.596 57.8826 90.68 58.1106 90.836 58.2666C91.01 58.4406 91.28 58.5366 91.634 58.5366L91.904 58.5366L91.904 58.7886C91.904 58.8966 91.994 58.9866 92.102 58.9866C92.216 58.9866 92.306 58.9026 92.306 58.7886L92.306 58.5366L94.796 58.5366ZM95.066 55.6713C95.066 55.1253 94.814 54.7653 94.532 54.5493L94.814 54.5493C94.934 54.5493 95.03 54.4593 95.03 54.3273C95.03 54.2013 94.934 54.1053 94.802 54.1053L93.104 54.1053C92.708 54.1053 92.408 54.2133 92.198 54.4233C91.97 54.6513 91.856 54.9873 91.856 55.4253C91.856 55.8213 91.934 56.1333 92.066 56.4393C92.09 56.4993 92.162 56.5653 92.258 56.5653C92.366 56.5653 92.456 56.4693 92.456 56.3613C92.456 56.3373 92.45 56.3073 92.438 56.2773C92.336 56.0493 92.264 55.7853 92.264 55.4733C92.264 54.8913 92.552 54.5493 93.11 54.5493L93.218 54.5493C93.14 54.8253 93.086 55.1073 93.086 55.5033C93.086 56.2893 93.434 56.8293 94.088 56.8293L94.1 56.8293C94.736 56.8293 95.066 56.2473 95.066 55.6713ZM94.7 55.5813C94.7 56.0013 94.472 56.3613 94.082 56.3613L94.07 56.3613C93.68 56.3613 93.428 56.0373 93.428 55.4553C93.428 55.0773 93.494 54.7713 93.56 54.5433L93.86 54.5433C94.352 54.5433 94.7 55.0113 94.7 55.5813ZM91.442 55.3773C91.442 55.0473 91.172 54.7533 90.848 54.7533L90.836 54.7533C90.512 54.7533 90.242 55.0473 90.242 55.3773C90.242 55.7073 90.512 56.0013 90.836 56.0013L90.848 56.0013C91.172 56.0013 91.442 55.7073 91.442 55.3773ZM91.214 55.3773C91.214 55.5753 91.046 55.7493 90.848 55.7493L90.836 55.7493C90.638 55.7493 90.47 55.5813 90.47 55.3773C90.47 55.1733 90.638 55.0053 90.836 55.0053L90.848 55.0053C91.046 55.0053 91.214 55.1793 91.214 55.3773ZM95.972 51.7467C95.972 51.2547 95.834 50.8407 95.558 50.5647C95.306 50.3127 94.94 50.1687 94.46 50.1687L92.102 50.1687C91.976 50.1687 91.868 50.2707 91.868 50.4027C91.868 50.5347 91.976 50.6307 92.102 50.6307L92.456 50.6307C92.12 50.8827 91.832 51.2607 91.832 51.8427C91.832 52.5807 92.39 53.3007 93.296 53.3007L93.308 53.3007C94.202 53.3007 94.76 52.5867 94.76 51.8427C94.76 51.2727 94.466 50.8947 94.106 50.6247L94.472 50.6247C95.198 50.6247 95.576 51.0687 95.576 51.7527C95.576 52.1547 95.456 52.5267 95.24 52.8507C95.222 52.8807 95.21 52.9107 95.21 52.9527C95.21 53.0607 95.312 53.1627 95.414 53.1627C95.498 53.1627 95.57 53.1147 95.606 53.0427C95.846 52.6527 95.972 52.2207 95.972 51.7467ZM94.352 51.7527C94.352 52.3287 93.92 52.8267 93.296 52.8267L93.284 52.8267C92.648 52.8267 92.24 52.3407 92.24 51.7527C92.24 51.1647 92.654 50.6127 93.29 50.6127L93.302 50.6127C93.926 50.6127 94.352 51.1647 94.352 51.7527ZM93.278 48.8603C92.672 48.8003 92.222 48.3923 92.222 47.8523C92.222 47.2343 92.714 46.9103 93.278 46.8623L93.278 48.8603ZM94.604 46.6103C94.562 46.5623 94.508 46.5383 94.454 46.5383C94.346 46.5383 94.256 46.6283 94.256 46.7423C94.256 46.7963 94.28 46.8383 94.31 46.8743C94.52 47.1023 94.67 47.3843 94.67 47.7683C94.67 48.3203 94.292 48.7943 93.62 48.8603L93.62 46.6163C93.62 46.5023 93.53 46.4003 93.404 46.4003C92.582 46.4003 91.832 46.9223 91.832 47.8403C91.832 48.6983 92.552 49.3283 93.446 49.3283L93.458 49.3283C94.418 49.3283 95.072 48.6323 95.072 47.7803C95.072 47.2523 94.886 46.9043 94.604 46.6103ZM94.796 45.5436C94.928 45.5436 95.03 45.4416 95.03 45.3096C95.03 45.1776 94.928 45.0816 94.796 45.0816L90.824 45.0816C90.698 45.0816 90.59 45.1836 90.59 45.3156C90.59 45.4416 90.698 45.5436 90.824 45.5436L94.796 45.5436ZM94.796 44.0094C94.928 44.0094 95.03 43.9074 95.03 43.7754C95.03 43.6434 94.922 43.5474 94.796 43.5474L93.74 43.5474C92.846 43.5474 92.396 43.0554 92.324 42.4554C92.306 42.3354 92.216 42.2514 92.09 42.2514C91.958 42.2514 91.856 42.3414 91.856 42.4794C91.856 42.8694 92.168 43.3194 92.684 43.5474L92.102 43.5474C91.97 43.5474 91.868 43.6494 91.868 43.7814C91.868 43.9074 91.976 44.0094 92.102 44.0094L94.796 44.0094ZM90.83 39.7565C90.83 39.9125 90.944 40.0385 91.1 40.0385L91.19 40.0385C91.346 40.0385 91.46 39.9125 91.46 39.7565C91.46 39.6005 91.346 39.4745 91.19 39.4745L91.1 39.4745C90.944 39.4745 90.83 39.6005 90.83 39.7565ZM90.83 40.8245C90.83 40.9805 90.944 41.1065 91.1 41.1065L91.19 41.1065C91.346 41.1065 91.46 40.9805 91.46 40.8245C91.46 40.6685 91.346 40.5425 91.19 40.5425L91.1 40.5425C90.944 40.5425 90.83 40.6685 90.83 40.8245ZM95.072 40.2965C95.072 39.3605 94.328 38.6705 93.452 38.6705L93.44 38.6705C92.564 38.6705 91.832 39.3545 91.832 40.2845C91.832 41.2205 92.576 41.9045 93.452 41.9045L93.464 41.9045C94.34 41.9045 95.072 41.2265 95.072 40.2965ZM94.658 40.2845C94.658 40.9385 94.118 41.4305 93.452 41.4305L93.44 41.4305C92.786 41.4305 92.24 40.9685 92.24 40.2965C92.24 39.6425 92.786 39.1445 93.452 39.1445L93.464 39.1445C94.118 39.1445 94.658 39.6125 94.658 40.2845ZM94.796 37.8336C94.928 37.8336 95.03 37.7316 95.03 37.5996C95.03 37.4676 94.922 37.3716 94.796 37.3716L93.74 37.3716C92.846 37.3716 92.396 36.8796 92.324 36.2796C92.306 36.1596 92.216 36.0756 92.09 36.0756C91.958 36.0756 91.856 36.1656 91.856 36.3036C91.856 36.6936 92.168 37.1436 92.684 37.3716L92.102 37.3716C91.97 37.3716 91.868 37.4736 91.868 37.6056C91.868 37.7316 91.976 37.8336 92.102 37.8336L94.796 37.8336ZM95.06 34.376C95.06 33.758 94.718 33.272 94.13 33.272L94.118 33.272C93.56 33.272 93.374 33.788 93.23 34.268C93.104 34.682 92.99 35.066 92.696 35.066L92.684 35.066C92.426 35.066 92.234 34.832 92.234 34.466C92.234 34.202 92.324 33.92 92.474 33.656C92.486 33.632 92.498 33.596 92.498 33.554C92.498 33.44 92.408 33.35 92.3 33.35C92.21 33.35 92.144 33.404 92.108 33.464C91.946 33.764 91.844 34.124 91.844 34.454C91.844 35.066 92.198 35.51 92.732 35.51L92.744 35.51C93.314 35.51 93.482 34.97 93.62 34.484C93.734 34.076 93.854 33.71 94.166 33.71L94.178 33.71C94.478 33.71 94.67 33.98 94.67 34.352C94.67 34.688 94.556 35.018 94.34 35.336C94.316 35.366 94.304 35.408 94.304 35.45C94.304 35.564 94.394 35.654 94.502 35.654C94.58 35.654 94.64 35.612 94.67 35.57C94.91 35.234 95.06 34.784 95.06 34.376ZM94.796 32.4137C94.928 32.4137 95.03 32.3117 95.03 32.1797C95.03 32.0477 94.928 31.9517 94.796 31.9517L93.23 31.9517C92.66 31.9517 92.252 31.5797 92.252 31.0877C92.252 30.5957 92.594 30.2897 93.176 30.2897L94.796 30.2897C94.928 30.2897 95.03 30.1877 95.03 30.0617C95.03 29.9297 94.928 29.8277 94.796 29.8277L93.212 29.8277C92.6 29.8277 92.252 29.4437 92.252 28.9757C92.252 28.4717 92.588 28.1717 93.188 28.1717L94.796 28.1717C94.928 28.1717 95.03 28.0697 95.03 27.9377C95.03 27.8117 94.928 27.7097 94.796 27.7097L93.08 27.7097C92.312 27.7097 91.832 28.1477 91.832 28.8617C91.832 29.4017 92.108 29.7317 92.45 29.9537C92.102 30.1217 91.832 30.4457 91.832 30.9497C91.832 31.4717 92.114 31.7477 92.42 31.9517L92.102 31.9517C91.97 31.9517 91.868 32.0537 91.868 32.1857C91.868 32.3117 91.976 32.4137 92.102 32.4137L94.796 32.4137ZM95.066 25.7827C95.066 25.2367 94.814 24.8767 94.532 24.6607L94.814 24.6607C94.934 24.6607 95.03 24.5707 95.03 24.4387C95.03 24.3127 94.934 24.2167 94.802 24.2167L93.104 24.2167C92.708 24.2167 92.408 24.3247 92.198 24.5347C91.97 24.7627 91.856 25.0987 91.856 25.5367C91.856 25.9327 91.934 26.2447 92.066 26.5507C92.09 26.6107 92.162 26.6767 92.258 26.6767C92.366 26.6767 92.456 26.5807 92.456 26.4727C92.456 26.4487 92.45 26.4187 92.438 26.3887C92.336 26.1607 92.264 25.8967 92.264 25.5847C92.264 25.0027 92.552 24.6607 93.11 24.6607L93.218 24.6607C93.14 24.9367 93.086 25.2187 93.086 25.6147C93.086 26.4007 93.434 26.9407 94.088 26.9407L94.1 26.9407C94.736 26.9407 95.066 26.3587 95.066 25.7827ZM94.7 25.6927C94.7 26.1127 94.472 26.4727 94.082 26.4727L94.07 26.4727C93.68 26.4727 93.428 26.1487 93.428 25.5667C93.428 25.1887 93.494 24.8827 93.56 24.6547L93.86 24.6547C94.352 24.6547 94.7 25.1227 94.7 25.6927ZM95.06 22.206C95.06 21.588 94.718 21.102 94.13 21.102L94.118 21.102C93.56 21.102 93.374 21.618 93.23 22.098C93.104 22.512 92.99 22.896 92.696 22.896L92.684 22.896C92.426 22.896 92.234 22.662 92.234 22.296C92.234 22.032 92.324 21.75 92.474 21.486C92.486 21.462 92.498 21.426 92.498 21.384C92.498 21.27 92.408 21.18 92.3 21.18C92.21 21.18 92.144 21.234 92.108 21.294C91.946 21.594 91.844 21.954 91.844 22.284C91.844 22.896 92.198 23.34 92.732 23.34L92.744 23.34C93.314 23.34 93.482 22.8 93.62 22.314C93.734 21.906 93.854 21.54 94.166 21.54L94.178 21.54C94.478 21.54 94.67 21.81 94.67 22.182C94.67 22.518 94.556 22.848 94.34 23.166C94.316 23.196 94.304 23.238 94.304 23.28C94.304 23.394 94.394 23.484 94.502 23.484C94.58 23.484 94.64 23.442 94.67 23.4C94.91 23.064 95.06 22.614 95.06 22.206ZM94.796 20.2438C94.928 20.2438 95.03 20.1418 95.03 20.0098C95.03 19.8778 94.928 19.7818 94.796 19.7818L94.202 19.7818L93.566 19.1398L94.922 18.0658C95 18.0058 95.03 17.9518 95.03 17.8678C95.03 17.7418 94.94 17.6458 94.814 17.6458C94.754 17.6458 94.712 17.6638 94.658 17.7058L93.26 18.8158L92.264 17.8018C92.204 17.7418 92.156 17.7118 92.084 17.7118C91.97 17.7118 91.868 17.7958 91.868 17.9218C91.868 17.9938 91.898 18.0478 91.958 18.1018L93.668 19.7818L90.824 19.7818C90.698 19.7818 90.59 19.8838 90.59 20.0158C90.59 20.1418 90.698 20.2438 90.824 20.2438L94.796 20.2438Z" fill="#A6E9FF"/>
<path d="M158.09 111.65C158.09 111.87 158.27 112.05 158.48 112.05C158.7 112.05 158.88 111.87 158.88 111.65V110.13L160.39 108.62L163 111.87C163.07 111.97 163.17 112.05 163.32 112.05C163.54 112.05 163.72 111.86 163.72 111.65C163.72 111.53 163.68 111.45 163.61 111.36L160.95 108.08L163.43 105.62C163.51 105.54 163.56 105.45 163.56 105.34C163.56 105.14 163.39 104.95 163.18 104.95C163.05 104.95 162.96 105.01 162.87 105.09L158.88 109.18V105.35C158.88 105.13 158.7 104.95 158.48 104.95C158.27 104.95 158.09 105.13 158.09 105.35V111.65ZM165.098 111.66C165.098 111.88 165.268 112.05 165.488 112.05C165.708 112.05 165.868 111.87 165.868 111.66V109.9C165.868 108.41 166.688 107.66 167.688 107.54C167.888 107.51 168.028 107.36 168.028 107.15C168.028 106.93 167.878 106.76 167.648 106.76C166.998 106.76 166.248 107.28 165.868 108.14V107.17C165.868 106.95 165.698 106.78 165.478 106.78C165.268 106.78 165.098 106.96 165.098 107.17V111.66ZM170.437 112.11C171.347 112.11 171.947 111.69 172.307 111.22V111.69C172.307 111.89 172.457 112.05 172.677 112.05C172.887 112.05 173.047 111.89 173.047 111.67V108.84C173.047 108.18 172.867 107.68 172.517 107.33C172.137 106.95 171.577 106.76 170.847 106.76C170.187 106.76 169.667 106.89 169.157 107.11C169.057 107.15 168.947 107.27 168.947 107.43C168.947 107.61 169.107 107.76 169.287 107.76C169.327 107.76 169.377 107.75 169.427 107.73C169.807 107.56 170.247 107.44 170.767 107.44C171.737 107.44 172.307 107.92 172.307 108.85V109.03C171.847 108.9 171.377 108.81 170.717 108.81C169.407 108.81 168.507 109.39 168.507 110.48V110.5C168.507 111.56 169.477 112.11 170.437 112.11ZM170.587 111.5C169.887 111.5 169.287 111.12 169.287 110.47V110.45C169.287 109.8 169.827 109.38 170.797 109.38C171.427 109.38 171.937 109.49 172.317 109.6V110.1C172.317 110.92 171.537 111.5 170.587 111.5ZM174.688 111.66C174.688 111.87 174.858 112.05 175.078 112.05C175.298 112.05 175.458 111.87 175.458 111.66V111.01C175.858 111.59 176.478 112.11 177.438 112.11C178.688 112.11 179.908 111.11 179.908 109.42V109.4C179.908 107.7 178.678 106.72 177.438 106.72C176.488 106.72 175.878 107.25 175.458 107.87V105.04C175.458 104.82 175.288 104.65 175.068 104.65C174.858 104.65 174.688 104.82 174.688 105.04V111.66ZM177.298 111.42C176.338 111.42 175.428 110.62 175.428 109.42V109.4C175.428 108.22 176.338 107.41 177.298 107.41C178.278 107.41 179.118 108.19 179.118 109.41V109.43C179.118 110.68 178.298 111.42 177.298 111.42ZM181.329 111.66C181.329 111.87 181.499 112.05 181.719 112.05C181.939 112.05 182.099 111.87 182.099 111.66V111.01C182.499 111.59 183.119 112.11 184.079 112.11C185.329 112.11 186.549 111.11 186.549 109.42V109.4C186.549 107.7 185.319 106.72 184.079 106.72C183.129 106.72 182.519 107.25 182.099 107.87V105.04C182.099 104.82 181.929 104.65 181.709 104.65C181.499 104.65 181.329 104.82 181.329 105.04V111.66ZM183.939 111.42C182.979 111.42 182.069 110.62 182.069 109.42V109.4C182.069 108.22 182.979 107.41 183.939 107.41C184.919 107.41 185.759 108.19 185.759 109.41V109.43C185.759 110.68 184.939 111.42 183.939 111.42ZM189.509 112.11C190.419 112.11 191.019 111.69 191.379 111.22V111.69C191.379 111.89 191.529 112.05 191.749 112.05C191.959 112.05 192.119 111.89 192.119 111.67V108.84C192.119 108.18 191.939 107.68 191.589 107.33C191.209 106.95 190.649 106.76 189.919 106.76C189.259 106.76 188.739 106.89 188.229 107.11C188.129 107.15 188.019 107.27 188.019 107.43C188.019 107.61 188.179 107.76 188.359 107.76C188.399 107.76 188.449 107.75 188.499 107.73C188.879 107.56 189.319 107.44 189.839 107.44C190.809 107.44 191.379 107.92 191.379 108.85V109.03C190.919 108.9 190.449 108.81 189.789 108.81C188.479 108.81 187.579 109.39 187.579 110.48V110.5C187.579 111.56 188.549 112.11 189.509 112.11ZM189.659 111.5C188.959 111.5 188.359 111.12 188.359 110.47V110.45C188.359 109.8 188.899 109.38 189.869 109.38C190.499 109.38 191.009 109.49 191.389 109.6V110.1C191.389 110.92 190.609 111.5 189.659 111.5Z" fill="#87E1FF"/>
<path d="M134.79 138.118C134.922 138.118 135.03 138.01 135.03 137.884C135.03 137.752 134.922 137.644 134.79 137.644L133.518 137.644L133.518 136.624C133.518 135.73 133.05 134.974 132.144 134.974L132.132 134.974C131.304 134.974 130.8 135.598 130.8 136.546L130.8 137.884C130.8 138.01 130.908 138.118 131.04 138.118L134.79 138.118ZM133.086 137.644L131.238 137.644L131.238 136.582C131.238 135.904 131.55 135.454 132.15 135.454L132.162 135.454C132.714 135.454 133.086 135.91 133.086 136.606L133.086 137.644ZM131.004 134.188C131.148 134.188 131.25 134.068 131.25 133.918C131.25 133.762 131.148 133.642 131.004 133.642L130.926 133.642C130.776 133.642 130.68 133.762 130.68 133.918C130.68 134.068 130.776 134.188 130.926 134.188L131.004 134.188ZM134.796 134.146C134.928 134.146 135.03 134.044 135.03 133.912C135.03 133.78 134.928 133.684 134.796 133.684L132.102 133.684C131.97 133.684 131.868 133.786 131.868 133.918C131.868 134.044 131.976 134.146 132.102 134.146L134.796 134.146ZM135.756 132.612C135.888 132.612 135.99 132.51 135.99 132.378C135.99 132.246 135.888 132.15 135.756 132.15L134.406 132.15C134.754 131.91 135.066 131.538 135.066 130.962C135.066 130.212 134.466 129.48 133.452 129.48L133.44 129.48C132.42 129.48 131.832 130.218 131.832 130.962C131.832 131.532 132.15 131.898 132.522 132.15L132.102 132.15C131.97 132.15 131.868 132.252 131.868 132.384C131.868 132.51 131.97 132.612 132.102 132.612L135.756 132.612ZM134.652 131.046C134.652 131.622 134.172 132.168 133.452 132.168L133.44 132.168C132.732 132.168 132.246 131.622 132.246 131.046C132.246 130.458 132.714 129.954 133.446 129.954L133.458 129.954C134.208 129.954 134.652 130.446 134.652 131.046ZM134.796 128.628C134.928 128.628 135.03 128.526 135.03 128.394C135.03 128.262 134.922 128.166 134.796 128.166L133.74 128.166C132.846 128.166 132.396 127.674 132.324 127.074C132.306 126.954 132.216 126.87 132.09 126.87C131.958 126.87 131.856 126.96 131.856 127.098C131.856 127.488 132.168 127.938 132.684 128.166L132.102 128.166C131.97 128.166 131.868 128.268 131.868 128.4C131.868 128.526 131.976 128.628 132.102 128.628L134.796 128.628ZM133.278 126.055C132.672 125.995 132.222 125.587 132.222 125.047C132.222 124.429 132.714 124.105 133.278 124.057L133.278 126.055ZM134.604 123.805C134.562 123.757 134.508 123.733 134.454 123.733C134.346 123.733 134.256 123.823 134.256 123.937C134.256 123.991 134.28 124.033 134.31 124.069C134.52 124.297 134.67 124.579 134.67 124.963C134.67 125.515 134.292 125.989 133.62 126.055L133.62 123.811C133.62 123.697 133.53 123.595 133.404 123.595C132.582 123.595 131.832 124.117 131.832 125.035C131.832 125.893 132.552 126.523 133.446 126.523L133.458 126.523C134.418 126.523 135.072 125.827 135.072 124.975C135.072 124.447 134.886 124.099 134.604 123.805ZM134.796 122.78C134.928 122.78 135.03 122.678 135.03 122.546C135.03 122.414 134.928 122.318 134.796 122.318L133.224 122.318C132.642 122.318 132.252 121.922 132.252 121.388C132.252 120.842 132.612 120.53 133.188 120.53L134.796 120.53C134.928 120.53 135.03 120.428 135.03 120.296C135.03 120.17 134.928 120.068 134.796 120.068L133.074 120.068C132.336 120.068 131.832 120.506 131.832 121.256C131.832 121.79 132.102 122.114 132.438 122.318L132.102 122.318C131.97 122.318 131.868 122.42 131.868 122.552C131.868 122.678 131.976 122.78 132.102 122.78L134.796 122.78ZM135.06 118.057C135.06 117.439 134.718 116.953 134.13 116.953L134.118 116.953C133.56 116.953 133.374 117.469 133.23 117.949C133.104 118.363 132.99 118.747 132.696 118.747L132.684 118.747C132.426 118.747 132.234 118.513 132.234 118.147C132.234 117.883 132.324 117.601 132.474 117.337C132.486 117.313 132.498 117.277 132.498 117.235C132.498 117.121 132.408 117.031 132.3 117.031C132.21 117.031 132.144 117.085 132.108 117.145C131.946 117.445 131.844 117.805 131.844 118.135C131.844 118.747 132.198 119.191 132.732 119.191L132.744 119.191C133.314 119.191 133.482 118.651 133.62 118.165C133.734 117.757 133.854 117.391 134.166 117.391L134.178 117.391C134.478 117.391 134.67 117.661 134.67 118.033C134.67 118.369 134.556 118.699 134.34 119.017C134.316 119.047 134.304 119.089 134.304 119.131C134.304 119.245 134.394 119.335 134.502 119.335C134.58 119.335 134.64 119.293 134.67 119.251C134.91 118.915 135.06 118.465 135.06 118.057ZM135.066 115.17C135.066 114.624 134.814 114.264 134.532 114.048L134.814 114.048C134.934 114.048 135.03 113.958 135.03 113.826C135.03 113.7 134.934 113.604 134.802 113.604L133.104 113.604C132.708 113.604 132.408 113.712 132.198 113.922C131.97 114.15 131.856 114.486 131.856 114.924C131.856 115.32 131.934 115.632 132.066 115.938C132.09 115.998 132.162 116.064 132.258 116.064C132.366 116.064 132.456 115.968 132.456 115.86C132.456 115.836 132.45 115.806 132.438 115.776C132.336 115.548 132.264 115.284 132.264 114.972C132.264 114.39 132.552 114.048 133.11 114.048L133.218 114.048C133.14 114.324 133.086 114.606 133.086 115.002C133.086 115.788 133.434 116.328 134.088 116.328L134.1 116.328C134.736 116.328 135.066 115.746 135.066 115.17ZM134.7 115.08C134.7 115.5 134.472 115.86 134.082 115.86L134.07 115.86C133.68 115.86 133.428 115.536 133.428 114.954C133.428 114.576 133.494 114.27 133.56 114.042L133.86 114.042C134.352 114.042 134.7 114.51 134.7 115.08ZM134.796 112.62C134.928 112.62 135.03 112.518 135.03 112.386C135.03 112.254 134.922 112.158 134.796 112.158L133.74 112.158C132.846 112.158 132.396 111.666 132.324 111.066C132.306 110.946 132.216 110.862 132.09 110.862C131.958 110.862 131.856 110.952 131.856 111.09C131.856 111.48 132.168 111.93 132.684 112.158L132.102 112.158C131.97 112.158 131.868 112.26 131.868 112.392C131.868 112.518 131.976 112.62 132.102 112.62L134.796 112.62ZM133.278 110.047C132.672 109.987 132.222 109.579 132.222 109.039C132.222 108.421 132.714 108.097 133.278 108.049L133.278 110.047ZM134.604 107.797C134.562 107.749 134.508 107.725 134.454 107.725C134.346 107.725 134.256 107.815 134.256 107.929C134.256 107.983 134.28 108.025 134.31 108.061C134.52 108.289 134.67 108.571 134.67 108.955C134.67 109.507 134.292 109.981 133.62 110.047L133.62 107.803C133.62 107.689 133.53 107.587 133.404 107.587C132.582 107.587 131.832 108.109 131.832 109.027C131.832 109.885 132.552 110.515 133.446 110.515L133.458 110.515C134.418 110.515 135.072 109.819 135.072 108.967C135.072 108.439 134.886 108.091 134.604 107.797Z" fill="#A6E9FF"/>
<path d="M45.65 101.784C45.87 101.784 46.05 101.604 46.05 101.394C46.05 101.174 45.87 100.994 45.65 100.994L42.95 100.994L42.95 97.5144C42.95 97.3144 42.79 97.1544 42.59 97.1544C42.39 97.1544 42.23 97.3144 42.23 97.5144L42.23 100.994L39.73 100.994L39.73 97.0644C39.73 96.8644 39.56 96.7044 39.36 96.7044C39.16 96.7044 39 96.8644 39 97.0644L39 101.394C39 101.604 39.18 101.784 39.4 101.784L45.65 101.784ZM46.12 93.1384C46.12 91.5784 44.88 90.4284 43.42 90.4284L43.4 90.4284C41.94 90.4284 40.72 91.5684 40.72 93.1184C40.72 94.6784 41.96 95.8184 43.42 95.8184L43.44 95.8184C44.9 95.8184 46.12 94.6884 46.12 93.1384ZM45.43 93.1184C45.43 94.2084 44.53 95.0284 43.42 95.0284L43.4 95.0284C42.31 95.0284 41.4 94.2584 41.4 93.1384C41.4 92.0484 42.31 91.2184 43.42 91.2184L43.44 91.2184C44.53 91.2184 45.43 91.9984 45.43 93.1184ZM46.09 87.3036C46.09 87.0036 46.04 86.7636 45.95 86.5436C45.9 86.4136 45.79 86.3236 45.65 86.3236C45.47 86.3236 45.32 86.4736 45.32 86.6536C45.32 86.7136 45.39 86.8536 45.39 87.1236C45.39 87.6436 45.16 87.9936 44.53 87.9936L41.51 87.9936L41.51 86.6536C41.51 86.4636 41.36 86.3036 41.17 86.3036C40.99 86.3036 40.83 86.4636 40.83 86.6536L40.83 87.9936L39.61 87.9936C39.4 87.9936 39.22 88.1736 39.22 88.3836C39.22 88.6036 39.4 88.7636 39.61 88.7636L40.83 88.7636L40.83 89.1836C40.83 89.3636 40.98 89.5236 41.17 89.5236C41.35 89.5236 41.51 89.3636 41.51 89.1836L41.51 88.7636L44.63 88.7636C45.68 88.7636 46.09 88.1336 46.09 87.3036ZM45.66 84.9906C45.87 84.9906 46.05 84.8206 46.05 84.6006C46.05 84.3806 45.87 84.2206 45.66 84.2206L45.01 84.2206C45.59 83.8206 46.11 83.2006 46.11 82.2406C46.11 80.9906 45.11 79.7706 43.42 79.7706L43.4 79.7706C41.7 79.7706 40.72 81.0006 40.72 82.2406C40.72 83.1906 41.25 83.8006 41.87 84.2206L39.04 84.2206C38.82 84.2206 38.65 84.3906 38.65 84.6106C38.65 84.8206 38.82 84.9906 39.04 84.9906L45.66 84.9906ZM45.42 82.3806C45.42 83.3406 44.62 84.2506 43.42 84.2506L43.4 84.2506C42.22 84.2506 41.41 83.3406 41.41 82.3806C41.41 81.4006 42.19 80.5606 43.41 80.5606L43.43 80.5606C44.68 80.5606 45.42 81.3806 45.42 82.3806ZM46.12 75.99C46.12 74.43 44.88 73.28 43.42 73.28L43.4 73.28C41.94 73.28 40.72 74.42 40.72 75.97C40.72 77.53 41.96 78.67 43.42 78.67L43.44 78.67C44.9 78.67 46.12 77.54 46.12 75.99ZM45.43 75.97C45.43 77.06 44.53 77.88 43.42 77.88L43.4 77.88C42.31 77.88 41.4 77.11 41.4 75.99C41.4 74.9 42.31 74.07 43.42 74.07L43.44 74.07C44.53 74.07 45.43 74.85 45.43 75.97ZM45.66 71.8151C45.88 71.8151 46.05 71.6451 46.05 71.4251C46.05 71.2051 45.88 71.0451 45.66 71.0451L39.04 71.0451C38.83 71.0451 38.65 71.2151 38.65 71.4351C38.65 71.6451 38.83 71.8151 39.04 71.8151L45.66 71.8151ZM45.66 69.1882C45.88 69.1882 46.05 69.0182 46.05 68.7982C46.05 68.5782 45.88 68.4182 45.66 68.4182L39.04 68.4182C38.83 68.4182 38.65 68.5882 38.65 68.8082C38.65 69.0182 38.83 69.1882 39.04 69.1882L45.66 69.1882ZM46.1 64.9212C46.1 63.8912 45.53 63.0812 44.55 63.0812L44.53 63.0812C43.6 63.0812 43.29 63.9412 43.05 64.7412C42.84 65.4312 42.65 66.0712 42.16 66.0712L42.14 66.0712C41.71 66.0712 41.39 65.6812 41.39 65.0712C41.39 64.6312 41.54 64.1612 41.79 63.7212C41.81 63.6812 41.83 63.6212 41.83 63.5512C41.83 63.3612 41.68 63.2112 41.5 63.2112C41.35 63.2112 41.24 63.3012 41.18 63.4012C40.91 63.9012 40.74 64.5012 40.74 65.0512C40.74 66.0712 41.33 66.8112 42.22 66.8112L42.24 66.8112C43.19 66.8112 43.47 65.9112 43.7 65.1012C43.89 64.4212 44.09 63.8112 44.61 63.8112L44.63 63.8112C45.13 63.8112 45.45 64.2612 45.45 64.8812C45.45 65.4412 45.26 65.9912 44.9 66.5212C44.86 66.5712 44.84 66.6412 44.84 66.7112C44.84 66.9012 44.99 67.0512 45.17 67.0512C45.3 67.0512 45.4 66.9812 45.45 66.9112C45.85 66.3512 46.1 65.6012 46.1 64.9212ZM46.1 60.0384C46.1 59.0084 45.53 58.1984 44.55 58.1984L44.53 58.1984C43.6 58.1984 43.29 59.0584 43.05 59.8584C42.84 60.5484 42.65 61.1884 42.16 61.1884L42.14 61.1884C41.71 61.1884 41.39 60.7984 41.39 60.1884C41.39 59.7484 41.54 59.2784 41.79 58.8384C41.81 58.7984 41.83 58.7384 41.83 58.6684C41.83 58.4784 41.68 58.3284 41.5 58.3284C41.35 58.3284 41.24 58.4184 41.18 58.5184C40.91 59.0184 40.74 59.6184 40.74 60.1684C40.74 61.1884 41.33 61.9284 42.22 61.9284L42.24 61.9284C43.19 61.9284 43.47 61.0284 43.7 60.2184C43.89 59.5384 44.09 58.9284 44.61 58.9284L44.63 58.9284C45.13 58.9284 45.45 59.3784 45.45 59.9984C45.45 60.5584 45.26 61.1084 44.9 61.6384C44.86 61.6884 44.84 61.7584 44.84 61.8284C44.84 62.0184 44.99 62.1684 45.17 62.1684C45.3 62.1684 45.4 62.0984 45.45 62.0284C45.85 61.4684 46.1 60.7184 46.1 60.0384ZM45.75 54.4239L41.35 52.4739C41.3 52.4539 41.23 52.4339 41.16 52.4339C40.95 52.4339 40.78 52.6039 40.78 52.8139C40.78 53.0139 40.91 53.1239 41.06 53.1739L45.12 54.8739L41.08 56.5439C40.91 56.6039 40.78 56.7139 40.78 56.9339C40.78 57.1539 40.96 57.3239 41.16 57.3239C41.23 57.3239 41.3 57.2939 41.37 57.2739L45.75 55.3339C45.95 55.2439 46.08 55.1039 46.08 54.8939L46.08 54.8539C46.08 54.6439 45.95 54.5139 45.75 54.4239ZM46.11 49.7689C46.11 48.8589 45.69 48.2589 45.22 47.8989L45.69 47.8989C45.89 47.8989 46.05 47.7489 46.05 47.5289C46.05 47.3189 45.89 47.1589 45.67 47.1589L42.84 47.1589C42.18 47.1589 41.68 47.3389 41.33 47.6889C40.95 48.0689 40.76 48.6289 40.76 49.3589C40.76 50.0189 40.89 50.5389 41.11 51.0489C41.15 51.1489 41.27 51.2589 41.43 51.2589C41.61 51.2589 41.76 51.0989 41.76 50.9189C41.76 50.8789 41.75 50.8289 41.73 50.7789C41.56 50.3989 41.44 49.9589 41.44 49.4389C41.44 48.4689 41.92 47.8989 42.85 47.8989L43.03 47.8989C42.9 48.3589 42.81 48.8289 42.81 49.4889C42.81 50.7989 43.39 51.6989 44.48 51.6989L44.5 51.6989C45.56 51.6989 46.11 50.7289 46.11 49.7689ZM45.5 49.6189C45.5 50.3189 45.12 50.9189 44.47 50.9189L44.45 50.9189C43.8 50.9189 43.38 50.3789 43.38 49.4089C43.38 48.7789 43.49 48.2689 43.6 47.8889L44.1 47.8889C44.92 47.8889 45.5 48.6689 45.5 49.6189ZM45.66 45.5179C45.88 45.5179 46.05 45.3479 46.05 45.1279C46.05 44.9079 45.88 44.7479 45.66 44.7479L43.05 44.7479C42.1 44.7479 41.42 44.1279 41.42 43.3079C41.42 42.4879 41.99 41.9779 42.96 41.9779L45.66 41.9779C45.88 41.9779 46.05 41.8079 46.05 41.5979C46.05 41.3779 45.88 41.2079 45.66 41.2079L43.02 41.2079C42 41.2079 41.42 40.5679 41.42 39.7879C41.42 38.9479 41.98 38.4479 42.98 38.4479L45.66 38.4479C45.88 38.4479 46.05 38.2779 46.05 38.0579C46.05 37.8479 45.88 37.6779 45.66 37.6779L42.8 37.6779C41.52 37.6779 40.72 38.4079 40.72 39.5979C40.72 40.4979 41.18 41.0479 41.75 41.4179C41.17 41.6979 40.72 42.2379 40.72 43.0779C40.72 43.9479 41.19 44.4079 41.7 44.7479L41.17 44.7479C40.95 44.7479 40.78 44.9179 40.78 45.1379C40.78 45.3479 40.96 45.5179 41.17 45.5179L45.66 45.5179ZM47.26 36.0062C47.48 36.0062 47.65 35.8362 47.65 35.6162C47.65 35.3962 47.48 35.2362 47.26 35.2362L45.01 35.2362C45.59 34.8362 46.11 34.2162 46.11 33.2562C46.11 32.0062 45.11 30.7862 43.42 30.7862L43.4 30.7862C41.7 30.7862 40.72 32.0162 40.72 33.2562C40.72 34.2062 41.25 34.8162 41.87 35.2362L41.17 35.2362C40.95 35.2362 40.78 35.4062 40.78 35.6262C40.78 35.8362 40.95 36.0062 41.17 36.0062L47.26 36.0062ZM45.42 33.3962C45.42 34.3562 44.62 35.2662 43.42 35.2662L43.4 35.2662C42.22 35.2662 41.41 34.3562 41.41 33.3962C41.41 32.4162 42.19 31.5762 43.41 31.5762L43.43 31.5762C44.68 31.5762 45.42 32.3962 45.42 33.3962Z" fill="#87E1FF"/>
<path d="M158.334 125H161.854C162.014 125 162.142 124.872 162.142 124.712C162.142 124.552 162.014 124.424 161.854 124.424H158.654V122.464H161.454C161.614 122.464 161.742 122.336 161.742 122.176C161.742 122.024 161.614 121.888 161.454 121.888H158.654V119.976H161.814C161.974 119.976 162.102 119.848 162.102 119.688C162.102 119.528 161.974 119.4 161.814 119.4H158.334C158.166 119.4 158.022 119.544 158.022 119.72V124.68C158.022 124.856 158.166 125 158.334 125ZM163.334 124.728C163.334 124.904 163.47 125.04 163.646 125.04C163.822 125.04 163.95 124.904 163.95 124.728V119.432C163.95 119.264 163.814 119.12 163.638 119.12C163.47 119.12 163.334 119.264 163.334 119.432V124.728ZM165.747 122.704C165.827 121.896 166.371 121.296 167.091 121.296C167.915 121.296 168.347 121.952 168.411 122.704H165.747ZM168.747 124.472C168.811 124.416 168.843 124.344 168.843 124.272C168.843 124.128 168.723 124.008 168.571 124.008C168.499 124.008 168.443 124.04 168.395 124.08C168.091 124.36 167.715 124.56 167.203 124.56C166.467 124.56 165.835 124.056 165.747 123.16H168.739C168.891 123.16 169.027 123.04 169.027 122.872C169.027 121.776 168.331 120.776 167.107 120.776C165.963 120.776 165.123 121.736 165.123 122.928V122.944C165.123 124.224 166.051 125.096 167.187 125.096C167.891 125.096 168.355 124.848 168.747 124.472ZM170.346 124.728C170.346 124.896 170.482 125.04 170.658 125.04C170.834 125.04 170.962 124.896 170.962 124.728V121.408H172.026C172.178 121.408 172.298 121.288 172.298 121.144C172.298 120.992 172.178 120.88 172.026 120.88H170.954V120.544C170.954 119.952 171.194 119.664 171.674 119.664C171.794 119.664 171.906 119.688 172.01 119.704C172.17 119.72 172.306 119.6 172.306 119.44C172.306 119.304 172.202 119.2 172.082 119.176C171.946 119.144 171.794 119.128 171.594 119.128C171.218 119.128 170.914 119.24 170.706 119.448C170.474 119.68 170.346 120.04 170.346 120.512V120.872H170.01C169.866 120.872 169.746 120.992 169.746 121.136C169.746 121.288 169.858 121.408 170.01 121.408H170.346V124.728ZM174.166 125.088C174.894 125.088 175.374 124.752 175.662 124.376V124.752C175.662 124.912 175.782 125.04 175.958 125.04C176.126 125.04 176.254 124.912 176.254 124.736V122.472C176.254 121.944 176.11 121.544 175.83 121.264C175.526 120.96 175.078 120.808 174.494 120.808C173.966 120.808 173.55 120.912 173.142 121.088C173.062 121.12 172.974 121.216 172.974 121.344C172.974 121.488 173.102 121.608 173.246 121.608C173.278 121.608 173.318 121.6 173.358 121.584C173.662 121.448 174.014 121.352 174.43 121.352C175.206 121.352 175.662 121.736 175.662 122.48V122.624C175.294 122.52 174.918 122.448 174.39 122.448C173.342 122.448 172.622 122.912 172.622 123.784V123.8C172.622 124.648 173.398 125.088 174.166 125.088ZM174.286 124.6C173.726 124.6 173.246 124.296 173.246 123.776V123.76C173.246 123.24 173.678 122.904 174.454 122.904C174.958 122.904 175.366 122.992 175.67 123.08V123.48C175.67 124.136 175.046 124.6 174.286 124.6ZM177.567 124.728C177.567 124.904 177.703 125.04 177.879 125.04C178.055 125.04 178.183 124.904 178.183 124.728V122.632C178.183 121.856 178.711 121.336 179.423 121.336C180.151 121.336 180.567 121.816 180.567 122.584V124.728C180.567 124.904 180.703 125.04 180.879 125.04C181.047 125.04 181.183 124.904 181.183 124.728V122.432C181.183 121.448 180.599 120.776 179.599 120.776C178.887 120.776 178.455 121.136 178.183 121.584V121.136C178.183 120.96 178.047 120.824 177.871 120.824C177.703 120.824 177.567 120.968 177.567 121.136V124.728ZM183.881 125.072C184.121 125.072 184.313 125.032 184.489 124.96C184.593 124.92 184.665 124.832 184.665 124.72C184.665 124.576 184.545 124.456 184.401 124.456C184.353 124.456 184.241 124.512 184.025 124.512C183.609 124.512 183.329 124.328 183.329 123.824V121.408H184.401C184.553 121.408 184.681 121.288 184.681 121.136C184.681 120.992 184.553 120.864 184.401 120.864H183.329V119.888C183.329 119.72 183.185 119.576 183.017 119.576C182.841 119.576 182.713 119.72 182.713 119.888V120.864H182.377C182.233 120.864 182.105 120.984 182.105 121.136C182.105 121.28 182.233 121.408 182.377 121.408H182.713V123.904C182.713 124.744 183.217 125.072 183.881 125.072ZM188.222 119.44C188.014 119.44 187.846 119.592 187.846 119.8V119.92C187.846 120.128 188.014 120.28 188.222 120.28C188.43 120.28 188.598 120.128 188.598 119.92V119.8C188.598 119.592 188.43 119.44 188.222 119.44ZM186.798 119.44C186.59 119.44 186.422 119.592 186.422 119.8V119.92C186.422 120.128 186.59 120.28 186.798 120.28C187.006 120.28 187.174 120.128 187.174 119.92V119.8C187.174 119.592 187.006 119.44 186.798 119.44ZM187.502 125.096C188.75 125.096 189.67 124.104 189.67 122.936V122.92C189.67 121.752 188.758 120.776 187.518 120.776C186.27 120.776 185.358 121.768 185.358 122.936V122.952C185.358 124.12 186.262 125.096 187.502 125.096ZM187.518 124.544C186.646 124.544 185.99 123.824 185.99 122.936V122.92C185.99 122.048 186.606 121.32 187.502 121.32C188.374 121.32 189.038 122.048 189.038 122.936V122.952C189.038 123.824 188.414 124.544 187.518 124.544ZM190.786 124.728C190.786 124.904 190.922 125.04 191.098 125.04C191.274 125.04 191.402 124.896 191.402 124.728V123.32C191.402 122.128 192.058 121.528 192.858 121.432C193.018 121.408 193.13 121.288 193.13 121.12C193.13 120.944 193.01 120.808 192.826 120.808C192.306 120.808 191.706 121.224 191.402 121.912V121.136C191.402 120.96 191.266 120.824 191.09 120.824C190.922 120.824 190.786 120.968 190.786 121.136V124.728ZM195.057 125.088C195.785 125.088 196.265 124.752 196.553 124.376V124.752C196.553 124.912 196.673 125.04 196.849 125.04C197.017 125.04 197.145 124.912 197.145 124.736V122.472C197.145 121.944 197.001 121.544 196.721 121.264C196.417 120.96 195.969 120.808 195.385 120.808C194.857 120.808 194.441 120.912 194.033 121.088C193.953 121.12 193.865 121.216 193.865 121.344C193.865 121.488 193.993 121.608 194.137 121.608C194.169 121.608 194.209 121.6 194.249 121.584C194.553 121.448 194.905 121.352 195.321 121.352C196.097 121.352 196.553 121.736 196.553 122.48V122.624C196.185 122.52 195.809 122.448 195.281 122.448C194.233 122.448 193.513 122.912 193.513 123.784V123.8C193.513 124.648 194.289 125.088 195.057 125.088ZM195.177 124.6C194.617 124.6 194.137 124.296 194.137 123.776V123.76C194.137 123.24 194.569 122.904 195.345 122.904C195.849 122.904 196.257 122.992 196.561 123.08V123.48C196.561 124.136 195.937 124.6 195.177 124.6Z" fill="#9FE7FF"/>
<path d="M114.435 68.16C114.435 68.688 114.867 69.12 115.371 69.12C115.899 69.12 116.331 68.688 116.331 68.16V64.512L119.955 60.888L126.219 68.688C126.387 68.928 126.627 69.12 126.987 69.12C127.515 69.12 127.947 68.664 127.947 68.16C127.947 67.872 127.851 67.68 127.683 67.464L121.299 59.592L127.251 53.688C127.443 53.496 127.563 53.28 127.563 53.016C127.563 52.536 127.155 52.08 126.651 52.08C126.339 52.08 126.123 52.224 125.907 52.416L116.331 62.232V53.04C116.331 52.512 115.899 52.08 115.371 52.08C114.867 52.08 114.435 52.512 114.435 53.04V68.16ZM131.255 68.184C131.255 68.712 131.663 69.12 132.191 69.12C132.719 69.12 133.103 68.688 133.103 68.184V63.96C133.103 60.384 135.071 58.584 137.471 58.296C137.951 58.224 138.287 57.864 138.287 57.36C138.287 56.832 137.927 56.424 137.375 56.424C135.815 56.424 134.015 57.672 133.103 59.736V57.408C133.103 56.88 132.695 56.472 132.167 56.472C131.663 56.472 131.255 56.904 131.255 57.408V68.184ZM144.069 69.264C146.253 69.264 147.693 68.256 148.557 67.128V68.256C148.557 68.736 148.917 69.12 149.445 69.12C149.949 69.12 150.333 68.736 150.333 68.208V61.416C150.333 59.832 149.901 58.632 149.061 57.792C148.149 56.88 146.805 56.424 145.053 56.424C143.469 56.424 142.221 56.736 140.997 57.264C140.757 57.36 140.493 57.648 140.493 58.032C140.493 58.464 140.877 58.824 141.309 58.824C141.405 58.824 141.525 58.8 141.645 58.752C142.557 58.344 143.613 58.056 144.861 58.056C147.189 58.056 148.557 59.208 148.557 61.44V61.872C147.453 61.56 146.325 61.344 144.741 61.344C141.597 61.344 139.437 62.736 139.437 65.352V65.4C139.437 67.944 141.765 69.264 144.069 69.264ZM144.429 67.8C142.749 67.8 141.309 66.888 141.309 65.328V65.28C141.309 63.72 142.605 62.712 144.933 62.712C146.445 62.712 147.669 62.976 148.581 63.24V64.44C148.581 66.408 146.709 67.8 144.429 67.8ZM154.271 68.184C154.271 68.688 154.679 69.12 155.207 69.12C155.735 69.12 156.119 68.688 156.119 68.184V66.624C157.079 68.016 158.567 69.264 160.871 69.264C163.871 69.264 166.799 66.864 166.799 62.808V62.76C166.799 58.68 163.847 56.328 160.871 56.328C158.591 56.328 157.127 57.6 156.119 59.088V52.296C156.119 51.768 155.711 51.36 155.183 51.36C154.679 51.36 154.271 51.768 154.271 52.296V68.184ZM160.535 67.608C158.231 67.608 156.047 65.688 156.047 62.808V62.76C156.047 59.928 158.231 57.984 160.535 57.984C162.887 57.984 164.903 59.856 164.903 62.784V62.832C164.903 65.832 162.935 67.608 160.535 67.608ZM170.209 68.184C170.209 68.688 170.617 69.12 171.145 69.12C171.673 69.12 172.057 68.688 172.057 68.184V66.624C173.017 68.016 174.505 69.264 176.809 69.264C179.809 69.264 182.737 66.864 182.737 62.808V62.76C182.737 58.68 179.785 56.328 176.809 56.328C174.529 56.328 173.065 57.6 172.057 59.088V52.296C172.057 51.768 171.649 51.36 171.121 51.36C170.617 51.36 170.209 51.768 170.209 52.296V68.184ZM176.473 67.608C174.169 67.608 171.985 65.688 171.985 62.808V62.76C171.985 59.928 174.169 57.984 176.473 57.984C178.825 57.984 180.841 59.856 180.841 62.784V62.832C180.841 65.832 178.873 67.608 176.473 67.608ZM190.298 69.216C191.018 69.216 191.594 69.096 192.122 68.88C192.434 68.76 192.65 68.496 192.65 68.16C192.65 67.728 192.29 67.368 191.858 67.368C191.714 67.368 191.378 67.536 190.73 67.536C189.482 67.536 188.642 66.984 188.642 65.472V58.224H191.858C192.314 58.224 192.698 57.864 192.698 57.408C192.698 56.976 192.314 56.592 191.858 56.592H188.642V53.664C188.642 53.16 188.21 52.728 187.706 52.728C187.178 52.728 186.794 53.16 186.794 53.664V56.592H185.786C185.354 56.592 184.97 56.952 184.97 57.408C184.97 57.84 185.354 58.224 185.786 58.224H186.794V65.712C186.794 68.232 188.306 69.216 190.298 69.216ZM199.545 69.264C201.729 69.264 203.169 68.256 204.033 67.128V68.256C204.033 68.736 204.393 69.12 204.921 69.12C205.425 69.12 205.809 68.736 205.809 68.208V61.416C205.809 59.832 205.377 58.632 204.537 57.792C203.625 56.88 202.281 56.424 200.529 56.424C198.945 56.424 197.697 56.736 196.473 57.264C196.233 57.36 195.969 57.648 195.969 58.032C195.969 58.464 196.353 58.824 196.785 58.824C196.881 58.824 197.001 58.8 197.121 58.752C198.033 58.344 199.089 58.056 200.337 58.056C202.665 58.056 204.033 59.208 204.033 61.44V61.872C202.929 61.56 201.801 61.344 200.217 61.344C197.073 61.344 194.913 62.736 194.913 65.352V65.4C194.913 67.944 197.241 69.264 199.545 69.264ZM199.905 67.8C198.225 67.8 196.785 66.888 196.785 65.328V65.28C196.785 63.72 198.081 62.712 200.409 62.712C201.921 62.712 203.145 62.976 204.057 63.24V64.44C204.057 66.408 202.185 67.8 199.905 67.8ZM213.852 69.24C216.324 69.24 218.268 67.872 218.268 65.52V65.472C218.268 63.24 216.204 62.496 214.284 61.92C212.628 61.416 211.092 60.96 211.092 59.784V59.736C211.092 58.704 212.028 57.936 213.492 57.936C214.548 57.936 215.676 58.296 216.732 58.896C216.828 58.944 216.972 58.992 217.14 58.992C217.596 58.992 217.956 58.632 217.956 58.2C217.956 57.84 217.74 57.576 217.5 57.432C216.3 56.784 214.86 56.376 213.54 56.376C211.092 56.376 209.316 57.792 209.316 59.928V59.976C209.316 62.256 211.476 62.928 213.42 63.48C215.052 63.936 216.516 64.416 216.516 65.664V65.712C216.516 66.912 215.436 67.68 213.948 67.68C212.604 67.68 211.284 67.224 210.012 66.36C209.892 66.264 209.724 66.216 209.556 66.216C209.1 66.216 208.74 66.576 208.74 67.008C208.74 67.32 208.908 67.56 209.076 67.68C210.42 68.64 212.22 69.24 213.852 69.24ZM221.701 68.184C221.701 68.712 222.109 69.12 222.637 69.12C223.165 69.12 223.549 68.712 223.549 68.184V65.808L226.117 63.264L230.413 68.688C230.653 69 230.869 69.12 231.205 69.12C231.709 69.12 232.093 68.76 232.093 68.256C232.093 68.016 232.021 67.848 231.853 67.632L227.413 62.04L231.469 58.056C231.709 57.816 231.829 57.624 231.829 57.336C231.829 56.88 231.493 56.472 230.989 56.472C230.701 56.472 230.485 56.592 230.269 56.832L223.549 63.672V52.296C223.549 51.792 223.141 51.36 222.613 51.36C222.109 51.36 221.701 51.792 221.701 52.296V68.184ZM238.803 69.264C240.987 69.264 242.427 68.256 243.291 67.128V68.256C243.291 68.736 243.651 69.12 244.179 69.12C244.683 69.12 245.067 68.736 245.067 68.208V61.416C245.067 59.832 244.635 58.632 243.795 57.792C242.883 56.88 241.539 56.424 239.787 56.424C238.203 56.424 236.955 56.736 235.731 57.264C235.491 57.36 235.227 57.648 235.227 58.032C235.227 58.464 235.611 58.824 236.043 58.824C236.139 58.824 236.259 58.8 236.379 58.752C237.291 58.344 238.347 58.056 239.595 58.056C241.923 58.056 243.291 59.208 243.291 61.44V61.872C242.187 61.56 241.059 61.344 239.475 61.344C236.331 61.344 234.171 62.736 234.171 65.352V65.4C234.171 67.944 236.499 69.264 238.803 69.264ZM239.163 67.8C237.483 67.8 236.043 66.888 236.043 65.328V65.28C236.043 63.72 237.339 62.712 239.667 62.712C241.179 62.712 242.403 62.976 243.315 63.24V64.44C243.315 66.408 241.443 67.8 239.163 67.8Z" fill="#31CBFF"/>
<path d="M2.71194 124.16C2.71194 124.688 3.14394 125.12 3.64794 125.12C4.17594 125.12 4.60794 124.688 4.60794 124.16V117.44H14.3039V124.16C14.3039 124.688 14.7359 125.12 15.2639 125.12C15.7679 125.12 16.1999 124.688 16.1999 124.16V109.04C16.1999 108.512 15.7679 108.08 15.2639 108.08C14.7359 108.08 14.3039 108.512 14.3039 109.04V115.664H4.60794V109.04C4.60794 108.512 4.17594 108.08 3.64794 108.08C3.14394 108.08 2.71194 108.512 2.71194 109.04V124.16ZM24.3303 125.264C26.5143 125.264 27.9543 124.256 28.8183 123.128V124.256C28.8183 124.736 29.1783 125.12 29.7063 125.12C30.2103 125.12 30.5943 124.736 30.5943 124.208V117.416C30.5943 115.832 30.1623 114.632 29.3223 113.792C28.4103 112.88 27.0663 112.424 25.3143 112.424C23.7303 112.424 22.4823 112.736 21.2583 113.264C21.0183 113.36 20.7543 113.648 20.7543 114.032C20.7543 114.464 21.1383 114.824 21.5703 114.824C21.6663 114.824 21.7863 114.8 21.9063 114.752C22.8183 114.344 23.8743 114.056 25.1223 114.056C27.4503 114.056 28.8183 115.208 28.8183 117.44V117.872C27.7143 117.56 26.5863 117.344 25.0023 117.344C21.8583 117.344 19.6983 118.736 19.6983 121.352V121.4C19.6983 123.944 22.0263 125.264 24.3303 125.264ZM24.6903 123.8C23.0103 123.8 21.5703 122.888 21.5703 121.328V121.28C21.5703 119.72 22.8663 118.712 25.1943 118.712C26.7063 118.712 27.9303 118.976 28.8423 119.24V120.44C28.8423 122.408 26.9703 123.8 24.6903 123.8ZM40.1114 124.4L44.7914 113.84C44.8394 113.72 44.8874 113.552 44.8874 113.384C44.8874 112.88 44.4794 112.472 43.9754 112.472C43.4954 112.472 43.2314 112.784 43.1114 113.144L39.0314 122.888L35.0234 113.192C34.8794 112.784 34.6154 112.472 34.0874 112.472C33.5594 112.472 33.1514 112.904 33.1514 113.384C33.1514 113.552 33.2234 113.72 33.2714 113.888L37.9274 124.4C38.1434 124.88 38.4794 125.192 38.9834 125.192H39.0794C39.5834 125.192 39.8954 124.88 40.1114 124.4ZM51.8086 125.24C54.2806 125.24 56.2246 123.872 56.2246 121.52V121.472C56.2246 119.24 54.1606 118.496 52.2406 117.92C50.5846 117.416 49.0486 116.96 49.0486 115.784V115.736C49.0486 114.704 49.9846 113.936 51.4486 113.936C52.5046 113.936 53.6326 114.296 54.6886 114.896C54.7846 114.944 54.9286 114.992 55.0966 114.992C55.5526 114.992 55.9126 114.632 55.9126 114.2C55.9126 113.84 55.6966 113.576 55.4566 113.432C54.2566 112.784 52.8166 112.376 51.4966 112.376C49.0486 112.376 47.2726 113.792 47.2726 115.928V115.976C47.2726 118.256 49.4326 118.928 51.3766 119.48C53.0086 119.936 54.4726 120.416 54.4726 121.664V121.712C54.4726 122.912 53.3926 123.68 51.9046 123.68C50.5606 123.68 49.2406 123.224 47.9686 122.36C47.8486 122.264 47.6806 122.216 47.5126 122.216C47.0566 122.216 46.6966 122.576 46.6966 123.008C46.6966 123.32 46.8646 123.56 47.0326 123.68C48.3766 124.64 50.1766 125.24 51.8086 125.24ZM59.6578 124.184C59.6578 124.712 60.0658 125.12 60.5938 125.12C61.1217 125.12 61.5058 124.712 61.5058 124.184V121.808L64.0738 119.264L68.3698 124.688C68.6098 125 68.8258 125.12 69.1618 125.12C69.6658 125.12 70.0498 124.76 70.0498 124.256C70.0498 124.016 69.9778 123.848 69.8098 123.632L65.3698 118.04L69.4258 114.056C69.6658 113.816 69.7858 113.624 69.7858 113.336C69.7858 112.88 69.4498 112.472 68.9458 112.472C68.6578 112.472 68.4418 112.592 68.2258 112.832L61.5058 119.672V108.296C61.5058 107.792 61.0978 107.36 60.5698 107.36C60.0658 107.36 59.6578 107.792 59.6578 108.296V124.184ZM73.2984 124.184C73.2984 124.712 73.7064 125.12 74.2344 125.12C74.7624 125.12 75.1464 124.688 75.1464 124.184V119.96C75.1464 116.384 77.1144 114.584 79.5144 114.296C79.9944 114.224 80.3304 113.864 80.3304 113.36C80.3304 112.832 79.9704 112.424 79.4184 112.424C77.8584 112.424 76.0584 113.672 75.1464 115.736V113.408C75.1464 112.88 74.7384 112.472 74.2104 112.472C73.7064 112.472 73.2984 112.904 73.2984 113.408V124.184ZM86.1116 125.264C88.2956 125.264 89.7356 124.256 90.5996 123.128V124.256C90.5996 124.736 90.9596 125.12 91.4876 125.12C91.9916 125.12 92.3756 124.736 92.3756 124.208V117.416C92.3756 115.832 91.9436 114.632 91.1036 113.792C90.1916 112.88 88.8476 112.424 87.0956 112.424C85.5116 112.424 84.2636 112.736 83.0396 113.264C82.7996 113.36 82.5356 113.648 82.5356 114.032C82.5356 114.464 82.9196 114.824 83.3516 114.824C83.4476 114.824 83.5676 114.8 83.6876 114.752C84.5996 114.344 85.6556 114.056 86.9036 114.056C89.2316 114.056 90.5996 115.208 90.5996 117.44V117.872C89.4956 117.56 88.3676 117.344 86.7836 117.344C83.6396 117.344 81.4796 118.736 81.4796 121.352V121.4C81.4796 123.944 83.8076 125.264 86.1116 125.264ZM86.4716 123.8C84.7916 123.8 83.3516 122.888 83.3516 121.328V121.28C83.3516 119.72 84.6476 118.712 86.9756 118.712C88.4876 118.712 89.7116 118.976 90.6236 119.24V120.44C90.6236 122.408 88.7516 123.8 86.4716 123.8ZM89.4236 108.32C88.7996 108.32 88.2956 108.776 88.2956 109.4V109.76C88.2956 110.384 88.7996 110.84 89.4236 110.84C90.0476 110.84 90.5516 110.384 90.5516 109.76V109.4C90.5516 108.776 90.0476 108.32 89.4236 108.32ZM85.1516 108.32C84.5276 108.32 84.0236 108.776 84.0236 109.4V109.76C84.0236 110.384 84.5276 110.84 85.1516 110.84C85.7756 110.84 86.2796 110.384 86.2796 109.76V109.4C86.2796 108.776 85.7756 108.32 85.1516 108.32ZM97.01 124.184C97.01 124.688 97.418 125.12 97.946 125.12C98.474 125.12 98.858 124.688 98.858 124.184V114.224H102.05C102.506 114.224 102.866 113.864 102.866 113.432C102.866 112.976 102.506 112.64 102.05 112.64H98.834V111.632C98.834 109.856 99.554 108.992 100.994 108.992C101.354 108.992 101.69 109.064 102.002 109.112C102.482 109.16 102.89 108.8 102.89 108.32C102.89 107.912 102.578 107.6 102.218 107.528C101.81 107.432 101.354 107.384 100.754 107.384C99.626 107.384 98.714 107.72 98.09 108.344C97.394 109.04 97.01 110.12 97.01 111.536V112.616H96.002C95.57 112.616 95.21 112.976 95.21 113.408C95.21 113.864 95.546 114.224 96.002 114.224H97.01V124.184ZM109.279 125.216C109.999 125.216 110.575 125.096 111.103 124.88C111.415 124.76 111.631 124.496 111.631 124.16C111.631 123.728 111.271 123.368 110.839 123.368C110.695 123.368 110.359 123.536 109.711 123.536C108.463 123.536 107.623 122.984 107.623 121.472V114.224H110.839C111.295 114.224 111.679 113.864 111.679 113.408C111.679 112.976 111.295 112.592 110.839 112.592H107.623V109.664C107.623 109.16 107.191 108.728 106.687 108.728C106.159 108.728 105.775 109.16 105.775 109.664V112.592H104.767C104.335 112.592 103.951 112.952 103.951 113.408C103.951 113.84 104.335 114.224 104.767 114.224H105.775V121.712C105.775 124.232 107.287 125.216 109.279 125.216ZM118.526 125.264C120.71 125.264 122.15 124.256 123.014 123.128V124.256C123.014 124.736 123.374 125.12 123.902 125.12C124.406 125.12 124.79 124.736 124.79 124.208V117.416C124.79 115.832 124.358 114.632 123.518 113.792C122.606 112.88 121.262 112.424 119.51 112.424C117.926 112.424 116.678 112.736 115.454 113.264C115.214 113.36 114.95 113.648 114.95 114.032C114.95 114.464 115.334 114.824 115.766 114.824C115.862 114.824 115.982 114.8 116.102 114.752C117.014 114.344 118.07 114.056 119.318 114.056C121.646 114.056 123.014 115.208 123.014 117.44V117.872C121.91 117.56 120.782 117.344 119.198 117.344C116.054 117.344 113.894 118.736 113.894 121.352V121.4C113.894 123.944 116.222 125.264 118.526 125.264ZM118.886 123.8C117.206 123.8 115.766 122.888 115.766 121.328V121.28C115.766 119.72 117.062 118.712 119.39 118.712C120.902 118.712 122.126 118.976 123.038 119.24V120.44C123.038 122.408 121.166 123.8 118.886 123.8Z" fill="#31CBFF"/>
<path d="M106.66 67.6262C106.87 67.6262 107.05 67.4562 107.05 67.2462C107.05 67.0262 106.87 66.8562 106.66 66.8562L101.24 66.8562L106.79 62.5162C106.93 62.3962 107.03 62.2762 107.03 62.1062L107.03 62.0662C107.03 61.8562 106.87 61.7062 106.66 61.7062L100.34 61.7062C100.13 61.7062 99.95 61.8762 99.95 62.0862C99.95 62.3062 100.13 62.4762 100.34 62.4762L105.62 62.4762L100.2 66.7262C100.06 66.8362 99.97 66.9462 99.97 67.1262L99.97 67.2362C99.97 67.4462 100.15 67.6262 100.36 67.6262L106.66 67.6262ZM107.12 57.4958C107.12 55.9358 105.88 54.7858 104.42 54.7858L104.4 54.7858C102.94 54.7858 101.72 55.9258 101.72 57.4758C101.72 59.0358 102.96 60.1758 104.42 60.1758L104.44 60.1758C105.9 60.1758 107.12 59.0458 107.12 57.4958ZM106.43 57.4758C106.43 58.5658 105.53 59.3858 104.42 59.3858L104.4 59.3858C103.31 59.3858 102.4 58.6158 102.4 57.4958C102.4 56.4058 103.31 55.5758 104.42 55.5758L104.44 55.5758C105.53 55.5758 106.43 56.3558 106.43 57.4758ZM106.66 53.391C106.88 53.391 107.05 53.221 107.05 53.001C107.05 52.781 106.87 52.621 106.66 52.621L104.9 52.621C103.41 52.621 102.66 51.801 102.54 50.801C102.51 50.601 102.36 50.461 102.15 50.461C101.93 50.461 101.76 50.611 101.76 50.841C101.76 51.491 102.28 52.241 103.14 52.621L102.17 52.621C101.95 52.621 101.78 52.791 101.78 53.011C101.78 53.221 101.96 53.391 102.17 53.391L106.66 53.391ZM100.04 44.6331C99.82 44.6331 99.65 44.8031 99.65 45.0231C99.65 45.2431 99.82 45.4031 100.04 45.4031L102.82 45.4031C102.24 45.8031 101.72 46.4231 101.72 47.3831C101.72 48.6231 102.72 49.8531 104.41 49.8531L104.43 49.8531C106.13 49.8531 107.11 48.6231 107.11 47.3831C107.11 46.4331 106.58 45.8231 105.96 45.4031L106.66 45.4031C106.88 45.4031 107.05 45.2331 107.05 45.0131C107.05 44.8031 106.88 44.6331 106.66 44.6331L100.04 44.6331ZM102.41 47.2431C102.41 46.2831 103.21 45.3731 104.4 45.3731L104.42 45.3731C105.61 45.3731 106.42 46.2831 106.42 47.2431C106.42 48.2131 105.64 49.0631 104.42 49.0631L104.4 49.0631C103.15 49.0631 102.41 48.2431 102.41 47.2431ZM106.66 42.9125C106.88 42.9125 107.05 42.7425 107.05 42.5225C107.05 42.3025 106.88 42.1425 106.66 42.1425L104.04 42.1425C103.07 42.1425 102.42 41.4825 102.42 40.5925C102.42 39.6825 103.02 39.1625 103.98 39.1625L106.66 39.1625C106.88 39.1625 107.05 38.9925 107.05 38.7725C107.05 38.5625 106.88 38.3925 106.66 38.3925L103.79 38.3925C102.56 38.3925 101.72 39.1225 101.72 40.3725C101.72 41.2625 102.17 41.8025 102.73 42.1425L100.04 42.1425C99.83 42.1425 99.65 42.3125 99.65 42.5325C99.65 42.7425 99.83 42.9125 100.04 42.9125L106.66 42.9125ZM107.11 35.2104C107.11 34.3004 106.69 33.7004 106.22 33.3404L106.69 33.3404C106.89 33.3404 107.05 33.1904 107.05 32.9704C107.05 32.7604 106.89 32.6004 106.67 32.6004L103.84 32.6004C103.18 32.6004 102.68 32.7804 102.33 33.1304C101.95 33.5104 101.76 34.0704 101.76 34.8004C101.76 35.4604 101.89 35.9804 102.11 36.4904C102.15 36.5904 102.27 36.7004 102.43 36.7004C102.61 36.7004 102.76 36.5404 102.76 36.3604C102.76 36.3204 102.75 36.2704 102.73 36.2204C102.56 35.8404 102.44 35.4004 102.44 34.8804C102.44 33.9104 102.92 33.3404 103.85 33.3404L104.03 33.3404C103.9 33.8004 103.81 34.2704 103.81 34.9304C103.81 36.2404 104.39 37.1404 105.48 37.1404L105.5 37.1404C106.56 37.1404 107.11 36.1704 107.11 35.2104ZM106.5 35.0604C106.5 35.7604 106.12 36.3604 105.47 36.3604L105.45 36.3604C104.8 36.3604 104.38 35.8204 104.38 34.8504C104.38 34.2204 104.49 33.7104 104.6 33.3304L105.1 33.3304C105.92 33.3304 106.5 34.1104 106.5 35.0604ZM106.75 28.6349L102.35 26.6849C102.3 26.6649 102.23 26.6449 102.16 26.6449C101.95 26.6449 101.78 26.8149 101.78 27.0249C101.78 27.2249 101.91 27.3349 102.06 27.3849L106.12 29.0849L102.08 30.7549C101.91 30.8149 101.78 30.9249 101.78 31.1449C101.78 31.3649 101.96 31.5349 102.16 31.5349C102.23 31.5349 102.3 31.5049 102.37 31.4849L106.75 29.5449C106.95 29.4549 107.08 29.3149 107.08 29.1049L107.08 29.0649C107.08 28.8549 106.95 28.7249 106.75 28.6349ZM107.1 23.7611C107.1 22.7311 106.53 21.9211 105.55 21.9211L105.53 21.9211C104.6 21.9211 104.29 22.7811 104.05 23.5811C103.84 24.2711 103.65 24.9111 103.16 24.9111L103.14 24.9111C102.71 24.9111 102.39 24.5211 102.39 23.9111C102.39 23.4711 102.54 23.0011 102.79 22.5611C102.81 22.5211 102.83 22.4611 102.83 22.3911C102.83 22.2011 102.68 22.0511 102.5 22.0511C102.35 22.0511 102.24 22.1411 102.18 22.2411C101.91 22.7411 101.74 23.3411 101.74 23.8911C101.74 24.9111 102.33 25.6511 103.22 25.6511L103.24 25.6511C104.19 25.6511 104.47 24.7511 104.7 23.9411C104.89 23.2611 105.09 22.6511 105.61 22.6511L105.63 22.6511C106.13 22.6511 106.45 23.1011 106.45 23.7211C106.45 24.2811 106.26 24.8311 105.9 25.3611C105.86 25.4111 105.84 25.4811 105.84 25.5511C105.84 25.7411 105.99 25.8911 106.17 25.8911C106.3 25.8911 106.4 25.8211 106.45 25.7511C106.85 25.1911 107.1 24.4411 107.1 23.7611ZM106.66 20.4906C106.88 20.4906 107.05 20.3206 107.05 20.1006C107.05 19.8806 106.87 19.7206 106.66 19.7206L104.9 19.7206C103.41 19.7206 102.66 18.9006 102.54 17.9006C102.51 17.7006 102.36 17.5606 102.15 17.5606C101.93 17.5606 101.76 17.7106 101.76 17.9406C101.76 18.5906 102.28 19.3406 103.14 19.7206L102.17 19.7206C101.95 19.7206 101.78 19.8906 101.78 20.1106C101.78 20.3206 101.96 20.4906 102.17 20.4906L106.66 20.4906ZM107.11 15.1518C107.11 14.2418 106.69 13.6418 106.22 13.2818L106.69 13.2818C106.89 13.2818 107.05 13.1318 107.05 12.9118C107.05 12.7018 106.89 12.5418 106.67 12.5418L103.84 12.5418C103.18 12.5418 102.68 12.7218 102.33 13.0718C101.95 13.4518 101.76 14.0118 101.76 14.7418C101.76 15.4018 101.89 15.9218 102.11 16.4318C102.15 16.5318 102.27 16.6418 102.43 16.6418C102.61 16.6418 102.76 16.4818 102.76 16.3018C102.76 16.2618 102.75 16.2118 102.73 16.1618C102.56 15.7818 102.44 15.3418 102.44 14.8218C102.44 13.8518 102.92 13.2818 103.85 13.2818L104.03 13.2818C103.9 13.7418 103.81 14.2118 103.81 14.8718C103.81 16.1818 104.39 17.0818 105.48 17.0818L105.5 17.0818C106.56 17.0818 107.11 16.1118 107.11 15.1518ZM106.5 15.0018C106.5 15.7018 106.12 16.3018 105.47 16.3018L105.45 16.3018C104.8 16.3018 104.38 15.7618 104.38 14.7918C104.38 14.1618 104.49 13.6518 104.6 13.2718L105.1 13.2718C105.92 13.2718 106.5 14.0518 106.5 15.0018ZM100.05 13.7718C100.05 14.0318 100.24 14.2418 100.5 14.2418L100.65 14.2418C100.91 14.2418 101.1 14.0318 101.1 13.7718C101.1 13.5118 100.91 13.3018 100.65 13.3018L100.5 13.3018C100.24 13.3018 100.05 13.5118 100.05 13.7718ZM100.05 15.5518C100.05 15.8118 100.24 16.0218 100.5 16.0218L100.65 16.0218C100.91 16.0218 101.1 15.8118 101.1 15.5518C101.1 15.2918 100.91 15.0818 100.65 15.0818L100.5 15.0818C100.24 15.0818 100.05 15.2918 100.05 15.5518ZM106.66 10.9007C106.88 10.9007 107.05 10.7307 107.05 10.5107C107.05 10.2907 106.88 10.1307 106.66 10.1307L105.67 10.1307L104.61 9.06074L106.87 7.27074C107 7.17074 107.05 7.08074 107.05 6.94074C107.05 6.73074 106.9 6.57074 106.69 6.57074C106.59 6.57074 106.52 6.60074 106.43 6.67074L104.1 8.52074L102.44 6.83074C102.34 6.73074 102.26 6.68074 102.14 6.68074C101.95 6.68074 101.78 6.82074 101.78 7.03074C101.78 7.15074 101.83 7.24074 101.93 7.33074L104.78 10.1307L100.04 10.1307C99.83 10.1307 99.65 10.3007 99.65 10.5207C99.65 10.7307 99.83 10.9007 100.04 10.9007L106.66 10.9007ZM107.11 3.7748C107.11 2.8648 106.69 2.2648 106.22 1.9048L106.69 1.9048C106.89 1.9048 107.05 1.7548 107.05 1.5348C107.05 1.3248 106.89 1.1648 106.67 1.1648L103.84 1.1648C103.18 1.1648 102.68 1.3448 102.33 1.6948C101.95 2.0748 101.76 2.6348 101.76 3.3648C101.76 4.0248 101.89 4.5448 102.11 5.0548C102.15 5.1548 102.27 5.2648 102.43 5.2648C102.61 5.2648 102.76 5.1048 102.76 4.9248C102.76 4.8848 102.75 4.8348 102.73 4.7848C102.56 4.4048 102.44 3.9648 102.44 3.4448C102.44 2.4748 102.92 1.9048 103.85 1.9048L104.03 1.9048C103.9 2.3648 103.81 2.8348 103.81 3.4948C103.81 4.8048 104.39 5.7048 105.48 5.7048L105.5 5.7048C106.56 5.7048 107.11 4.7348 107.11 3.7748ZM106.5 3.6248C106.5 4.3248 106.12 4.9248 105.47 4.9248L105.45 4.9248C104.8 4.9248 104.38 4.3848 104.38 3.4148C104.38 2.7848 104.49 2.2748 104.6 1.8948L105.1 1.8948C105.92 1.8948 106.5 2.6748 106.5 3.6248Z" fill="#87E1FF"/>
<path d="M54.4451 136.65C54.4451 136.87 54.6251 137.05 54.8351 137.05C55.0551 137.05 55.2351 136.87 55.2351 136.65V135.13L56.7451 133.62L59.3551 136.87C59.4251 136.97 59.5251 137.05 59.6751 137.05C59.8951 137.05 60.0751 136.86 60.0751 136.65C60.0751 136.53 60.0351 136.45 59.9651 136.36L57.3051 133.08L59.7851 130.62C59.8651 130.54 59.9151 130.45 59.9151 130.34C59.9151 130.14 59.7451 129.95 59.5351 129.95C59.4051 129.95 59.3151 130.01 59.2251 130.09L55.2351 134.18V130.35C55.2351 130.13 55.0551 129.95 54.8351 129.95C54.6251 129.95 54.4451 130.13 54.4451 130.35V136.65ZM61.5238 136.66C61.5238 136.88 61.6938 137.05 61.9137 137.05C62.1338 137.05 62.2938 136.88 62.2938 136.66V130.04C62.2938 129.83 62.1238 129.65 61.9038 129.65C61.6938 129.65 61.5238 129.83 61.5238 130.04V136.66ZM68.5107 132.17C68.5107 131.95 68.3407 131.78 68.1307 131.78C67.9107 131.78 67.7507 131.95 67.7507 132.17V134.79C67.7507 135.76 67.0807 136.41 66.2007 136.41C65.2907 136.41 64.7707 135.81 64.7707 134.85V132.17C64.7707 131.95 64.5907 131.78 64.3807 131.78C64.1607 131.78 64.0007 131.95 64.0007 132.17V135.04C64.0007 136.27 64.7307 137.11 65.9807 137.11C66.8707 137.11 67.4007 136.66 67.7507 136.1V136.66C67.7507 136.88 67.9207 137.05 68.1307 137.05C68.3507 137.05 68.5107 136.87 68.5107 136.66V132.17ZM70.2428 136.66C70.2428 136.88 70.4128 137.05 70.6328 137.05C70.8528 137.05 71.0128 136.88 71.0128 136.66V134.05C71.0128 133.1 71.6328 132.42 72.4528 132.42C73.2728 132.42 73.7828 132.99 73.7828 133.96V136.66C73.7828 136.88 73.9528 137.05 74.1628 137.05C74.3828 137.05 74.5528 136.88 74.5528 136.66V134.02C74.5528 133 75.1928 132.42 75.9728 132.42C76.8128 132.42 77.3128 132.98 77.3128 133.98V136.66C77.3128 136.88 77.4828 137.05 77.7028 137.05C77.9128 137.05 78.0828 136.88 78.0828 136.66V133.8C78.0828 132.52 77.3528 131.72 76.1628 131.72C75.2628 131.72 74.7128 132.18 74.3428 132.75C74.0628 132.17 73.5228 131.72 72.6828 131.72C71.8128 131.72 71.3528 132.19 71.0128 132.7V132.17C71.0128 131.95 70.8428 131.78 70.6228 131.78C70.4128 131.78 70.2428 131.96 70.2428 132.17V136.66ZM79.7545 138.26C79.7545 138.48 79.9245 138.65 80.1445 138.65C80.3645 138.65 80.5245 138.48 80.5245 138.26V136.01C80.9245 136.59 81.5445 137.11 82.5045 137.11C83.7545 137.11 84.9745 136.11 84.9745 134.42V134.4C84.9745 132.7 83.7445 131.72 82.5045 131.72C81.5545 131.72 80.9445 132.25 80.5245 132.87V132.17C80.5245 131.95 80.3545 131.78 80.1345 131.78C79.9245 131.78 79.7545 131.95 79.7545 132.17V138.26ZM82.3645 136.42C81.4045 136.42 80.4945 135.62 80.4945 134.42V134.4C80.4945 133.22 81.4045 132.41 82.3645 132.41C83.3445 132.41 84.1845 133.19 84.1845 134.41V134.43C84.1845 135.68 83.3645 136.42 82.3645 136.42ZM87.9352 137.11C88.8452 137.11 89.4452 136.69 89.8052 136.22V136.69C89.8052 136.89 89.9552 137.05 90.1752 137.05C90.3852 137.05 90.5452 136.89 90.5452 136.67V133.84C90.5452 133.18 90.3652 132.68 90.0152 132.33C89.6352 131.95 89.0752 131.76 88.3452 131.76C87.6852 131.76 87.1652 131.89 86.6552 132.11C86.5552 132.15 86.4452 132.27 86.4452 132.43C86.4452 132.61 86.6052 132.76 86.7852 132.76C86.8252 132.76 86.8752 132.75 86.9252 132.73C87.3052 132.56 87.7452 132.44 88.2652 132.44C89.2352 132.44 89.8052 132.92 89.8052 133.85V134.03C89.3452 133.9 88.8752 133.81 88.2152 133.81C86.9052 133.81 86.0052 134.39 86.0052 135.48V135.5C86.0052 136.56 86.9752 137.11 87.9352 137.11ZM88.0852 136.5C87.3852 136.5 86.7852 136.12 86.7852 135.47V135.45C86.7852 134.8 87.3252 134.38 88.2952 134.38C88.9252 134.38 89.4352 134.49 89.8152 134.6V135.1C89.8152 135.92 89.0352 136.5 88.0852 136.5ZM92.1862 136.66C92.1862 136.88 92.3562 137.05 92.5762 137.05C92.7962 137.05 92.9562 136.88 92.9562 136.66V134.04C92.9562 133.07 93.6162 132.42 94.5062 132.42C95.4162 132.42 95.9362 133.02 95.9362 133.98V136.66C95.9362 136.88 96.1062 137.05 96.3262 137.05C96.5362 137.05 96.7062 136.88 96.7062 136.66V133.79C96.7062 132.56 95.9762 131.72 94.7262 131.72C93.8362 131.72 93.2962 132.17 92.9562 132.73V132.17C92.9562 131.95 92.7862 131.78 92.5662 131.78C92.3562 131.78 92.1862 131.96 92.1862 132.17V136.66ZM98.8083 134.13C98.9083 133.12 99.5883 132.37 100.488 132.37C101.518 132.37 102.058 133.19 102.138 134.13H98.8083ZM102.558 136.34C102.638 136.27 102.678 136.18 102.678 136.09C102.678 135.91 102.528 135.76 102.338 135.76C102.248 135.76 102.178 135.8 102.118 135.85C101.738 136.2 101.268 136.45 100.628 136.45C99.7083 136.45 98.9183 135.82 98.8083 134.7H102.548C102.738 134.7 102.908 134.55 102.908 134.34C102.908 132.97 102.038 131.72 100.508 131.72C99.0783 131.72 98.0283 132.92 98.0283 134.41V134.43C98.0283 136.03 99.1883 137.12 100.608 137.12C101.488 137.12 102.068 136.81 102.558 136.34ZM104.266 136.66C104.266 136.88 104.436 137.05 104.656 137.05C104.876 137.05 105.036 136.88 105.036 136.66V134.05C105.036 133.1 105.656 132.42 106.476 132.42C107.296 132.42 107.806 132.99 107.806 133.96V136.66C107.806 136.88 107.976 137.05 108.186 137.05C108.406 137.05 108.576 136.88 108.576 136.66V134.02C108.576 133 109.216 132.42 109.996 132.42C110.836 132.42 111.336 132.98 111.336 133.98V136.66C111.336 136.88 111.506 137.05 111.726 137.05C111.936 137.05 112.106 136.88 112.106 136.66V133.8C112.106 132.52 111.376 131.72 110.186 131.72C109.286 131.72 108.736 132.18 108.366 132.75C108.086 132.17 107.546 131.72 106.706 131.72C105.836 131.72 105.376 132.19 105.036 132.7V132.17C105.036 131.95 104.866 131.78 104.646 131.78C104.436 131.78 104.266 131.96 104.266 132.17V136.66ZM116.138 137.12C117.698 137.12 118.848 135.88 118.848 134.42V134.4C118.848 132.94 117.708 131.72 116.158 131.72C114.598 131.72 113.458 132.96 113.458 134.42V134.44C113.458 135.9 114.588 137.12 116.138 137.12ZM116.158 136.43C115.068 136.43 114.248 135.53 114.248 134.42V134.4C114.248 133.31 115.018 132.4 116.138 132.4C117.228 132.4 118.058 133.31 118.058 134.42V134.44C118.058 135.53 117.278 136.43 116.158 136.43ZM120.243 136.66C120.243 136.88 120.413 137.05 120.633 137.05C120.853 137.05 121.013 136.88 121.013 136.66V134.04C121.013 133.07 121.673 132.42 122.563 132.42C123.473 132.42 123.993 133.02 123.993 133.98V136.66C123.993 136.88 124.163 137.05 124.383 137.05C124.593 137.05 124.763 136.88 124.763 136.66V133.79C124.763 132.56 124.033 131.72 122.783 131.72C121.893 131.72 121.353 132.17 121.013 132.73V132.17C121.013 131.95 120.843 131.78 120.623 131.78C120.413 131.78 120.243 131.96 120.243 132.17V136.66Z" fill="#87E1FF"/>
</svg>
