<svg width="209" height="127" viewBox="0 0 209 127" fill="none" xmlns="http://www.w3.org/2000/svg">
<path d="M54.3711 59.88C54.3711 60.584 54.9471 61.16 55.6191 61.16C56.3231 61.16 56.8991 60.584 56.8991 59.88V51.24H68.0351C68.6751 51.24 69.1871 50.728 69.1871 50.088C69.1871 49.448 68.6751 48.936 68.0351 48.936H56.8991V40.936H69.4751C70.1151 40.936 70.6271 40.392 70.6271 39.752C70.6271 39.112 70.1151 38.6 69.4751 38.6H55.6191C54.9471 38.6 54.3711 39.176 54.3711 39.88V59.88ZM75.1791 59.912C75.1791 60.616 75.7231 61.16 76.4271 61.16C77.1311 61.16 77.6431 60.616 77.6431 59.912V38.728C77.6431 38.056 77.0991 37.48 76.3951 37.48C75.7231 37.48 75.1791 38.056 75.1791 38.728V59.912ZM88.2894 61.352C91.2014 61.352 93.1214 60.008 94.2734 58.504V60.008C94.2734 60.648 94.7534 61.16 95.4574 61.16C96.1294 61.16 96.6414 60.648 96.6414 59.944V50.888C96.6414 48.776 96.0654 47.176 94.9454 46.056C93.7294 44.84 91.9374 44.232 89.6014 44.232C87.4894 44.232 85.8254 44.648 84.1934 45.352C83.8734 45.48 83.5214 45.864 83.5214 46.376C83.5214 46.952 84.0334 47.432 84.6094 47.432C84.7374 47.432 84.8974 47.4 85.0574 47.336C86.2734 46.792 87.6814 46.408 89.3454 46.408C92.4494 46.408 94.2734 47.944 94.2734 50.92V51.496C92.8014 51.08 91.2974 50.792 89.1854 50.792C84.9934 50.792 82.1134 52.648 82.1134 56.136V56.2C82.1134 59.592 85.2174 61.352 88.2894 61.352ZM88.7694 59.4C86.5294 59.4 84.6094 58.184 84.6094 56.104V56.04C84.6094 53.96 86.3374 52.616 89.4414 52.616C91.4574 52.616 93.0894 52.968 94.3054 53.32V54.92C94.3054 57.544 91.8094 59.4 88.7694 59.4ZM92.7054 38.76C91.8734 38.76 91.2014 39.368 91.2014 40.2V40.68C91.2014 41.512 91.8734 42.12 92.7054 42.12C93.5374 42.12 94.2094 41.512 94.2094 40.68V40.2C94.2094 39.368 93.5374 38.76 92.7054 38.76ZM87.0094 38.76C86.1774 38.76 85.5054 39.368 85.5054 40.2V40.68C85.5054 41.512 86.1774 42.12 87.0094 42.12C87.8414 42.12 88.5134 41.512 88.5134 40.68V40.2C88.5134 39.368 87.8414 38.76 87.0094 38.76ZM107.365 61.32C110.661 61.32 113.253 59.496 113.253 56.36V56.296C113.253 53.32 110.501 52.328 107.941 51.56C105.733 50.888 103.685 50.28 103.685 48.712V48.648C103.685 47.272 104.933 46.248 106.885 46.248C108.293 46.248 109.797 46.728 111.205 47.528C111.333 47.592 111.525 47.656 111.749 47.656C112.357 47.656 112.837 47.176 112.837 46.6C112.837 46.12 112.549 45.768 112.229 45.576C110.629 44.712 108.709 44.168 106.949 44.168C103.685 44.168 101.317 46.056 101.317 48.904V48.968C101.317 52.008 104.197 52.904 106.789 53.64C108.965 54.248 110.917 54.888 110.917 56.552V56.616C110.917 58.216 109.477 59.24 107.493 59.24C105.701 59.24 103.941 58.632 102.245 57.48C102.085 57.352 101.861 57.288 101.637 57.288C101.029 57.288 100.549 57.768 100.549 58.344C100.549 58.76 100.773 59.08 100.997 59.24C102.789 60.52 105.189 61.32 107.365 61.32ZM117.83 59.912C117.83 60.616 118.374 61.16 119.078 61.16C119.782 61.16 120.294 60.616 120.294 59.912V56.744L123.718 53.352L129.446 60.584C129.766 61 130.054 61.16 130.502 61.16C131.174 61.16 131.686 60.68 131.686 60.008C131.686 59.688 131.59 59.464 131.366 59.176L125.446 51.72L130.854 46.408C131.174 46.088 131.334 45.832 131.334 45.448C131.334 44.84 130.886 44.296 130.214 44.296C129.83 44.296 129.542 44.456 129.254 44.776L120.294 53.896V38.728C120.294 38.056 119.75 37.48 119.046 37.48C118.374 37.48 117.83 38.056 117.83 38.728V59.912ZM147.762 39.688C147.762 40.456 148.402 41 149.202 41C150.034 41 150.674 40.456 150.674 39.688V39.272C150.674 38.472 150.034 37.96 149.202 37.96C148.402 37.96 147.762 38.472 147.762 39.272V39.688ZM147.986 59.912C147.986 60.616 148.53 61.16 149.234 61.16C149.938 61.16 150.45 60.616 150.45 59.912V45.544C150.45 44.84 149.906 44.296 149.202 44.296C148.53 44.296 147.986 44.872 147.986 45.544V59.912ZM136.946 59.912C136.946 60.584 137.49 61.16 138.194 61.16C138.898 61.16 139.41 60.584 139.41 59.912V46.632H143.666C144.274 46.632 144.754 46.152 144.754 45.576C144.754 44.968 144.274 44.52 143.666 44.52H139.378V43.176C139.378 40.808 140.338 39.656 142.258 39.656C142.738 39.656 143.186 39.752 143.602 39.816C144.242 39.88 144.786 39.4 144.786 38.76C144.786 38.216 144.37 37.8 143.89 37.704C143.346 37.576 142.738 37.512 141.938 37.512C140.434 37.512 139.218 37.96 138.386 38.792C137.458 39.72 136.946 41.16 136.946 43.048V44.488H135.602C135.026 44.488 134.546 44.968 134.546 45.544C134.546 46.152 134.994 46.632 135.602 46.632H136.946V59.912ZM156.429 59.912C156.429 60.616 156.973 61.16 157.677 61.16C158.381 61.16 158.893 60.616 158.893 59.912V38.728C158.893 38.056 158.349 37.48 157.645 37.48C156.973 37.48 156.429 38.056 156.429 38.728V59.912ZM171.427 42.088C172.035 42.088 172.419 41.992 172.931 41.48L175.331 39.208C175.587 38.952 175.779 38.728 175.779 38.472C175.779 38.024 174.819 37.512 174.051 37.512C173.571 37.512 173.219 37.768 172.899 38.248L170.979 41.16C170.883 41.288 170.819 41.48 170.819 41.64C170.819 41.896 171.075 42.088 171.427 42.088ZM166.083 51.816C166.403 48.584 168.579 46.184 171.459 46.184C174.755 46.184 176.483 48.808 176.739 51.816H166.083ZM178.083 58.888C178.339 58.664 178.467 58.376 178.467 58.088C178.467 57.512 177.987 57.032 177.379 57.032C177.091 57.032 176.867 57.16 176.675 57.32C175.459 58.44 173.955 59.24 171.907 59.24C168.963 59.24 166.435 57.224 166.083 53.64H178.051C178.659 53.64 179.203 53.16 179.203 52.488C179.203 48.104 176.419 44.104 171.523 44.104C166.947 44.104 163.587 47.944 163.587 52.712V52.776C163.587 57.896 167.299 61.384 171.843 61.384C174.659 61.384 176.515 60.392 178.083 58.888Z" fill="#36D936"/>
<path d="M0.529094 34.752C0.529094 34.912 0.657094 35.04 0.817094 35.04C0.961094 35.04 1.06509 34.96 1.12109 34.824L1.70509 33.52H4.77709L5.36109 34.808C5.41709 34.936 5.52109 35.04 5.67309 35.04C5.84109 35.04 5.97709 34.904 5.97709 34.736C5.97709 34.688 5.96109 34.632 5.93709 34.576L3.66509 29.616C3.59309 29.44 3.46509 29.336 3.27309 29.336H3.24109C3.04109 29.336 2.92109 29.44 2.84109 29.616L0.569094 34.584C0.537094 34.648 0.529094 34.704 0.529094 34.752ZM1.95309 32.944L3.24109 30.08L4.52909 32.944H1.95309ZM7.08253 36.008C7.08253 36.184 7.21853 36.32 7.39453 36.32C7.57053 36.32 7.69853 36.184 7.69853 36.008V34.208C8.01853 34.672 8.51453 35.088 9.28253 35.088C10.2825 35.088 11.2585 34.288 11.2585 32.936V32.92C11.2585 31.56 10.2745 30.776 9.28253 30.776C8.52253 30.776 8.03453 31.2 7.69853 31.696V31.136C7.69853 30.96 7.56253 30.824 7.38653 30.824C7.21853 30.824 7.08253 30.96 7.08253 31.136V36.008ZM9.17053 34.536C8.40253 34.536 7.67453 33.896 7.67453 32.936V32.92C7.67453 31.976 8.40253 31.328 9.17053 31.328C9.95453 31.328 10.6265 31.952 10.6265 32.928V32.944C10.6265 33.944 9.97053 34.536 9.17053 34.536ZM12.763 32.704C12.843 31.896 13.387 31.296 14.107 31.296C14.931 31.296 15.363 31.952 15.427 32.704H12.763ZM15.763 34.472C15.827 34.416 15.859 34.344 15.859 34.272C15.859 34.128 15.739 34.008 15.587 34.008C15.515 34.008 15.459 34.04 15.411 34.08C15.107 34.36 14.731 34.56 14.219 34.56C13.483 34.56 12.851 34.056 12.763 33.16H15.755C15.907 33.16 16.043 33.04 16.043 32.872C16.043 31.776 15.347 30.776 14.123 30.776C12.979 30.776 12.139 31.736 12.139 32.928V32.944C12.139 34.224 13.067 35.096 14.203 35.096C14.907 35.096 15.371 34.848 15.763 34.472ZM17.1854 34.728C17.1854 34.904 17.3214 35.04 17.4974 35.04C17.6734 35.04 17.8014 34.904 17.8014 34.728V29.432C17.8014 29.264 17.6654 29.12 17.4894 29.12C17.3214 29.12 17.1854 29.264 17.1854 29.432V34.728ZM20.599 35.08C21.423 35.08 22.071 34.624 22.071 33.84V33.824C22.071 33.08 21.383 32.832 20.743 32.64C20.191 32.472 19.679 32.32 19.679 31.928V31.912C19.679 31.568 19.991 31.312 20.479 31.312C20.831 31.312 21.207 31.432 21.559 31.632C21.591 31.648 21.639 31.664 21.695 31.664C21.847 31.664 21.967 31.544 21.967 31.4C21.967 31.28 21.895 31.192 21.815 31.144C21.415 30.928 20.935 30.792 20.495 30.792C19.679 30.792 19.087 31.264 19.087 31.976V31.992C19.087 32.752 19.807 32.976 20.455 33.16C20.999 33.312 21.487 33.472 21.487 33.888V33.904C21.487 34.304 21.127 34.56 20.631 34.56C20.183 34.56 19.743 34.408 19.319 34.12C19.279 34.088 19.223 34.072 19.167 34.072C19.015 34.072 18.895 34.192 18.895 34.336C18.895 34.44 18.951 34.52 19.007 34.56C19.455 34.88 20.055 35.08 20.599 35.08ZM23.2153 29.672C23.2153 29.864 23.3753 30 23.5753 30C23.7833 30 23.9433 29.864 23.9433 29.672V29.568C23.9433 29.368 23.7833 29.24 23.5753 29.24C23.3753 29.24 23.2153 29.368 23.2153 29.568V29.672ZM23.2713 34.728C23.2713 34.904 23.4073 35.04 23.5833 35.04C23.7593 35.04 23.8873 34.904 23.8873 34.728V31.136C23.8873 30.96 23.7513 30.824 23.5753 30.824C23.4073 30.824 23.2713 30.968 23.2713 31.136V34.728ZM25.3169 34.728C25.3169 34.904 25.4529 35.04 25.6289 35.04C25.8049 35.04 25.9329 34.904 25.9329 34.728V32.632C25.9329 31.856 26.4609 31.336 27.1729 31.336C27.9009 31.336 28.3169 31.816 28.3169 32.584V34.728C28.3169 34.904 28.4529 35.04 28.6289 35.04C28.7969 35.04 28.9329 34.904 28.9329 34.728V32.432C28.9329 31.448 28.3489 30.776 27.3489 30.776C26.6369 30.776 26.2049 31.136 25.9329 31.584V31.136C25.9329 30.96 25.7969 30.824 25.6209 30.824C25.4529 30.824 25.3169 30.968 25.3169 31.136V34.728ZM30.2466 29.672C30.2466 29.864 30.4066 30 30.6066 30C30.8146 30 30.9746 29.864 30.9746 29.672V29.568C30.9746 29.368 30.8146 29.24 30.6066 29.24C30.4066 29.24 30.2466 29.368 30.2466 29.568V29.672ZM29.9346 36.304C30.5346 36.304 30.9186 35.968 30.9186 35.24V31.136C30.9186 30.96 30.7826 30.824 30.6066 30.824C30.4386 30.824 30.3026 30.968 30.3026 31.136V35.256C30.3026 35.616 30.1266 35.784 29.8706 35.784C29.8306 35.784 29.7826 35.776 29.7346 35.776C29.5986 35.776 29.4786 35.888 29.4786 36.032C29.4786 36.2 29.6146 36.288 29.7906 36.296C29.8306 36.304 29.8786 36.304 29.9346 36.304ZM35.8922 31.136C35.8922 30.96 35.7562 30.824 35.5882 30.824C35.4122 30.824 35.2842 30.96 35.2842 31.136V33.232C35.2842 34.008 34.7482 34.528 34.0442 34.528C33.3162 34.528 32.9002 34.048 32.9002 33.28V31.136C32.9002 30.96 32.7562 30.824 32.5882 30.824C32.4122 30.824 32.2842 30.96 32.2842 31.136V33.432C32.2842 34.416 32.8682 35.088 33.8682 35.088C34.5802 35.088 35.0042 34.728 35.2842 34.28V34.728C35.2842 34.904 35.4202 35.04 35.5882 35.04C35.7642 35.04 35.8922 34.896 35.8922 34.728V31.136ZM37.2778 29.672C37.2778 29.864 37.4378 30 37.6378 30C37.8458 30 38.0058 29.864 38.0058 29.672V29.568C38.0058 29.368 37.8458 29.24 37.6378 29.24C37.4378 29.24 37.2778 29.368 37.2778 29.568V29.672ZM37.3338 34.728C37.3338 34.904 37.4698 35.04 37.6458 35.04C37.8218 35.04 37.9498 34.904 37.9498 34.728V31.136C37.9498 30.96 37.8138 30.824 37.6378 30.824C37.4698 30.824 37.3338 30.968 37.3338 31.136V34.728ZM41.2434 35.096C41.9394 35.096 42.4114 34.824 42.8034 34.432C42.8514 34.384 42.8834 34.312 42.8834 34.24C42.8834 34.096 42.7554 33.96 42.6034 33.96C42.5234 33.96 42.4674 34 42.4274 34.04C42.1234 34.328 41.7474 34.544 41.2754 34.544C40.4114 34.544 39.7554 33.832 39.7554 32.936V32.92C39.7554 32.032 40.3954 31.32 41.2354 31.32C41.7314 31.32 42.0674 31.544 42.3634 31.816C42.4114 31.856 42.4834 31.888 42.5634 31.888C42.7234 31.888 42.8594 31.76 42.8594 31.592C42.8594 31.496 42.8114 31.416 42.7634 31.376C42.3954 31.04 41.9314 30.776 41.2434 30.776C40.0354 30.776 39.1234 31.768 39.1234 32.936V32.952C39.1234 34.112 40.0354 35.096 41.2434 35.096ZM44.2005 32.704C44.2805 31.896 44.8245 31.296 45.5445 31.296C46.3685 31.296 46.8005 31.952 46.8645 32.704H44.2005ZM47.2005 34.472C47.2645 34.416 47.2965 34.344 47.2965 34.272C47.2965 34.128 47.1765 34.008 47.0245 34.008C46.9525 34.008 46.8965 34.04 46.8485 34.08C46.5445 34.36 46.1685 34.56 45.6565 34.56C44.9205 34.56 44.2885 34.056 44.2005 33.16H47.1925C47.3445 33.16 47.4805 33.04 47.4805 32.872C47.4805 31.776 46.7845 30.776 45.5605 30.776C44.4165 30.776 43.5765 31.736 43.5765 32.928V32.944C43.5765 34.224 44.5045 35.096 45.6405 35.096C46.3445 35.096 46.8085 34.848 47.2005 34.472Z" fill="#5CE6C3"/>
<path d="M28.959 79.36C28.959 79.712 29.247 80 29.583 80H36.031C36.351 80 36.607 79.744 36.607 79.424C36.607 79.104 36.351 78.832 36.031 78.832H30.223L30.223 69.36C30.223 69.008 29.935 68.72 29.583 68.72C29.247 68.72 28.959 69.008 28.959 69.36L28.959 79.36ZM41.1213 80.176C42.5773 80.176 43.5373 79.504 44.1133 78.752V79.504C44.1133 79.824 44.3533 80.08 44.7053 80.08C45.0413 80.08 45.2973 79.824 45.2973 79.472V74.944C45.2973 73.888 45.0093 73.088 44.4493 72.528C43.8413 71.92 42.9453 71.616 41.7773 71.616C40.7213 71.616 39.8893 71.824 39.0733 72.176C38.9133 72.24 38.7373 72.432 38.7373 72.688C38.7373 72.976 38.9933 73.216 39.2812 73.216C39.3453 73.216 39.4253 73.2 39.5053 73.168C40.1133 72.896 40.8173 72.704 41.6493 72.704C43.2013 72.704 44.1133 73.472 44.1133 74.96V75.248C43.3773 75.04 42.6253 74.896 41.5693 74.896C39.4733 74.896 38.0333 75.824 38.0333 77.568V77.6C38.0333 79.296 39.5853 80.176 41.1213 80.176ZM41.3613 79.2C40.2413 79.2 39.2812 78.592 39.2812 77.552V77.52C39.2812 76.48 40.1453 75.808 41.6973 75.808C42.7053 75.808 43.5213 75.984 44.1293 76.16V76.96C44.1293 78.272 42.8813 79.2 41.3613 79.2ZM47.9229 79.456C47.9229 79.808 48.1949 80.08 48.5469 80.08C48.8989 80.08 49.1549 79.808 49.1549 79.456V75.28C49.1549 73.76 50.1469 72.672 51.4589 72.672C52.7709 72.672 53.5869 73.584 53.5869 75.136V79.456C53.5869 79.808 53.8589 80.08 54.1949 80.08C54.5469 80.08 54.8189 79.808 54.8189 79.456V75.232C54.8189 73.6 55.8429 72.672 57.0909 72.672C58.4349 72.672 59.2349 73.568 59.2349 75.168V79.456C59.2349 79.808 59.5069 80.08 59.8589 80.08C60.1949 80.08 60.4669 79.808 60.4669 79.456V74.88C60.4669 72.832 59.2989 71.552 57.3949 71.552C55.9549 71.552 55.0749 72.288 54.4829 73.2C54.0349 72.272 53.1709 71.552 51.8269 71.552C50.4349 71.552 49.6989 72.304 49.1549 73.12V72.272C49.1549 71.92 48.8829 71.648 48.5309 71.648C48.1949 71.648 47.9229 71.936 47.9229 72.272V79.456ZM63.1416 79.456C63.1416 79.808 63.4136 80.08 63.7656 80.08C64.1176 80.08 64.3736 79.808 64.3736 79.456V75.28C64.3736 73.76 65.3656 72.672 66.6776 72.672C67.9896 72.672 68.8056 73.584 68.8056 75.136V79.456C68.8056 79.808 69.0776 80.08 69.4136 80.08C69.7656 80.08 70.0376 79.808 70.0376 79.456V75.232C70.0376 73.6 71.0616 72.672 72.3096 72.672C73.6536 72.672 74.4536 73.568 74.4536 75.168V79.456C74.4536 79.808 74.7256 80.08 75.0776 80.08C75.4136 80.08 75.6856 79.808 75.6856 79.456V74.88C75.6856 72.832 74.5176 71.552 72.6136 71.552C71.1736 71.552 70.2936 72.288 69.7016 73.2C69.2536 72.272 68.3896 71.552 67.0456 71.552C65.6536 71.552 64.9176 72.304 64.3736 73.12V72.272C64.3736 71.92 64.1016 71.648 63.7496 71.648C63.4136 71.648 63.1416 71.936 63.1416 72.272V79.456ZM78.5844 75.84H81.9124C82.2644 75.84 82.5524 75.536 82.5524 75.184C82.5524 74.848 82.2644 74.544 81.9124 74.544H78.5844C78.2324 74.544 77.9444 74.848 77.9444 75.184C77.9444 75.536 78.2324 75.84 78.5844 75.84ZM93.4645 80.192C95.9605 80.192 97.8005 78.208 97.8005 75.872V75.84C97.8005 73.504 95.9765 71.552 93.4965 71.552C91.0005 71.552 89.1765 73.536 89.1765 75.872V75.904C89.1765 78.24 90.9845 80.192 93.4645 80.192ZM93.4965 79.088C91.7525 79.088 90.4405 77.648 90.4405 75.872V75.84C90.4405 74.096 91.6725 72.64 93.4645 72.64C95.2085 72.64 96.5365 74.096 96.5365 75.872V75.904C96.5365 77.648 95.2885 79.088 93.4965 79.088ZM103.76 80.192C105.152 80.192 106.096 79.648 106.88 78.864C106.976 78.768 107.04 78.624 107.04 78.48C107.04 78.192 106.784 77.92 106.48 77.92C106.32 77.92 106.208 78 106.128 78.08C105.52 78.656 104.768 79.088 103.824 79.088C102.096 79.088 100.784 77.664 100.784 75.872V75.84C100.784 74.064 102.064 72.64 103.744 72.64C104.736 72.64 105.408 73.088 106 73.632C106.096 73.712 106.24 73.776 106.4 73.776C106.72 73.776 106.992 73.52 106.992 73.184C106.992 72.992 106.896 72.832 106.8 72.752C106.064 72.08 105.136 71.552 103.76 71.552C101.344 71.552 99.5203 73.536 99.5203 75.872V75.904C99.5203 78.224 101.344 80.192 103.76 80.192ZM109.173 79.456C109.173 79.808 109.445 80.08 109.797 80.08C110.149 80.08 110.405 79.808 110.405 79.456V75.264C110.405 73.712 111.461 72.672 112.885 72.672C114.341 72.672 115.173 73.632 115.173 75.168V79.456C115.173 79.808 115.445 80.08 115.797 80.08C116.133 80.08 116.405 79.808 116.405 79.456V74.864C116.405 72.896 115.237 71.552 113.237 71.552C111.813 71.552 110.949 72.272 110.405 73.168V68.864C110.405 68.528 110.133 68.24 109.781 68.24C109.445 68.24 109.173 68.528 109.173 68.864V79.456ZM127.493 82.592C128.805 82.592 129.909 82.224 130.645 81.488C131.317 80.816 131.701 79.84 131.701 78.56V72.272C131.701 71.936 131.429 71.648 131.077 71.648C130.725 71.648 130.469 71.936 130.469 72.272V73.216C129.797 72.32 128.789 71.552 127.237 71.552C125.269 71.552 123.349 73.04 123.349 75.456V75.488C123.349 77.872 125.253 79.36 127.237 79.36C128.757 79.36 129.765 78.576 130.485 77.616V78.592C130.485 80.528 129.301 81.536 127.477 81.536C126.405 81.536 125.413 81.216 124.549 80.64C124.469 80.592 124.389 80.56 124.277 80.56C123.989 80.56 123.717 80.832 123.717 81.104C123.717 81.328 123.845 81.52 124.037 81.616C125.077 82.256 126.229 82.592 127.493 82.592ZM127.477 78.272C125.941 78.272 124.613 77.12 124.613 75.456V75.424C124.613 73.728 125.909 72.64 127.477 72.64C129.045 72.64 130.517 73.744 130.517 75.44V75.472C130.517 77.136 129.045 78.272 127.477 78.272ZM135.19 75.408C135.35 73.792 136.438 72.592 137.878 72.592C139.526 72.592 140.39 73.904 140.518 75.408H135.19ZM141.19 78.944C141.318 78.832 141.382 78.688 141.382 78.544C141.382 78.256 141.142 78.016 140.838 78.016C140.694 78.016 140.582 78.08 140.486 78.16C139.878 78.72 139.126 79.12 138.102 79.12C136.63 79.12 135.366 78.112 135.19 76.32H141.174C141.478 76.32 141.75 76.08 141.75 75.744C141.75 73.552 140.358 71.552 137.91 71.552C135.622 71.552 133.942 73.472 133.942 75.856V75.888C133.942 78.448 135.798 80.192 138.07 80.192C139.478 80.192 140.406 79.696 141.19 78.944ZM146.691 80.144C147.171 80.144 147.555 80.064 147.907 79.92C148.115 79.84 148.259 79.664 148.259 79.44C148.259 79.152 148.019 78.912 147.731 78.912C147.635 78.912 147.411 79.024 146.979 79.024C146.147 79.024 145.587 78.656 145.587 77.648V72.816H147.731C148.035 72.816 148.291 72.576 148.291 72.272C148.291 71.984 148.035 71.728 147.731 71.728H145.587V69.776C145.587 69.44 145.299 69.152 144.963 69.152C144.611 69.152 144.355 69.44 144.355 69.776V71.728H143.683C143.395 71.728 143.139 71.968 143.139 72.272C143.139 72.56 143.395 72.816 143.683 72.816H144.355V77.808C144.355 79.488 145.363 80.144 146.691 80.144ZM153.128 80.16C154.776 80.16 156.072 79.248 156.072 77.68V77.648C156.072 76.16 154.696 75.664 153.416 75.28C152.312 74.944 151.288 74.64 151.288 73.856V73.824C151.288 73.136 151.912 72.624 152.888 72.624C153.592 72.624 154.344 72.864 155.048 73.264C155.112 73.296 155.208 73.328 155.32 73.328C155.624 73.328 155.864 73.088 155.864 72.8C155.864 72.56 155.72 72.384 155.56 72.288C154.76 71.856 153.8 71.584 152.92 71.584C151.288 71.584 150.104 72.528 150.104 73.952V73.984C150.104 75.504 151.544 75.952 152.84 76.32C153.928 76.624 154.904 76.944 154.904 77.776V77.808C154.904 78.608 154.184 79.12 153.192 79.12C152.296 79.12 151.416 78.816 150.568 78.24C150.488 78.176 150.376 78.144 150.264 78.144C149.96 78.144 149.72 78.384 149.72 78.672C149.72 78.88 149.832 79.04 149.944 79.12C150.84 79.76 152.04 80.16 153.128 80.16ZM160.972 80.144C161.452 80.144 161.836 80.064 162.188 79.92C162.396 79.84 162.54 79.664 162.54 79.44C162.54 79.152 162.3 78.912 162.012 78.912C161.916 78.912 161.692 79.024 161.26 79.024C160.428 79.024 159.868 78.656 159.868 77.648V72.816H162.012C162.316 72.816 162.572 72.576 162.572 72.272C162.572 71.984 162.316 71.728 162.012 71.728H159.868V69.776C159.868 69.44 159.58 69.152 159.244 69.152C158.892 69.152 158.636 69.44 158.636 69.776V71.728H157.964C157.676 71.728 157.42 71.968 157.42 72.272C157.42 72.56 157.676 72.816 157.964 72.816H158.636V77.808C158.636 79.488 159.644 80.144 160.972 80.144ZM165.174 75.408C165.335 73.792 166.423 72.592 167.863 72.592C169.511 72.592 170.375 73.904 170.503 75.408H165.174ZM171.175 78.944C171.303 78.832 171.367 78.688 171.367 78.544C171.367 78.256 171.127 78.016 170.823 78.016C170.679 78.016 170.567 78.08 170.471 78.16C169.863 78.72 169.111 79.12 168.087 79.12C166.615 79.12 165.351 78.112 165.174 76.32H171.159C171.463 76.32 171.735 76.08 171.735 75.744C171.735 73.552 170.343 71.552 167.895 71.552C165.607 71.552 163.927 73.472 163.927 75.856V75.888C163.927 78.448 165.783 80.192 168.055 80.192C169.463 80.192 170.391 79.696 171.175 78.944ZM173.907 79.456C173.907 79.808 174.179 80.08 174.531 80.08C174.883 80.08 175.139 79.808 175.139 79.456V77.872L176.851 76.176L179.715 79.792C179.875 80 180.019 80.08 180.243 80.08C180.579 80.08 180.835 79.84 180.835 79.504C180.835 79.344 180.787 79.232 180.675 79.088L177.715 75.36L180.419 72.704C180.579 72.544 180.659 72.416 180.659 72.224C180.659 71.92 180.435 71.648 180.099 71.648C179.907 71.648 179.763 71.728 179.619 71.888L175.139 76.448V68.864C175.139 68.528 174.867 68.24 174.515 68.24C174.179 68.24 173.907 68.528 173.907 68.864V79.456Z" fill="#57D982"/>
<path d="M153.463 30.12C154.503 30.12 155.363 29.74 156.003 29.27C156.183 29.15 156.273 28.98 156.273 28.79V26.66C156.273 26.44 156.093 26.26 155.883 26.26H153.633C153.443 26.26 153.283 26.42 153.283 26.62C153.283 26.81 153.443 26.97 153.633 26.97H155.513V28.71C155.033 29.1 154.293 29.41 153.493 29.41C151.793 29.41 150.723 28.17 150.723 26.5V26.48C150.723 24.92 151.833 23.61 153.383 23.61C154.263 23.61 154.823 23.87 155.323 24.25C155.403 24.31 155.483 24.35 155.573 24.35C155.783 24.35 155.963 24.17 155.963 23.95C155.963 23.81 155.893 23.7 155.803 23.63C155.163 23.16 154.473 22.88 153.413 22.88C151.313 22.88 149.903 24.58 149.903 26.5V26.52C149.903 28.52 151.263 30.12 153.463 30.12ZM160.284 30.12C161.844 30.12 162.994 28.88 162.994 27.42V27.4C162.994 25.94 161.854 24.72 160.304 24.72C158.744 24.72 157.604 25.96 157.604 27.42V27.44C157.604 28.9 158.734 30.12 160.284 30.12ZM160.304 29.43C159.214 29.43 158.394 28.53 158.394 27.42V27.4C158.394 26.31 159.164 25.4 160.284 25.4C161.374 25.4 162.204 26.31 162.204 27.42V27.44C162.204 28.53 161.424 29.43 160.304 29.43ZM169.309 23.04C169.309 22.82 169.139 22.65 168.919 22.65C168.699 22.65 168.539 22.82 168.539 23.04V25.82C168.139 25.24 167.519 24.72 166.559 24.72C165.319 24.72 164.089 25.72 164.089 27.41V27.43C164.089 29.13 165.319 30.11 166.559 30.11C167.509 30.11 168.119 29.58 168.539 28.96V29.66C168.539 29.88 168.709 30.05 168.929 30.05C169.139 30.05 169.309 29.88 169.309 29.66V23.04ZM166.699 25.41C167.659 25.41 168.569 26.21 168.569 27.4V27.42C168.569 28.61 167.659 29.42 166.699 29.42C165.729 29.42 164.879 28.64 164.879 27.42V27.4C164.879 26.15 165.699 25.41 166.699 25.41ZM171.03 23.34C171.03 23.58 171.23 23.75 171.48 23.75C171.74 23.75 171.94 23.58 171.94 23.34V23.21C171.94 22.96 171.74 22.8 171.48 22.8C171.23 22.8 171.03 22.96 171.03 23.21V23.34ZM171.1 29.66C171.1 29.88 171.27 30.05 171.49 30.05C171.71 30.05 171.87 29.88 171.87 29.66V25.17C171.87 24.95 171.7 24.78 171.48 24.78C171.27 24.78 171.1 24.96 171.1 25.17V29.66ZM175.367 30.1C176.397 30.1 177.207 29.53 177.207 28.55V28.53C177.207 27.6 176.347 27.29 175.547 27.05C174.857 26.84 174.217 26.65 174.217 26.16V26.14C174.217 25.71 174.607 25.39 175.217 25.39C175.657 25.39 176.127 25.54 176.567 25.79C176.607 25.81 176.667 25.83 176.737 25.83C176.927 25.83 177.077 25.68 177.077 25.5C177.077 25.35 176.987 25.24 176.887 25.18C176.387 24.91 175.787 24.74 175.237 24.74C174.217 24.74 173.477 25.33 173.477 26.22V26.24C173.477 27.19 174.377 27.47 175.187 27.7C175.867 27.89 176.477 28.09 176.477 28.61V28.63C176.477 29.13 176.027 29.45 175.407 29.45C174.847 29.45 174.297 29.26 173.767 28.9C173.717 28.86 173.647 28.84 173.577 28.84C173.387 28.84 173.237 28.99 173.237 29.17C173.237 29.3 173.307 29.4 173.377 29.45C173.937 29.85 174.687 30.1 175.367 30.1Z" fill="#14CC8C"/>
<path d="M48.12 60.3215C48.12 59.2815 47.74 58.4215 47.27 57.7815C47.15 57.6015 46.98 57.5115 46.79 57.5115L44.66 57.5115C44.44 57.5115 44.26 57.6915 44.26 57.9015L44.26 60.1515C44.26 60.3415 44.42 60.5015 44.62 60.5015C44.81 60.5015 44.97 60.3415 44.97 60.1515L44.97 58.2715L46.71 58.2715C47.1 58.7515 47.41 59.4915 47.41 60.2915C47.41 61.9915 46.17 63.0615 44.5 63.0615L44.48 63.0615C42.92 63.0615 41.61 61.9515 41.61 60.4015C41.61 59.5215 41.87 58.9615 42.25 58.4615C42.31 58.3815 42.35 58.3015 42.35 58.2115C42.35 58.0015 42.17 57.8215 41.95 57.8215C41.81 57.8215 41.7 57.8915 41.63 57.9815C41.16 58.6215 40.88 59.3115 40.88 60.3715C40.88 62.4715 42.58 63.8815 44.5 63.8815L44.52 63.8815C46.52 63.8815 48.12 62.5215 48.12 60.3215ZM47.66 55.7897C47.88 55.7897 48.05 55.6197 48.05 55.3997C48.05 55.1797 47.88 55.0197 47.66 55.0197L41.04 55.0197C40.83 55.0197 40.65 55.1897 40.65 55.4097C40.65 55.6197 40.83 55.7897 41.04 55.7897L47.66 55.7897ZM48.11 51.6928C48.11 50.7828 47.69 50.1828 47.22 49.8228L47.69 49.8228C47.89 49.8228 48.05 49.6728 48.05 49.4528C48.05 49.2428 47.89 49.0828 47.67 49.0828L44.84 49.0828C44.18 49.0828 43.68 49.2628 43.33 49.6128C42.95 49.9928 42.76 50.5528 42.76 51.2828C42.76 51.9428 42.89 52.4628 43.11 52.9728C43.15 53.0728 43.27 53.1828 43.43 53.1828C43.61 53.1828 43.76 53.0228 43.76 52.8428C43.76 52.8028 43.75 52.7528 43.73 52.7028C43.56 52.3228 43.44 51.8828 43.44 51.3628C43.44 50.3928 43.92 49.8228 44.85 49.8228L45.03 49.8228C44.9 50.2828 44.81 50.7528 44.81 51.4128C44.81 52.7228 45.39 53.6228 46.48 53.6228L46.5 53.6228C47.56 53.6228 48.11 52.6528 48.11 51.6928ZM47.5 51.5428C47.5 52.2428 47.12 52.8428 46.47 52.8428L46.45 52.8428C45.8 52.8428 45.38 52.3028 45.38 51.3328C45.38 50.7028 45.49 50.1928 45.6 49.8128L46.1 49.8128C46.92 49.8128 47.5 50.5928 47.5 51.5428ZM48.1 45.7318C48.1 44.7018 47.53 43.8918 46.55 43.8918L46.53 43.8918C45.6 43.8918 45.29 44.7518 45.05 45.5518C44.84 46.2418 44.65 46.8818 44.16 46.8818L44.14 46.8818C43.71 46.8818 43.39 46.4918 43.39 45.8818C43.39 45.4418 43.54 44.9718 43.79 44.5318C43.81 44.4918 43.83 44.4318 43.83 44.3618C43.83 44.1718 43.68 44.0218 43.5 44.0218C43.35 44.0218 43.24 44.1118 43.18 44.2118C42.91 44.7118 42.74 45.3118 42.74 45.8618C42.74 46.8818 43.33 47.6218 44.22 47.6218L44.24 47.6218C45.19 47.6218 45.47 46.7218 45.7 45.9118C45.89 45.2318 46.09 44.6218 46.61 44.6218L46.63 44.6218C47.13 44.6218 47.45 45.0718 47.45 45.6918C47.45 46.2518 47.26 46.8018 46.9 47.3318C46.86 47.3818 46.84 47.4518 46.84 47.5218C46.84 47.7118 46.99 47.8618 47.17 47.8618C47.3 47.8618 47.4 47.7918 47.45 47.7218C47.85 47.1618 48.1 46.4118 48.1 45.7318ZM48.1 40.8489C48.1 39.8189 47.53 39.0089 46.55 39.0089L46.53 39.0089C45.6 39.0089 45.29 39.8689 45.05 40.6689C44.84 41.3589 44.65 41.9989 44.16 41.9989L44.14 41.9989C43.71 41.9989 43.39 41.6089 43.39 40.9989C43.39 40.5589 43.54 40.0889 43.79 39.6489C43.81 39.6089 43.83 39.5489 43.83 39.4789C43.83 39.2889 43.68 39.1389 43.5 39.1389C43.35 39.1389 43.24 39.2289 43.18 39.3289C42.91 39.8289 42.74 40.4289 42.74 40.9789C42.74 41.9989 43.33 42.7389 44.22 42.7389L44.24 42.7389C45.19 42.7389 45.47 41.8389 45.7 41.0289C45.89 40.3489 46.09 39.7389 46.61 39.7389L46.63 39.7389C47.13 39.7389 47.45 40.1889 47.45 40.8089C47.45 41.3689 47.26 41.9189 46.9 42.4489C46.86 42.4989 46.84 42.5689 46.84 42.6389C46.84 42.8289 46.99 42.9789 47.17 42.9789C47.3 42.9789 47.4 42.9089 47.45 42.8389C47.85 42.2789 48.1 41.5289 48.1 40.8489Z" fill="#14CC8C"/>
<path d="M68.79 25.3562C68.922 25.3562 69.03 25.2482 69.03 25.1222C69.03 24.9902 68.922 24.8822 68.79 24.8822L67.368 24.8822L67.368 23.6762L68.904 22.4942C68.976 22.4402 69.03 22.3682 69.03 22.2722C69.03 22.1522 68.922 22.0322 68.796 22.0322C68.73 22.0322 68.676 22.0622 68.622 22.1102L67.278 23.1542C67.152 22.5002 66.75 22.0322 66.06 22.0322L66.048 22.0322C65.718 22.0322 65.424 22.1522 65.22 22.3562C64.956 22.6202 64.8 23.0342 64.8 23.5502L64.8 25.1222C64.8 25.2482 64.908 25.3562 65.04 25.3562L68.79 25.3562ZM66.942 24.8822L65.238 24.8822L65.238 23.5862C65.238 22.9082 65.55 22.5122 66.066 22.5122L66.078 22.5122C66.618 22.5122 66.942 22.9622 66.942 23.5922L66.942 24.8822ZM65.004 21.0983C65.148 21.0983 65.25 20.9783 65.25 20.8283C65.25 20.6723 65.148 20.5523 65.004 20.5523L64.926 20.5523C64.776 20.5523 64.68 20.6723 64.68 20.8283C64.68 20.9783 64.776 21.0983 64.926 21.0983L65.004 21.0983ZM68.796 21.0563C68.928 21.0563 69.03 20.9543 69.03 20.8223C69.03 20.6903 68.928 20.5943 68.796 20.5943L66.102 20.5943C65.97 20.5943 65.868 20.6963 65.868 20.8283C65.868 20.9543 65.976 21.0563 66.102 21.0563L68.796 21.0563ZM69.06 18.4961C69.06 17.8781 68.718 17.3921 68.13 17.3921L68.118 17.3921C67.56 17.3921 67.374 17.9081 67.23 18.3881C67.104 18.8021 66.99 19.1861 66.696 19.1861L66.684 19.1861C66.426 19.1861 66.234 18.9521 66.234 18.5861C66.234 18.3221 66.324 18.0401 66.474 17.7761C66.486 17.7521 66.498 17.7161 66.498 17.6741C66.498 17.5601 66.408 17.4701 66.3 17.4701C66.21 17.4701 66.144 17.5241 66.108 17.5841C65.946 17.8841 65.844 18.2441 65.844 18.5741C65.844 19.1861 66.198 19.6301 66.732 19.6301L66.744 19.6301C67.314 19.6301 67.482 19.0901 67.62 18.6041C67.734 18.1961 67.854 17.8301 68.166 17.8301L68.178 17.8301C68.478 17.8301 68.67 18.1001 68.67 18.4721C68.67 18.8081 68.556 19.1381 68.34 19.4561C68.316 19.4861 68.304 19.5281 68.304 19.5701C68.304 19.6841 68.394 19.7741 68.502 19.7741C68.58 19.7741 68.64 19.7321 68.67 19.6901C68.91 19.3541 69.06 18.9041 69.06 18.4961Z" fill="#5CCDE6"/>
<path d="M57.12 98.4709C57.12 96.3409 55.43 94.8909 53.5 94.8909L53.48 94.8909C51.55 94.8909 49.88 96.3209 49.88 98.4509C49.88 100.581 51.57 102.031 53.5 102.031L53.52 102.031C55.45 102.031 57.12 100.601 57.12 98.4709ZM56.39 98.4509C56.39 100.051 55.09 101.211 53.5 101.211L53.48 101.211C51.89 101.211 50.61 100.071 50.61 98.4709C50.61 96.8709 51.91 95.7109 53.5 95.7109L53.52 95.7109C55.11 95.7109 56.39 96.8509 56.39 98.4509ZM57.1 91.6448C57.1 90.6148 56.53 89.8048 55.55 89.8048L55.53 89.8048C54.6 89.8048 54.29 90.6648 54.05 91.4648C53.84 92.1548 53.65 92.7948 53.16 92.7948L53.14 92.7948C52.71 92.7948 52.39 92.4048 52.39 91.7948C52.39 91.3548 52.54 90.8848 52.79 90.4448C52.81 90.4048 52.83 90.3448 52.83 90.2748C52.83 90.0848 52.68 89.9348 52.5 89.9348C52.35 89.9348 52.24 90.0248 52.18 90.1248C51.91 90.6248 51.74 91.2248 51.74 91.7748C51.74 92.7948 52.33 93.5348 53.22 93.5348L53.24 93.5348C54.19 93.5348 54.47 92.6348 54.7 91.8248C54.89 91.1448 55.09 90.5348 55.61 90.5348L55.63 90.5348C56.13 90.5348 56.45 90.9848 56.45 91.6048C56.45 92.1648 56.26 92.7148 55.9 93.2448C55.86 93.2948 55.84 93.3648 55.84 93.4348C55.84 93.6248 55.99 93.7748 56.17 93.7748C56.3 93.7748 56.4 93.7048 56.45 93.6348C56.85 93.0748 57.1 92.3248 57.1 91.6448ZM57.09 86.742C57.09 86.442 57.04 86.202 56.95 85.982C56.9 85.852 56.79 85.762 56.65 85.762C56.47 85.762 56.32 85.912 56.32 86.092C56.32 86.152 56.39 86.292 56.39 86.562C56.39 87.082 56.16 87.432 55.53 87.432L52.51 87.432L52.51 86.092C52.51 85.902 52.36 85.742 52.17 85.742C51.99 85.742 51.83 85.902 51.83 86.092L51.83 87.432L50.61 87.432C50.4 87.432 50.22 87.612 50.22 87.822C50.22 88.042 50.4 88.202 50.61 88.202L51.83 88.202L51.83 88.622C51.83 88.802 51.98 88.962 52.17 88.962C52.35 88.962 52.51 88.802 52.51 88.622L52.51 88.202L55.63 88.202C56.68 88.202 57.09 87.572 57.09 86.742Z" fill="#14CC8C"/>
<path d="M178.08 124.727C178.08 124.231 177.92 123.807 177.616 123.495C177.296 123.175 176.8 122.983 176.144 122.983L172.68 122.983C172.504 122.983 172.36 123.119 172.36 123.295C172.36 123.471 172.504 123.615 172.68 123.615L176.152 123.615C177.04 123.615 177.496 124.079 177.496 124.711C177.496 125.231 177.28 125.559 176.864 125.863C176.808 125.911 176.752 125.983 176.752 126.087C176.752 126.255 176.896 126.399 177.064 126.399C177.152 126.399 177.232 126.359 177.28 126.311C177.744 125.967 178.08 125.463 178.08 124.727ZM178.096 119.705C178.096 118.457 177.104 117.537 175.936 117.537L175.92 117.537C174.752 117.537 173.776 118.449 173.776 119.689C173.776 120.937 174.768 121.849 175.936 121.849L175.952 121.849C177.12 121.849 178.096 120.945 178.096 119.705ZM177.544 119.689C177.544 120.561 176.824 121.217 175.936 121.217L175.92 121.217C175.048 121.217 174.32 120.601 174.32 119.705C174.32 118.833 175.048 118.169 175.936 118.169L175.952 118.169C176.824 118.169 177.544 118.793 177.544 119.689ZM177.728 116.421C177.904 116.421 178.04 116.285 178.04 116.109C178.04 115.933 177.896 115.805 177.728 115.805L176.32 115.805C175.128 115.805 174.528 115.149 174.432 114.349C174.408 114.189 174.288 114.077 174.12 114.077C173.944 114.077 173.808 114.197 173.808 114.381C173.808 114.901 174.224 115.501 174.912 115.805L174.136 115.805C173.96 115.805 173.824 115.941 173.824 116.117C173.824 116.285 173.968 116.421 174.136 116.421L177.728 116.421ZM172.432 109.415C172.256 109.415 172.12 109.551 172.12 109.727C172.12 109.903 172.256 110.031 172.432 110.031L174.656 110.031C174.192 110.351 173.776 110.847 173.776 111.615C173.776 112.607 174.576 113.591 175.928 113.591L175.944 113.591C177.304 113.591 178.088 112.607 178.088 111.615C178.088 110.855 177.664 110.367 177.168 110.031L177.728 110.031C177.904 110.031 178.04 109.895 178.04 109.719C178.04 109.551 177.904 109.415 177.728 109.415L172.432 109.415ZM174.328 111.503C174.328 110.735 174.968 110.007 175.92 110.007L175.936 110.007C176.888 110.007 177.536 110.735 177.536 111.503C177.536 112.279 176.912 112.959 175.936 112.959L175.92 112.959C174.92 112.959 174.328 112.303 174.328 111.503ZM177.728 108.039C177.904 108.039 178.04 107.903 178.04 107.727C178.04 107.551 177.904 107.423 177.728 107.423L175.632 107.423C174.856 107.423 174.336 106.895 174.336 106.183C174.336 105.455 174.816 105.039 175.584 105.039L177.728 105.039C177.904 105.039 178.04 104.903 178.04 104.727C178.04 104.559 177.904 104.423 177.728 104.423L175.432 104.423C174.448 104.423 173.776 105.007 173.776 106.007C173.776 106.719 174.136 107.151 174.584 107.423L174.136 107.423C173.96 107.423 173.824 107.559 173.824 107.735C173.824 107.903 173.968 108.039 174.136 108.039L177.728 108.039ZM172.44 100.501C172.44 100.709 172.592 100.877 172.8 100.877L172.92 100.877C173.128 100.877 173.28 100.709 173.28 100.501C173.28 100.293 173.128 100.125 172.92 100.125L172.8 100.125C172.592 100.125 172.44 100.293 172.44 100.501ZM172.44 101.925C172.44 102.133 172.592 102.301 172.8 102.301L172.92 102.301C173.128 102.301 173.28 102.133 173.28 101.925C173.28 101.717 173.128 101.549 172.92 101.549L172.8 101.549C172.592 101.549 172.44 101.717 172.44 101.925ZM178.096 101.221C178.096 99.9729 177.104 99.0529 175.936 99.0529L175.92 99.0529C174.752 99.0529 173.776 99.9649 173.776 101.205C173.776 102.453 174.768 103.365 175.936 103.365L175.952 103.365C177.12 103.365 178.096 102.461 178.096 101.221ZM177.544 101.205C177.544 102.077 176.824 102.733 175.936 102.733L175.92 102.733C175.048 102.733 174.32 102.117 174.32 101.221C174.32 100.349 175.048 99.6849 175.936 99.6849L175.952 99.6849C176.824 99.6849 177.544 100.309 177.544 101.205ZM178.072 96.553C178.072 96.313 178.032 96.121 177.96 95.945C177.92 95.841 177.832 95.769 177.72 95.769C177.576 95.769 177.456 95.889 177.456 96.033C177.456 96.081 177.512 96.193 177.512 96.409C177.512 96.825 177.328 97.105 176.824 97.105L174.408 97.105L174.408 96.033C174.408 95.881 174.288 95.753 174.136 95.753C173.992 95.753 173.864 95.881 173.864 96.033L173.864 97.105L172.888 97.105C172.72 97.105 172.576 97.249 172.576 97.417C172.576 97.593 172.72 97.721 172.888 97.721L173.864 97.721L173.864 98.057C173.864 98.201 173.984 98.329 174.136 98.329C174.28 98.329 174.408 98.201 174.408 98.057L174.408 97.721L176.904 97.721C177.744 97.721 178.072 97.217 178.072 96.553ZM178.072 93.3186C178.072 93.0786 178.032 92.8866 177.96 92.7106C177.92 92.6066 177.832 92.5346 177.72 92.5346C177.576 92.5346 177.456 92.6546 177.456 92.7986C177.456 92.8466 177.512 92.9586 177.512 93.1746C177.512 93.5906 177.328 93.8706 176.824 93.8706L174.408 93.8706L174.408 92.7986C174.408 92.6466 174.288 92.5186 174.136 92.5186C173.992 92.5186 173.864 92.6466 173.864 92.7986L173.864 93.8706L172.888 93.8706C172.72 93.8706 172.576 94.0146 172.576 94.1826C172.576 94.3586 172.72 94.4866 172.888 94.4866L173.864 94.4866L173.864 94.8226C173.864 94.9666 173.984 95.0946 174.136 95.0946C174.28 95.0946 174.408 94.9666 174.408 94.8226L174.408 94.4866L176.904 94.4866C177.744 94.4866 178.072 93.9826 178.072 93.3186ZM175.704 91.2174C174.896 91.1374 174.296 90.5934 174.296 89.8734C174.296 89.0494 174.952 88.6174 175.704 88.5534L175.704 91.2174ZM177.472 88.2174C177.416 88.1534 177.344 88.1214 177.272 88.1214C177.128 88.1214 177.008 88.2414 177.008 88.3934C177.008 88.4654 177.04 88.5214 177.08 88.5694C177.36 88.8734 177.56 89.2494 177.56 89.7614C177.56 90.4974 177.056 91.1294 176.16 91.2174L176.16 88.2254C176.16 88.0734 176.04 87.9374 175.872 87.9374C174.776 87.9374 173.776 88.6334 173.776 89.8574C173.776 91.0014 174.736 91.8414 175.928 91.8414L175.944 91.8414C177.224 91.8414 178.096 90.9134 178.096 89.7774C178.096 89.0734 177.848 88.6094 177.472 88.2174ZM177.728 86.8511C177.904 86.8511 178.04 86.7151 178.04 86.5391C178.04 86.3631 177.896 86.2351 177.728 86.2351L176.32 86.2351C175.128 86.2351 174.528 85.5791 174.432 84.7791C174.408 84.6191 174.288 84.5071 174.12 84.5071C173.944 84.5071 173.808 84.6271 173.808 84.8111C173.808 85.3311 174.224 85.9311 174.912 86.2351L174.136 86.2351C173.96 86.2351 173.824 86.3711 173.824 86.5471C173.824 86.7151 173.968 86.8511 174.136 86.8511L177.728 86.8511Z" fill="#5CE6C3"/>
<path d="M64.8897 92.72C64.8897 92.896 65.0337 93.04 65.2017 93.04C65.3777 93.04 65.5217 92.896 65.5217 92.72V91.504L66.7297 90.296L68.8177 92.896C68.8737 92.976 68.9537 93.04 69.0737 93.04C69.2497 93.04 69.3937 92.888 69.3937 92.72C69.3937 92.624 69.3617 92.56 69.3057 92.488L67.1777 89.864L69.1617 87.896C69.2257 87.832 69.2657 87.76 69.2657 87.672C69.2657 87.512 69.1297 87.36 68.9617 87.36C68.8577 87.36 68.7857 87.408 68.7137 87.472L65.5217 90.744V87.68C65.5217 87.504 65.3777 87.36 65.2017 87.36C65.0337 87.36 64.8897 87.504 64.8897 87.68V92.72ZM71.6505 93.088C72.3785 93.088 72.8585 92.752 73.1465 92.376V92.752C73.1465 92.912 73.2665 93.04 73.4425 93.04C73.6105 93.04 73.7385 92.912 73.7385 92.736V90.472C73.7385 89.944 73.5945 89.544 73.3145 89.264C73.0105 88.96 72.5625 88.808 71.9785 88.808C71.4505 88.808 71.0345 88.912 70.6265 89.088C70.5465 89.12 70.4585 89.216 70.4585 89.344C70.4585 89.488 70.5865 89.608 70.7305 89.608C70.7625 89.608 70.8025 89.6 70.8425 89.584C71.1465 89.448 71.4985 89.352 71.9145 89.352C72.6905 89.352 73.1465 89.736 73.1465 90.48V90.624C72.7785 90.52 72.4025 90.448 71.8745 90.448C70.8265 90.448 70.1065 90.912 70.1065 91.784V91.8C70.1065 92.648 70.8825 93.088 71.6505 93.088ZM71.7705 92.6C71.2105 92.6 70.7305 92.296 70.7305 91.776V91.76C70.7305 91.24 71.1625 90.904 71.9385 90.904C72.4425 90.904 72.8505 90.992 73.1545 91.08V91.48C73.1545 92.136 72.5305 92.6 71.7705 92.6ZM75.2833 92.728C75.2833 92.896 75.4193 93.04 75.5953 93.04C75.7713 93.04 75.8993 92.896 75.8993 92.728V89.408H76.9633C77.1153 89.408 77.2353 89.288 77.2353 89.144C77.2353 88.992 77.1153 88.88 76.9633 88.88H75.8913V88.544C75.8913 87.952 76.1313 87.664 76.6113 87.664C76.7313 87.664 76.8433 87.688 76.9473 87.704C77.1073 87.72 77.2433 87.6 77.2433 87.44C77.2433 87.304 77.1393 87.2 77.0193 87.176C76.8833 87.144 76.7313 87.128 76.5313 87.128C76.1553 87.128 75.8513 87.24 75.6433 87.448C75.4113 87.68 75.2833 88.04 75.2833 88.512V88.872H74.9473C74.8033 88.872 74.6833 88.992 74.6833 89.136C74.6833 89.288 74.7953 89.408 74.9473 89.408H75.2833V92.728ZM78.2193 92.728C78.2193 92.896 78.3553 93.04 78.5313 93.04C78.7073 93.04 78.8353 92.896 78.8353 92.728V89.408H79.8993C80.0513 89.408 80.1713 89.288 80.1713 89.144C80.1713 88.992 80.0513 88.88 79.8993 88.88H78.8273V88.544C78.8273 87.952 79.0673 87.664 79.5473 87.664C79.6673 87.664 79.7793 87.688 79.8833 87.704C80.0433 87.72 80.1793 87.6 80.1793 87.44C80.1793 87.304 80.0753 87.2 79.9553 87.176C79.8193 87.144 79.6673 87.128 79.4673 87.128C79.0913 87.128 78.7873 87.24 78.5793 87.448C78.3473 87.68 78.2193 88.04 78.2193 88.512V88.872H77.8833C77.7393 88.872 77.6193 88.992 77.6193 89.136C77.6193 89.288 77.7313 89.408 77.8833 89.408H78.2193V92.728ZM81.224 90.704C81.304 89.896 81.848 89.296 82.568 89.296C83.392 89.296 83.824 89.952 83.888 90.704H81.224ZM84.224 92.472C84.288 92.416 84.32 92.344 84.32 92.272C84.32 92.128 84.2 92.008 84.048 92.008C83.976 92.008 83.92 92.04 83.872 92.08C83.568 92.36 83.192 92.56 82.68 92.56C81.944 92.56 81.312 92.056 81.224 91.16H84.216C84.368 91.16 84.504 91.04 84.504 90.872C84.504 89.776 83.808 88.776 82.584 88.776C81.44 88.776 80.6 89.736 80.6 90.928V90.944C80.6 92.224 81.528 93.096 82.664 93.096C83.368 93.096 83.832 92.848 84.224 92.472Z" fill="#5CE6C3"/>
<path d="M201.16 98.2568C201.688 98.2568 202.12 97.8248 202.12 97.3208C202.12 96.7928 201.688 96.3608 201.16 96.3608L197.512 96.3608L193.888 92.7368L201.688 86.4728C201.928 86.3048 202.12 86.0648 202.12 85.7048C202.12 85.1768 201.664 84.7448 201.16 84.7448C200.872 84.7448 200.68 84.8408 200.464 85.0088L192.592 91.3928L186.688 85.4408C186.496 85.2488 186.28 85.1288 186.016 85.1288C185.536 85.1288 185.08 85.5368 185.08 86.0408C185.08 86.3528 185.224 86.5688 185.416 86.7848L195.232 96.3608L186.04 96.3608C185.512 96.3608 185.08 96.7928 185.08 97.3208C185.08 97.8248 185.512 98.2568 186.04 98.2568L201.16 98.2568ZM205.912 80.6438C205.912 78.7718 204.976 77.5718 202.408 76.4918L190.84 71.6438C190.696 71.5958 190.528 71.5478 190.384 71.5478C189.88 71.5478 189.472 71.9558 189.472 72.4598C189.472 72.9398 189.784 73.2038 190.168 73.3478L199.936 77.1878L190.192 81.5078C189.784 81.6758 189.472 81.9398 189.472 82.4438C189.472 82.9718 189.88 83.3798 190.384 83.3798C190.552 83.3798 190.72 83.3318 190.888 83.2598L201.88 78.0758L202.072 78.1718C203.584 78.8438 204.28 79.5158 204.28 80.6678C204.28 81.2918 204.184 81.6518 204.064 82.0118C204.016 82.1558 203.968 82.2998 203.968 82.4678C203.968 82.8758 204.304 83.2598 204.76 83.2598C205.192 83.2598 205.432 82.9718 205.552 82.6838C205.768 82.0598 205.912 81.4598 205.912 80.6438ZM202.288 63.3987C202.288 61.3107 201.472 59.8947 200.296 58.7187C200.152 58.5747 199.936 58.4787 199.72 58.4787C199.288 58.4787 198.88 58.8627 198.88 59.3187C198.88 59.5587 199 59.7267 199.12 59.8467C199.984 60.7587 200.632 61.8867 200.632 63.3027C200.632 65.8947 198.496 67.8627 195.808 67.8627L195.76 67.8627C193.096 67.8627 190.96 65.9427 190.96 63.4227C190.96 61.9347 191.632 60.9267 192.448 60.0387C192.568 59.8947 192.664 59.6787 192.664 59.4387C192.664 58.9587 192.28 58.5507 191.776 58.5507C191.488 58.5507 191.248 58.6947 191.128 58.8387C190.12 59.9427 189.328 61.3347 189.328 63.3987C189.328 67.0227 192.304 69.7587 195.808 69.7587L195.856 69.7587C199.336 69.7587 202.288 67.0227 202.288 63.3987ZM201.184 55.2797C201.712 55.2797 202.12 54.8717 202.12 54.3437C202.12 53.8157 201.712 53.4317 201.184 53.4317L198.808 53.4317L196.264 50.8637L201.688 46.5677C202 46.3277 202.12 46.1117 202.12 45.7757C202.12 45.2717 201.76 44.8877 201.256 44.8877C201.016 44.8877 200.848 44.9597 200.632 45.1277L195.04 49.5677L191.056 45.5117C190.816 45.2717 190.624 45.1517 190.336 45.1517C189.88 45.1517 189.472 45.4877 189.472 45.9917C189.472 46.2797 189.592 46.4957 189.832 46.7117L196.672 53.4317L185.296 53.4317C184.792 53.4317 184.36 53.8397 184.36 54.3677C184.36 54.8717 184.792 55.2797 185.296 55.2797L201.184 55.2797ZM201.184 41.4711C201.712 41.4711 202.12 41.0631 202.12 40.5351C202.12 40.0071 201.712 39.6231 201.184 39.6231L185.296 39.6231C184.792 39.6231 184.36 40.0311 184.36 40.5591C184.36 41.0631 184.792 41.4711 185.296 41.4711L201.184 41.4711ZM186.016 35.3344C186.592 35.3344 187 34.8544 187 34.2544C187 33.6304 186.592 33.1504 186.016 33.1504L185.704 33.1504C185.104 33.1504 184.72 33.6304 184.72 34.2544C184.72 34.8544 185.104 35.3344 185.704 35.3344L186.016 35.3344ZM201.184 35.1664C201.712 35.1664 202.12 34.7584 202.12 34.2304C202.12 33.7024 201.712 33.3184 201.184 33.3184L190.408 33.3184C189.88 33.3184 189.472 33.7264 189.472 34.2544C189.472 34.7584 189.904 35.1664 190.408 35.1664L201.184 35.1664ZM201.184 29.0297C201.712 29.0297 202.12 28.6217 202.12 28.0937C202.12 27.5657 201.712 27.1817 201.184 27.1817L194.896 27.1817C192.568 27.1817 191.008 25.5977 191.008 23.4617C191.008 21.2777 192.448 20.0297 194.752 20.0297L201.184 20.0297C201.712 20.0297 202.12 19.6217 202.12 19.0937C202.12 18.5897 201.712 18.1817 201.184 18.1817L194.296 18.1817C191.344 18.1817 189.328 19.9337 189.328 22.9337C189.328 25.0697 190.408 26.3657 191.752 27.1817L190.408 27.1817C189.88 27.1817 189.472 27.5897 189.472 28.1177C189.472 28.6217 189.904 29.0297 190.408 29.0297L201.184 29.0297ZM205.888 8.74469C205.888 6.77669 205.336 5.12069 204.232 4.01669C203.224 3.00869 201.76 2.43269 199.84 2.43269L190.408 2.43269C189.904 2.43269 189.472 2.84069 189.472 3.36869C189.472 3.89669 189.904 4.28069 190.408 4.28069L191.824 4.28069C190.48 5.28869 189.328 6.80069 189.328 9.12869C189.328 12.0807 191.56 14.9607 195.184 14.9607L195.232 14.9607C198.808 14.9607 201.04 12.1047 201.04 9.12869C201.04 6.84869 199.864 5.33669 198.424 4.25669L199.888 4.25669C202.792 4.25669 204.304 6.03269 204.304 8.76869C204.304 10.3767 203.824 11.8647 202.96 13.1607C202.888 13.2807 202.84 13.4007 202.84 13.5687C202.84 14.0007 203.248 14.4087 203.656 14.4087C203.992 14.4087 204.28 14.2167 204.424 13.9287C205.384 12.3687 205.888 10.6407 205.888 8.74469ZM199.408 8.76869C199.408 11.0727 197.68 13.0647 195.184 13.0647L195.136 13.0647C192.592 13.0647 190.96 11.1207 190.96 8.76869C190.96 6.41669 192.616 4.20869 195.16 4.20869L195.208 4.20869C197.704 4.20869 199.408 6.41669 199.408 8.76869Z" fill="#57D957"/>
<path d="M66.3514 33.06C67.1854 33.06 67.7854 32.592 67.7854 31.872V31.86C67.7854 31.218 67.3534 30.876 66.4174 30.672C65.4934 30.474 65.2774 30.252 65.2774 29.856V29.844C65.2774 29.466 65.6254 29.166 66.1714 29.166C66.5614 29.166 66.9034 29.274 67.2574 29.532C67.2994 29.562 67.3414 29.574 67.3954 29.574C67.5214 29.574 67.6234 29.472 67.6234 29.346C67.6234 29.256 67.5694 29.19 67.5214 29.154C67.1374 28.878 66.7354 28.74 66.1834 28.74C65.3854 28.74 64.8034 29.226 64.8034 29.886V29.898C64.8034 30.588 65.2474 30.9 66.2134 31.11C67.0954 31.296 67.3054 31.518 67.3054 31.908V31.92C67.3054 32.334 66.9334 32.634 66.3694 32.634C65.8354 32.634 65.4394 32.472 65.0434 32.136C65.0134 32.106 64.9594 32.082 64.8994 32.082C64.7734 32.082 64.6714 32.184 64.6714 32.316C64.6714 32.394 64.7074 32.46 64.7614 32.496C65.2294 32.868 65.7394 33.06 66.3514 33.06ZM68.6713 32.796C68.6713 32.928 68.7733 33.03 68.9053 33.03C69.0373 33.03 69.1333 32.928 69.1333 32.796V32.202L69.7753 31.566L70.8493 32.922C70.9093 33 70.9633 33.03 71.0473 33.03C71.1733 33.03 71.2693 32.94 71.2693 32.814C71.2693 32.754 71.2513 32.712 71.2093 32.658L70.0993 31.26L71.1133 30.264C71.1733 30.204 71.2033 30.156 71.2033 30.084C71.2033 29.97 71.1193 29.868 70.9933 29.868C70.9213 29.868 70.8673 29.898 70.8133 29.958L69.1333 31.668V28.824C69.1333 28.698 69.0313 28.59 68.8993 28.59C68.7733 28.59 68.6713 28.698 68.6713 28.824V32.796ZM72.0814 29.004C72.0814 29.148 72.2014 29.25 72.3514 29.25C72.5074 29.25 72.6274 29.148 72.6274 29.004V28.926C72.6274 28.776 72.5074 28.68 72.3514 28.68C72.2014 28.68 72.0814 28.776 72.0814 28.926V29.004ZM72.1234 32.796C72.1234 32.928 72.2254 33.03 72.3574 33.03C72.4894 33.03 72.5854 32.928 72.5854 32.796V30.102C72.5854 29.97 72.4834 29.868 72.3514 29.868C72.2254 29.868 72.1234 29.976 72.1234 30.102V32.796ZM73.6576 32.796C73.6576 32.928 73.7596 33.03 73.8916 33.03C74.0236 33.03 74.1196 32.928 74.1196 32.796V31.224C74.1196 30.642 74.5156 30.252 75.0496 30.252C75.5956 30.252 75.9076 30.612 75.9076 31.188V32.796C75.9076 32.928 76.0096 33.03 76.1416 33.03C76.2676 33.03 76.3696 32.928 76.3696 32.796V31.074C76.3696 30.336 75.9316 29.832 75.1816 29.832C74.6476 29.832 74.3236 30.102 74.1196 30.438V30.102C74.1196 29.97 74.0176 29.868 73.8856 29.868C73.7596 29.868 73.6576 29.976 73.6576 30.102V32.796ZM77.3549 32.796C77.3549 32.928 77.4569 33.03 77.5889 33.03C77.7209 33.03 77.8169 32.928 77.8169 32.796V32.202L78.4589 31.566L79.5329 32.922C79.5929 33 79.6469 33.03 79.7309 33.03C79.8569 33.03 79.9529 32.94 79.9529 32.814C79.9529 32.754 79.9349 32.712 79.8929 32.658L78.7829 31.26L79.7969 30.264C79.8569 30.204 79.8869 30.156 79.8869 30.084C79.8869 29.97 79.8029 29.868 79.6769 29.868C79.6049 29.868 79.5509 29.898 79.4969 29.958L77.8169 31.668V28.824C77.8169 28.698 77.7149 28.59 77.5829 28.59C77.4569 28.59 77.3549 28.698 77.3549 28.824V32.796ZM81.648 33.066C82.194 33.066 82.554 32.814 82.77 32.532V32.814C82.77 32.934 82.86 33.03 82.992 33.03C83.118 33.03 83.214 32.934 83.214 32.802V31.104C83.214 30.708 83.106 30.408 82.896 30.198C82.668 29.97 82.332 29.856 81.894 29.856C81.498 29.856 81.186 29.934 80.88 30.066C80.82 30.09 80.754 30.162 80.754 30.258C80.754 30.366 80.85 30.456 80.958 30.456C80.982 30.456 81.012 30.45 81.042 30.438C81.27 30.336 81.534 30.264 81.846 30.264C82.428 30.264 82.77 30.552 82.77 31.11V31.218C82.494 31.14 82.212 31.086 81.816 31.086C81.03 31.086 80.49 31.434 80.49 32.088V32.1C80.49 32.736 81.072 33.066 81.648 33.066ZM81.738 32.7C81.318 32.7 80.958 32.472 80.958 32.082V32.07C80.958 31.68 81.282 31.428 81.864 31.428C82.242 31.428 82.548 31.494 82.776 31.56V31.86C82.776 32.352 82.308 32.7 81.738 32.7Z" fill="#5CCDE6"/>
<path d="M59.65 31.8582C59.87 31.8582 60.05 31.6782 60.05 31.4582C60.05 31.2382 59.87 31.0582 59.65 31.0582L53.73 31.0582L53.73 29.0282C53.73 28.8282 53.57 28.6582 53.37 28.6582C53.17 28.6582 53 28.8282 53 29.0282L53 33.8882C53 34.0882 53.17 34.2582 53.37 34.2582C53.57 34.2582 53.73 34.0882 53.73 33.8882L53.73 31.8582L59.65 31.8582ZM60.12 26.2634C60.12 24.7034 58.88 23.5534 57.42 23.5534L57.4 23.5534C55.94 23.5534 54.72 24.6934 54.72 26.2434C54.72 27.8034 55.96 28.9434 57.42 28.9434L57.44 28.9434C58.9 28.9434 60.12 27.8134 60.12 26.2634ZM59.43 26.2434C59.43 27.3334 58.53 28.1534 57.42 28.1534L57.4 28.1534C56.31 28.1534 55.4 27.3834 55.4 26.2634C55.4 25.1734 56.31 24.3434 57.42 24.3434L57.44 24.3434C58.53 24.3434 59.43 25.1234 59.43 26.2434ZM59.66 22.1586C59.88 22.1586 60.05 21.9886 60.05 21.7686C60.05 21.5486 59.87 21.3886 59.66 21.3886L57.9 21.3886C56.41 21.3886 55.66 20.5686 55.54 19.5686C55.51 19.3686 55.36 19.2286 55.15 19.2286C54.93 19.2286 54.76 19.3786 54.76 19.6086C54.76 20.2586 55.28 21.0086 56.14 21.3886L55.17 21.3886C54.95 21.3886 54.78 21.5586 54.78 21.7786C54.78 21.9886 54.96 22.1586 55.17 22.1586L59.66 22.1586ZM60.1 16.3958C60.1 15.3658 59.53 14.5558 58.55 14.5558L58.53 14.5558C57.6 14.5558 57.29 15.4158 57.05 16.2158C56.84 16.9058 56.65 17.5458 56.16 17.5458L56.14 17.5458C55.71 17.5458 55.39 17.1558 55.39 16.5458C55.39 16.1058 55.54 15.6358 55.79 15.1958C55.81 15.1558 55.83 15.0958 55.83 15.0258C55.83 14.8358 55.68 14.6858 55.5 14.6858C55.35 14.6858 55.24 14.7758 55.18 14.8758C54.91 15.3758 54.74 15.9758 54.74 16.5258C54.74 17.5458 55.33 18.2858 56.22 18.2858L56.24 18.2858C57.19 18.2858 57.47 17.3858 57.7 16.5758C57.89 15.8958 58.09 15.2858 58.61 15.2858L58.63 15.2858C59.13 15.2858 59.45 15.7358 59.45 16.3558C59.45 16.9158 59.26 17.4658 58.9 17.9958C58.86 18.0458 58.84 18.1158 58.84 18.1858C58.84 18.3758 58.99 18.5258 59.17 18.5258C59.3 18.5258 59.4 18.4558 59.45 18.3858C59.85 17.8258 60.1 17.0758 60.1 16.3958ZM59.66 13.1254C59.88 13.1254 60.05 12.9554 60.05 12.7354C60.05 12.5154 59.88 12.3554 59.66 12.3554L58.67 12.3554L57.61 11.2854L59.87 9.49535C60 9.39535 60.05 9.30535 60.05 9.16535C60.05 8.95535 59.9 8.79535 59.69 8.79535C59.59 8.79535 59.52 8.82535 59.43 8.89535L57.1 10.7454L55.44 9.05535C55.34 8.95535 55.26 8.90535 55.14 8.90535C54.95 8.90535 54.78 9.04535 54.78 9.25535C54.78 9.37535 54.83 9.46535 54.93 9.55535L57.78 12.3554L53.04 12.3554C52.83 12.3554 52.65 12.5254 52.65 12.7454C52.65 12.9554 52.83 13.1254 53.04 13.1254L59.66 13.1254Z" fill="#14CC8C"/>
<path d="M29.6665 91.72C29.6665 91.896 29.8105 92.04 29.9865 92.04C30.1625 92.04 30.3065 91.896 30.3065 91.72V86.984H31.9305C32.0905 86.984 32.2265 86.856 32.2265 86.696C32.2265 86.536 32.0905 86.4 31.9305 86.4H28.0425C27.8825 86.4 27.7465 86.536 27.7465 86.696C27.7465 86.856 27.8825 86.984 28.0425 86.984H29.6665V91.72ZM34.1424 92.096C35.3904 92.096 36.3104 91.104 36.3104 89.936V89.92C36.3104 88.752 35.3984 87.776 34.1584 87.776C32.9104 87.776 31.9984 88.768 31.9984 89.936V89.952C31.9984 91.12 32.9024 92.096 34.1424 92.096ZM34.1584 91.544C33.2864 91.544 32.6304 90.824 32.6304 89.936V89.92C32.6304 89.048 33.2464 88.32 34.1424 88.32C35.0144 88.32 35.6784 89.048 35.6784 89.936V89.952C35.6784 90.824 35.0544 91.544 34.1584 91.544ZM37.6583 91.728C37.6583 91.896 37.7943 92.04 37.9703 92.04C38.1463 92.04 38.2743 91.896 38.2743 91.728V88.408H39.3383C39.4903 88.408 39.6103 88.288 39.6103 88.144C39.6103 87.992 39.4903 87.88 39.3383 87.88H38.2663V87.544C38.2663 86.952 38.5063 86.664 38.9863 86.664C39.1063 86.664 39.2183 86.688 39.3223 86.704C39.4823 86.72 39.6183 86.6 39.6183 86.44C39.6183 86.304 39.5143 86.2 39.3943 86.176C39.2583 86.144 39.1063 86.128 38.9063 86.128C38.5303 86.128 38.2263 86.24 38.0183 86.448C37.7863 86.68 37.6583 87.04 37.6583 87.512V87.872H37.3223C37.1783 87.872 37.0583 87.992 37.0583 88.136C37.0583 88.288 37.1703 88.408 37.3223 88.408H37.6583V91.728ZM43.9078 88.136C43.9078 87.96 43.7718 87.824 43.6038 87.824C43.4278 87.824 43.2998 87.96 43.2998 88.136V90.232C43.2998 91.008 42.7638 91.528 42.0598 91.528C41.3318 91.528 40.9158 91.048 40.9158 90.28V88.136C40.9158 87.96 40.7718 87.824 40.6038 87.824C40.4278 87.824 40.2998 87.96 40.2998 88.136V90.432C40.2998 91.416 40.8838 92.088 41.8838 92.088C42.5958 92.088 43.0198 91.728 43.2998 91.28V91.728C43.2998 91.904 43.4358 92.04 43.6038 92.04C43.7798 92.04 43.9078 91.896 43.9078 91.728V88.136Z" fill="#5CE6C3"/>
<path d="M164.534 18.814C164.534 18.934 164.63 19.03 164.75 19.03C164.858 19.03 164.936 18.97 164.978 18.868L165.416 17.89H167.72L168.158 18.856C168.2 18.952 168.278 19.03 168.392 19.03C168.518 19.03 168.62 18.928 168.62 18.802C168.62 18.766 168.608 18.724 168.59 18.682L166.886 14.962C166.832 14.83 166.736 14.752 166.592 14.752H166.568C166.418 14.752 166.328 14.83 166.268 14.962L164.564 18.688C164.54 18.736 164.534 18.778 164.534 18.814ZM165.602 17.458L166.568 15.31L167.534 17.458H165.602ZM167.108 13.768C166.952 13.768 166.826 13.882 166.826 14.038V14.128C166.826 14.284 166.952 14.398 167.108 14.398C167.264 14.398 167.39 14.284 167.39 14.128V14.038C167.39 13.882 167.264 13.768 167.108 13.768ZM166.04 13.768C165.884 13.768 165.758 13.882 165.758 14.038V14.128C165.758 14.284 165.884 14.398 166.04 14.398C166.196 14.398 166.322 14.284 166.322 14.128V14.038C166.322 13.882 166.196 13.768 166.04 13.768ZM170.694 19.972C171.186 19.972 171.6 19.834 171.876 19.558C172.128 19.306 172.272 18.94 172.272 18.46V16.102C172.272 15.976 172.17 15.868 172.038 15.868C171.906 15.868 171.81 15.976 171.81 16.102V16.456C171.558 16.12 171.18 15.832 170.598 15.832C169.86 15.832 169.14 16.39 169.14 17.296V17.308C169.14 18.202 169.854 18.76 170.598 18.76C171.168 18.76 171.546 18.466 171.816 18.106V18.472C171.816 19.198 171.372 19.576 170.688 19.576C170.286 19.576 169.914 19.456 169.59 19.24C169.56 19.222 169.53 19.21 169.488 19.21C169.38 19.21 169.278 19.312 169.278 19.414C169.278 19.498 169.326 19.57 169.398 19.606C169.788 19.846 170.22 19.972 170.694 19.972ZM170.688 18.352C170.112 18.352 169.614 17.92 169.614 17.296V17.284C169.614 16.648 170.1 16.24 170.688 16.24C171.276 16.24 171.828 16.654 171.828 17.29V17.302C171.828 17.926 171.276 18.352 170.688 18.352ZM174.678 19.972C175.17 19.972 175.584 19.834 175.86 19.558C176.112 19.306 176.256 18.94 176.256 18.46V16.102C176.256 15.976 176.154 15.868 176.022 15.868C175.89 15.868 175.794 15.976 175.794 16.102V16.456C175.542 16.12 175.164 15.832 174.582 15.832C173.844 15.832 173.124 16.39 173.124 17.296V17.308C173.124 18.202 173.838 18.76 174.582 18.76C175.152 18.76 175.53 18.466 175.8 18.106V18.472C175.8 19.198 175.356 19.576 174.672 19.576C174.27 19.576 173.898 19.456 173.574 19.24C173.544 19.222 173.514 19.21 173.472 19.21C173.364 19.21 173.262 19.312 173.262 19.414C173.262 19.498 173.31 19.57 173.382 19.606C173.772 19.846 174.204 19.972 174.678 19.972ZM174.672 18.352C174.096 18.352 173.598 17.92 173.598 17.296V17.284C173.598 16.648 174.084 16.24 174.672 16.24C175.26 16.24 175.812 16.654 175.812 17.29V17.302C175.812 17.926 175.26 18.352 174.672 18.352Z" fill="#5CCDE6"/>
<path d="M148.393 93.65C148.393 93.87 148.573 94.05 148.783 94.05C149.003 94.05 149.183 93.87 149.183 93.65V92.13L150.693 90.62L153.303 93.87C153.373 93.97 153.473 94.05 153.623 94.05C153.843 94.05 154.023 93.86 154.023 93.65C154.023 93.53 153.983 93.45 153.913 93.36L151.253 90.08L153.733 87.62C153.813 87.54 153.863 87.45 153.863 87.34C153.863 87.14 153.693 86.95 153.483 86.95C153.353 86.95 153.263 87.01 153.173 87.09L149.183 91.18V87.35C149.183 87.13 149.003 86.95 148.783 86.95C148.573 86.95 148.393 87.13 148.393 87.35V93.65ZM157.459 94.12C159.019 94.12 160.169 92.88 160.169 91.42V91.4C160.169 89.94 159.029 88.72 157.479 88.72C155.919 88.72 154.779 89.96 154.779 91.42V91.44C154.779 92.9 155.909 94.12 157.459 94.12ZM157.479 93.43C156.389 93.43 155.569 92.53 155.569 91.42V91.4C155.569 90.31 156.339 89.4 157.459 89.4C158.549 89.4 159.379 90.31 159.379 91.42V91.44C159.379 92.53 158.599 93.43 157.479 93.43ZM161.564 93.66C161.564 93.88 161.734 94.05 161.954 94.05C162.174 94.05 162.334 93.87 162.334 93.66V91.9C162.334 90.41 163.154 89.66 164.154 89.54C164.354 89.51 164.494 89.36 164.494 89.15C164.494 88.93 164.344 88.76 164.114 88.76C163.464 88.76 162.714 89.28 162.334 90.14V89.17C162.334 88.95 162.164 88.78 161.944 88.78C161.734 88.78 161.564 88.96 161.564 89.17V93.66ZM168.127 93.75L170.077 89.35C170.097 89.3 170.117 89.23 170.117 89.16C170.117 88.95 169.947 88.78 169.737 88.78C169.537 88.78 169.427 88.91 169.377 89.06L167.677 93.12L166.007 89.08C165.947 88.91 165.837 88.78 165.617 88.78C165.397 88.78 165.227 88.96 165.227 89.16C165.227 89.23 165.257 89.3 165.277 89.37L167.217 93.75C167.307 93.95 167.447 94.08 167.657 94.08H167.697C167.907 94.08 168.037 93.95 168.127 93.75Z" fill="#14CC8C"/>
</svg>
