<svg width="194" height="122" viewBox="0 0 194 122" fill="none" xmlns="http://www.w3.org/2000/svg">
<path d="M61.2774 76.88C61.2774 77.584 61.8534 78.16 62.5254 78.16C63.2294 78.16 63.8054 77.584 63.8054 76.88V67.92H76.7334V76.88C76.7334 77.584 77.3094 78.16 78.0134 78.16C78.6854 78.16 79.2614 77.584 79.2614 76.88V56.72C79.2614 56.016 78.6854 55.44 78.0134 55.44C77.3094 55.44 76.7334 56.016 76.7334 56.72V65.552H63.8054V56.72C63.8054 56.016 63.2294 55.44 62.5254 55.44C61.8534 55.44 61.2774 56.016 61.2774 56.72V76.88ZM92.7259 78.384C97.7179 78.384 101.398 74.416 101.398 69.744V69.68C101.398 65.008 97.7499 61.104 92.7899 61.104C87.7979 61.104 84.1499 65.072 84.1499 69.744V69.808C84.1499 74.48 87.7659 78.384 92.7259 78.384ZM92.7899 76.176C89.3019 76.176 86.6779 73.296 86.6779 69.744V69.68C86.6779 66.192 89.1419 63.28 92.7259 63.28C96.2139 63.28 98.8699 66.192 98.8699 69.744V69.808C98.8699 73.296 96.3739 76.176 92.7899 76.176ZM105.861 76.912C105.861 77.584 106.405 78.16 107.109 78.16C107.813 78.16 108.325 77.584 108.325 76.912V74.832C109.605 76.688 111.589 78.352 114.661 78.352C118.661 78.352 122.565 75.152 122.565 69.744V69.68C122.565 64.24 118.629 61.104 114.661 61.104C111.621 61.104 109.669 62.8 108.325 64.784V55.728C108.325 55.024 107.781 54.48 107.077 54.48C106.405 54.48 105.861 55.024 105.861 55.728V76.912ZM114.213 76.144C111.141 76.144 108.229 73.584 108.229 69.744V69.68C108.229 65.904 111.141 63.312 114.213 63.312C117.349 63.312 120.037 65.808 120.037 69.712V69.776C120.037 73.776 117.413 76.144 114.213 76.144ZM132.039 78.352C134.951 78.352 136.871 77.008 138.023 75.504V77.008C138.023 77.648 138.503 78.16 139.207 78.16C139.879 78.16 140.391 77.648 140.391 76.944V67.888C140.391 65.776 139.815 64.176 138.695 63.056C137.479 61.84 135.687 61.232 133.351 61.232C131.239 61.232 129.575 61.648 127.943 62.352C127.623 62.48 127.271 62.864 127.271 63.376C127.271 63.952 127.783 64.432 128.359 64.432C128.487 64.432 128.647 64.4 128.807 64.336C130.023 63.792 131.431 63.408 133.095 63.408C136.199 63.408 138.023 64.944 138.023 67.92V68.496C136.551 68.08 135.047 67.792 132.935 67.792C128.743 67.792 125.863 69.648 125.863 73.136V73.2C125.863 76.592 128.967 78.352 132.039 78.352ZM132.519 76.4C130.279 76.4 128.359 75.184 128.359 73.104V73.04C128.359 70.96 130.087 69.616 133.191 69.616C135.207 69.616 136.839 69.968 138.055 70.32V71.92C138.055 74.544 135.559 76.4 132.519 76.4Z" fill="#9900FF"/>
<path d="M107.568 88.752C107.568 88.912 107.696 89.04 107.856 89.04C108 89.04 108.104 88.96 108.16 88.824L108.744 87.52H111.816L112.4 88.808C112.456 88.936 112.56 89.04 112.712 89.04C112.88 89.04 113.016 88.904 113.016 88.736C113.016 88.688 113 88.632 112.976 88.576L110.704 83.616C110.632 83.44 110.504 83.336 110.312 83.336H110.28C110.08 83.336 109.96 83.44 109.88 83.616L107.608 88.584C107.576 88.648 107.568 88.704 107.568 88.752ZM108.992 86.944L110.28 84.08L111.568 86.944H108.992ZM114.178 88.728C114.178 88.904 114.314 89.04 114.49 89.04C114.666 89.04 114.794 88.904 114.794 88.728V83.432C114.794 83.264 114.658 83.12 114.482 83.12C114.314 83.12 114.178 83.264 114.178 83.432V88.728ZM116.279 88.728C116.279 88.904 116.415 89.04 116.591 89.04C116.767 89.04 116.895 88.904 116.895 88.728V83.432C116.895 83.264 116.759 83.12 116.583 83.12C116.415 83.12 116.279 83.264 116.279 83.432V88.728ZM118.693 86.704C118.773 85.896 119.317 85.296 120.037 85.296C120.861 85.296 121.293 85.952 121.357 86.704H118.693ZM121.693 88.472C121.757 88.416 121.789 88.344 121.789 88.272C121.789 88.128 121.669 88.008 121.517 88.008C121.445 88.008 121.389 88.04 121.341 88.08C121.037 88.36 120.661 88.56 120.149 88.56C119.413 88.56 118.781 88.056 118.693 87.16H121.685C121.837 87.16 121.973 87.04 121.973 86.872C121.973 85.776 121.277 84.776 120.053 84.776C118.909 84.776 118.069 85.736 118.069 86.928V86.944C118.069 88.224 118.997 89.096 120.133 89.096C120.837 89.096 121.301 88.848 121.693 88.472ZM123.059 88.728C123.059 88.904 123.195 89.04 123.371 89.04C123.547 89.04 123.675 88.904 123.675 88.728V86.632C123.675 85.856 124.203 85.336 124.915 85.336C125.643 85.336 126.059 85.816 126.059 86.584V88.728C126.059 88.904 126.195 89.04 126.371 89.04C126.539 89.04 126.675 88.904 126.675 88.728V86.432C126.675 85.448 126.091 84.776 125.091 84.776C124.379 84.776 123.947 85.136 123.675 85.584V85.136C123.675 84.96 123.539 84.824 123.363 84.824C123.195 84.824 123.059 84.968 123.059 85.136V88.728ZM131.925 83.432C131.925 83.256 131.789 83.12 131.613 83.12C131.437 83.12 131.309 83.256 131.309 83.432V85.656C130.989 85.192 130.493 84.776 129.725 84.776C128.733 84.776 127.749 85.576 127.749 86.928V86.944C127.749 88.304 128.733 89.088 129.725 89.088C130.485 89.088 130.973 88.664 131.309 88.168V88.728C131.309 88.904 131.445 89.04 131.621 89.04C131.789 89.04 131.925 88.904 131.925 88.728V83.432ZM129.837 85.328C130.605 85.328 131.333 85.968 131.333 86.92V86.936C131.333 87.888 130.605 88.536 129.837 88.536C129.061 88.536 128.381 87.912 128.381 86.936V86.92C128.381 85.92 129.037 85.328 129.837 85.328ZM133.669 86.704C133.749 85.896 134.293 85.296 135.013 85.296C135.837 85.296 136.269 85.952 136.333 86.704H133.669ZM136.669 88.472C136.733 88.416 136.765 88.344 136.765 88.272C136.765 88.128 136.645 88.008 136.493 88.008C136.421 88.008 136.365 88.04 136.317 88.08C136.013 88.36 135.637 88.56 135.125 88.56C134.389 88.56 133.757 88.056 133.669 87.16H136.661C136.813 87.16 136.949 87.04 136.949 86.872C136.949 85.776 136.253 84.776 135.029 84.776C133.885 84.776 133.045 85.736 133.045 86.928V86.944C133.045 88.224 133.973 89.096 135.109 89.096C135.813 89.096 136.277 88.848 136.669 88.472ZM138.036 88.728C138.036 88.904 138.172 89.04 138.348 89.04C138.524 89.04 138.652 88.904 138.652 88.728V86.64C138.652 85.88 139.148 85.336 139.804 85.336C140.46 85.336 140.868 85.792 140.868 86.568V88.728C140.868 88.904 141.004 89.04 141.172 89.04C141.348 89.04 141.484 88.904 141.484 88.728V86.616C141.484 85.8 141.996 85.336 142.62 85.336C143.292 85.336 143.692 85.784 143.692 86.584V88.728C143.692 88.904 143.828 89.04 144.004 89.04C144.172 89.04 144.308 88.904 144.308 88.728V86.44C144.308 85.416 143.724 84.776 142.772 84.776C142.052 84.776 141.612 85.144 141.316 85.6C141.092 85.136 140.66 84.776 139.988 84.776C139.292 84.776 138.924 85.152 138.652 85.56V85.136C138.652 84.96 138.516 84.824 138.34 84.824C138.172 84.824 138.036 84.968 138.036 85.136V88.728ZM146.013 86.704C146.093 85.896 146.637 85.296 147.357 85.296C148.181 85.296 148.613 85.952 148.677 86.704H146.013ZM149.013 88.472C149.077 88.416 149.109 88.344 149.109 88.272C149.109 88.128 148.989 88.008 148.837 88.008C148.765 88.008 148.709 88.04 148.661 88.08C148.357 88.36 147.981 88.56 147.469 88.56C146.733 88.56 146.101 88.056 146.013 87.16H149.005C149.157 87.16 149.293 87.04 149.293 86.872C149.293 85.776 148.597 84.776 147.373 84.776C146.229 84.776 145.389 85.736 145.389 86.928V86.944C145.389 88.224 146.317 89.096 147.453 89.096C148.157 89.096 148.621 88.848 149.013 88.472ZM151.763 89.072C152.003 89.072 152.195 89.032 152.371 88.96C152.475 88.92 152.547 88.832 152.547 88.72C152.547 88.576 152.427 88.456 152.283 88.456C152.235 88.456 152.123 88.512 151.907 88.512C151.491 88.512 151.211 88.328 151.211 87.824V85.408H152.283C152.435 85.408 152.563 85.288 152.563 85.136C152.563 84.992 152.435 84.864 152.283 84.864H151.211V83.888C151.211 83.72 151.067 83.576 150.899 83.576C150.723 83.576 150.595 83.72 150.595 83.888V84.864H150.259C150.115 84.864 149.987 84.984 149.987 85.136C149.987 85.28 150.115 85.408 150.259 85.408H150.595V87.904C150.595 88.744 151.099 89.072 151.763 89.072ZM153.865 86.704C153.945 85.896 154.489 85.296 155.209 85.296C156.033 85.296 156.465 85.952 156.529 86.704H153.865ZM156.865 88.472C156.929 88.416 156.961 88.344 156.961 88.272C156.961 88.128 156.841 88.008 156.689 88.008C156.617 88.008 156.561 88.04 156.513 88.08C156.209 88.36 155.833 88.56 155.321 88.56C154.585 88.56 153.953 88.056 153.865 87.16H156.857C157.009 87.16 157.145 87.04 157.145 86.872C157.145 85.776 156.449 84.776 155.225 84.776C154.081 84.776 153.241 85.736 153.241 86.928V86.944C153.241 88.224 154.169 89.096 155.305 89.096C156.009 89.096 156.473 88.848 156.865 88.472ZM160.119 89.096C161.367 89.096 162.287 88.104 162.287 86.936V86.92C162.287 85.752 161.375 84.776 160.135 84.776C158.887 84.776 157.975 85.768 157.975 86.936V86.952C157.975 88.12 158.879 89.096 160.119 89.096ZM160.135 88.544C159.263 88.544 158.607 87.824 158.607 86.936V86.92C158.607 86.048 159.223 85.32 160.119 85.32C160.991 85.32 161.655 86.048 161.655 86.936V86.952C161.655 87.824 161.031 88.544 160.135 88.544ZM163.403 88.728C163.403 88.904 163.539 89.04 163.715 89.04C163.891 89.04 164.019 88.896 164.019 88.728V87.32C164.019 86.128 164.675 85.528 165.475 85.432C165.635 85.408 165.747 85.288 165.747 85.12C165.747 84.944 165.627 84.808 165.443 84.808C164.923 84.808 164.323 85.224 164.019 85.912V85.136C164.019 84.96 163.883 84.824 163.707 84.824C163.539 84.824 163.403 84.968 163.403 85.136V88.728ZM166.645 83.672C166.645 83.864 166.805 84 167.005 84C167.213 84 167.373 83.864 167.373 83.672V83.568C167.373 83.368 167.213 83.24 167.005 83.24C166.805 83.24 166.645 83.368 166.645 83.568V83.672ZM166.701 88.728C166.701 88.904 166.837 89.04 167.013 89.04C167.189 89.04 167.317 88.904 167.317 88.728V85.136C167.317 84.96 167.181 84.824 167.005 84.824C166.837 84.824 166.701 84.968 166.701 85.136V88.728ZM170.131 89.072C170.371 89.072 170.563 89.032 170.739 88.96C170.843 88.92 170.915 88.832 170.915 88.72C170.915 88.576 170.795 88.456 170.651 88.456C170.603 88.456 170.491 88.512 170.275 88.512C169.859 88.512 169.579 88.328 169.579 87.824V85.408H170.651C170.803 85.408 170.931 85.288 170.931 85.136C170.931 84.992 170.803 84.864 170.651 84.864H169.579V83.888C169.579 83.72 169.435 83.576 169.267 83.576C169.091 83.576 168.963 83.72 168.963 83.888V84.864H168.627C168.483 84.864 168.355 84.984 168.355 85.136C168.355 85.28 168.483 85.408 168.627 85.408H168.963V87.904C168.963 88.744 169.467 89.072 170.131 89.072ZM172.232 86.704C172.312 85.896 172.856 85.296 173.576 85.296C174.4 85.296 174.832 85.952 174.896 86.704H172.232ZM175.232 88.472C175.296 88.416 175.328 88.344 175.328 88.272C175.328 88.128 175.208 88.008 175.056 88.008C174.984 88.008 174.928 88.04 174.88 88.08C174.576 88.36 174.2 88.56 173.688 88.56C172.952 88.56 172.32 88.056 172.232 87.16H175.224C175.376 87.16 175.512 87.04 175.512 86.872C175.512 85.776 174.816 84.776 173.592 84.776C172.448 84.776 171.608 85.736 171.608 86.928V86.944C171.608 88.224 172.536 89.096 173.672 89.096C174.376 89.096 174.84 88.848 175.232 88.472ZM176.598 88.728C176.598 88.904 176.734 89.04 176.91 89.04C177.086 89.04 177.214 88.904 177.214 88.728V86.632C177.214 85.856 177.742 85.336 178.454 85.336C179.182 85.336 179.598 85.816 179.598 86.584V88.728C179.598 88.904 179.734 89.04 179.91 89.04C180.078 89.04 180.214 88.904 180.214 88.728V86.432C180.214 85.448 179.63 84.776 178.63 84.776C177.918 84.776 177.486 85.136 177.214 85.584V85.136C177.214 84.96 177.078 84.824 176.902 84.824C176.734 84.824 176.598 84.968 176.598 85.136V88.728Z" fill="#D99FFF"/>
<path d="M10.959 49.36C10.959 49.712 11.247 50 11.583 50H15.935C18.383 50 19.999 48.864 19.999 46.944V46.912C19.999 45.376 18.927 44.608 17.599 44.208C18.479 43.824 19.375 43.072 19.375 41.616V41.584C19.375 40.864 19.119 40.272 18.655 39.792C18.015 39.168 17.007 38.8 15.727 38.8H11.583C11.247 38.8 10.959 39.088 10.959 39.44V49.36ZM12.207 43.792V39.936H15.615C17.215 39.936 18.095 40.656 18.095 41.76V41.792C18.095 43.104 17.039 43.792 15.519 43.792H12.207ZM12.207 48.864V44.912H15.743C17.695 44.912 18.719 45.616 18.719 46.832V46.864C18.719 48.112 17.663 48.864 15.967 48.864H12.207ZM26.0739 50.192C28.5699 50.192 30.4099 48.208 30.4099 45.872V45.84C30.4099 43.504 28.5859 41.552 26.1059 41.552C23.6099 41.552 21.7859 43.536 21.7859 45.872V45.904C21.7859 48.24 23.5939 50.192 26.0739 50.192ZM26.1059 49.088C24.3619 49.088 23.0499 47.648 23.0499 45.872V45.84C23.0499 44.096 24.2819 42.64 26.0739 42.64C27.8179 42.64 29.1459 44.096 29.1459 45.872V45.904C29.1459 47.648 27.8979 49.088 26.1059 49.088ZM35.4096 50.144C35.8896 50.144 36.2736 50.064 36.6256 49.92C36.8336 49.84 36.9776 49.664 36.9776 49.44C36.9776 49.152 36.7376 48.912 36.4496 48.912C36.3536 48.912 36.1296 49.024 35.6976 49.024C34.8656 49.024 34.3056 48.656 34.3056 47.648V42.816H36.4496C36.7536 42.816 37.0096 42.576 37.0096 42.272C37.0096 41.984 36.7536 41.728 36.4496 41.728H34.3056V39.776C34.3056 39.44 34.0176 39.152 33.6816 39.152C33.3296 39.152 33.0736 39.44 33.0736 39.776V41.728H32.4016C32.1136 41.728 31.8576 41.968 31.8576 42.272C31.8576 42.56 32.1136 42.816 32.4016 42.816H33.0736V47.808C33.0736 49.488 34.0816 50.144 35.4096 50.144ZM41.8784 50.144C42.3584 50.144 42.7424 50.064 43.0944 49.92C43.3024 49.84 43.4464 49.664 43.4464 49.44C43.4464 49.152 43.2064 48.912 42.9184 48.912C42.8224 48.912 42.5984 49.024 42.1664 49.024C41.3344 49.024 40.7744 48.656 40.7744 47.648V42.816H42.9184C43.2224 42.816 43.4784 42.576 43.4784 42.272C43.4784 41.984 43.2224 41.728 42.9184 41.728H40.7744V39.776C40.7744 39.44 40.4864 39.152 40.1504 39.152C39.7984 39.152 39.5424 39.44 39.5424 39.776V41.728H38.8704C38.5824 41.728 38.3264 41.968 38.3264 42.272C38.3264 42.56 38.5824 42.816 38.8704 42.816H39.5424V47.808C39.5424 49.488 40.5504 50.144 41.8784 50.144ZM46.0807 45.408C46.2408 43.792 47.3288 42.592 48.7688 42.592C50.4168 42.592 51.2808 43.904 51.4088 45.408H46.0807ZM52.0808 48.944C52.2088 48.832 52.2728 48.688 52.2728 48.544C52.2728 48.256 52.0328 48.016 51.7288 48.016C51.5848 48.016 51.4728 48.08 51.3768 48.16C50.7688 48.72 50.0168 49.12 48.9928 49.12C47.5208 49.12 46.2568 48.112 46.0807 46.32H52.0648C52.3688 46.32 52.6408 46.08 52.6408 45.744C52.6408 43.552 51.2488 41.552 48.8008 41.552C46.5128 41.552 44.8328 43.472 44.8328 45.856V45.888C44.8328 48.448 46.6888 50.192 48.9608 50.192C50.3688 50.192 51.2968 49.696 52.0808 48.944ZM54.8135 49.456C54.8135 49.808 55.0855 50.08 55.4375 50.08C55.7895 50.08 56.0455 49.808 56.0455 49.456V45.264C56.0455 43.712 57.1015 42.672 58.5255 42.672C59.9815 42.672 60.8135 43.632 60.8135 45.168V49.456C60.8135 49.808 61.0855 50.08 61.4375 50.08C61.7735 50.08 62.0455 49.808 62.0455 49.456V44.864C62.0455 42.896 60.8775 41.552 58.8775 41.552C57.4535 41.552 56.5895 42.272 56.0455 43.168V42.272C56.0455 41.92 55.7735 41.648 55.4215 41.648C55.0855 41.648 54.8135 41.936 54.8135 42.272V49.456ZM73.8058 50.192C76.6858 50.192 78.5418 47.536 78.5418 44.4V44.368C78.5418 41.232 76.7178 38.608 73.8378 38.608C70.9578 38.608 69.0858 41.264 69.0858 44.4V44.432C69.0858 47.568 70.9098 50.192 73.8058 50.192ZM73.8378 49.04C71.7418 49.04 70.3978 46.848 70.3978 44.4V44.368C70.3978 41.904 71.7098 39.76 73.8058 39.76C75.8858 39.76 77.2298 41.952 77.2298 44.4V44.432C77.2298 46.88 75.9338 49.04 73.8378 49.04ZM85.2433 50.192C88.1233 50.192 89.9793 47.536 89.9793 44.4V44.368C89.9793 41.232 88.1553 38.608 85.2753 38.608C82.3953 38.608 80.5233 41.264 80.5233 44.4V44.432C80.5233 47.568 82.3473 50.192 85.2433 50.192ZM85.2753 49.04C83.1793 49.04 81.8353 46.848 81.8353 44.4V44.368C81.8353 41.904 83.1473 39.76 85.2433 39.76C87.3233 39.76 88.6673 41.952 88.6673 44.4V44.432C88.6673 46.88 87.3713 49.04 85.2753 49.04ZM95.7885 50.192C97.8685 50.192 99.5325 48.816 99.5325 46.816V46.784C99.5325 44.736 97.7885 43.792 95.8365 43.632L99.1325 39.968C99.3085 39.776 99.4365 39.6 99.4365 39.344C99.4365 39.024 99.1805 38.8 98.8285 38.8H92.7165C92.3965 38.8 92.1245 39.056 92.1245 39.376C92.1245 39.696 92.3965 39.936 92.7165 39.936H97.6765L94.4125 43.632C94.2365 43.808 94.1565 43.968 94.1565 44.128C94.1565 44.432 94.4125 44.672 94.7165 44.672H95.1165C96.9565 44.672 98.2525 45.44 98.2525 46.832V46.864C98.2525 48.176 97.1645 49.04 95.8045 49.04C94.5405 49.04 93.5805 48.544 92.7645 47.616C92.6685 47.52 92.5085 47.424 92.3005 47.424C91.9645 47.424 91.6765 47.712 91.6765 48.048C91.6765 48.224 91.7885 48.4 91.8845 48.496C92.7805 49.504 94.0765 50.192 95.7885 50.192Z" fill="#BE5CFF"/>
<path d="M146.672 78.12C147.822 78.12 148.582 77.72 149.272 77.09C149.342 77.03 149.402 76.93 149.402 76.81C149.402 76.61 149.222 76.43 149.022 76.43C148.922 76.43 148.832 76.48 148.772 76.54C148.172 77.09 147.562 77.39 146.692 77.39C145.152 77.39 143.982 76.12 143.982 74.5V74.48C143.982 72.87 145.142 71.61 146.692 71.61C147.552 71.61 148.162 71.93 148.702 72.41C148.762 72.45 148.852 72.5 148.962 72.5C149.172 72.5 149.362 72.32 149.362 72.11C149.362 71.97 149.282 71.86 149.202 71.79C148.552 71.25 147.832 70.88 146.702 70.88C144.642 70.88 143.162 72.52 143.162 74.5V74.52C143.162 76.53 144.652 78.12 146.672 78.12ZM152.265 78.11C153.175 78.11 153.775 77.69 154.135 77.22V77.69C154.135 77.89 154.285 78.05 154.505 78.05C154.715 78.05 154.875 77.89 154.875 77.67V74.84C154.875 74.18 154.695 73.68 154.345 73.33C153.965 72.95 153.405 72.76 152.675 72.76C152.015 72.76 151.495 72.89 150.985 73.11C150.885 73.15 150.775 73.27 150.775 73.43C150.775 73.61 150.935 73.76 151.115 73.76C151.155 73.76 151.205 73.75 151.255 73.73C151.635 73.56 152.075 73.44 152.595 73.44C153.565 73.44 154.135 73.92 154.135 74.85V75.03C153.675 74.9 153.205 74.81 152.545 74.81C151.235 74.81 150.335 75.39 150.335 76.48V76.5C150.335 77.56 151.305 78.11 152.265 78.11ZM152.415 77.5C151.715 77.5 151.115 77.12 151.115 76.47V76.45C151.115 75.8 151.655 75.38 152.625 75.38C153.255 75.38 153.765 75.49 154.145 75.6V76.1C154.145 76.92 153.365 77.5 152.415 77.5ZM156.516 79.26C156.516 79.48 156.686 79.65 156.906 79.65C157.126 79.65 157.286 79.48 157.286 79.26V77.01C157.686 77.59 158.306 78.11 159.266 78.11C160.516 78.11 161.736 77.11 161.736 75.42V75.4C161.736 73.7 160.506 72.72 159.266 72.72C158.316 72.72 157.706 73.25 157.286 73.87V73.17C157.286 72.95 157.116 72.78 156.896 72.78C156.686 72.78 156.516 72.95 156.516 73.17V79.26ZM159.126 77.42C158.166 77.42 157.256 76.62 157.256 75.42V75.4C157.256 74.22 158.166 73.41 159.126 73.41C160.106 73.41 160.946 74.19 160.946 75.41V75.43C160.946 76.68 160.126 77.42 159.126 77.42ZM163.617 75.13C163.717 74.12 164.397 73.37 165.297 73.37C166.327 73.37 166.867 74.19 166.947 75.13H163.617ZM167.367 77.34C167.447 77.27 167.487 77.18 167.487 77.09C167.487 76.91 167.337 76.76 167.147 76.76C167.057 76.76 166.987 76.8 166.927 76.85C166.547 77.2 166.077 77.45 165.437 77.45C164.517 77.45 163.727 76.82 163.617 75.7H167.357C167.547 75.7 167.717 75.55 167.717 75.34C167.717 73.97 166.847 72.72 165.317 72.72C163.887 72.72 162.837 73.92 162.837 75.41V75.43C162.837 77.03 163.997 78.12 165.417 78.12C166.297 78.12 166.877 77.81 167.367 77.34ZM174.353 77.65C174.353 77.87 174.533 78.05 174.753 78.05C174.973 78.05 175.153 77.87 175.153 77.65V75.23L177.743 71.63C177.793 71.55 177.853 71.44 177.853 71.34C177.853 71.13 177.683 70.95 177.463 70.95C177.293 70.95 177.193 71.05 177.093 71.19L174.763 74.52L172.453 71.19C172.353 71.05 172.243 70.95 172.073 70.95C171.853 70.95 171.663 71.13 171.663 71.34C171.663 71.44 171.703 71.53 171.753 71.61L174.353 75.25V77.65ZM180.536 78.12C182.096 78.12 183.246 76.88 183.246 75.42V75.4C183.246 73.94 182.106 72.72 180.556 72.72C178.996 72.72 177.856 73.96 177.856 75.42V75.44C177.856 76.9 178.986 78.12 180.536 78.12ZM180.556 77.43C179.466 77.43 178.646 76.53 178.646 75.42V75.4C178.646 74.31 179.416 73.4 180.536 73.4C181.626 73.4 182.456 74.31 182.456 75.42V75.44C182.456 76.53 181.676 77.43 180.556 77.43ZM184.641 77.66C184.641 77.88 184.811 78.05 185.031 78.05C185.251 78.05 185.411 77.87 185.411 77.66V75.9C185.411 74.41 186.231 73.66 187.231 73.54C187.431 73.51 187.571 73.36 187.571 73.15C187.571 72.93 187.421 72.76 187.191 72.76C186.541 72.76 185.791 73.28 185.411 74.14V73.17C185.411 72.95 185.241 72.78 185.021 72.78C184.811 72.78 184.641 72.96 184.641 73.17V77.66ZM188.694 77.66C188.694 77.88 188.864 78.05 189.084 78.05C189.304 78.05 189.464 77.88 189.464 77.66V76.67L190.534 75.61L192.324 77.87C192.424 78 192.514 78.05 192.654 78.05C192.864 78.05 193.024 77.9 193.024 77.69C193.024 77.59 192.994 77.52 192.924 77.43L191.074 75.1L192.764 73.44C192.864 73.34 192.914 73.26 192.914 73.14C192.914 72.95 192.774 72.78 192.564 72.78C192.444 72.78 192.354 72.83 192.264 72.93L189.464 75.78V71.04C189.464 70.83 189.294 70.65 189.074 70.65C188.864 70.65 188.694 70.83 188.694 71.04V77.66Z" fill="#CF87FF"/>
<path d="M54.79 78.9861C54.922 78.9861 55.03 78.8781 55.03 78.7521C55.03 78.6201 54.922 78.5121 54.79 78.5121L53.17 78.5121L53.17 76.4241C53.17 76.3041 53.074 76.2081 52.954 76.2081C52.834 76.2081 52.738 76.3041 52.738 76.4241L52.738 78.5121L51.238 78.5121L51.238 76.1541C51.238 76.0341 51.136 75.9381 51.016 75.9381C50.896 75.9381 50.8 76.0341 50.8 76.1541L50.8 78.7521C50.8 78.8781 50.908 78.9861 51.04 78.9861L54.79 78.9861ZM52.102 72.4686C51.97 72.4686 51.868 72.5706 51.868 72.6966C51.868 72.8286 51.97 72.9246 52.102 72.9246L53.674 72.9246C54.256 72.9246 54.646 73.3266 54.646 73.8546C54.646 74.4006 54.286 74.7126 53.71 74.7126L52.102 74.7126C51.97 74.7126 51.868 74.8206 51.868 74.9466C51.868 75.0786 51.97 75.1746 52.102 75.1746L53.824 75.1746C54.562 75.1746 55.066 74.7366 55.066 73.9866C55.066 73.4526 54.796 73.1346 54.46 72.9246L54.796 72.9246C54.928 72.9246 55.03 72.8226 55.03 72.6966C55.03 72.5646 54.922 72.4686 54.796 72.4686L52.102 72.4686ZM54.796 71.4293C54.928 71.4293 55.03 71.3273 55.03 71.1953C55.03 71.0633 54.928 70.9673 54.796 70.9673L54.202 70.9673L53.566 70.3253L54.922 69.2513C55 69.1913 55.03 69.1373 55.03 69.0533C55.03 68.9273 54.94 68.8313 54.814 68.8313C54.754 68.8313 54.712 68.8493 54.658 68.8913L53.26 70.0013L52.264 68.9873C52.204 68.9273 52.156 68.8973 52.084 68.8973C51.97 68.8973 51.868 68.9813 51.868 69.1073C51.868 69.1793 51.898 69.2333 51.958 69.2873L53.668 70.9673L50.824 70.9673C50.698 70.9673 50.59 71.0693 50.59 71.2013C50.59 71.3273 50.698 71.4293 50.824 71.4293L54.796 71.4293ZM55.066 67.1362C55.066 66.5902 54.814 66.2302 54.532 66.0142L54.814 66.0142C54.934 66.0142 55.03 65.9242 55.03 65.7922C55.03 65.6662 54.934 65.5702 54.802 65.5702L53.104 65.5702C52.708 65.5702 52.408 65.6782 52.198 65.8882C51.97 66.1162 51.856 66.4522 51.856 66.8902C51.856 67.2862 51.934 67.5982 52.066 67.9042C52.09 67.9642 52.162 68.0302 52.258 68.0302C52.366 68.0302 52.456 67.9342 52.456 67.8262C52.456 67.8022 52.45 67.7722 52.438 67.7422C52.336 67.5142 52.264 67.2502 52.264 66.9382C52.264 66.3562 52.552 66.0142 53.11 66.0142L53.218 66.0142C53.14 66.2902 53.086 66.5722 53.086 66.9682C53.086 67.7542 53.434 68.2942 54.088 68.2942L54.1 68.2942C54.736 68.2942 55.066 67.7122 55.066 67.1362ZM54.7 67.0462C54.7 67.4662 54.472 67.8262 54.082 67.8262L54.07 67.8262C53.68 67.8262 53.428 67.5022 53.428 66.9202C53.428 66.5422 53.494 66.2362 53.56 66.0082L53.86 66.0082C54.352 66.0082 54.7 66.4762 54.7 67.0462ZM54.796 64.5856C54.928 64.5856 55.03 64.4836 55.03 64.3516C55.03 64.2196 54.928 64.1236 54.796 64.1236L53.224 64.1236C52.642 64.1236 52.252 63.7276 52.252 63.1936C52.252 62.6476 52.612 62.3356 53.188 62.3356L54.796 62.3356C54.928 62.3356 55.03 62.2336 55.03 62.1016C55.03 61.9756 54.928 61.8736 54.796 61.8736L53.074 61.8736C52.336 61.8736 51.832 62.3116 51.832 63.0616C51.832 63.5956 52.102 63.9196 52.438 64.1236L52.102 64.1236C51.97 64.1236 51.868 64.2256 51.868 64.3576C51.868 64.4836 51.976 64.5856 52.102 64.5856L54.796 64.5856ZM55.972 59.5143C55.972 59.0223 55.834 58.6083 55.558 58.3323C55.306 58.0803 54.94 57.9363 54.46 57.9363L52.102 57.9363C51.976 57.9363 51.868 58.0383 51.868 58.1703C51.868 58.3023 51.976 58.3983 52.102 58.3983L52.456 58.3983C52.12 58.6503 51.832 59.0283 51.832 59.6103C51.832 60.3483 52.39 61.0683 53.296 61.0683L53.308 61.0683C54.202 61.0683 54.76 60.3543 54.76 59.6103C54.76 59.0403 54.466 58.6623 54.106 58.3923L54.472 58.3923C55.198 58.3923 55.576 58.8363 55.576 59.5203C55.576 59.9223 55.456 60.2943 55.24 60.6183C55.222 60.6483 55.21 60.6783 55.21 60.7203C55.21 60.8283 55.312 60.9303 55.414 60.9303C55.498 60.9303 55.57 60.8823 55.606 60.8103C55.846 60.4203 55.972 59.9883 55.972 59.5143ZM54.352 59.5203C54.352 60.0963 53.92 60.5943 53.296 60.5943L53.284 60.5943C52.648 60.5943 52.24 60.1083 52.24 59.5203C52.24 58.9323 52.654 58.3803 53.29 58.3803L53.302 58.3803C53.926 58.3803 54.352 58.9323 54.352 59.5203Z" fill="#E2B7FF"/>
<path d="M102.1 118.214C102.1 116.824 101.32 115.824 100.12 115.824L100.1 115.824C99.03 115.824 98.46 116.544 98.12 118.104C97.79 119.644 97.42 120.004 96.76 120.004L96.74 120.004C96.11 120.004 95.61 119.424 95.61 118.514C95.61 117.864 95.79 117.294 96.22 116.704C96.27 116.634 96.29 116.564 96.29 116.474C96.29 116.264 96.12 116.094 95.91 116.094C95.76 116.094 95.65 116.184 95.59 116.264C95.13 116.904 94.9 117.574 94.9 118.494C94.9 119.824 95.71 120.794 96.81 120.794L96.83 120.794C97.98 120.794 98.5 120.054 98.85 118.444C99.16 116.974 99.53 116.624 100.18 116.624L100.2 116.624C100.89 116.624 101.39 117.244 101.39 118.184C101.39 119.074 101.12 119.734 100.56 120.394C100.51 120.444 100.47 120.534 100.47 120.634C100.47 120.844 100.64 121.014 100.86 121.014C100.99 121.014 101.1 120.954 101.16 120.864C101.78 120.084 102.1 119.234 102.1 118.214ZM102.11 112.808C102.11 111.898 101.69 111.298 101.22 110.938L101.69 110.938C101.89 110.938 102.05 110.788 102.05 110.568C102.05 110.358 101.89 110.198 101.67 110.198L98.84 110.198C98.18 110.198 97.68 110.378 97.33 110.728C96.95 111.108 96.76 111.668 96.76 112.398C96.76 113.058 96.89 113.578 97.11 114.088C97.15 114.188 97.27 114.298 97.43 114.298C97.61 114.298 97.76 114.138 97.76 113.958C97.76 113.918 97.75 113.868 97.73 113.818C97.56 113.438 97.44 112.998 97.44 112.478C97.44 111.508 97.92 110.938 98.85 110.938L99.03 110.938C98.9 111.398 98.81 111.868 98.81 112.528C98.81 113.838 99.39 114.738 100.48 114.738L100.5 114.738C101.56 114.738 102.11 113.768 102.11 112.808ZM101.5 112.658C101.5 113.358 101.12 113.958 100.47 113.958L100.45 113.958C99.8 113.958 99.38 113.418 99.38 112.448C99.38 111.818 99.49 111.308 99.6 110.928L100.1 110.928C100.92 110.928 101.5 111.708 101.5 112.658ZM102.11 105.627C102.11 103.877 101.05 102.707 99.01 102.707L95.35 102.707C95.13 102.707 94.95 102.887 94.95 103.097C94.95 103.317 95.13 103.497 95.35 103.497L99.07 103.497C100.6 103.497 101.38 104.317 101.38 105.607C101.38 106.937 100.53 107.747 99.02 107.747L95.35 107.747C95.13 107.747 94.95 107.927 94.95 108.147C94.95 108.357 95.13 108.537 95.35 108.537L99.07 108.537C101.05 108.537 102.11 107.357 102.11 105.627ZM101.65 97.0411C101.87 97.0411 102.05 96.8611 102.05 96.6511C102.05 96.4311 101.87 96.2611 101.65 96.2611L95.31 96.2611C95.1 96.2611 94.92 96.4211 94.92 96.6511L94.92 96.6711C94.92 96.8011 94.96 96.9411 95.01 97.1011L95.41 98.2511C95.47 98.4211 95.58 98.5311 95.75 98.5311C95.94 98.5311 96.09 98.3711 96.09 98.1911C96.09 98.1411 96.08 98.0811 96.06 98.0211L95.74 97.0411L101.65 97.0411ZM102.12 91.9171C102.12 90.4971 101.14 89.4071 99.79 89.4071L99.77 89.4071C98.46 89.4071 97.62 90.5271 97.62 91.8271C97.62 92.8471 98.13 93.4371 98.69 93.8171C96.88 93.8271 95.6 93.0371 95.6 91.7671C95.6 91.2071 95.79 90.7771 96.14 90.3171C96.18 90.2571 96.21 90.1771 96.21 90.0971C96.21 89.8871 96.04 89.7171 95.83 89.7171C95.68 89.7171 95.58 89.7871 95.5 89.9071C95.11 90.4271 94.88 90.9971 94.88 91.7271C94.88 93.5571 96.55 94.6371 98.68 94.6371L98.7 94.6371C100.13 94.6371 100.85 94.3171 101.41 93.7571C101.85 93.3171 102.12 92.6871 102.12 91.9171ZM101.42 91.9071C101.42 92.9371 100.74 93.6771 99.85 93.6771L99.83 93.6771C99.05 93.6771 98.3 92.9771 98.3 91.9271C98.3 90.9171 98.94 90.2171 99.8 90.2171L99.82 90.2171C100.71 90.2171 101.42 90.8771 101.42 91.9071ZM102.12 85.9201C102.12 84.1901 100.55 83.0101 98.33 83.0101L98.31 83.0101C96.91 83.0101 96.13 83.3501 95.6 83.8801C95.15 84.3301 94.88 84.9201 94.88 85.7201C94.88 87.2101 95.93 88.2401 97.26 88.2401L97.28 88.2401C98.54 88.2401 99.45 87.2401 99.45 85.8001C99.45 84.8301 98.94 84.2001 98.33 83.8201C100.12 83.7901 101.4 84.6401 101.4 85.9001C101.4 86.4501 101.2 86.9301 100.8 87.4201C100.75 87.5001 100.72 87.5801 100.72 87.6701C100.72 87.8801 100.89 88.0501 101.1 88.0501C101.24 88.0501 101.34 87.9801 101.42 87.8701C101.82 87.3401 102.12 86.7201 102.12 85.9201ZM98.77 85.7101C98.77 86.7301 98.13 87.4301 97.24 87.4301L97.22 87.4301C96.35 87.4301 95.58 86.8001 95.58 85.7501C95.58 84.7001 96.28 83.9701 97.17 83.9701L97.19 83.9701C97.99 83.9701 98.77 84.6401 98.77 85.7101Z" fill="#CF87FF"/>
<path d="M186.06 48.2075C186.06 47.8355 185.94 47.5175 185.712 47.2835C185.472 47.0435 185.1 46.8995 184.608 46.8995L182.01 46.8995C181.878 46.8995 181.77 47.0015 181.77 47.1335C181.77 47.2655 181.878 47.3735 182.01 47.3735L184.614 47.3735C185.28 47.3735 185.622 47.7215 185.622 48.1955C185.622 48.5855 185.46 48.8315 185.148 49.0595C185.106 49.0955 185.064 49.1495 185.064 49.2275C185.064 49.3535 185.172 49.4615 185.298 49.4615C185.364 49.4615 185.424 49.4315 185.46 49.3955C185.808 49.1375 186.06 48.7595 186.06 48.2075ZM186.066 44.933C186.066 44.387 185.814 44.027 185.532 43.811L185.814 43.811C185.934 43.811 186.03 43.721 186.03 43.589C186.03 43.463 185.934 43.367 185.802 43.367L184.104 43.367C183.708 43.367 183.408 43.475 183.198 43.685C182.97 43.913 182.856 44.249 182.856 44.687C182.856 45.083 182.934 45.395 183.066 45.701C183.09 45.761 183.162 45.827 183.258 45.827C183.366 45.827 183.456 45.731 183.456 45.623C183.456 45.599 183.45 45.569 183.438 45.539C183.336 45.311 183.264 45.047 183.264 44.735C183.264 44.153 183.552 43.811 184.11 43.811L184.218 43.811C184.14 44.087 184.086 44.369 184.086 44.765C184.086 45.551 184.434 46.091 185.088 46.091L185.1 46.091C185.736 46.091 186.066 45.509 186.066 44.933ZM185.7 44.843C185.7 45.263 185.472 45.623 185.082 45.623L185.07 45.623C184.68 45.623 184.428 45.299 184.428 44.717C184.428 44.339 184.494 44.033 184.56 43.805L184.86 43.805C185.352 43.805 185.7 44.273 185.7 44.843ZM181.83 44.105C181.83 44.261 181.944 44.387 182.1 44.387L182.19 44.387C182.346 44.387 182.46 44.261 182.46 44.105C182.46 43.949 182.346 43.823 182.19 43.823L182.1 43.823C181.944 43.823 181.83 43.949 181.83 44.105ZM181.83 45.173C181.83 45.329 181.944 45.455 182.1 45.455L182.19 45.455C182.346 45.455 182.46 45.329 182.46 45.173C182.46 45.017 182.346 44.891 182.19 44.891L182.1 44.891C181.944 44.891 181.83 45.017 181.83 45.173ZM185.796 42.3824C185.928 42.3824 186.03 42.2804 186.03 42.1484C186.03 42.0164 185.922 41.9204 185.796 41.9204L184.74 41.9204C183.846 41.9204 183.396 41.4284 183.324 40.8284C183.306 40.7084 183.216 40.6244 183.09 40.6244C182.958 40.6244 182.856 40.7144 182.856 40.8524C182.856 41.2424 183.168 41.6924 183.684 41.9204L183.102 41.9204C182.97 41.9204 182.868 42.0224 182.868 42.1544C182.868 42.2804 182.976 42.3824 183.102 42.3824L185.796 42.3824ZM185.796 39.9508C185.928 39.9508 186.03 39.8488 186.03 39.7168C186.03 39.5848 185.928 39.4888 185.796 39.4888L184.224 39.4888C183.642 39.4888 183.252 39.0928 183.252 38.5588C183.252 38.0128 183.612 37.7008 184.188 37.7008L185.796 37.7008C185.928 37.7008 186.03 37.5988 186.03 37.4668C186.03 37.3408 185.928 37.2388 185.796 37.2388L184.074 37.2388C183.336 37.2388 182.832 37.6768 182.832 38.4268C182.832 38.9608 183.102 39.2848 183.438 39.4888L183.102 39.4888C182.97 39.4888 182.868 39.5908 182.868 39.7228C182.868 39.8488 182.976 39.9508 183.102 39.9508L185.796 39.9508ZM185.796 36.2535C185.928 36.2535 186.03 36.1515 186.03 36.0195C186.03 35.8875 185.928 35.7915 185.796 35.7915L184.23 35.7915C183.66 35.7915 183.252 35.4195 183.252 34.9275C183.252 34.4355 183.594 34.1295 184.176 34.1295L185.796 34.1295C185.928 34.1295 186.03 34.0275 186.03 33.9015C186.03 33.7695 185.928 33.6675 185.796 33.6675L184.212 33.6675C183.6 33.6675 183.252 33.2835 183.252 32.8155C183.252 32.3115 183.588 32.0115 184.188 32.0115L185.796 32.0115C185.928 32.0115 186.03 31.9095 186.03 31.7775C186.03 31.6515 185.928 31.5495 185.796 31.5495L184.08 31.5495C183.312 31.5495 182.832 31.9875 182.832 32.7015C182.832 33.2415 183.108 33.5715 183.45 33.7935C183.102 33.9615 182.832 34.2855 182.832 34.7895C182.832 35.3115 183.114 35.5875 183.42 35.7915L183.102 35.7915C182.97 35.7915 182.868 35.8935 182.868 36.0255C182.868 36.1515 182.976 36.2535 183.102 36.2535L185.796 36.2535ZM184.278 30.2705C183.672 30.2105 183.222 29.8025 183.222 29.2625C183.222 28.6445 183.714 28.3205 184.278 28.2725L184.278 30.2705ZM185.604 28.0205C185.562 27.9725 185.508 27.9485 185.454 27.9485C185.346 27.9485 185.256 28.0385 185.256 28.1525C185.256 28.2065 185.28 28.2485 185.31 28.2845C185.52 28.5125 185.67 28.7945 185.67 29.1785C185.67 29.7305 185.292 30.2045 184.62 30.2705L184.62 28.0265C184.62 27.9125 184.53 27.8105 184.404 27.8105C183.582 27.8105 182.832 28.3325 182.832 29.2505C182.832 30.1085 183.552 30.7385 184.446 30.7385L184.458 30.7385C185.418 30.7385 186.072 30.0425 186.072 29.1905C186.072 28.6625 185.886 28.3145 185.604 28.0205ZM186.054 25.9577C186.054 25.7777 186.024 25.6337 185.97 25.5017C185.94 25.4237 185.874 25.3697 185.79 25.3697C185.682 25.3697 185.592 25.4597 185.592 25.5677C185.592 25.6037 185.634 25.6877 185.634 25.8497C185.634 26.1617 185.496 26.3717 185.118 26.3717L183.306 26.3717L183.306 25.5677C183.306 25.4537 183.216 25.3577 183.102 25.3577C182.994 25.3577 182.898 25.4537 182.898 25.5677L182.898 26.3717L182.166 26.3717C182.04 26.3717 181.932 26.4797 181.932 26.6057C181.932 26.7377 182.04 26.8337 182.166 26.8337L182.898 26.8337L182.898 27.0857C182.898 27.1937 182.988 27.2897 183.102 27.2897C183.21 27.2897 183.306 27.1937 183.306 27.0857L183.306 26.8337L185.178 26.8337C185.808 26.8337 186.054 26.4557 186.054 25.9577ZM184.278 24.3818C183.672 24.3218 183.222 23.9138 183.222 23.3738C183.222 22.7558 183.714 22.4318 184.278 22.3838L184.278 24.3818ZM185.604 22.1318C185.562 22.0838 185.508 22.0598 185.454 22.0598C185.346 22.0598 185.256 22.1498 185.256 22.2638C185.256 22.3178 185.28 22.3598 185.31 22.3958C185.52 22.6238 185.67 22.9058 185.67 23.2898C185.67 23.8418 185.292 24.3158 184.62 24.3818L184.62 22.1378C184.62 22.0238 184.53 21.9218 184.404 21.9218C183.582 21.9218 182.832 22.4438 182.832 23.3618C182.832 24.2198 183.552 24.8498 184.446 24.8498L184.458 24.8498C185.418 24.8498 186.072 24.1538 186.072 23.3018C186.072 22.7738 185.886 22.4258 185.604 22.1318ZM186.072 19.691C186.072 18.755 185.328 18.065 184.452 18.065L184.44 18.065C183.564 18.065 182.832 18.749 182.832 19.679C182.832 20.615 183.576 21.299 184.452 21.299L184.464 21.299C185.34 21.299 186.072 20.621 186.072 19.691ZM185.658 19.679C185.658 20.333 185.118 20.825 184.452 20.825L184.44 20.825C183.786 20.825 183.24 20.363 183.24 19.691C183.24 19.037 183.786 18.539 184.452 18.539L184.464 18.539C185.118 18.539 185.658 19.007 185.658 19.679ZM185.796 17.2281C185.928 17.2281 186.03 17.1261 186.03 16.9941C186.03 16.8621 185.922 16.7661 185.796 16.7661L184.74 16.7661C183.846 16.7661 183.396 16.2741 183.324 15.6741C183.306 15.5541 183.216 15.4701 183.09 15.4701C182.958 15.4701 182.856 15.5601 182.856 15.6981C182.856 16.0881 183.168 16.5381 183.684 16.7661L183.102 16.7661C182.97 16.7661 182.868 16.8681 182.868 17.0001C182.868 17.1261 182.976 17.2281 183.102 17.2281L185.796 17.2281ZM182.004 14.7965C182.148 14.7965 182.25 14.6765 182.25 14.5265C182.25 14.3705 182.148 14.2505 182.004 14.2505L181.926 14.2505C181.776 14.2505 181.68 14.3705 181.68 14.5265C181.68 14.6765 181.776 14.7965 181.926 14.7965L182.004 14.7965ZM185.796 14.7545C185.928 14.7545 186.03 14.6525 186.03 14.5205C186.03 14.3885 185.928 14.2925 185.796 14.2925L183.102 14.2925C182.97 14.2925 182.868 14.3945 182.868 14.5265C182.868 14.6525 182.976 14.7545 183.102 14.7545L185.796 14.7545ZM186.054 12.1823C186.054 12.0023 186.024 11.8583 185.97 11.7263C185.94 11.6483 185.874 11.5943 185.79 11.5943C185.682 11.5943 185.592 11.6843 185.592 11.7923C185.592 11.8283 185.634 11.9123 185.634 12.0743C185.634 12.3863 185.496 12.5963 185.118 12.5963L183.306 12.5963L183.306 11.7923C183.306 11.6783 183.216 11.5823 183.102 11.5823C182.994 11.5823 182.898 11.6783 182.898 11.7923L182.898 12.5963L182.166 12.5963C182.04 12.5963 181.932 12.7043 181.932 12.8303C181.932 12.9623 182.04 13.0583 182.166 13.0583L182.898 13.0583L182.898 13.3103C182.898 13.4183 182.988 13.5143 183.102 13.5143C183.21 13.5143 183.306 13.4183 183.306 13.3103L183.306 13.0583L185.178 13.0583C185.808 13.0583 186.054 12.6803 186.054 12.1823Z" fill="#E2B7FF"/>
<path d="M115.66 28.8977C115.88 28.8977 116.05 28.7277 116.05 28.5177C116.05 28.2977 115.88 28.1277 115.66 28.1277L110.44 28.1277L113.72 25.8977C113.85 25.8077 113.92 25.6977 113.92 25.5577C113.92 25.4177 113.85 25.3177 113.72 25.2277L110.43 22.9877L115.65 22.9877C115.86 22.9877 116.05 22.8077 116.05 22.5877C116.05 22.3777 115.87 22.1977 115.65 22.1977L109.36 22.1977C109.15 22.1977 108.97 22.3777 108.97 22.5877L108.97 22.6777C108.97 22.8377 109.05 22.9677 109.18 23.0477L112.94 25.5477L109.18 28.0477C109.06 28.1277 108.97 28.2477 108.97 28.4177L108.97 28.5077C108.97 28.7177 109.15 28.8977 109.36 28.8977L115.66 28.8977ZM115.66 20.3461C115.87 20.3461 116.05 20.1761 116.05 19.9561C116.05 19.7361 115.87 19.5761 115.66 19.5761L115.01 19.5761C115.59 19.1761 116.11 18.5561 116.11 17.5961C116.11 16.3461 115.11 15.1261 113.42 15.1261L113.4 15.1261C111.7 15.1261 110.72 16.3561 110.72 17.5961C110.72 18.5461 111.25 19.1561 111.87 19.5761L109.04 19.5761C108.82 19.5761 108.65 19.7461 108.65 19.9661C108.65 20.1761 108.82 20.3461 109.04 20.3461L115.66 20.3461ZM115.42 17.7361C115.42 18.6961 114.62 19.6061 113.42 19.6061L113.4 19.6061C112.22 19.6061 111.41 18.6961 111.41 17.7361C111.41 16.7561 112.19 15.9161 113.41 15.9161L113.43 15.9161C114.68 15.9161 115.42 16.7361 115.42 17.7361ZM116.12 11.3454C116.12 9.78543 114.88 8.63543 113.42 8.63543L113.4 8.63543C111.94 8.63543 110.72 9.77543 110.72 11.3254C110.72 12.8854 111.96 14.0254 113.42 14.0254L113.44 14.0254C114.9 14.0254 116.12 12.8954 116.12 11.3454ZM115.43 11.3254C115.43 12.4154 114.53 13.2354 113.42 13.2354L113.4 13.2354C112.31 13.2354 111.4 12.4654 111.4 11.3454C111.4 10.2554 112.31 9.42543 113.42 9.42543L113.44 9.42543C114.53 9.42543 115.43 10.2054 115.43 11.3254ZM116 7.3659L116 3.5459C116 3.3659 115.85 3.2159 115.67 3.2159C115.5 3.2159 115.35 3.3659 115.35 3.5459L115.35 6.6959L111.51 3.4259C111.39 3.3159 111.29 3.2659 111.16 3.2659L111.14 3.2659C110.97 3.2659 110.83 3.4259 110.83 3.6359L110.83 7.3259C110.83 7.5059 110.98 7.6559 111.16 7.6559C111.34 7.6559 111.48 7.5059 111.48 7.3259L111.48 4.3059L115.32 7.5759C115.44 7.6859 115.54 7.7359 115.67 7.7359L115.69 7.7359C115.86 7.7359 116 7.5659 116 7.3659ZM109.34 1.87926C109.58 1.87926 109.75 1.67926 109.75 1.42926C109.75 1.16926 109.58 0.969258 109.34 0.969258L109.21 0.969258C108.96 0.969258 108.8 1.16926 108.8 1.42926C108.8 1.67926 108.96 1.87926 109.21 1.87926L109.34 1.87926ZM115.66 1.80926C115.88 1.80926 116.05 1.63926 116.05 1.41926C116.05 1.19926 115.88 1.03926 115.66 1.03926L111.17 1.03926C110.95 1.03926 110.78 1.20926 110.78 1.42926C110.78 1.63926 110.96 1.80926 111.17 1.80926L115.66 1.80926Z" fill="#CF87FF"/>
<path d="M36.9483 34.72C36.9483 34.896 37.0923 35.04 37.2603 35.04C37.4363 35.04 37.5803 34.896 37.5803 34.72V32.48H40.8123V34.72C40.8123 34.896 40.9563 35.04 41.1323 35.04C41.3003 35.04 41.4443 34.896 41.4443 34.72V29.68C41.4443 29.504 41.3003 29.36 41.1323 29.36C40.9563 29.36 40.8123 29.504 40.8123 29.68V31.888H37.5803V29.68C37.5803 29.504 37.4363 29.36 37.2603 29.36C37.0923 29.36 36.9483 29.504 36.9483 29.68V34.72ZM44.8104 35.096C46.0584 35.096 46.9784 34.104 46.9784 32.936V32.92C46.9784 31.752 46.0664 30.776 44.8264 30.776C43.5784 30.776 42.6664 31.768 42.6664 32.936V32.952C42.6664 34.12 43.5704 35.096 44.8104 35.096ZM44.8264 34.544C43.9544 34.544 43.2984 33.824 43.2984 32.936V32.92C43.2984 32.048 43.9144 31.32 44.8104 31.32C45.6824 31.32 46.3464 32.048 46.3464 32.936V32.952C46.3464 33.824 45.7224 34.544 44.8264 34.544ZM48.0943 34.728C48.0943 34.896 48.2303 35.04 48.4062 35.04C48.5822 35.04 48.7103 34.896 48.7103 34.728V34.208C49.0303 34.672 49.5263 35.088 50.2943 35.088C51.2943 35.088 52.2703 34.288 52.2703 32.936V32.92C52.2703 31.56 51.2863 30.776 50.2943 30.776C49.5343 30.776 49.0463 31.2 48.7103 31.696V29.432C48.7103 29.256 48.5743 29.12 48.3983 29.12C48.2303 29.12 48.0943 29.256 48.0943 29.432V34.728ZM50.1823 34.536C49.4143 34.536 48.6863 33.896 48.6863 32.936V32.92C48.6863 31.976 49.4143 31.328 50.1823 31.328C50.9663 31.328 51.6383 31.952 51.6383 32.928V32.944C51.6383 33.944 50.9823 34.536 50.1823 34.536ZM54.6388 35.088C55.3668 35.088 55.8468 34.752 56.1348 34.376V34.752C56.1348 34.912 56.2548 35.04 56.4308 35.04C56.5988 35.04 56.7268 34.912 56.7268 34.736V32.472C56.7268 31.944 56.5828 31.544 56.3028 31.264C55.9988 30.96 55.5508 30.808 54.9668 30.808C54.4388 30.808 54.0228 30.912 53.6148 31.088C53.5348 31.12 53.4468 31.216 53.4468 31.344C53.4468 31.488 53.5748 31.608 53.7188 31.608C53.7508 31.608 53.7908 31.6 53.8308 31.584C54.1348 31.448 54.4868 31.352 54.9028 31.352C55.6788 31.352 56.1348 31.736 56.1348 32.48V32.624C55.7668 32.52 55.3908 32.448 54.8628 32.448C53.8148 32.448 53.0948 32.912 53.0948 33.784V33.8C53.0948 34.648 53.8708 35.088 54.6388 35.088ZM54.7588 34.6C54.1988 34.6 53.7188 34.296 53.7188 33.776V33.76C53.7188 33.24 54.1508 32.904 54.9268 32.904C55.4308 32.904 55.8388 32.992 56.1428 33.08V33.48C56.1428 34.136 55.5188 34.6 54.7588 34.6ZM58.0396 34.728C58.0396 34.904 58.1756 35.04 58.3516 35.04C58.5276 35.04 58.6556 34.904 58.6556 34.728V32.64C58.6556 31.88 59.1516 31.336 59.8076 31.336C60.4636 31.336 60.8716 31.792 60.8716 32.568V34.728C60.8716 34.904 61.0076 35.04 61.1756 35.04C61.3516 35.04 61.4876 34.904 61.4876 34.728V32.616C61.4876 31.8 61.9996 31.336 62.6236 31.336C63.2956 31.336 63.6956 31.784 63.6956 32.584V34.728C63.6956 34.904 63.8316 35.04 64.0076 35.04C64.1756 35.04 64.3116 34.904 64.3116 34.728V32.44C64.3116 31.416 63.7276 30.776 62.7756 30.776C62.0556 30.776 61.6156 31.144 61.3196 31.6C61.0956 31.136 60.6636 30.776 59.9916 30.776C59.2956 30.776 58.9276 31.152 58.6556 31.56V31.136C58.6556 30.96 58.5196 30.824 58.3436 30.824C58.1756 30.824 58.0396 30.968 58.0396 31.136V34.728ZM66.0169 32.704C66.0969 31.896 66.6409 31.296 67.3609 31.296C68.1849 31.296 68.6169 31.952 68.6809 32.704H66.0169ZM69.0169 34.472C69.0809 34.416 69.1129 34.344 69.1129 34.272C69.1129 34.128 68.9929 34.008 68.8409 34.008C68.7689 34.008 68.7129 34.04 68.6649 34.08C68.3609 34.36 67.9849 34.56 67.4729 34.56C66.7369 34.56 66.1049 34.056 66.0169 33.16H69.0089C69.1609 33.16 69.2969 33.04 69.2969 32.872C69.2969 31.776 68.6009 30.776 67.3769 30.776C66.2329 30.776 65.3929 31.736 65.3929 32.928V32.944C65.3929 34.224 66.3209 35.096 67.4569 35.096C68.1609 35.096 68.6249 34.848 69.0169 34.472ZM71.7673 35.072C72.0073 35.072 72.1993 35.032 72.3753 34.96C72.4793 34.92 72.5513 34.832 72.5513 34.72C72.5513 34.576 72.4313 34.456 72.2873 34.456C72.2393 34.456 72.1273 34.512 71.9113 34.512C71.4953 34.512 71.2153 34.328 71.2153 33.824V31.408H72.2873C72.4393 31.408 72.5673 31.288 72.5673 31.136C72.5673 30.992 72.4393 30.864 72.2873 30.864H71.2153V29.888C71.2153 29.72 71.0713 29.576 70.9033 29.576C70.7273 29.576 70.5993 29.72 70.5993 29.888V30.864H70.2633C70.1193 30.864 69.9913 30.984 69.9913 31.136C69.9913 31.28 70.1193 31.408 70.2633 31.408H70.5993V33.904C70.5993 34.744 71.1033 35.072 71.7673 35.072ZM73.8685 32.704C73.9485 31.896 74.4925 31.296 75.2125 31.296C76.0365 31.296 76.4685 31.952 76.5325 32.704H73.8685ZM76.8685 34.472C76.9325 34.416 76.9645 34.344 76.9645 34.272C76.9645 34.128 76.8445 34.008 76.6925 34.008C76.6205 34.008 76.5645 34.04 76.5165 34.08C76.2125 34.36 75.8365 34.56 75.3245 34.56C74.5885 34.56 73.9565 34.056 73.8685 33.16H76.8605C77.0125 33.16 77.1485 33.04 77.1485 32.872C77.1485 31.776 76.4525 30.776 75.2285 30.776C74.0845 30.776 73.2445 31.736 73.2445 32.928V32.944C73.2445 34.224 74.1725 35.096 75.3085 35.096C76.0125 35.096 76.4765 34.848 76.8685 34.472ZM80.1229 35.096C81.3709 35.096 82.2909 34.104 82.2909 32.936V32.92C82.2909 31.752 81.3789 30.776 80.1389 30.776C78.8909 30.776 77.9789 31.768 77.9789 32.936V32.952C77.9789 34.12 78.8829 35.096 80.1229 35.096ZM80.1389 34.544C79.2669 34.544 78.6109 33.824 78.6109 32.936V32.92C78.6109 32.048 79.2269 31.32 80.1229 31.32C80.9949 31.32 81.6589 32.048 81.6589 32.936V32.952C81.6589 33.824 81.0349 34.544 80.1389 34.544ZM83.4068 34.728C83.4068 34.904 83.5428 35.04 83.7188 35.04C83.8947 35.04 84.0228 34.896 84.0228 34.728V33.32C84.0228 32.128 84.6788 31.528 85.4788 31.432C85.6388 31.408 85.7508 31.288 85.7508 31.12C85.7508 30.944 85.6308 30.808 85.4468 30.808C84.9268 30.808 84.3268 31.224 84.0228 31.912V31.136C84.0228 30.96 83.8868 30.824 83.7108 30.824C83.5428 30.824 83.4068 30.968 83.4068 31.136V34.728ZM86.6489 29.672C86.6489 29.864 86.8089 30 87.0089 30C87.2169 30 87.3769 29.864 87.3769 29.672V29.568C87.3769 29.368 87.2169 29.24 87.0089 29.24C86.8089 29.24 86.6489 29.368 86.6489 29.568V29.672ZM86.7049 34.728C86.7049 34.904 86.8409 35.04 87.0169 35.04C87.1929 35.04 87.3209 34.904 87.3209 34.728V31.136C87.3209 30.96 87.1849 30.824 87.0089 30.824C86.8409 30.824 86.7049 30.968 86.7049 31.136V34.728ZM90.1345 35.072C90.3745 35.072 90.5665 35.032 90.7425 34.96C90.8465 34.92 90.9185 34.832 90.9185 34.72C90.9185 34.576 90.7985 34.456 90.6545 34.456C90.6065 34.456 90.4945 34.512 90.2785 34.512C89.8625 34.512 89.5825 34.328 89.5825 33.824V31.408H90.6545C90.8065 31.408 90.9345 31.288 90.9345 31.136C90.9345 30.992 90.8065 30.864 90.6545 30.864H89.5825V29.888C89.5825 29.72 89.4385 29.576 89.2705 29.576C89.0945 29.576 88.9665 29.72 88.9665 29.888V30.864H88.6305C88.4865 30.864 88.3585 30.984 88.3585 31.136C88.3585 31.28 88.4865 31.408 88.6305 31.408H88.9665V33.904C88.9665 34.744 89.4705 35.072 90.1345 35.072ZM92.2357 32.704C92.3157 31.896 92.8597 31.296 93.5797 31.296C94.4037 31.296 94.8357 31.952 94.8997 32.704H92.2357ZM95.2357 34.472C95.2997 34.416 95.3317 34.344 95.3317 34.272C95.3317 34.128 95.2117 34.008 95.0597 34.008C94.9877 34.008 94.9317 34.04 94.8837 34.08C94.5797 34.36 94.2037 34.56 93.6917 34.56C92.9557 34.56 92.3237 34.056 92.2357 33.16H95.2277C95.3797 33.16 95.5157 33.04 95.5157 32.872C95.5157 31.776 94.8197 30.776 93.5957 30.776C92.4517 30.776 91.6117 31.736 91.6117 32.928V32.944C91.6117 34.224 92.5397 35.096 93.6757 35.096C94.3797 35.096 94.8437 34.848 95.2357 34.472ZM96.6021 34.728C96.6021 34.904 96.7381 35.04 96.9141 35.04C97.0901 35.04 97.2181 34.904 97.2181 34.728V32.632C97.2181 31.856 97.7461 31.336 98.4581 31.336C99.1861 31.336 99.6021 31.816 99.6021 32.584V34.728C99.6021 34.904 99.7381 35.04 99.9141 35.04C100.082 35.04 100.218 34.904 100.218 34.728V32.432C100.218 31.448 99.6341 30.776 98.6341 30.776C97.9221 30.776 97.4901 31.136 97.2181 31.584V31.136C97.2181 30.96 97.0821 30.824 96.9061 30.824C96.7381 30.824 96.6021 30.968 96.6021 31.136V34.728Z" fill="#D99FFF"/>
<path d="M108.763 49.184C108.763 49.688 109.171 50.12 109.675 50.12C110.203 50.12 110.611 49.688 110.611 49.184V36.176L121.027 49.496C121.315 49.832 121.603 50.072 122.011 50.072H122.107C122.611 50.072 122.971 49.688 122.971 49.184V34.016C122.971 33.512 122.563 33.08 122.059 33.08C121.531 33.08 121.123 33.512 121.123 34.016V46.688L110.923 33.68C110.659 33.344 110.395 33.128 109.963 33.128H109.699C109.195 33.128 108.763 33.56 108.763 34.064V49.184ZM132.092 49.4C132.26 49.904 132.596 50.216 133.076 50.216H133.22C133.7 50.216 134.036 49.88 134.204 49.4L138.548 36.488L142.916 49.4C143.084 49.88 143.42 50.216 143.9 50.216H144.044C144.524 50.216 144.86 49.88 145.028 49.4L150.404 34.472C150.452 34.328 150.524 34.16 150.524 34.016C150.524 33.536 150.068 33.08 149.564 33.08C149.108 33.08 148.796 33.392 148.652 33.824L143.996 47.216L139.604 33.824C139.46 33.392 139.148 33.08 138.668 33.08H138.548C138.044 33.08 137.756 33.392 137.612 33.824L133.22 47.216L128.588 33.872C128.444 33.44 128.084 33.08 127.604 33.08C127.076 33.08 126.62 33.536 126.62 34.04C126.62 34.184 126.668 34.328 126.716 34.472L132.092 49.4ZM151.017 49.256C151.017 49.736 151.401 50.12 151.881 50.12C152.313 50.12 152.625 49.88 152.793 49.472L154.545 45.56H163.761L165.513 49.424C165.681 49.808 165.993 50.12 166.449 50.12C166.953 50.12 167.361 49.712 167.361 49.208C167.361 49.064 167.313 48.896 167.241 48.728L160.425 33.848C160.209 33.32 159.825 33.008 159.249 33.008H159.153C158.553 33.008 158.193 33.32 157.953 33.848L151.137 48.752C151.041 48.944 151.017 49.112 151.017 49.256ZM155.289 43.832L159.153 35.24L163.017 43.832H155.289Z" fill="#AD31FF"/>
<path d="M7.94225 97.16C7.94225 97.688 8.37425 98.12 8.90225 98.12C9.43025 98.12 9.86225 97.688 9.86225 97.16V91.352L16.0783 82.712C16.1983 82.52 16.3423 82.256 16.3423 82.016C16.3423 81.512 15.9343 81.08 15.4062 81.08C14.9983 81.08 14.7583 81.32 14.5182 81.656L8.92625 89.648L3.38225 81.656C3.14225 81.32 2.87825 81.08 2.47025 81.08C1.94225 81.08 1.48625 81.512 1.48625 82.016C1.48625 82.256 1.58225 82.472 1.70225 82.664L7.94225 91.4V97.16ZM20.9788 98.264C23.1628 98.264 24.6028 97.256 25.4668 96.128V97.256C25.4668 97.736 25.8268 98.12 26.3548 98.12C26.8588 98.12 27.2428 97.736 27.2428 97.208V90.416C27.2428 88.832 26.8108 87.632 25.9708 86.792C25.0588 85.88 23.7148 85.424 21.9628 85.424C20.3788 85.424 19.1308 85.736 17.9068 86.264C17.6668 86.36 17.4028 86.648 17.4028 87.032C17.4028 87.464 17.7868 87.824 18.2188 87.824C18.3148 87.824 18.4348 87.8 18.5548 87.752C19.4668 87.344 20.5228 87.056 21.7708 87.056C24.0988 87.056 25.4668 88.208 25.4668 90.44V90.872C24.3628 90.56 23.2348 90.344 21.6508 90.344C18.5068 90.344 16.3468 91.736 16.3468 94.352V94.4C16.3468 96.944 18.6748 98.264 20.9788 98.264ZM21.3388 96.8C19.6588 96.8 18.2188 95.888 18.2188 94.328V94.28C18.2188 92.72 19.5148 91.712 21.8428 91.712C23.3548 91.712 24.5788 91.976 25.4908 92.24V93.44C25.4908 95.408 23.6188 96.8 21.3388 96.8ZM31.1812 97.184C31.1812 97.712 31.5892 98.12 32.1172 98.12C32.6452 98.12 33.0292 97.712 33.0292 97.184V90.92C33.0292 88.64 34.5172 87.008 36.4852 87.008C38.4532 87.008 39.6772 88.376 39.6772 90.704V97.184C39.6772 97.712 40.0852 98.12 40.5892 98.12C41.1172 98.12 41.5252 97.712 41.5252 97.184V90.848C41.5252 88.4 43.0612 87.008 44.9332 87.008C46.9492 87.008 48.1492 88.352 48.1492 90.752V97.184C48.1492 97.712 48.5572 98.12 49.0852 98.12C49.5892 98.12 49.9972 97.712 49.9972 97.184V90.32C49.9972 87.248 48.2452 85.328 45.3892 85.328C43.2292 85.328 41.9092 86.432 41.0212 87.8C40.3492 86.408 39.0532 85.328 37.0372 85.328C34.9492 85.328 33.8452 86.456 33.0292 87.68V86.408C33.0292 85.88 32.6212 85.472 32.0932 85.472C31.5892 85.472 31.1812 85.904 31.1812 86.408V97.184ZM57.7053 98.264C59.8893 98.264 61.3293 97.256 62.1933 96.128V97.256C62.1933 97.736 62.5533 98.12 63.0813 98.12C63.5853 98.12 63.9693 97.736 63.9693 97.208V90.416C63.9693 88.832 63.5373 87.632 62.6973 86.792C61.7853 85.88 60.4413 85.424 58.6893 85.424C57.1053 85.424 55.8573 85.736 54.6333 86.264C54.3933 86.36 54.1293 86.648 54.1293 87.032C54.1293 87.464 54.5133 87.824 54.9453 87.824C55.0413 87.824 55.1613 87.8 55.2813 87.752C56.1933 87.344 57.2493 87.056 58.4973 87.056C60.8253 87.056 62.1933 88.208 62.1933 90.44V90.872C61.0893 90.56 59.9613 90.344 58.3773 90.344C55.2333 90.344 53.0733 91.736 53.0733 94.352V94.4C53.0733 96.944 55.4013 98.264 57.7053 98.264ZM58.0653 96.8C56.3853 96.8 54.9453 95.888 54.9453 94.328V94.28C54.9453 92.72 56.2413 91.712 58.5693 91.712C60.0813 91.712 61.3053 91.976 62.2173 92.24V93.44C62.2173 95.408 60.3453 96.8 58.0653 96.8ZM71.9426 98.216C72.6626 98.216 73.2386 98.096 73.7666 97.88C74.0786 97.76 74.2946 97.496 74.2946 97.16C74.2946 96.728 73.9346 96.368 73.5026 96.368C73.3586 96.368 73.0226 96.536 72.3746 96.536C71.1266 96.536 70.2866 95.984 70.2866 94.472V87.224H73.5026C73.9586 87.224 74.3426 86.864 74.3426 86.408C74.3426 85.976 73.9586 85.592 73.5026 85.592H70.2866V82.664C70.2866 82.16 69.8546 81.728 69.3506 81.728C68.8226 81.728 68.4386 82.16 68.4386 82.664V85.592H67.4306C66.9986 85.592 66.6146 85.952 66.6146 86.408C66.6146 86.84 66.9986 87.224 67.4306 87.224H68.4386V94.712C68.4386 97.232 69.9506 98.216 71.9426 98.216ZM82.8061 98.288C86.5501 98.288 89.3101 95.312 89.3101 91.808V91.76C89.3101 88.256 86.5741 85.328 82.8541 85.328C79.1101 85.328 76.3741 88.304 76.3741 91.808V91.856C76.3741 95.36 79.0861 98.288 82.8061 98.288ZM82.8541 96.632C80.2381 96.632 78.2701 94.472 78.2701 91.808V91.76C78.2701 89.144 80.1181 86.96 82.8061 86.96C85.4221 86.96 87.4141 89.144 87.4141 91.808V91.856C87.4141 94.472 85.5421 96.632 82.8541 96.632Z" fill="#AD31FF"/>
<path d="M177.69 48.4353C177.89 48.4353 178.05 48.2753 178.05 48.0753C178.05 47.8953 177.95 47.7653 177.78 47.6953L176.15 46.9653L176.15 43.1253L177.76 42.3953C177.92 42.3253 178.05 42.1953 178.05 42.0053C178.05 41.7953 177.88 41.6253 177.67 41.6253C177.61 41.6253 177.54 41.6453 177.47 41.6753L171.27 44.5153C171.05 44.6053 170.92 44.7653 170.92 45.0053L170.92 45.0453C170.92 45.2953 171.05 45.4453 171.27 45.5453L177.48 48.3853C177.56 48.4253 177.63 48.4353 177.69 48.4353ZM175.43 46.6553L171.85 45.0453L175.43 43.4353L175.43 46.6553ZM179.62 38.1684C179.62 37.3484 179.39 36.6584 178.93 36.1984C178.51 35.7784 177.9 35.5384 177.1 35.5384L173.17 35.5384C172.96 35.5384 172.78 35.7084 172.78 35.9284C172.78 36.1484 172.96 36.3084 173.17 36.3084L173.76 36.3084C173.2 36.7284 172.72 37.3584 172.72 38.3284C172.72 39.5584 173.65 40.7584 175.16 40.7584L175.18 40.7584C176.67 40.7584 177.6 39.5684 177.6 38.3284C177.6 37.3784 177.11 36.7484 176.51 36.2984L177.12 36.2984C178.33 36.2984 178.96 37.0384 178.96 38.1784C178.96 38.8484 178.76 39.4684 178.4 40.0084C178.37 40.0584 178.35 40.1084 178.35 40.1784C178.35 40.3584 178.52 40.5284 178.69 40.5284C178.83 40.5284 178.95 40.4484 179.01 40.3284C179.41 39.6784 179.62 38.9584 179.62 38.1684ZM176.92 38.1784C176.92 39.1384 176.2 39.9684 175.16 39.9684L175.14 39.9684C174.08 39.9684 173.4 39.1584 173.4 38.1784C173.4 37.1984 174.09 36.2784 175.15 36.2784L175.17 36.2784C176.21 36.2784 176.92 37.1984 176.92 38.1784ZM179.26 33.8177C179.48 33.8177 179.65 33.6477 179.65 33.4277C179.65 33.2077 179.48 33.0477 179.26 33.0477L177.01 33.0477C177.59 32.6477 178.11 32.0277 178.11 31.0677C178.11 29.8177 177.11 28.5977 175.42 28.5977L175.4 28.5977C173.7 28.5977 172.72 29.8277 172.72 31.0677C172.72 32.0177 173.25 32.6277 173.87 33.0477L173.17 33.0477C172.95 33.0477 172.78 33.2177 172.78 33.4377C172.78 33.6477 172.95 33.8177 173.17 33.8177L179.26 33.8177ZM177.42 31.2077C177.42 32.1677 176.62 33.0777 175.42 33.0777L175.4 33.0777C174.22 33.0777 173.41 32.1677 173.41 31.2077C173.41 30.2277 174.19 29.3877 175.41 29.3877L175.43 29.3877C176.68 29.3877 177.42 30.2077 177.42 31.2077ZM178.11 25.6371C178.11 24.7271 177.69 24.1271 177.22 23.7671L177.69 23.7671C177.89 23.7671 178.05 23.6171 178.05 23.3971C178.05 23.1871 177.89 23.0271 177.67 23.0271L174.84 23.0271C174.18 23.0271 173.68 23.2071 173.33 23.5571C172.95 23.9371 172.76 24.4971 172.76 25.2271C172.76 25.8871 172.89 26.4071 173.11 26.9171C173.15 27.0171 173.27 27.1271 173.43 27.1271C173.61 27.1271 173.76 26.9671 173.76 26.7871C173.76 26.7471 173.75 26.6971 173.73 26.6471C173.56 26.2671 173.44 25.8271 173.44 25.3071C173.44 24.3371 173.92 23.7671 174.85 23.7671L175.03 23.7671C174.9 24.2271 174.81 24.6971 174.81 25.3571C174.81 26.6671 175.39 27.5671 176.48 27.5671L176.5 27.5671C177.56 27.5671 178.11 26.5971 178.11 25.6371ZM177.5 25.4871C177.5 26.1871 177.12 26.7871 176.47 26.7871L176.45 26.7871C175.8 26.7871 175.38 26.2471 175.38 25.2771C175.38 24.6471 175.49 24.1371 175.6 23.7571L176.1 23.7571C176.92 23.7571 177.5 24.5371 177.5 25.4871ZM177.66 21.3161C177.88 21.3161 178.05 21.1461 178.05 20.9261C178.05 20.7061 177.88 20.5461 177.66 20.5461L171.04 20.5461C170.83 20.5461 170.65 20.7161 170.65 20.9361C170.65 21.1461 170.83 21.3161 171.04 21.3161L177.66 21.3161ZM171.34 18.7591C171.58 18.7591 171.75 18.5591 171.75 18.3091C171.75 18.0491 171.58 17.8491 171.34 17.8491L171.21 17.8491C170.96 17.8491 170.8 18.0491 170.8 18.3091C170.8 18.5591 170.96 18.7591 171.21 18.7591L171.34 18.7591ZM177.66 18.6891C177.88 18.6891 178.05 18.5191 178.05 18.2991C178.05 18.0791 177.88 17.9191 177.66 17.9191L173.17 17.9191C172.95 17.9191 172.78 18.0891 172.78 18.3091C172.78 18.5191 172.96 18.6891 173.17 18.6891L177.66 18.6891ZM177.66 16.0622C177.88 16.0622 178.05 15.8922 178.05 15.6722C178.05 15.4522 177.88 15.2922 177.66 15.2922L171.04 15.2922C170.83 15.2922 170.65 15.4622 170.65 15.6822C170.65 15.8922 170.83 16.0622 171.04 16.0622L177.66 16.0622ZM171.34 13.5052C171.58 13.5052 171.75 13.3052 171.75 13.0552C171.75 12.7952 171.58 12.5952 171.34 12.5952L171.21 12.5952C170.96 12.5952 170.8 12.7952 170.8 13.0552C170.8 13.3052 170.96 13.5052 171.21 13.5052L171.34 13.5052ZM177.66 13.4352C177.88 13.4352 178.05 13.2652 178.05 13.0452C178.05 12.8252 177.88 12.6652 177.66 12.6652L173.17 12.6652C172.95 12.6652 172.78 12.8352 172.78 13.0552C172.78 13.2652 172.96 13.4352 173.17 13.4352L177.66 13.4352ZM177.66 10.8783C177.88 10.8783 178.05 10.7083 178.05 10.4883C178.05 10.2683 177.88 10.1083 177.66 10.1083L176.67 10.1083L175.61 9.03828L177.87 7.24828C178 7.14828 178.05 7.05828 178.05 6.91828C178.05 6.70828 177.9 6.54828 177.69 6.54828C177.59 6.54828 177.52 6.57828 177.43 6.64828L175.1 8.49828L173.44 6.80828C173.34 6.70828 173.26 6.65828 173.14 6.65828C172.95 6.65828 172.78 6.79828 172.78 7.00828C172.78 7.12828 172.83 7.21828 172.93 7.30828L175.78 10.1083L171.04 10.1083C170.83 10.1083 170.65 10.2783 170.65 10.4983C170.65 10.7083 170.83 10.8783 171.04 10.8783L177.66 10.8783Z" fill="#CF87FF"/>
<path d="M32.3804 111.12C33.5304 111.12 34.2904 110.72 34.9804 110.09C35.0504 110.03 35.1104 109.93 35.1104 109.81C35.1104 109.61 34.9304 109.43 34.7304 109.43C34.6304 109.43 34.5404 109.48 34.4804 109.54C33.8804 110.09 33.2704 110.39 32.4004 110.39C30.8604 110.39 29.6904 109.12 29.6904 107.5V107.48C29.6904 105.87 30.8504 104.61 32.4004 104.61C33.2604 104.61 33.8704 104.93 34.4104 105.41C34.4704 105.45 34.5604 105.5 34.6704 105.5C34.8804 105.5 35.0704 105.32 35.0704 105.11C35.0704 104.97 34.9904 104.86 34.9104 104.79C34.2604 104.25 33.5404 103.88 32.4104 103.88C30.3504 103.88 28.8704 105.52 28.8704 107.5V107.52C28.8704 109.53 30.3604 111.12 32.3804 111.12ZM36.4332 110.66C36.4332 110.88 36.6032 111.05 36.8232 111.05C37.0432 111.05 37.2032 110.88 37.2032 110.66V108.04C37.2032 107.07 37.8632 106.42 38.7532 106.42C39.6632 106.42 40.1832 107.02 40.1832 107.98V110.66C40.1832 110.88 40.3532 111.05 40.5732 111.05C40.7832 111.05 40.9532 110.88 40.9532 110.66V107.79C40.9532 106.56 40.2232 105.72 38.9732 105.72C38.0832 105.72 37.5432 106.17 37.2032 106.73V104.04C37.2032 103.83 37.0332 103.65 36.8132 103.65C36.6032 103.65 36.4332 103.83 36.4332 104.04V110.66ZM43.0554 108.13C43.1554 107.12 43.8354 106.37 44.7354 106.37C45.7654 106.37 46.3054 107.19 46.3854 108.13H43.0554ZM46.8054 110.34C46.8854 110.27 46.9254 110.18 46.9254 110.09C46.9254 109.91 46.7754 109.76 46.5854 109.76C46.4954 109.76 46.4254 109.8 46.3654 109.85C45.9854 110.2 45.5154 110.45 44.8754 110.45C43.9554 110.45 43.1654 109.82 43.0554 108.7H46.7954C46.9854 108.7 47.1554 108.55 47.1554 108.34C47.1554 106.97 46.2854 105.72 44.7554 105.72C43.3254 105.72 42.2754 106.92 42.2754 108.41V108.43C42.2754 110.03 43.4354 111.12 44.8554 111.12C45.7354 111.12 46.3154 110.81 46.8054 110.34ZM49.0387 112.63C49.8187 112.63 50.3187 112.24 50.7687 111.17L52.7887 106.35C52.8087 106.29 52.8287 106.22 52.8287 106.16C52.8287 105.95 52.6587 105.78 52.4487 105.78C52.2487 105.78 52.1387 105.91 52.0787 106.07L50.4787 110.14L48.6787 106.08C48.6087 105.91 48.4987 105.78 48.2887 105.78C48.0687 105.78 47.8987 105.95 47.8987 106.16C47.8987 106.23 47.9187 106.3 47.9487 106.37L50.1087 110.95L50.0687 111.03C49.7887 111.66 49.5087 111.95 49.0287 111.95C48.7687 111.95 48.6187 111.91 48.4687 111.86C48.4087 111.84 48.3487 111.82 48.2787 111.82C48.1087 111.82 47.9487 111.96 47.9487 112.15C47.9487 112.33 48.0687 112.43 48.1887 112.48C48.4487 112.57 48.6987 112.63 49.0387 112.63ZM54.2279 110.66C54.2279 110.88 54.3979 111.05 54.6179 111.05C54.8379 111.05 54.9979 110.88 54.9979 110.66V104.04C54.9979 103.83 54.8279 103.65 54.6079 103.65C54.3979 103.65 54.2279 103.83 54.2279 104.04V110.66ZM58.3248 111.11C59.2348 111.11 59.8348 110.69 60.1948 110.22V110.69C60.1948 110.89 60.3448 111.05 60.5648 111.05C60.7748 111.05 60.9348 110.89 60.9348 110.67V107.84C60.9348 107.18 60.7548 106.68 60.4048 106.33C60.0248 105.95 59.4648 105.76 58.7348 105.76C58.0748 105.76 57.5548 105.89 57.0448 106.11C56.9448 106.15 56.8348 106.27 56.8348 106.43C56.8348 106.61 56.9948 106.76 57.1748 106.76C57.2148 106.76 57.2648 106.75 57.3148 106.73C57.6948 106.56 58.1348 106.44 58.6548 106.44C59.6248 106.44 60.1948 106.92 60.1948 107.85V108.03C59.7348 107.9 59.2648 107.81 58.6048 107.81C57.2948 107.81 56.3948 108.39 56.3948 109.48V109.5C56.3948 110.56 57.3648 111.11 58.3248 111.11ZM58.4748 110.5C57.7748 110.5 57.1748 110.12 57.1748 109.47V109.45C57.1748 108.8 57.7148 108.38 58.6848 108.38C59.3148 108.38 59.8248 108.49 60.2048 108.6V109.1C60.2048 109.92 59.4248 110.5 58.4748 110.5ZM62.5758 110.66C62.5758 110.87 62.7458 111.05 62.9658 111.05C63.1858 111.05 63.3458 110.87 63.3458 110.66V110.01C63.7458 110.59 64.3658 111.11 65.3258 111.11C66.5758 111.11 67.7958 110.11 67.7958 108.42V108.4C67.7958 106.7 66.5658 105.72 65.3258 105.72C64.3758 105.72 63.7658 106.25 63.3458 106.87V104.04C63.3458 103.82 63.1758 103.65 62.9558 103.65C62.7458 103.65 62.5758 103.82 62.5758 104.04V110.66ZM65.1858 110.42C64.2258 110.42 63.3158 109.62 63.3158 108.42V108.4C63.3158 107.22 64.2258 106.41 65.1858 106.41C66.1658 106.41 67.0058 107.19 67.0058 108.41V108.43C67.0058 109.68 66.1858 110.42 65.1858 110.42ZM69.2164 104.34C69.2164 104.58 69.4164 104.75 69.6664 104.75C69.9264 104.75 70.1264 104.58 70.1264 104.34V104.21C70.1264 103.96 69.9264 103.8 69.6664 103.8C69.4164 103.8 69.2164 103.96 69.2164 104.21V104.34ZM69.2864 110.66C69.2864 110.88 69.4564 111.05 69.6764 111.05C69.8964 111.05 70.0564 110.88 70.0564 110.66V106.17C70.0564 105.95 69.8864 105.78 69.6664 105.78C69.4564 105.78 69.2864 105.96 69.2864 106.17V110.66ZM71.8434 110.66C71.8434 110.88 72.0134 111.05 72.2334 111.05C72.4534 111.05 72.6134 110.88 72.6134 110.66V108.04C72.6134 107.07 73.2734 106.42 74.1634 106.42C75.0734 106.42 75.5934 107.02 75.5934 107.98V110.66C75.5934 110.88 75.7634 111.05 75.9834 111.05C76.1934 111.05 76.3634 110.88 76.3634 110.66V107.79C76.3634 106.56 75.6334 105.72 74.3834 105.72C73.4934 105.72 72.9534 106.17 72.6134 106.73V106.17C72.6134 105.95 72.4434 105.78 72.2234 105.78C72.0134 105.78 71.8434 105.96 71.8434 106.17V110.66ZM79.7155 111.1C80.7455 111.1 81.5555 110.53 81.5555 109.55V109.53C81.5555 108.6 80.6955 108.29 79.8955 108.05C79.2055 107.84 78.5655 107.65 78.5655 107.16V107.14C78.5655 106.71 78.9555 106.39 79.5655 106.39C80.0055 106.39 80.4755 106.54 80.9155 106.79C80.9555 106.81 81.0155 106.83 81.0855 106.83C81.2755 106.83 81.4255 106.68 81.4255 106.5C81.4255 106.35 81.3355 106.24 81.2355 106.18C80.7355 105.91 80.1355 105.74 79.5855 105.74C78.5655 105.74 77.8255 106.33 77.8255 107.22V107.24C77.8255 108.19 78.7255 108.47 79.5355 108.7C80.2155 108.89 80.8255 109.09 80.8255 109.61V109.63C80.8255 110.13 80.3755 110.45 79.7555 110.45C79.1955 110.45 78.6455 110.26 78.1155 109.9C78.0655 109.86 77.9955 109.84 77.9255 109.84C77.7355 109.84 77.5855 109.99 77.5855 110.17C77.5855 110.3 77.6555 110.4 77.7255 110.45C78.2855 110.85 79.0355 111.1 79.7155 111.1ZM82.986 110.66C82.986 110.88 83.156 111.05 83.376 111.05C83.596 111.05 83.756 110.88 83.756 110.66V109.67L84.826 108.61L86.616 110.87C86.716 111 86.806 111.05 86.946 111.05C87.156 111.05 87.316 110.9 87.316 110.69C87.316 110.59 87.286 110.52 87.216 110.43L85.366 108.1L87.056 106.44C87.156 106.34 87.206 106.26 87.206 106.14C87.206 105.95 87.066 105.78 86.856 105.78C86.736 105.78 86.646 105.83 86.556 105.93L83.756 108.78V104.04C83.756 103.83 83.586 103.65 83.366 103.65C83.156 103.65 82.986 103.83 82.986 104.04V110.66Z" fill="#CF87FF"/>
</svg>
