<svg width="50" height="50" viewBox="0 0 50 50" fill="none" xmlns="http://www.w3.org/2000/svg">
<circle cx="25" cy="25" r="25" fill="white"/>
<path d="M22.584 16.112C22.584 17.168 23.472 17.84 24.624 17.84C25.776 17.84 26.664 17.168 26.664 16.112V16.064C26.664 15.008 25.776 14.36 24.624 14.36C23.472 14.36 22.584 15.008 22.584 16.064V16.112ZM22.8 30.32C22.8 31.328 23.616 32.144 24.624 32.144C25.632 32.144 26.448 31.328 26.448 30.32V20.816C26.448 19.808 25.632 18.992 24.624 18.992C23.616 18.992 22.8 19.808 22.8 20.816V30.32Z" fill="black"/>
</svg>
