<svg width="800" height="360" viewBox="0 0 800 360" fill="none" xmlns="http://www.w3.org/2000/svg">
<g clip-path="url(#clip0_176_19)">
<rect width="800" height="360" fill="#DADADA"/>
<path opacity="0.8" d="M525.613 180.87L648.23 109.984C648.23 109.984 654.205 110.974 660.76 125.74C667.314 140.506 663.036 146.596 663.036 146.596L525.613 180.87Z" fill="#DE6147"/>
<path opacity="0.8" d="M518.674 182.913L661.679 227.836C661.679 227.836 663.202 234.651 657.551 247.129C651.9 259.606 644.983 263.626 644.983 263.626L518.674 182.913Z" fill="#4BA8D1"/>
<path opacity="0.8" d="M519.851 185.656L682.579 349.131C682.579 349.131 680.897 358.843 666.783 370.308C652.67 381.774 641.462 381.654 641.462 381.654L519.851 185.656Z" fill="#116280"/>
<path opacity="0.8" d="M516.776 179.808L644.252 -22.5821C644.252 -22.5821 655.031 -22.5427 671.183 -9.60741C687.335 3.32788 690.375 15.2619 690.375 15.2619L516.776 179.808Z" fill="#9B1E29"/>
<path opacity="0.8" d="M519.097 182.036L386.254 259.234C386.254 259.234 377.281 253.131 373.527 243.301C369.773 233.47 370.965 222.821 370.965 222.821L519.097 182.036Z" fill="#358777"/>
<path opacity="0.8" d="M515.184 184.994L428 380.5C428 380.5 413.627 381.89 402 375C390.373 368.11 379.184 356.165 379.184 356.165L515.184 184.994Z" fill="#589269"/>
<path opacity="0.8" d="M513.97 182.385L367.054 143.978C367.054 143.978 366.163 131.986 370.185 122.994C374.206 114.003 381.926 107.393 381.926 107.393L513.97 182.385Z" fill="#F2ED71"/>
<path opacity="0.8" d="M516.668 178.359L524.367 55.2324C524.367 55.2324 534.251 53.1997 541.31 54.1883C548.37 55.1769 556.094 61.4615 556.094 61.4615L516.668 178.359Z" fill="#949391"/>
<path opacity="0.8" d="M515.792 184.121L432.344 1.73553C432.344 1.73553 447.84 -6.02711 459.063 -9.98254C470.287 -13.938 486.478 -10.9161 486.478 -10.9161L515.792 184.121Z" fill="#333333"/>
<path opacity="0.8" d="M517.276 184.135L322.052 24.4116C322.052 24.4116 328.148 13.6891 333.441 7.20404C338.733 0.71901 344.5 -3.86712 344.5 -3.86712L517.276 184.135Z" fill="#F2B05B"/>
<circle cx="513.702" cy="179.998" r="70.5" transform="rotate(22.5 513.702 179.998)" fill="#EEEEEE" stroke="#363636" stroke-width="6" stroke-dasharray="55.37 55.37"/>
<path d="M449.995 198.375L272.995 198.375L199.995 324.961V358.961H135.495V324.961L98.9952 158.961L212.495 158.961L449.995 158.961V198.375Z" fill="#EEEEEE"/>
<path opacity="0.9" d="M209.995 158.961L267.495 -0.0387268H66.8672L31.9951 158.961H209.995Z" fill="#333333"/>
<path d="M70.4952 -0.0387268L-9.50476 364.961L-9.50476 -0.0387268H70.4952Z" fill="#333333"/>
<path d="M-15.596 291.417L37.0913 385.961L-42.9999 345.002L-15.596 291.417Z" fill="#333333"/>
<rect x="47.4951" y="353.961" width="15" height="15" transform="rotate(-180 47.4951 353.961)" fill="#4BA8D1"/>
<rect x="64.4951" y="353.961" width="15" height="15" transform="rotate(-180 64.4951 353.961)" fill="#DE6147"/>
<rect x="81.4951" y="353.961" width="15" height="15" transform="rotate(-180 81.4951 353.961)" fill="#116280"/>
<rect x="98.4951" y="353.961" width="15" height="15" transform="rotate(-180 98.4951 353.961)" fill="#F2B05B"/>
<rect x="115.495" y="353.961" width="15" height="15" transform="rotate(-180 115.495 353.961)" fill="#599253"/>
<rect x="132.495" y="353.961" width="15" height="15" transform="rotate(-180 132.495 353.961)" fill="#9B1E29"/>
<rect x="29.9702" y="338.415" width="14" height="14" transform="rotate(149.9 29.9702 338.415)" fill="#DFDB71" stroke="#E6E6E6"/>
<rect x="22.4951" y="324.439" width="15" height="15" transform="rotate(149.9 22.4951 324.439)" fill="#358777"/>
</g>
<defs>
<clipPath id="clip0_176_19">
<rect width="800" height="360" fill="white"/>
</clipPath>
</defs>
</svg>
