<svg width="20" height="20" viewBox="0 0 20 20" fill="none" xmlns="http://www.w3.org/2000/svg">
<circle cx="10" cy="10" r="10" fill="#E3E5E9"/>
<path d="M10.036 11.216C10.384 11.216 10.636 10.94 10.684 10.628L10.72 10.412C12.028 10.148 13.084 9.524 13.084 8V7.976C13.084 6.38 11.908 5.492 10.18 5.492C9.124 5.492 8.32 5.828 7.684 6.356C7.468 6.536 7.372 6.776 7.372 7.004C7.372 7.46 7.756 7.844 8.212 7.844C8.416 7.844 8.608 7.76 8.752 7.652C9.184 7.328 9.628 7.172 10.144 7.172C10.84 7.172 11.248 7.484 11.248 8.024V8.048C11.248 8.636 10.768 8.96 9.724 9.092C9.34 9.14 9.112 9.416 9.172 9.812L9.292 10.628C9.34 10.952 9.592 11.216 9.94 11.216H10.036ZM8.896 13.028V13.052C8.896 13.628 9.34 14.072 9.94 14.072C10.54 14.072 10.984 13.628 10.984 13.052V13.028C10.984 12.452 10.54 12.008 9.94 12.008C9.34 12.008 8.896 12.452 8.896 13.028Z" fill="#141414"/>
</svg>
