<svg width="50" height="50" viewBox="0 0 50 50" fill="none" xmlns="http://www.w3.org/2000/svg">
<circle cx="25" cy="25" r="25" fill="white"/>
<path d="M22.584 18.112C22.584 19.168 23.472 19.84 24.624 19.84C25.776 19.84 26.664 19.168 26.664 18.112V18.064C26.664 17.008 25.776 16.36 24.624 16.36C23.472 16.36 22.584 17.008 22.584 18.064V18.112ZM22.8 32.32C22.8 33.328 23.616 34.144 24.624 34.144C25.632 34.144 26.448 33.328 26.448 32.32V22.816C26.448 21.808 25.632 20.992 24.624 20.992C23.616 20.992 22.8 21.808 22.8 22.816V32.32Z" fill="black"/>
</svg>
