<svg width="22" height="22" viewBox="0 0 22 22" fill="none" xmlns="http://www.w3.org/2000/svg">
<circle cx="11" cy="11" r="11" fill="#E3E5E9"/>
<path d="M8.85714 17.3C8.85714 17.685 9.17857 18 9.57143 18H12.4286C12.8214 18 13.1429 17.685 13.1429 17.3V16.6H8.85714V17.3ZM11 4C8.24286 4 6 6.198 6 8.9C6 10.566 6.85 12.029 8.14286 12.918V14.5C8.14286 14.885 8.46429 15.2 8.85714 15.2H13.1429C13.5357 15.2 13.8571 14.885 13.8571 14.5V12.918C15.15 12.029 16 10.566 16 8.9C16 6.198 13.7571 4 11 4ZM13.0357 11.77L12.4286 12.19V13.8H9.57143V12.19L8.96429 11.77C8 11.112 7.42857 10.041 7.42857 8.9C7.42857 6.968 9.02857 5.4 11 5.4C12.9714 5.4 14.5714 6.968 14.5714 8.9C14.5714 10.041 14 11.112 13.0357 11.77Z" fill="#595959" stroke="#595959" stroke-width="0.7"/>
</svg>
