<svg width="220" height="124" viewBox="0 0 220 124" fill="none" xmlns="http://www.w3.org/2000/svg">
<path d="M2.4577 11.9965C2.08499 11.9896 1.76343 11.9838 1.49512 11.9789L1.49512 1.96127L218.495 1.96127L218.495 122.961H210.289L198.969 74.235L198.964 74.2129L198.958 74.191C194.96 59.9481 191.577 48.045 188.504 39.0141C186.968 34.498 185.501 30.6771 184.064 27.6287C182.635 24.5972 181.201 22.2528 179.702 20.7542C179.354 20.4063 178.823 20.1777 178.323 20.0067C177.778 19.8206 177.091 19.6462 176.286 19.4801C174.674 19.1472 172.5 18.829 169.861 18.5236C164.577 17.9121 157.347 17.3424 148.846 16.8148C131.839 15.7591 109.687 14.8681 87.7153 14.1493C65.742 13.4304 43.9415 12.8834 27.6348 12.5162C19.4814 12.3326 12.7011 12.1939 7.95901 12.1011C5.588 12.0547 3.72652 12.0198 2.4577 11.9965Z" fill="#913A32" stroke="white" stroke-width="2"/>
</svg>
